{"accessors":[{"bufferView":0,"byteOffset":0,"componentType":5121,"count":948,"max":[173.0],"min":[0.0],"type":"SCALAR"},{"bufferView":1,"byteOffset":0,"componentType":5126,"count":174,"max":[1.0,0.47294533252716064,1.0],"min":[-1.0,-0.8029724955558777,-1.0],"type":"VEC3"},{"bufferView":2,"byteOffset":0,"componentType":5126,"count":174,"max":[0.024512888863682747,0.5251649022102356,0.024274397641420364],"min":[-0.024035809561610222,0.010316623374819756,-0.024274300783872604],"type":"VEC3"},{"bufferView":3,"byteOffset":0,"componentType":5126,"count":174,"max":[0.0,1.0],"min":[0.0,0.9999999403953552],"type":"VEC2"},{"bufferView":4,"byteOffset":0,"componentType":5121,"count":96,"max":[33.0],"min":[0.0],"type":"SCALAR"},{"bufferView":5,"byteOffset":0,"componentType":5126,"count":34,"max":[1.0,0.0,1.0],"min":[-1.0,0.0,-1.0],"type":"VEC3"},{"bufferView":6,"byteOffset":0,"componentType":5126,"count":34,"max":[0.025460051372647285,0.4923884868621826,0.02522154524922371],"min":[-0.024982938542962074,0.10471425950527191,-0.02522144839167595],"type":"VEC3"},{"bufferView":7,"byteOffset":0,"componentType":5126,"count":34,"max":[0.5210946798324585,0.8752579092979431],"min":[0.41964614391326904,0.18251538276672363],"type":"VEC2"},{"bufferView":8,"byteOffset":0,"componentType":5121,"count":1380,"max":[238.0],"min":[0.0],"type":"SCALAR"},{"bufferView":9,"byteOffset":0,"componentType":5126,"count":239,"max":[0.9976500868797302,0.9999992847442627,0.9976500868797302],"min":[-0.9976500868797302,-1.0,-0.9976500868797302],"type":"VEC3"},{"bufferView":10,"byteOffset":0,"componentType":5126,"count":239,"max":[0.0898931547999382,0.6918378472328186,0.09009289741516113],"min":[-0.0902925655245781,0.49998682737350464,-0.09009283035993576],"type":"VEC3"},{"bufferView":11,"byteOffset":0,"componentType":5126,"count":239,"max":[0.0,1.0000001192092896],"min":[0.0,0.9999999403953552],"type":"VEC2"}],"asset":{"extras":{"created":"Sun Jun 19 08:25:35 2022"},"generator":"Gestaltor 2022.1.1 Bavette Professional","version":"2.0"},"bufferViews":[{"buffer":0,"byteLength":948,"byteOffset":0},{"buffer":0,"byteLength":2088,"byteOffset":948},{"buffer":0,"byteLength":2088,"byteOffset":3036},{"buffer":0,"byteLength":1392,"byteOffset":5124},{"buffer":0,"byteLength":96,"byteOffset":6516},{"buffer":0,"byteLength":408,"byteOffset":6612},{"buffer":0,"byteLength":408,"byteOffset":7020},{"buffer":0,"byteLength":272,"byteOffset":7428},{"buffer":0,"byteLength":1380,"byteOffset":7700},{"buffer":0,"byteLength":2868,"byteOffset":9080},{"buffer":0,"byteLength":2868,"byteOffset":11948},{"buffer":0,"byteLength":1912,"byteOffset":14816},{"buffer":1,"byteLength":22396,"byteOffset":0}],"buffers":[{"byteLength":16728,"uri":"pipette_bleu_minifieda.bin"},{"byteLength":22396,"uri":"data:application/octet-stream;base64,"}],"images":[{"bufferView":12,"mimeType":"image/png","name":"dropper_logo"}],"materials":[{"alphaMode":"BLEND","doubleSided":true,"name":"Glass","pbrMetallicRoughness":{}},{"alphaCutoff":0.5,"alphaMode":"MASK","doubleSided":true,"name":"cc_dropper","pbrMetallicRoughness":{"baseColorTexture":{"index":0},"metallicFactor":0.0,"roughnessFactor":0.5}},{"doubleSided":true,"name":"pvc","pbrMetallicRoughness":{"baseColorFactor":[0.0,0.14126336574554443,0.5209956169128418,1.0],"metallicFactor":0.0,"roughnessFactor":0.13809524476528168}}],"meshes":[{"name":"Circle.000","primitives":[{"attributes":{"NORMAL":1,"POSITION":2,"TEXCOORD_0":3},"indices":0,"material":0,"mode":4},{"attributes":{"NORMAL":5,"POSITION":6,"TEXCOORD_0":7},"indices":4,"material":1,"mode":4},{"attributes":{"NORMAL":9,"POSITION":10,"TEXCOORD_0":11},"indices":8,"material":2,"mode":4}]}],"nodes":[{"name":"_base"},{"mesh":0,"name":"Dropper_1","rotation":[0.0,-0.992096483707428,0.0,-0.12547725439071655],"scale":[0.3510262966156006,0.5908718109130859,0.3510262966156006]}],"samplers":[{"magFilter":9729,"minFilter":9987}],"scene":0,"scenes":[{"name":"Scene","nodes":[0,1]}],"textures":[{"sampler":0,"source":0}]}