{
  "accessors": [
    {
      "bufferView": 2,
      "componentType": 5126,
      "count": 2996,
      "max": [
        1.4764800071716309,
        0.6461619734764099,
        3.4173049926757813
      ],
      "min": [
        -1.47816002368927,
        -2.17757511138916,
        -0.302962988615036
      ],
      "type": "VEC3"
    },
    {
      "bufferView": 2,
      "byteOffset": 35952,
      "componentType": 5126,
      "count": 2996,
      "max": [
        1.0,
        1.0,
        1.0
      ],
      "min": [
        -1.0,
        -1.0,
        -1.0
      ],
      "type": "VEC3"
    },
    {
      "bufferView": 1,
      "componentType": 5126,
      "count": 2996,
      "max": [
        1.0,
        1.0
      ],
      "min": [
        0.0,
        -0.20836800336837769
      ],
      "type": "VEC2"
    },
    {
      "bufferView": 0,
      "componentType": 5125,
      "count": 9132,
      "type": "SCALAR"
    },
    {
      "bufferView": 2,
      "byteOffset": 71904,
      "componentType": 5126,
      "count": 1012,
      "max": [
        1.3499000072479248,
        0.7334570288658142,
        1.0945390462875366
      ],
      "min": [
        -1.349830985069275,
        -2.5035550594329834,
        0.13813699781894684
      ],
      "type": "VEC3"
    },
    {
      "bufferView": 2,
      "byteOffset": 84048,
      "componentType": 5126,
      "count": 1012,
      "max": [
        1.0,
        1.0,
        0.962148904800415
      ],
      "min": [
        -1.0,
        -1.0,
        -0.9642960429191589
      ],
      "type": "VEC3"
    },
    {
      "bufferView": 1,
      "byteOffset": 23968,
      "componentType": 5126,
      "count": 1012,
      "max": [
        1.0,
        1.0
      ],
      "min": [
        0.0,
        0.0
      ],
      "type": "VEC2"
    },
    {
      "bufferView": 0,
      "byteOffset": 36528,
      "componentType": 5125,
      "count": 4560,
      "type": "SCALAR"
    },
    {
      "bufferView": 2,
      "byteOffset": 96192,
      "componentType": 5126,
      "count": 440,
      "max": [
        1.22052800655365,
        0.5365139842033386,
        1.4027199745178223
      ],
      "min": [
        -1.2093830108642578,
        -1.9403820037841797,
        0.88754802942276
      ],
      "type": "VEC3"
    },
    {
      "bufferView": 2,
      "byteOffset": 101472,
      "componentType": 5126,
      "count": 440,
      "max": [
        0.33941346406936646,
        1.0,
        0.33941346406936646
      ],
      "min": [
        -0.33941346406936646,
        -1.0,
        -0.33941346406936646
      ],
      "type": "VEC3"
    },
    {
      "bufferView": 1,
      "byteOffset": 32064,
      "componentType": 5126,
      "count": 440,
      "max": [
        1.0,
        0.08781400322914124
      ],
      "min": [
        0.0,
        0.057050999253988266
      ],
      "type": "VEC2"
    },
    {
      "bufferView": 0,
      "byteOffset": 54768,
      "componentType": 5125,
      "count": 1296,
      "type": "SCALAR"
    },
    {
      "bufferView": 2,
      "byteOffset": 106752,
      "componentType": 5126,
      "count": 1184,
      "max": [
        1.411041021347046,
        0.7735840082168579,
        0.7735840082168579
      ],
      "min": [
        -1.423807978630066,
        -2.529172897338867,
        -0.7735840082168579
      ],
      "type": "VEC3"
    },
    {
      "bufferView": 2,
      "byteOffset": 120960,
      "componentType": 5126,
      "count": 1184,
      "max": [
        0.9802239537239075,
        0.8761124610900879,
        0.8761124610900879
      ],
      "min": [
        -0.9802239537239075,
        -0.8761124610900879,
        -0.8761124610900879
      ],
      "type": "VEC3"
    },
    {
      "bufferView": 1,
      "byteOffset": 35584,
      "componentType": 5126,
      "count": 1184,
      "max": [
        1.0,
        0.15468500554561615
      ],
      "min": [
        0.0,
        -0.15468500554561615
      ],
      "type": "VEC2"
    },
    {
      "bufferView": 0,
      "byteOffset": 59952,
      "componentType": 5125,
      "count": 6912,
      "type": "SCALAR"
    }
  ],
  "asset": {
    "extras": {
      "author": "dudecon (https://sketchfab.com/dudecon)",
      "license": "CC-BY-SA-4.0 (http://creativecommons.org/licenses/by-sa/4.0/)",
      "source": "https://sketchfab.com/3d-models/powered-wheelchair-7435f8558e3d472fbf6973e20b76567c",
      "title": "Powered Wheelchair"
    },
    "generator": "Sketchfab-12.68.0",
    "version": "2.0"
  },
  "bufferViews": [
    {
      "buffer": 0,
      "byteLength": 87600,
      "name": "floatBufferViews",
      "target": 34963
    },
    {
      "buffer": 0,
      "byteLength": 45056,
      "byteOffset": 87600,
      "byteStride": 8,
      "name": "floatBufferViews",
      "target": 34962
    },
    {
      "buffer": 0,
      "byteLength": 135168,
      "byteOffset": 132656,
      "byteStride": 12,
      "name": "floatBufferViews",
      "target": 34962
    }
  ],
  "buffers": [
    {
      "byteLength": 267824,
      "uri": "scene.bin"
    }
  ],
  "materials": [
    {
      "doubleSided": true,
      "name": "Black_Color",
      "pbrMetallicRoughness": {
        "baseColorFactor": [
          0.027606939338488443,
          0.027606939338488443,
          0.027606939338488443,
          1.0
        ],
        "metallicFactor": 0.0,
        "roughnessFactor": 0.44968208566213747
      }
    },
    {
      "doubleSided": true,
      "name": "Frame_Color",
      "pbrMetallicRoughness": {
        "baseColorFactor": [
          0.8546720529561295,
          0.031705862528087755,
          0.031705862528087755,
          1.0
        ],
        "metallicFactor": 0.2655957368921411,
        "roughnessFactor": 0.21650604388680875
      }
    },
    {
      "doubleSided": true,
      "emissiveFactor": [
        1.0,
        1.0,
        1.0
      ],
      "name": "Headlamps",
      "pbrMetallicRoughness": {
        "metallicFactor": 0.0,
        "roughnessFactor": 0.6
      }
    },
    {
      "doubleSided": true,
      "name": "Tire_Color",
      "pbrMetallicRoughness": {
        "baseColorFactor": [
          0.2855180324876753,
          0.2672698815820378,
          0.1914722060610702,
          1.0
        ],
        "metallicFactor": 0.0,
        "roughnessFactor": 0.6
      }
    }
  ],
  "meshes": [
    {
      "name": "Object_0",
      "primitives": [
        {
          "attributes": {
            "NORMAL": 1,
            "POSITION": 0,
            "TEXCOORD_0": 2
          },
          "indices": 3,
          "material": 0,
          "mode": 4
        }
      ]
    },
    {
      "name": "Object_1",
      "primitives": [
        {
          "attributes": {
            "NORMAL": 5,
            "POSITION": 4,
            "TEXCOORD_0": 6
          },
          "indices": 7,
          "material": 1,
          "mode": 4
        }
      ]
    },
    {
      "name": "Object_2",
      "primitives": [
        {
          "attributes": {
            "NORMAL": 9,
            "POSITION": 8,
            "TEXCOORD_0": 10
          },
          "indices": 11,
          "material": 2,
          "mode": 4
        }
      ]
    },
    {
      "name": "Object_3",
      "primitives": [
        {
          "attributes": {
            "NORMAL": 13,
            "POSITION": 12,
            "TEXCOORD_0": 14
          },
          "indices": 15,
          "material": 3,
          "mode": 4
        }
      ]
    }
  ],
  "nodes": [
    {
      "children": [
        1
      ],
      "matrix": [
        0.25,
        0.0,
        0.0,
        0.0,
        0.0,
        5.551115123125783e-17,
        -0.25,
        0.0,
        0.0,
        0.25,
        5.551115123125783e-17,
        0.0,
        0.0,
        0.0,
        0.0,
        1.0
      ],
      "name": "Sketchfab_model"
    },
    {
      "children": [
        2,
        3,
        4,
        5
      ],
      "name": "Wheelchair Model Shorter Armrest.obj.cleaner.materialmerger.gles"
    },
    {
      "mesh": 0,
      "name": "Object_2"
    },
    {
      "mesh": 1,
      "name": "Object_3"
    },
    {
      "mesh": 2,
      "name": "Object_4"
    },
    {
      "mesh": 3,
      "name": "Object_5"
    }
  ],
  "scene": 0,
  "scenes": [
    {
      "name": "Sketchfab_Scene",
      "nodes": [
        0
      ]
    }
  ]
}
