{
    "asset" : {
        "generator" : "Khronos glTF Blender I/O v1.6.16",
        "version" : "2.0"
    },
    "scene" : 0,
    "scenes" : [
        {
            "name" : "Scene",
            "nodes" : [
                0,
                1,
                2
            ]
        }
    ],
    "nodes" : [
        {
            "mesh" : 0,
            "name" : "root",
            "rotation" : [
                0.7113273739814758,
                0,
                0,
                0.702860951423645
            ],
            "translation" : [
                -1.4672033786773682,
                0,
                -1.5916438102722168
            ]
        },
        {
            "name" : "Light",
            "rotation" : [
                0.16907575726509094,
                0.7558803558349609,
                -0.27217137813568115,
                0.570947527885437
            ],
            "translation" : [
                4.076245307922363,
                5.903861999511719,
                -1.0054539442062378
            ]
        },
        {
            "name" : "Camera",
            "rotation" : [
                0.483536034822464,
                0.33687159419059753,
                -0.20870360732078552,
                0.7804827094078064
            ],
            "translation" : [
                7.358891487121582,
                4.958309173583984,
                6.925790786743164
            ]
        }
    ],
    "materials" : [
        {
            "alphaMode" : "BLEND",
            "doubleSided" : true,
            "name" : "Color_I04",
            "pbrMetallicRoughness" : {}
        }
    ],
    "meshes" : [
        {
            "name" : "Mesh_0",
            "primitives" : [
                {
                    "attributes" : {
                        "POSITION" : 0,
                        "NORMAL" : 1
                    },
                    "indices" : 2,
                    "material" : 0
                }
            ]
        }
    ],
    "accessors" : [
        {
            "bufferView" : 0,
            "componentType" : 5126,
            "count" : 1924,
            "max" : [
                3.316444158554077,
                3.1253271102905273,
                2.2523339280386813e-16
            ],
            "min" : [
                9.119265765631756e-16,
                -2.279816441407939e-16,
                -3.88041353225708
            ],
            "type" : "VEC3"
        },
        {
            "bufferView" : 1,
            "componentType" : 5126,
            "count" : 1924,
            "type" : "VEC3"
        },
        {
            "bufferView" : 2,
            "componentType" : 5123,
            "count" : 10212,
            "type" : "SCALAR"
        }
    ],
    "bufferViews" : [
        {
            "buffer" : 0,
            "byteLength" : 23088,
            "byteOffset" : 0
        },
        {
            "buffer" : 0,
            "byteLength" : 23088,
            "byteOffset" : 23088
        },
        {
            "buffer" : 0,
            "byteLength" : 20424,
            "byteOffset" : 46176
        }
    ],
    "buffers" : [
        {
            "byteLength" : 66600,
            "uri" : "data:application/octet-stream;base64,"
        }
    ]
}
