{
    "asset" : {
        "generator" : "Khronos glTF Blender I/O v1.6.16",
        "version" : "2.0"
    },
    "scene" : 0,
    "scenes" : [
        {
            "name" : "High poly test tube labeled.001",
            "nodes" : [
                0
            ]
        }
    ],
    "nodes" : [
        {
            "mesh" : 0,
            "name" : "test_tube01",
            "rotation" : [
                0.7071068286895752,
                0,
                0,
                0.7071067094802856
            ],
            "scale" : [
                0.0044999998062849045,
                0.0044999998062849045,
                0.0044999998062849045
            ]
        }
    ],
    "materials" : [
        {
            "alphaMode" : "BLEND",
            "doubleSided" : true,
            "name" : "thin_glass",
            "normalTexture" : {
                "index" : 0
            },
            "pbrMetallicRoughness" : {
                "baseColorTexture" : {
                    "index" : 1
                },
                "metallicFactor" : 0,
                "roughnessFactor" : 0.5
            }
        },
        {
            "doubleSided" : true,
            "name" : "cock",
            "pbrMetallicRoughness" : {
                "baseColorFactor" : [
                    0.00017578122788108885,
                    0.05455675721168518,
                    0.4278004765510559,
                    1
                ],
                "metallicFactor" : 0,
                "roughnessFactor" : 0.13809524476528168
            }
        }
    ],
    "meshes" : [
        {
            "name" : "test_tube01",
            "primitives" : [
                {
                    "attributes" : {
                        "POSITION" : 0,
                        "NORMAL" : 1,
                        "TEXCOORD_0" : 2
                    },
                    "indices" : 3,
                    "material" : 0
                },
                {
                    "attributes" : {
                        "POSITION" : 4,
                        "NORMAL" : 5,
                        "TEXCOORD_0" : 6
                    },
                    "indices" : 7,
                    "material" : 1
                }
            ]
        }
    ],
    "textures" : [
        {
            "sampler" : 0,
            "source" : 0
        },
        {
            "sampler" : 0,
            "source" : 0
        }
    ],
    "images" : [
        {
            "bufferView" : 4,
            "mimeType" : "image/png",
            "name" : "test_tube2uv"
        }
    ],
    "accessors" : [
        {
            "bufferView" : 0,
            "componentType" : 5126,
            "count" : 4005,
            "max" : [
                6.735300064086914,
                6.735300064086914,
                -2.84689998626709
            ],
            "min" : [
                -6.735300064086914,
                -6.735300064086914,
                -95.947998046875
            ],
            "type" : "VEC3"
        },
        {
            "bufferView" : 1,
            "componentType" : 5126,
            "count" : 4005,
            "type" : "VEC3"
        },
        {
            "bufferView" : 2,
            "componentType" : 5126,
            "count" : 4005,
            "type" : "VEC2"
        },
        {
            "bufferView" : 3,
            "componentType" : 5123,
            "count" : 22752,
            "type" : "SCALAR"
        },
        {
            "bufferView" : 5,
            "componentType" : 5126,
            "count" : 1054,
            "max" : [
                5.849699974060059,
                5.849699974060059,
                -90.30919647216797
            ],
            "min" : [
                -5.849699974060059,
                -5.849699974060059,
                -104.6707992553711
            ],
            "type" : "VEC3"
        },
        {
            "bufferView" : 6,
            "componentType" : 5126,
            "count" : 1054,
            "type" : "VEC3"
        },
        {
            "bufferView" : 7,
            "componentType" : 5126,
            "count" : 1054,
            "type" : "VEC2"
        },
        {
            "bufferView" : 8,
            "componentType" : 5123,
            "count" : 5472,
            "type" : "SCALAR"
        }
    ],
    "bufferViews" : [
        {
            "buffer" : 0,
            "byteLength" : 48060,
            "byteOffset" : 0
        },
        {
            "buffer" : 0,
            "byteLength" : 48060,
            "byteOffset" : 48060
        },
        {
            "buffer" : 0,
            "byteLength" : 32040,
            "byteOffset" : 96120
        },
        {
            "buffer" : 0,
            "byteLength" : 45504,
            "byteOffset" : 128160
        },
        {
            "buffer" : 0,
            "byteLength" : 15331,
            "byteOffset" : 173664
        },
        {
            "buffer" : 0,
            "byteLength" : 12648,
            "byteOffset" : 188996
        },
        {
            "buffer" : 0,
            "byteLength" : 12648,
            "byteOffset" : 201644
        },
        {
            "buffer" : 0,
            "byteLength" : 8432,
            "byteOffset" : 214292
        },
        {
            "buffer" : 0,
            "byteLength" : 10944,
            "byteOffset" : 222724
        }
    ],
    "samplers" : [
        {
            "magFilter" : 9729,
            "minFilter" : 9987
        }
    ],
    "buffers" : [
        {
            "byteLength" : 233668,
            "uri" : "data:application/octet-stream;base64,"
        }
    ]
}
