{
    "asset" : {
        "generator" : "Khronos glTF Blender I/O v1.6.16",
        "version" : "2.0"
    },
    "scene" : 0,
    "scenes" : [
        {
            "name" : "Scene",
            "nodes" : [
                0
            ]
        }
    ],
    "nodes" : [
        {
            "mesh" : 0,
            "name" : "potion",
            "translation" : [
                -5.341292853699997e-05,
                3.2397615909576416,
                -6.0006444982718676e-05
            ]
        }
    ],
    "materials" : [
        {
            "alphaCutoff" : 0.5,
            "alphaMode" : "MASK",
            "doubleSided" : true,
            "name" : "Glass",
            "pbrMetallicRoughness" : {}
        }
    ],
    "meshes" : [
        {
            "name" : "Cylinder.006",
            "primitives" : [
                {
                    "attributes" : {
                        "POSITION" : 0,
                        "NORMAL" : 1,
                        "TEXCOORD_0" : 2
                    },
                    "indices" : 3,
                    "material" : 0
                }
            ]
        }
    ],
    "accessors" : [
        {
            "bufferView" : 0,
            "componentType" : 5126,
            "count" : 2590,
            "max" : [
                2.003791093826294,
                2.5379416942596436,
                2.0039265155792236
            ],
            "min" : [
                -2.0043716430664062,
                -3.2171695232391357,
                -2.0042359828948975
            ],
            "type" : "VEC3"
        },
        {
            "bufferView" : 1,
            "componentType" : 5126,
            "count" : 2590,
            "type" : "VEC3"
        },
        {
            "bufferView" : 2,
            "componentType" : 5126,
            "count" : 2590,
            "type" : "VEC2"
        },
        {
            "bufferView" : 3,
            "componentType" : 5123,
            "count" : 11316,
            "type" : "SCALAR"
        }
    ],
    "bufferViews" : [
        {
            "buffer" : 0,
            "byteLength" : 31080,
            "byteOffset" : 0
        },
        {
            "buffer" : 0,
            "byteLength" : 31080,
            "byteOffset" : 31080
        },
        {
            "buffer" : 0,
            "byteLength" : 20720,
            "byteOffset" : 62160
        },
        {
            "buffer" : 0,
            "byteLength" : 22632,
            "byteOffset" : 82880
        }
    ],
    "buffers" : [
        {
            "byteLength" : 105512,
            "uri" : "data:application/octet-stream;base64,"
        }
    ]
}
