{
    "asset" : {
        "generator" : "Khronos glTF Blender I/O v1.6.16",
        "version" : "2.0"
    },
    "scene" : 0,
    "scenes" : [
        {
            "name" : "Scene",
            "nodes" : [
                2
            ]
        }
    ],
    "nodes" : [
        {
            "name" : "_base"
        },
        {
            "mesh" : 0,
            "name" : "thermometer",
            "rotation" : [
                0,
                0.7300295829772949,
                0,
                0.6834155321121216
            ],
            "scale" : [
                0.5334241390228271,
                0.5334240198135376,
                0.5334241390228271
            ]
        },
        {
            "children" : [
                0,
                1
            ],
            "name" : "_base.001"
        }
    ],
    "materials" : [
        {
            "alphaMode" : "BLEND",
            "doubleSided" : true,
            "name" : "thin_glass.007",
            "pbrMetallicRoughness" : {}
        },
        {
            "alphaCutoff" : 0.5,
            "alphaMode" : "MASK",
            "doubleSided" : true,
            "name" : "scale",
            "pbrMetallicRoughness" : {
                "baseColorTexture" : {
                    "index" : 0
                },
                "metallicFactor" : 0,
                "roughnessFactor" : 0.5
            }
        },
        {
            "alphaMode" : "BLEND",
            "doubleSided" : true,
            "name" : "thin_Glass&Liquid",
            "pbrMetallicRoughness" : {
                "baseColorFactor" : [
                    0.5839999914169312,
                    0.0006263928371481597,
                    0,
                    1
                ],
                "roughnessFactor" : 0
            }
        }
    ],
    "meshes" : [
        {
            "name" : "Circle.006",
            "primitives" : [
                {
                    "attributes" : {
                        "POSITION" : 0,
                        "NORMAL" : 1,
                        "TEXCOORD_0" : 2
                    },
                    "indices" : 3,
                    "material" : 0
                },
                {
                    "attributes" : {
                        "POSITION" : 4,
                        "NORMAL" : 5,
                        "TEXCOORD_0" : 6
                    },
                    "indices" : 7,
                    "material" : 1
                },
                {
                    "attributes" : {
                        "POSITION" : 8,
                        "NORMAL" : 9,
                        "TEXCOORD_0" : 10
                    },
                    "indices" : 11,
                    "material" : 2
                }
            ]
        }
    ],
    "textures" : [
        {
            "sampler" : 0,
            "source" : 0
        }
    ],
    "images" : [
        {
            "bufferView" : 8,
            "mimeType" : "image/png",
            "name" : "thermometer"
        }
    ],
    "accessors" : [
        {
            "bufferView" : 0,
            "componentType" : 5126,
            "count" : 192,
            "max" : [
                0.016618840396404266,
                1.2194054126739502,
                0.016617584973573685
            ],
            "min" : [
                -0.01661689020693302,
                0,
                -0.016618065536022186
            ],
            "type" : "VEC3"
        },
        {
            "bufferView" : 1,
            "componentType" : 5126,
            "count" : 192,
            "type" : "VEC3"
        },
        {
            "bufferView" : 2,
            "componentType" : 5126,
            "count" : 192,
            "type" : "VEC2"
        },
        {
            "bufferView" : 3,
            "componentType" : 5123,
            "count" : 1140,
            "type" : "SCALAR"
        },
        {
            "bufferView" : 4,
            "componentType" : 5126,
            "count" : 34,
            "max" : [
                0.016838395968079567,
                1.198768973350525,
                0.0168372243642807
            ],
            "min" : [
                -0.016836494207382202,
                0.08055555820465088,
                -0.016837745904922485
            ],
            "type" : "VEC3"
        },
        {
            "bufferView" : 5,
            "componentType" : 5126,
            "count" : 34,
            "type" : "VEC3"
        },
        {
            "bufferView" : 6,
            "componentType" : 5126,
            "count" : 34,
            "type" : "VEC2"
        },
        {
            "bufferView" : 7,
            "componentType" : 5123,
            "count" : 96,
            "type" : "SCALAR"
        },
        {
            "bufferView" : 9,
            "componentType" : 5126,
            "count" : 224,
            "max" : [
                0.010026664473116398,
                1.163377046585083,
                0.01002543419599533
            ],
            "min" : [
                -0.01002473197877407,
                0.0018131732940673828,
                -0.010025912895798683
            ],
            "type" : "VEC3"
        },
        {
            "bufferView" : 10,
            "componentType" : 5126,
            "count" : 224,
            "type" : "VEC3"
        },
        {
            "bufferView" : 11,
            "componentType" : 5126,
            "count" : 224,
            "type" : "VEC2"
        },
        {
            "bufferView" : 12,
            "componentType" : 5123,
            "count" : 1332,
            "type" : "SCALAR"
        }
    ],
    "bufferViews" : [
        {
            "buffer" : 0,
            "byteLength" : 2304,
            "byteOffset" : 0
        },
        {
            "buffer" : 0,
            "byteLength" : 2304,
            "byteOffset" : 2304
        },
        {
            "buffer" : 0,
            "byteLength" : 1536,
            "byteOffset" : 4608
        },
        {
            "buffer" : 0,
            "byteLength" : 2280,
            "byteOffset" : 6144
        },
        {
            "buffer" : 0,
            "byteLength" : 408,
            "byteOffset" : 8424
        },
        {
            "buffer" : 0,
            "byteLength" : 408,
            "byteOffset" : 8832
        },
        {
            "buffer" : 0,
            "byteLength" : 272,
            "byteOffset" : 9240
        },
        {
            "buffer" : 0,
            "byteLength" : 192,
            "byteOffset" : 9512
        },
        {
            "buffer" : 0,
            "byteLength" : 27375,
            "byteOffset" : 9704
        },
        {
            "buffer" : 0,
            "byteLength" : 2688,
            "byteOffset" : 37080
        },
        {
            "buffer" : 0,
            "byteLength" : 2688,
            "byteOffset" : 39768
        },
        {
            "buffer" : 0,
            "byteLength" : 1792,
            "byteOffset" : 42456
        },
        {
            "buffer" : 0,
            "byteLength" : 2664,
            "byteOffset" : 44248
        }
    ],
    "samplers" : [
        {
            "magFilter" : 9729,
            "minFilter" : 9987
        }
    ],
    "buffers" : [
        {
            "byteLength" : 46912,
            "uri" : "data:application/octet-stream;base64,"
        }
    ]
}
