{
	"accessors": [
		{
			"bufferView": 0,
			"byteOffset": 0,
			"componentType": 5126,
			"count": 276,
			"max": [
				0.4691198170185089,
				0.7619590759277344,
				0.46912023425102234
			],
			"min": [
				-0.469120591878891,
				-1.4170714616775513,
				-0.46912023425102234
			],
			"type": "VEC3"
		},
		{
			"bufferView": 1,
			"byteOffset": 0,
			"componentType": 5126,
			"count": 276,
			"type": "VEC3"
		},
		{
			"bufferView": 2,
			"byteOffset": 0,
			"componentType": 5126,
			"count": 276,
			"type": "VEC2"
		},
		{
			"bufferView": 3,
			"byteOffset": 0,
			"componentType": 5123,
			"count": 276,
			"normalized": true,
			"type": "VEC4"
		},
		{
			"bufferView": 4,
			"byteOffset": 0,
			"componentType": 5123,
			"count": 1002,
			"type": "SCALAR"
		}
	],
	"asset": {
		"extras": {
			"created": "Wed Apr 20 05:03:24 2022"
		},
		"generator": "Gestaltor 2022.1.1 Bavette Professional",
		"version": "2.0"
	},
	"bufferViews": [
		{
			"buffer": 0,
			"byteLength": 3312,
			"byteOffset": 0
		},
		{
			"buffer": 0,
			"byteLength": 3312,
			"byteOffset": 3312
		},
		{
			"buffer": 0,
			"byteLength": 2208,
			"byteOffset": 6624
		},
		{
			"buffer": 0,
			"byteLength": 2208,
			"byteOffset": 8832
		},
		{
			"buffer": 0,
			"byteLength": 2004,
			"byteOffset": 11040
		}
	],
	"buffers": [
		{
			"byteLength": 13044,
			"uri": "data:application/octet-stream;base64,"
		}
	],
	"images": [
		{
			"mimeType": "image/png",
			"name": "occlusionpaspire42",
			"uri": "data:image/png;base64,"
		}
	],
	"materials": [
		{
			"alphaMode": "BLEND",
			"doubleSided": true,
			"name": "recit_Glass",
			"pbrMetallicRoughness": {
				"baseColorTexture": {
					"index": 0
				},
				"metallicFactor": 0.0,
				"roughnessFactor": 0.5
			}
		}
	],
	"meshes": [
		{
			"name": "erlenmeyer",
			"primitives": [
				{
					"attributes": {
						"COLOR_0": 3,
						"NORMAL": 1,
						"POSITION": 0,
						"TEXCOORD_0": 2
					},
					"indices": 4,
					"material": 0,
					"mode": 4
				}
			]
		}
	],
	"nodes": [
		{
			"matrix": [
				-0.28812313216923824,
				0.0,
				0.49613598373717344,
				0.0,
				0.0,
				0.3999999761581421,
				0.0,
				0.0,
				-0.49613598373717344,
				0.0,
				-0.28812313216923824,
				0.0,
				0.0,
				0.5813229084014893,
				0.02975437603890896,
				1.0
			],
			"mesh": 0,
			"name": "erlenmeyer"
		}
	],
	"samplers": [
		{
			"magFilter": 9729,
			"minFilter": 9987
		}
	],
	"scene": 0,
	"scenes": [
		{
			"name": "Empty",
			"nodes": [
				0
			]
		}
	],
	"textures": [
		{
			"sampler": 0,
			"source": 0
		}
	]
}