{
	"accessors": [
		{
			"bufferView": 0,
			"byteOffset": 0,
			"componentType": 5126,
			"count": 1,
			"max": [
				0.041666666666666664
			],
			"min": [
				0.041666666666666664
			],
			"type": "SCALAR"
		},
		{
			"bufferView": 1,
			"byteOffset": 0,
			"componentType": 5126,
			"count": 1,
			"type": "VEC3"
		},
		{
			"bufferView": 2,
			"byteOffset": 0,
			"componentType": 5126,
			"count": 1,
			"type": "VEC4"
		},
		{
			"bufferView": 3,
			"byteOffset": 0,
			"componentType": 5126,
			"count": 40,
			"max": [
				1.6666666666666667
			],
			"min": [
				0.041666666666666664
			],
			"type": "SCALAR"
		},
		{
			"bufferView": 4,
			"byteOffset": 0,
			"componentType": 5126,
			"count": 40,
			"type": "VEC4"
		},
		{
			"bufferView": 5,
			"byteOffset": 0,
			"componentType": 5126,
			"count": 1,
			"type": "VEC3"
		},
		{
			"bufferView": 6,
			"byteOffset": 0,
			"componentType": 5126,
			"count": 1,
			"type": "VEC4"
		},
		{
			"bufferView": 7,
			"byteOffset": 0,
			"componentType": 5126,
			"count": 40,
			"type": "VEC4"
		},
		{
			"bufferView": 8,
			"byteOffset": 0,
			"componentType": 5123,
			"count": 3210,
			"max": [
				1204.0
			],
			"min": [
				0.0
			],
			"type": "SCALAR"
		},
		{
			"bufferView": 9,
			"byteOffset": 0,
			"componentType": 5126,
			"count": 1205,
			"max": [
				1.0,
				1.0,
				1.0
			],
			"min": [
				-1.0,
				-1.0,
				-1.0
			],
			"type": "VEC3"
		},
		{
			"bufferView": 10,
			"byteOffset": 0,
			"componentType": 5126,
			"count": 1205,
			"max": [
				0.44747617840766907,
				0.4568846821784973,
				0.12482964992523193
			],
			"min": [
				-0.44747617840766907,
				-0.005515220575034618,
				-0.009747854433953762
			],
			"type": "VEC3"
		},
		{
			"bufferView": 11,
			"byteOffset": 0,
			"componentType": 5126,
			"count": 1205,
			"max": [
				0.983952522277832,
				0.984588086605072
			],
			"min": [
				0.0008773594163358212,
				0.00087738037109375
			],
			"type": "VEC2"
		},
		{
			"bufferView": 12,
			"byteOffset": 0,
			"componentType": 5126,
			"count": 1205,
			"max": [
				0.983952522277832,
				0.984588086605072
			],
			"min": [
				0.0008773594163358212,
				0.00087738037109375
			],
			"type": "VEC2"
		},
		{
			"bufferView": 13,
			"byteOffset": 0,
			"componentType": 5121,
			"count": 264,
			"max": [
				83.0
			],
			"min": [
				0.0
			],
			"type": "SCALAR"
		},
		{
			"bufferView": 14,
			"byteOffset": 0,
			"componentType": 5126,
			"count": 84,
			"max": [
				0.9163413047790527,
				0.8650099039077759,
				0.8424668312072754
			],
			"min": [
				-0.9163408875465393,
				-0.646415650844574,
				-0.8588234782218933
			],
			"type": "VEC3"
		},
		{
			"bufferView": 15,
			"byteOffset": 0,
			"componentType": 5126,
			"count": 84,
			"max": [
				0.010943274945020676,
				0.016159620136022568,
				0.007029189728200436
			],
			"min": [
				-0.5251911878585815,
				-0.00022094942687544972,
				-0.06582576036453247
			],
			"type": "VEC3"
		},
		{
			"bufferView": 16,
			"byteOffset": 0,
			"componentType": 5126,
			"count": 84,
			"max": [
				0.40214067697525024,
				0.7291593551635742
			],
			"min": [
				0.2950281500816345,
				0.5950713157653809
			],
			"type": "VEC2"
		},
		{
			"bufferView": 17,
			"byteOffset": 0,
			"componentType": 5126,
			"count": 84,
			"max": [
				0.40214067697525024,
				0.7291593551635742
			],
			"min": [
				0.2950281500816345,
				0.5950713157653809
			],
			"type": "VEC2"
		},
		{
			"bufferView": 18,
			"byteOffset": 0,
			"componentType": 5123,
			"count": 1728,
			"max": [
				587.0
			],
			"min": [
				0.0
			],
			"type": "SCALAR"
		},
		{
			"bufferView": 19,
			"byteOffset": 0,
			"componentType": 5126,
			"count": 588,
			"max": [
				1.0,
				1.0,
				1.0
			],
			"min": [
				-1.0,
				-1.0,
				-1.0
			],
			"type": "VEC3"
		},
		{
			"bufferView": 20,
			"byteOffset": 0,
			"componentType": 5126,
			"count": 588,
			"max": [
				0.44747617840766907,
				0.2284524291753769,
				0.06902725249528885
			],
			"min": [
				-0.44747617840766907,
				-0.2339474856853485,
				-0.18748845160007477
			],
			"type": "VEC3"
		},
		{
			"bufferView": 21,
			"byteOffset": 0,
			"componentType": 5126,
			"count": 588,
			"max": [
				0.9358839392662048,
				0.999122679233551
			],
			"min": [
				0.0008773594163358212,
				0.00087738037109375
			],
			"type": "VEC2"
		},
		{
			"bufferView": 22,
			"byteOffset": 0,
			"componentType": 5126,
			"count": 588,
			"max": [
				0.9358839392662048,
				0.999122679233551
			],
			"min": [
				0.0008773594163358212,
				0.00087738037109375
			],
			"type": "VEC2"
		},
		{
			"bufferView": 23,
			"byteOffset": 0,
			"componentType": 5126,
			"count": 2,
			"max": [
				1.6666666269302368
			],
			"min": [
				0.0416666679084301
			],
			"type": "SCALAR"
		},
		{
			"bufferView": 24,
			"byteOffset": 0,
			"componentType": 5126,
			"count": 2,
			"max": [
				0.0,
				-0.22843226790428162,
				0.06265878677368164
			],
			"min": [
				0.0,
				-0.22843226790428162,
				0.06265878677368164
			],
			"normalized": false,
			"type": "VEC3"
		},
		{
			"bufferView": 25,
			"byteOffset": 0,
			"componentType": 5126,
			"count": 2,
			"max": [
				1.6666666269302368
			],
			"min": [
				0.0416666679084301
			],
			"type": "SCALAR"
		},
		{
			"bufferView": 26,
			"byteOffset": 0,
			"componentType": 5126,
			"count": 2,
			"max": [
				0.0,
				-0.22843226790428162,
				0.06265878677368164
			],
			"min": [
				0.0,
				-0.22843226790428162,
				0.06265878677368164
			],
			"normalized": false,
			"type": "VEC3"
		}
	],
	"animations": [
		{
			"channels": [
				{
					"sampler": 0,
					"target": {
						"node": 3,
						"path": "translation"
					}
				},
				{
					"sampler": 1,
					"target": {
						"node": 3,
						"path": "rotation"
					}
				}
			],
			"name": "ferme",
			"samplers": [
				{
					"input": 0,
					"interpolation": "STEP",
					"output": 1
				},
				{
					"input": 0,
					"interpolation": "STEP",
					"output": 2
				}
			]
		},
		{
			"channels": [
				{
					"sampler": 0,
					"target": {
						"node": 3,
						"path": "translation"
					}
				},
				{
					"sampler": 1,
					"target": {
						"node": 3,
						"path": "rotation"
					}
				}
			],
			"name": "fermer",
			"samplers": [
				{
					"input": 23,
					"interpolation": "LINEAR",
					"output": 24
				},
				{
					"input": 3,
					"interpolation": "LINEAR",
					"output": 4
				}
			]
		},
		{
			"channels": [
				{
					"sampler": 0,
					"target": {
						"node": 3,
						"path": "translation"
					}
				},
				{
					"sampler": 1,
					"target": {
						"node": 3,
						"path": "rotation"
					}
				}
			],
			"name": "ouvert",
			"samplers": [
				{
					"input": 0,
					"interpolation": "STEP",
					"output": 5
				},
				{
					"input": 0,
					"interpolation": "STEP",
					"output": 6
				}
			]
		},
		{
			"channels": [
				{
					"sampler": 0,
					"target": {
						"node": 3,
						"path": "translation"
					}
				},
				{
					"sampler": 1,
					"target": {
						"node": 3,
						"path": "rotation"
					}
				}
			],
			"name": "ouvrir",
			"samplers": [
				{
					"input": 25,
					"interpolation": "LINEAR",
					"output": 26
				},
				{
					"input": 3,
					"interpolation": "LINEAR",
					"output": 7
				}
			]
		}
	],
	"asset": {
		"extras": {
			"created": "Sun Sep 25 05:31:32 2022"
		},
		"generator": "Gestaltor 2022.2.3 Tagliatelle Professional",
		"version": "2.0"
	},
	"bufferViews": [
		{
			"buffer": 0,
			"byteLength": 4,
			"byteOffset": 0
		},
		{
			"buffer": 0,
			"byteLength": 12,
			"byteOffset": 4
		},
		{
			"buffer": 0,
			"byteLength": 16,
			"byteOffset": 16
		},
		{
			"buffer": 0,
			"byteLength": 160,
			"byteOffset": 32
		},
		{
			"buffer": 0,
			"byteLength": 640,
			"byteOffset": 192
		},
		{
			"buffer": 0,
			"byteLength": 12,
			"byteOffset": 832
		},
		{
			"buffer": 0,
			"byteLength": 16,
			"byteOffset": 844
		},
		{
			"buffer": 0,
			"byteLength": 640,
			"byteOffset": 860
		},
		{
			"buffer": 0,
			"byteLength": 6420,
			"byteOffset": 1500
		},
		{
			"buffer": 0,
			"byteLength": 14460,
			"byteOffset": 7920
		},
		{
			"buffer": 0,
			"byteLength": 14460,
			"byteOffset": 22380
		},
		{
			"buffer": 0,
			"byteLength": 9640,
			"byteOffset": 36840
		},
		{
			"buffer": 0,
			"byteLength": 9640,
			"byteOffset": 46480
		},
		{
			"buffer": 0,
			"byteLength": 264,
			"byteOffset": 56120
		},
		{
			"buffer": 0,
			"byteLength": 1008,
			"byteOffset": 56384
		},
		{
			"buffer": 0,
			"byteLength": 1008,
			"byteOffset": 57392
		},
		{
			"buffer": 0,
			"byteLength": 672,
			"byteOffset": 58400
		},
		{
			"buffer": 0,
			"byteLength": 672,
			"byteOffset": 59072
		},
		{
			"buffer": 0,
			"byteLength": 3456,
			"byteOffset": 59744
		},
		{
			"buffer": 0,
			"byteLength": 7056,
			"byteOffset": 63200
		},
		{
			"buffer": 0,
			"byteLength": 7056,
			"byteOffset": 70256
		},
		{
			"buffer": 0,
			"byteLength": 4704,
			"byteOffset": 77312
		},
		{
			"buffer": 0,
			"byteLength": 4704,
			"byteOffset": 82016
		},
		{
			"buffer": 0,
			"byteLength": 8,
			"byteOffset": 86720
		},
		{
			"buffer": 0,
			"byteLength": 24,
			"byteOffset": 86728
		},
		{
			"buffer": 0,
			"byteLength": 8,
			"byteOffset": 86752
		},
		{
			"buffer": 0,
			"byteLength": 24,
			"byteOffset": 86760
		}
	],
	"buffers": [
		{
			"byteLength": 86784,
			"uri": "data:application/octet-stream;base64,"
		}
	],
	"images": [
		{
			"mimeType": "image/png",
			"name": "ToolBox_med_normal",
			"uri": "data:image/png;base64,"
		},
		{
			"mimeType": "image/png",
			"name": "ToolBox_med_metallicRoughness",
			"uri": "data:image/png;base64,"
		},
		{
			"mimeType": "image/jpeg",
			"name": "ToolBox_med_baseColor",
			"uri": "data:image/jpeg;base64,"
		}
	],
	"materials": [
		{
			"doubleSided": true,
			"name": "ToolBox_med",
			"normalTexture": {
				"index": 0
			},
			"occlusionTexture": {
				"index": 1
			},
			"pbrMetallicRoughness": {
				"baseColorTexture": {
					"index": 2
				},
				"metallicRoughnessTexture": {
					"index": 1
				}
			}
		}
	],
	"meshes": [
		{
			"name": "Lid_ToolBox_med_0",
			"primitives": [
				{
					"attributes": {
						"NORMAL": 9,
						"POSITION": 10,
						"TEXCOORD_0": 11,
						"TEXCOORD_1": 12
					},
					"indices": 8,
					"material": 0,
					"mode": 4
				}
			]
		},
		{
			"name": "Locks_ToolBox_med_0",
			"primitives": [
				{
					"attributes": {
						"NORMAL": 14,
						"POSITION": 15,
						"TEXCOORD_0": 16,
						"TEXCOORD_1": 17
					},
					"indices": 13,
					"material": 0,
					"mode": 4
				}
			]
		},
		{
			"name": "ToolBox_ToolBox_med_0",
			"primitives": [
				{
					"attributes": {
						"NORMAL": 19,
						"POSITION": 20,
						"TEXCOORD_0": 21,
						"TEXCOORD_1": 22
					},
					"indices": 18,
					"material": 0,
					"mode": 4
				}
			]
		}
	],
	"nodes": [
		{
			"mesh": 0,
			"name": "Lid_ToolBox_med_0"
		},
		{
			"mesh": 1,
			"name": "Locks_ToolBox_med_0"
		},
		{
			"children": [
				1
			],
			"matrix": [
				1.0,
				0.0,
				0.0,
				0.0,
				0.0,
				1.0,
				0.0,
				0.0,
				0.0,
				0.0,
				1.0,
				0.0,
				0.2571239471435547,
				0.44628751277923584,
				0.03408433496952057,
				1.0
			],
			"name": "Locks"
		},
		{
			"children": [
				0,
				2
			],
			"name": "Lid",
			"rotation": [
				-0.0024449527263641357,
				0.0,
				0.0,
				0.9999970197677612
			],
			"translation": [
				0.0,
				-0.22843226790428162,
				0.06265878677368164
			]
		},
		{
			"mesh": 2,
			"name": "ToolBox_ToolBox_med_0"
		},
		{
			"children": [
				3,
				4
			],
			"matrix": [
				0.8780481219291687,
				0.0,
				0.0,
				0.0,
				0.0,
				-1.1797358164330899e-07,
				-0.8780483898980693,
				0.0,
				0.0,
				0.8780483898980693,
				-1.1797358164330899e-07,
				0.0,
				-0.024129390716552734,
				0.16446691751480103,
				-0.03551798686385155,
				1.0
			],
			"name": "ToolBox"
		}
	],
	"samplers": [
		{
			"magFilter": 9729,
			"minFilter": 9987
		}
	],
	"scene": 0,
	"scenes": [
		{
			"name": "Scene",
			"nodes": [
				5
			]
		}
	],
	"textures": [
		{
			"sampler": 0,
			"source": 0
		},
		{
			"sampler": 0,
			"source": 1
		},
		{
			"sampler": 0,
			"source": 2
		}
	]
}