{"accessors":[{"bufferView":0,"byteOffset":0,"componentType":5123,"count":3270,"max":[942.0],"min":[0.0],"type":"SCALAR"},{"bufferView":1,"byteOffset":0,"componentType":5126,"count":943,"max":[1.0000001192092896,1.0000001192092896,1.0],"min":[-1.0000001192092896,-1.0000001192092896,-1.0],"type":"VEC3"},{"bufferView":2,"byteOffset":0,"componentType":5126,"count":943,"max":[30.999988555908203,31.0,91.98396301269531],"min":[-30.999998092651367,-31.0,-0.9840164184570313],"type":"VEC3"},{"bufferView":3,"byteOffset":0,"componentType":5126,"count":943,"max":[0.9975918531417847,0.993410050868988],"min":[0.004086035769432783,0.003844022750854492],"type":"VEC2"}],"asset":{"extras":{"created":"Thu Jan 12 08:22:43 2023"},"generator":"Gestaltor 2022.4.0 Pappardelle Professional","version":"2.0"},"bufferViews":[{"buffer":0,"byteLength":6540,"byteOffset":0},{"buffer":0,"byteLength":11316,"byteOffset":6540},{"buffer":0,"byteLength":11316,"byteOffset":17856},{"buffer":0,"byteLength":7544,"byteOffset":29172}],"buffers":[{"byteLength":36716,"uri":"data:application/octet-stream;base64,"}],"images":[{"mimeType":"image/png","name":"Barrel_Red_03_normal","uri":"data:image/png;base64,"},{"mimeType":"image/png","name":"Barrel_Red_03_metallicRoughness","uri":"data:image/png;base64,"},{"mimeType":"image/png","name":"Barrel_Red_03_baseColor","uri":"data:image/png;base64,"}],"materials":[{"doubleSided":true,"name":"Barrel_Red_03","normalTexture":{"index":0},"occlusionTexture":{"index":1},"pbrMetallicRoughness":{"baseColorTexture":{"index":2},"metallicRoughnessTexture":{"index":1}}}],"meshes":[{"name":"Barrel_Red_03_Barrel_Red_03_0","primitives":[{"attributes":{"NORMAL":1,"POSITION":2,"TEXCOORD_0":3},"indices":0,"material":0,"mode":4}]}],"nodes":[{"mesh":0,"name":"Barrel_Red_03_Barrel_Red_03_0"},{"children":[0],"matrix":[1.0,0.0,0.0,0.0,0.0,1.0,0.0,0.0,0.0,0.0,1.0,0.0,0.0,0.0,0.0,1.0],"name":"Object_35"},{"children":[1],"matrix":[1.0,0.0,0.0,0.0,0.0,1.0,0.0,0.0,0.0,0.0,1.0,0.0,0.0,0.0,0.0,1.0],"name":"Barrel_Red_03"},{"children":[2],"matrix":[1.0,0.0,0.0,0.0,0.0,-1.3435885648505064e-07,-1.0000001343588565,0.0,0.0,1.0000001343588565,-1.3435885648505064e-07,0.0,0.0,0.0,0.0,1.0],"name":"Barrels"},{"children":[3],"name":"RootNode"},{"children":[4],"matrix":[0.02539999969303608,0.0,0.0,0.0,0.0,-3.412714913476965e-09,0.025400003105750992,0.0,0.0,-0.025400003105750992,-3.412714913476965e-09,0.0,0.0,0.0,0.0,1.0],"name":"d81cf08ee25841d18344bdf21ac4f731.fbx"},{"children":[5],"matrix":[0.5438481569290161,0.0,0.0,0.0,0.0,-7.307081646648497e-08,-0.5438482299998326,0.0,0.0,0.5438482299998326,-7.307081646648497e-08,0.0,0.0,0.0,0.0,1.0],"name":"Sketchfab_model"}],"samplers":[{"magFilter":9729,"minFilter":9987}],"scene":0,"scenes":[{"name":"Scene","nodes":[6]}],"textures":[{"sampler":0,"source":0},{"sampler":0,"source":1},{"sampler":0,"source":2}]}