{"accessors":[{"bufferView":3,"byteOffset":0,"componentType":5126,"count":325,"max":[0.5320688486099243,0.5998938679695129,1.2019597291946411],"min":[-0.531999945640564,-0.019954295828938484,-1.2019954919815063],"type":"VEC3"},{"bufferView":4,"byteOffset":0,"componentType":5126,"count":325,"type":"VEC3"},{"bufferView":5,"byteOffset":0,"componentType":5126,"count":325,"type":"VEC2"},{"bufferView":6,"byteOffset":0,"componentType":5123,"count":918,"type":"SCALAR"},{"bufferView":7,"byteOffset":0,"componentType":5126,"count":152,"max":[1.0266172885894775,0.03663063049316406,0.007881522178649902],"min":[-0.009346425533294678,-0.0005674362182617188,-2.3686203956604004],"type":"VEC3"},{"bufferView":8,"byteOffset":0,"componentType":5126,"count":152,"type":"VEC3"},{"bufferView":9,"byteOffset":0,"componentType":5126,"count":152,"type":"VEC2"},{"bufferView":10,"byteOffset":0,"componentType":5123,"count":522,"type":"SCALAR"},{"bufferView":11,"byteOffset":0,"componentType":5126,"count":1,"max":[0.0],"min":[0.0],"type":"SCALAR"},{"bufferView":12,"byteOffset":0,"componentType":5126,"count":1,"type":"VEC3"},{"bufferView":13,"byteOffset":0,"componentType":5126,"count":1,"type":"VEC4"},{"bufferView":14,"byteOffset":0,"componentType":5126,"count":1,"type":"VEC3"}],"animations":[{"channels":[{"sampler":0,"target":{"node":1,"path":"translation"}},{"sampler":1,"target":{"node":1,"path":"rotation"}},{"sampler":2,"target":{"node":1,"path":"scale"}}],"name":"ferme","samplers":[{"input":8,"interpolation":"STEP","output":9},{"input":8,"interpolation":"STEP","output":10},{"input":8,"interpolation":"STEP","output":11}]}],"asset":{"extras":{"created":"Mon Aug 29 20:42:17 2022"},"generator":"Gestaltor 2022.2.3 Tagliatelle Professional","version":"2.0"},"bufferViews":[{"buffer":0,"byteLength":70253,"byteOffset":0},{"buffer":0,"byteLength":134400,"byteOffset":70253},{"buffer":0,"byteLength":93533,"byteOffset":204653},{"buffer":0,"byteLength":3900,"byteOffset":298188},{"buffer":0,"byteLength":3900,"byteOffset":302088},{"buffer":0,"byteLength":2600,"byteOffset":305988},{"buffer":0,"byteLength":1836,"byteOffset":308588},{"buffer":0,"byteLength":1824,"byteOffset":310424},{"buffer":0,"byteLength":1824,"byteOffset":312248},{"buffer":0,"byteLength":1216,"byteOffset":314072},{"buffer":0,"byteLength":1044,"byteOffset":315288},{"buffer":0,"byteLength":4,"byteOffset":316332},{"buffer":0,"byteLength":12,"byteOffset":316336},{"buffer":0,"byteLength":16,"byteOffset":316348},{"buffer":0,"byteLength":12,"byteOffset":316364}],"buffers":[{"byteLength":316376,"uri":"data:application/octet-stream;base64,"}],"images":[{"bufferView":0,"mimeType":"image/png","name":"CheeseBox_01_8-bit_Normal"},{"bufferView":1,"mimeType":"image/png","name":"CheeseBox_01_8-bit_Diffuse"},{"bufferView":2,"mimeType":"image/png","name":"CheeseBox_01_8-bit_OcclusionRoughnessMetallic"}],"materials":[{"doubleSided":true,"name":"CheeseBox_01","normalTexture":{"index":0},"pbrMetallicRoughness":{"baseColorTexture":{"index":1},"metallicRoughnessTexture":{"index":2}}}],"meshes":[{"name":"Plane.001","primitives":[{"attributes":{"NORMAL":1,"POSITION":0,"TEXCOORD_0":2},"indices":3,"material":0,"mode":4}]},{"name":"Plane.003","primitives":[{"attributes":{"NORMAL":5,"POSITION":4,"TEXCOORD_0":6},"indices":7,"material":0,"mode":4}]}],"nodes":[{"mesh":0,"name":"Base_low","rotation":[0.0,-0.7071068286895752,0.0,0.7071068286895752],"translation":[0.0,0.0020000000949949026,0.0]},{"mesh":1,"name":"Lid_low","rotation":[0.0,-0.7071068286895752,0.0,0.7071068286895752],"translation":[-1.204796552658081,0.6120741963386536,-0.5119149684906006]}],"samplers":[{"magFilter":9729,"minFilter":9987}],"scene":0,"scenes":[{"name":"Scene","nodes":[0,1]}],"textures":[{"sampler":0,"source":0},{"sampler":0,"source":1},{"sampler":0,"source":2}]}