{
	"accessors": [
		{
			"bufferView": 0,
			"byteOffset": 0,
			"componentType": 5126,
			"count": 1472,
			"max": [
				30.999988555908203,
				31.0,
				91.98396301269531
			],
			"min": [
				-30.999998092651367,
				-31.0,
				-0.9840164184570313
			],
			"type": "VEC3"
		},
		{
			"bufferView": 1,
			"byteOffset": 0,
			"componentType": 5126,
			"count": 1472,
			"type": "VEC3"
		},
		{
			"bufferView": 2,
			"byteOffset": 0,
			"componentType": 5126,
			"count": 1472,
			"type": "VEC2"
		},
		{
			"bufferView": 3,
			"byteOffset": 0,
			"componentType": 5123,
			"count": 3636,
			"type": "SCALAR"
		}
	],
	"asset": {
		"extras": {
			"created": "Thu Jan 12 13:48:13 2023"
		},
		"generator": "Gestaltor 2022.4.0 Pappardelle Professional",
		"version": "2.0"
	},
	"bufferViews": [
		{
			"buffer": 0,
			"byteLength": 17664,
			"byteOffset": 0
		},
		{
			"buffer": 0,
			"byteLength": 17664,
			"byteOffset": 17664
		},
		{
			"buffer": 0,
			"byteLength": 11776,
			"byteOffset": 35328
		},
		{
			"buffer": 0,
			"byteLength": 7272,
			"byteOffset": 47104
		}
	],
	"buffers": [
		{
			"byteLength": 54376,
			"uri": "data:application/octet-stream;base64,"
		}
	],
	"images": [
		{
			"mimeType": "image/png",
			"name": "Barrel_Yellow_01_normal",
			"uri": "Barrel_Yellow_01_normal..png"
		},
		{
			"mimeType": "image/png",
			"name": "Barrel_Yellow_01_metallicRoughness",
			"uri": "Barrel_Yellow_01_metallicRoughness..png"
		},
		{
			"mimeType": "image/png",
			"name": "Barrel_Yellow_01_baseColor",
			"uri": "Barrel_Yellow_01_baseColor..png"
		}
	],
	"materials": [
		{
			"doubleSided": true,
			"name": "Barrel_Yellow_01",
			"normalTexture": {
				"index": 0
			},
			"occlusionTexture": {
				"index": 1
			},
			"pbrMetallicRoughness": {
				"baseColorTexture": {
					"index": 2
				},
				"metallicRoughnessTexture": {
					"index": 1
				}
			}
		}
	],
	"meshes": [
		{
			"name": "Barrel_Yellow_01_Barrel_Yellow_01_0",
			"primitives": [
				{
					"attributes": {
						"NORMAL": 1,
						"POSITION": 0,
						"TEXCOORD_0": 2
					},
					"indices": 3,
					"material": 0,
					"mode": 4
				}
			]
		}
	],
	"nodes": [
		{
			"mesh": 0,
			"name": "Barrel_Yellow_01_Barrel_Yellow_01_0"
		},
		{
			"children": [
				0
			],
			"name": "Object_8",
			"translation": [
				5.7220458984375e-06,
				3.9130449295043945e-05,
				0.9840164184570313
			]
		},
		{
			"children": [
				1
			],
			"name": "Barrel_Yellow_01",
			"translation": [
				0.0,
				0.0,
				0.0
			]
		},
		{
			"children": [
				2
			],
			"name": "Barrels",
			"rotation": [
				-0.7071068286895752,
				0.0,
				0.0,
				0.7071068286895752
			],
			"translation": [
				0.0,
				0.0,
				0.0
			]
		},
		{
			"children": [
				3
			],
			"name": "RootNode"
		},
		{
			"children": [
				4
			],
			"name": "d81cf08ee25841d18344bdf21ac4f731.fbx",
			"rotation": [
				0.7071068286895752,
				0.0,
				0.0,
				0.7071068286895752
			],
			"scale": [
				0.02539999969303608,
				0.02539999969303608,
				0.02539999969303608
			]
		},
		{
			"children": [
				5
			],
			"name": "Sketchfab_model",
			"rotation": [
				-0.7071068286895752,
				0.0,
				0.0,
				0.7071068286895752
			],
			"scale": [
				0.5438481569290161,
				0.5438481569290161,
				0.5438481569290161
			]
		}
	],
	"samplers": [
		{
			"magFilter": 9729,
			"minFilter": 9987
		}
	],
	"scene": 0,
	"scenes": [
		{
			"name": "Scene",
			"nodes": [
				6
			]
		}
	],
	"textures": [
		{
			"sampler": 0,
			"source": 0
		},
		{
			"sampler": 0,
			"source": 1
		},
		{
			"sampler": 0,
			"source": 2
		}
	]
}