{"accessors":[{"bufferView":1,"byteOffset":0,"componentType":5126,"count":192,"max":[0.024512888863682747,0.5251649022102356,0.024274397641420364],"min":[-0.024035809561610222,0.010316623374819756,-0.024274300783872604],"type":"VEC3"},{"bufferView":2,"byteOffset":0,"componentType":5126,"count":192,"type":"VEC3"},{"bufferView":3,"byteOffset":0,"componentType":5126,"count":192,"type":"VEC2"},{"bufferView":4,"byteOffset":0,"componentType":5123,"count":1056,"type":"SCALAR"},{"bufferView":5,"byteOffset":0,"componentType":5126,"count":34,"max":[0.025460051372647285,0.4923884868621826,0.02522154524922371],"min":[-0.024982938542962074,0.10471425950527191,-0.02522144839167595],"type":"VEC3"},{"bufferView":6,"byteOffset":0,"componentType":5126,"count":34,"type":"VEC3"},{"bufferView":7,"byteOffset":0,"componentType":5126,"count":34,"type":"VEC2"},{"bufferView":8,"byteOffset":0,"componentType":5123,"count":96,"type":"SCALAR"},{"bufferView":9,"byteOffset":0,"componentType":5126,"count":265,"max":[0.0898931547999382,0.691872239112854,0.09009289741516113],"min":[-0.0902925655245781,0.49998682737350464,-0.09009283035993576],"type":"VEC3"},{"bufferView":10,"byteOffset":0,"componentType":5126,"count":265,"type":"VEC3"},{"bufferView":11,"byteOffset":0,"componentType":5126,"count":265,"type":"VEC2"},{"bufferView":12,"byteOffset":0,"componentType":5123,"count":1536,"type":"SCALAR"}],"asset":{"extras":{"created":"Sun Jun 19 08:14:09 2022"},"generator":"Gestaltor 2022.1.1 Bavette Professional","version":"2.0"},"bufferViews":[{"buffer":0,"byteLength":22396,"byteOffset":0},{"buffer":0,"byteLength":2304,"byteOffset":22396},{"buffer":0,"byteLength":2304,"byteOffset":24700},{"buffer":0,"byteLength":1536,"byteOffset":27004},{"buffer":0,"byteLength":2112,"byteOffset":28540},{"buffer":0,"byteLength":408,"byteOffset":30652},{"buffer":0,"byteLength":408,"byteOffset":31060},{"buffer":0,"byteLength":272,"byteOffset":31468},{"buffer":0,"byteLength":192,"byteOffset":31740},{"buffer":0,"byteLength":3180,"byteOffset":31932},{"buffer":0,"byteLength":3180,"byteOffset":35112},{"buffer":0,"byteLength":2120,"byteOffset":38292},{"buffer":0,"byteLength":3072,"byteOffset":40412}],"buffers":[{"byteLength":43484,"uri":"data:application/octet-stream;base64,"}],"images":[{"bufferView":0,"mimeType":"image/png","name":"dropper_logo"}],"materials":[{"alphaMode":"BLEND","doubleSided":true,"name":"Glass","pbrMetallicRoughness":{}},{"alphaCutoff":0.5,"alphaMode":"MASK","doubleSided":true,"name":"cc_dropper","pbrMetallicRoughness":{"baseColorTexture":{"index":0},"metallicFactor":0.0,"roughnessFactor":0.5}},{"doubleSided":true,"name":"pvc","pbrMetallicRoughness":{"baseColorFactor":[0.0,0.14126336574554443,0.5209956169128418,1.0],"metallicFactor":0.0,"roughnessFactor":0.13809524476528168}}],"meshes":[{"name":"Circle.000","primitives":[{"attributes":{"NORMAL":1,"POSITION":0,"TEXCOORD_0":2},"indices":3,"material":0,"mode":4},{"attributes":{"NORMAL":5,"POSITION":4,"TEXCOORD_0":6},"indices":7,"material":1,"mode":4},{"attributes":{"NORMAL":9,"POSITION":8,"TEXCOORD_0":10},"indices":11,"material":2,"mode":4}]}],"nodes":[{"name":"_base"},{"mesh":0,"name":"Dropper_1","rotation":[0.0,-0.992096483707428,0.0,-0.12547725439071655],"scale":[0.3510262966156006,0.5908718109130859,0.3510262966156006]}],"samplers":[{"magFilter":9729,"minFilter":9987}],"scene":0,"scenes":[{"name":"Scene","nodes":[0,1]}],"textures":[{"sampler":0,"source":0}]}