# Alias OBJ Model File
# Exported from SketchUp, (c) 2000-2012 Trimble Navigation Limited
# File units = meters

mtllib mur v4.mtl

g Mesh1 G_1 Model

usemtl Powder_Coat___Rough__Yellow_
v -0.75 0 0.075
vt -29.5276 0
vn 0 0 1
v 0.75 0 0.075
vt 29.5276 0
v 0.75 3 0.075
vt 29.5276 118.11
v -0.75 3 0.075
vt -29.5276 118.11
f 1/1/1 2/2/1 3/3/1 4/4/1 

v 0.75 0 -0.075
vt -29.5276 2.95276
vn 0 -1 -0
vt -29.5276 -2.95276
vt 29.5276 -2.95276
v -0.75 0 -0.075
vt 29.5276 2.95276
f 5/5/2 2/6/2 1/7/2 6/8/2 

vt -2.95276 0
vn 1 0 -0
vt 2.95276 0
v 0.75 3 -0.075
vt 2.95276 118.11
vt -2.95276 118.11
f 2/9/3 5/10/3 7/11/3 3/12/3 

vn 0 0 -1
v -0.75 3 -0.075
f 5/1/4 6/2/4 8/3/4 7/4/4 

vn -1 0 -0
f 6/9/5 1/10/5 4/11/5 8/12/5 

vn 0 1 -0
f 3/7/6 7/8/6 8/5/6 4/6/6 

