{
	"accessors": [
		{
			"bufferView": 6,
			"byteOffset": 0,
			"componentType": 5126,
			"count": 180,
			"max": [
				2.2506492137908936,
				7.339767932891846,
				2.2506492137908936
			],
			"min": [
				-2.2506492137908936,
				0.0,
				-2.2506492137908936
			],
			"type": "VEC3"
		},
		{
			"bufferView": 7,
			"byteOffset": 0,
			"componentType": 5126,
			"count": 180,
			"type": "VEC3"
		},
		{
			"bufferView": 8,
			"byteOffset": 0,
			"componentType": 5126,
			"count": 180,
			"type": "VEC2"
		},
		{
			"bufferView": 9,
			"byteOffset": 0,
			"componentType": 5126,
			"count": 180,
			"type": "VEC2"
		},
		{
			"bufferView": 10,
			"byteOffset": 0,
			"componentType": 5123,
			"count": 762,
			"type": "SCALAR"
		},
		{
			"bufferView": 11,
			"byteOffset": 0,
			"componentType": 5126,
			"count": 121,
			"max": [
				1.5914493799209595,
				8.0,
				2.2506492137908936
			],
			"min": [
				-2.079329252243042,
				2.052551746368408,
				-1.54334557056427
			],
			"type": "VEC3"
		},
		{
			"bufferView": 12,
			"byteOffset": 0,
			"componentType": 5126,
			"count": 121,
			"type": "VEC3"
		},
		{
			"bufferView": 13,
			"byteOffset": 0,
			"componentType": 5126,
			"count": 121,
			"type": "VEC2"
		},
		{
			"bufferView": 14,
			"byteOffset": 0,
			"componentType": 5126,
			"count": 121,
			"type": "VEC2"
		},
		{
			"bufferView": 15,
			"byteOffset": 0,
			"componentType": 5123,
			"count": 222,
			"type": "SCALAR"
		}
	],
	"asset": {
		"extras": {
			"created": "Fri Jun 10 07:18:54 2022"
		},
		"generator": "Gestaltor 2022.1.1 Bavette Professional",
		"version": "2.0"
	},
	"bufferViews": [
		{
			"buffer": 0,
			"byteLength": 112444,
			"byteOffset": 0
		},
		{
			"buffer": 0,
			"byteLength": 20393,
			"byteOffset": 112444
		},
		{
			"buffer": 0,
			"byteLength": 8227,
			"byteOffset": 132837
		},
		{
			"buffer": 0,
			"byteLength": 39255,
			"byteOffset": 141064
		},
		{
			"buffer": 0,
			"byteLength": 63596,
			"byteOffset": 180319
		},
		{
			"buffer": 0,
			"byteLength": 24761,
			"byteOffset": 243915
		},
		{
			"buffer": 0,
			"byteLength": 2160,
			"byteOffset": 268676
		},
		{
			"buffer": 0,
			"byteLength": 2160,
			"byteOffset": 270836
		},
		{
			"buffer": 0,
			"byteLength": 1440,
			"byteOffset": 272996
		},
		{
			"buffer": 0,
			"byteLength": 1440,
			"byteOffset": 274436
		},
		{
			"buffer": 0,
			"byteLength": 1524,
			"byteOffset": 275876
		},
		{
			"buffer": 0,
			"byteLength": 1452,
			"byteOffset": 277400
		},
		{
			"buffer": 0,
			"byteLength": 1452,
			"byteOffset": 278852
		},
		{
			"buffer": 0,
			"byteLength": 968,
			"byteOffset": 280304
		},
		{
			"buffer": 0,
			"byteLength": 968,
			"byteOffset": 281272
		},
		{
			"buffer": 0,
			"byteLength": 444,
			"byteOffset": 282240
		}
	],
	"buffers": [
		{
			"byteLength": 282684,
			"uri": "data:application/octet-stream;base64,"
		}
	],
	"images": [
		{
			"bufferView": 0,
			"mimeType": "image/png",
			"name": "chemical1_glass_normal"
		},
		{
			"bufferView": 1,
			"mimeType": "image/png",
			"name": "chemical1_glass_metallicRoughness"
		},
		{
			"bufferView": 2,
			"mimeType": "image/jpeg",
			"name": "chemical1_glass_baseColor"
		},
		{
			"bufferView": 3,
			"mimeType": "image/jpeg",
			"name": "chemical1_plas_normal"
		},
		{
			"bufferView": 4,
			"mimeType": "image/png",
			"name": "chemical1_plas_metallicRoughness"
		},
		{
			"bufferView": 5,
			"mimeType": "image/jpeg",
			"name": "chemical1_plas_baseColor"
		}
	],
	"materials": [
		{
			"doubleSided": true,
			"name": "chemical1_glass",
			"normalTexture": {
				"index": 0
			},
			"occlusionTexture": {
				"index": 1
			},
			"pbrMetallicRoughness": {
				"baseColorTexture": {
					"index": 2
				},
				"metallicRoughnessTexture": {
					"index": 1
				}
			}
		},
		{
			"doubleSided": true,
			"name": "chemical1_plas",
			"normalTexture": {
				"index": 3
			},
			"occlusionTexture": {
				"index": 4
			},
			"pbrMetallicRoughness": {
				"baseColorTexture": {
					"index": 5
				},
				"metallicFactor": 0.0,
				"metallicRoughnessTexture": {
					"index": 4
				}
			}
		}
	],
	"meshes": [
		{
			"name": "chemical1_NakedSingularity_chemical1_glass_0",
			"primitives": [
				{
					"attributes": {
						"NORMAL": 1,
						"POSITION": 0,
						"TEXCOORD_0": 2,
						"TEXCOORD_1": 3
					},
					"indices": 4,
					"material": 0,
					"mode": 4
				}
			]
		},
		{
			"name": "chemical1_NakedSingularity_chemical1_plas_0",
			"primitives": [
				{
					"attributes": {
						"NORMAL": 6,
						"POSITION": 5,
						"TEXCOORD_0": 7,
						"TEXCOORD_1": 8
					},
					"indices": 9,
					"material": 1,
					"mode": 4
				}
			]
		}
	],
	"nodes": [
		{
			"mesh": 0,
			"name": "chemical1_NakedSingularity_chemical1_glass_0"
		},
		{
			"mesh": 1,
			"name": "chemical1_NakedSingularity_chemical1_plas_0"
		},
		{
			"children": [
				0,
				1
			],
			"name": "chemical1_NakedSingularity",
			"translation": [
				0.0,
				0.0,
				0.0
			]
		},
		{
			"children": [
				2
			],
			"name": "RootNode"
		},
		{
			"children": [
				3
			],
			"name": "Chemical_bottles_NakedSingularity.fbx",
			"rotation": [
				0.7071068286895752,
				0.0,
				0.0,
				0.7071068286895752
			],
			"scale": [
				0.009999999776482582,
				0.009999999776482582,
				0.009999999776482582
			]
		},
		{
			"children": [
				4
			],
			"name": "Sketchfab_model",
			"rotation": [
				-0.7071068286895752,
				0.0,
				0.0,
				0.7071068286895752
			]
		}
	],
	"samplers": [
		{
			"magFilter": 9729,
			"minFilter": 9987
		}
	],
	"scene": 0,
	"scenes": [
		{
			"name": "Scene",
			"nodes": [
				5
			]
		}
	],
	"textures": [
		{
			"sampler": 0,
			"source": 0
		},
		{
			"sampler": 0,
			"source": 1
		},
		{
			"sampler": 0,
			"source": 2
		},
		{
			"sampler": 0,
			"source": 3
		},
		{
			"sampler": 0,
			"source": 4
		},
		{
			"sampler": 0,
			"source": 5
		}
	]
}