{
    "asset" : {
        "generator" : "Khronos glTF Blender I/O v1.6.16",
        "version" : "2.0"
    },
    "scene" : 0,
    "scenes" : [
        {
            "name" : "Scene",
            "nodes" : [
                5
            ]
        }
    ],
    "nodes" : [
        {
            "mesh" : 0,
            "name" : "chemical2_NakedSingularity_chemical2_glass_0"
        },
        {
            "mesh" : 1,
            "name" : "chemical2_NakedSingularity_chemical2_plas_0"
        },
        {
            "children" : [
                0,
                1
            ],
            "name" : "chemical2_NakedSingularity",
            "translation" : [
                -0.522300660610199,
                0,
                8.33593463897705
            ]
        },
        {
            "children" : [
                2
            ],
            "name" : "RootNode"
        },
        {
            "children" : [
                3
            ],
            "name" : "Chemical_bottles_NakedSingularity.fbx",
            "rotation" : [
                0.7071068286895752,
                0,
                0,
                0.7071068286895752
            ],
            "scale" : [
                0.009999999776482582,
                0.009999999776482582,
                0.009999999776482582
            ]
        },
        {
            "children" : [
                4
            ],
            "name" : "Sketchfab_model",
            "rotation" : [
                -0.7071068286895752,
                0,
                0,
                0.7071068286895752
            ]
        }
    ],
    "materials" : [
        {
            "alphaMode" : "BLEND",
            "doubleSided" : true,
            "name" : "chemical2_glass",
            "occlusionTexture" : {
                "index" : 0
            },
            "pbrMetallicRoughness" : {
                "baseColorFactor" : [
                    1,
                    1,
                    1,
                    0.5489256381988525
                ],
                "baseColorTexture" : {
                    "index" : 1
                },
                "metallicRoughnessTexture" : {
                    "index" : 0
                },
                "roughnessFactor" : 0.30571871995925903
            }
        },
        {
            "doubleSided" : true,
            "name" : "chemical2_plas",
            "normalTexture" : {
                "index" : 2
            },
            "occlusionTexture" : {
                "index" : 3
            },
            "pbrMetallicRoughness" : {
                "baseColorTexture" : {
                    "index" : 4
                },
                "metallicFactor" : 0,
                "metallicRoughnessTexture" : {
                    "index" : 3
                }
            }
        }
    ],
    "meshes" : [
        {
            "name" : "chemical2_NakedSingularity_chemical2_glass_0",
            "primitives" : [
                {
                    "attributes" : {
                        "POSITION" : 0,
                        "NORMAL" : 1,
                        "TEXCOORD_0" : 2,
                        "TEXCOORD_1" : 3
                    },
                    "indices" : 4,
                    "material" : 0
                }
            ]
        },
        {
            "name" : "chemical2_NakedSingularity_chemical2_plas_0",
            "primitives" : [
                {
                    "attributes" : {
                        "POSITION" : 5,
                        "NORMAL" : 6,
                        "TEXCOORD_0" : 7,
                        "TEXCOORD_1" : 8
                    },
                    "indices" : 9,
                    "material" : 1
                }
            ]
        }
    ],
    "textures" : [
        {
            "sampler" : 0,
            "source" : 0
        },
        {
            "sampler" : 0,
            "source" : 1
        },
        {
            "sampler" : 0,
            "source" : 2
        },
        {
            "sampler" : 0,
            "source" : 3
        },
        {
            "sampler" : 0,
            "source" : 4
        }
    ],
    "images" : [
        {
            "bufferView" : 5,
            "mimeType" : "image/png",
            "name" : "chemical2_glass_metallicRoughness"
        },
        {
            "bufferView" : 6,
            "mimeType" : "image/png",
            "name" : "chemical2_glass_baseColor"
        },
        {
            "bufferView" : 12,
            "mimeType" : "image/jpeg",
            "name" : "chemical2_plas_normal"
        },
        {
            "bufferView" : 13,
            "mimeType" : "image/png",
            "name" : "chemical2_plas_metallicRoughness"
        },
        {
            "bufferView" : 14,
            "mimeType" : "image/jpeg",
            "name" : "chemical2_plas_baseColor"
        }
    ],
    "accessors" : [
        {
            "bufferView" : 0,
            "componentType" : 5126,
            "count" : 505,
            "max" : [
                3.000000238418579,
                9.409912109375,
                2.578042507171631
            ],
            "min" : [
                -3.000000238418579,
                0,
                -2.578042507171631
            ],
            "type" : "VEC3"
        },
        {
            "bufferView" : 1,
            "componentType" : 5126,
            "count" : 505,
            "type" : "VEC3"
        },
        {
            "bufferView" : 2,
            "componentType" : 5126,
            "count" : 505,
            "type" : "VEC2"
        },
        {
            "bufferView" : 3,
            "componentType" : 5126,
            "count" : 505,
            "type" : "VEC2"
        },
        {
            "bufferView" : 4,
            "componentType" : 5123,
            "count" : 1272,
            "type" : "SCALAR"
        },
        {
            "bufferView" : 7,
            "componentType" : 5126,
            "count" : 109,
            "max" : [
                2.6000399589538574,
                11.297269821166992,
                2.578042507171631
            ],
            "min" : [
                -2.6000404357910156,
                0.5027610063552856,
                -1.36240816116333
            ],
            "type" : "VEC3"
        },
        {
            "bufferView" : 8,
            "componentType" : 5126,
            "count" : 109,
            "type" : "VEC3"
        },
        {
            "bufferView" : 9,
            "componentType" : 5126,
            "count" : 109,
            "type" : "VEC2"
        },
        {
            "bufferView" : 10,
            "componentType" : 5126,
            "count" : 109,
            "type" : "VEC2"
        },
        {
            "bufferView" : 11,
            "componentType" : 5123,
            "count" : 174,
            "type" : "SCALAR"
        }
    ],
    "bufferViews" : [
        {
            "buffer" : 0,
            "byteLength" : 6060,
            "byteOffset" : 0
        },
        {
            "buffer" : 0,
            "byteLength" : 6060,
            "byteOffset" : 6060
        },
        {
            "buffer" : 0,
            "byteLength" : 4040,
            "byteOffset" : 12120
        },
        {
            "buffer" : 0,
            "byteLength" : 4040,
            "byteOffset" : 16160
        },
        {
            "buffer" : 0,
            "byteLength" : 2544,
            "byteOffset" : 20200
        },
        {
            "buffer" : 0,
            "byteLength" : 49299,
            "byteOffset" : 22744
        },
        {
            "buffer" : 0,
            "byteLength" : 54980,
            "byteOffset" : 72044
        },
        {
            "buffer" : 0,
            "byteLength" : 1308,
            "byteOffset" : 127024
        },
        {
            "buffer" : 0,
            "byteLength" : 1308,
            "byteOffset" : 128332
        },
        {
            "buffer" : 0,
            "byteLength" : 872,
            "byteOffset" : 129640
        },
        {
            "buffer" : 0,
            "byteLength" : 872,
            "byteOffset" : 130512
        },
        {
            "buffer" : 0,
            "byteLength" : 348,
            "byteOffset" : 131384
        },
        {
            "buffer" : 0,
            "byteLength" : 31335,
            "byteOffset" : 131732
        },
        {
            "buffer" : 0,
            "byteLength" : 76829,
            "byteOffset" : 163068
        },
        {
            "buffer" : 0,
            "byteLength" : 71779,
            "byteOffset" : 239900
        }
    ],
    "samplers" : [
        {
            "magFilter" : 9729,
            "minFilter" : 9987
        }
    ],
    "buffers" : [
        {
            "byteLength" : 311680,
            "uri" : "data:application/octet-stream;base64,"
        }
    ]
}
