{
    "asset" : {
        "generator" : "Khronos glTF Blender I/O v1.6.16",
        "version" : "2.0"
    },
    "extensionsUsed" : [
        "KHR_texture_transform"
    ],
    "extensionsRequired" : [
        "KHR_texture_transform"
    ],
    "scene" : 0,
    "scenes" : [
        {
            "name" : "Scene",
            "nodes" : [
                2
            ]
        }
    ],
    "nodes" : [
        {
            "mesh" : 0,
            "name" : "Baseboard"
        },
        {
            "mesh" : 1,
            "name" : "Floor"
        },
        {
            "children" : [
                0,
                1
            ],
            "mesh" : 2,
            "name" : "Room"
        }
    ],
    "materials" : [
        {
            "doubleSided" : true,
            "name" : "mur1",
            "pbrMetallicRoughness" : {
                "baseColorTexture" : {
                    "extensions" : {
                        "KHR_texture_transform" : {
                            "offset" : [
                                0,
                                -19
                            ],
                            "scale" : [
                                20,
                                20
                            ]
                        }
                    },
                    "index" : 0
                },
                "metallicFactor" : 0,
                "roughnessFactor" : 0.5
            }
        }
    ],
    "meshes" : [
        {
            "name" : "Baseboard",
            "primitives" : [
                {
                    "attributes" : {
                        "POSITION" : 0,
                        "NORMAL" : 1,
                        "TEXCOORD_0" : 2
                    },
                    "indices" : 3
                }
            ]
        },
        {
            "name" : "Floor",
            "primitives" : [
                {
                    "attributes" : {
                        "POSITION" : 4,
                        "NORMAL" : 5,
                        "TEXCOORD_0" : 6
                    },
                    "indices" : 7
                }
            ]
        },
        {
            "name" : "temp.009",
            "primitives" : [
                {
                    "attributes" : {
                        "POSITION" : 8,
                        "NORMAL" : 9,
                        "TEXCOORD_0" : 10
                    },
                    "indices" : 11,
                    "material" : 0
                }
            ]
        }
    ],
    "textures" : [
        {
            "sampler" : 0,
            "source" : 0
        }
    ],
    "images" : [
        {
            "bufferView" : 12,
            "mimeType" : "image/jpeg",
            "name" : "Siding_AI_01C_Blue_COLOR"
        }
    ],
    "accessors" : [
        {
            "bufferView" : 0,
            "componentType" : 5126,
            "count" : 38,
            "max" : [
                4,
                0.11999999731779099,
                0
            ],
            "min" : [
                0,
                0,
                -4
            ],
            "type" : "VEC3"
        },
        {
            "bufferView" : 1,
            "componentType" : 5126,
            "count" : 38,
            "type" : "VEC3"
        },
        {
            "bufferView" : 2,
            "componentType" : 5126,
            "count" : 38,
            "type" : "VEC2"
        },
        {
            "bufferView" : 3,
            "componentType" : 5123,
            "count" : 60,
            "type" : "SCALAR"
        },
        {
            "bufferView" : 4,
            "componentType" : 5126,
            "count" : 8,
            "max" : [
                4,
                0,
                0
            ],
            "min" : [
                -7.347880586115415e-16,
                0,
                -4
            ],
            "type" : "VEC3"
        },
        {
            "bufferView" : 5,
            "componentType" : 5126,
            "count" : 8,
            "type" : "VEC3"
        },
        {
            "bufferView" : 6,
            "componentType" : 5126,
            "count" : 8,
            "type" : "VEC2"
        },
        {
            "bufferView" : 7,
            "componentType" : 5123,
            "count" : 18,
            "type" : "SCALAR"
        },
        {
            "bufferView" : 8,
            "componentType" : 5126,
            "count" : 62,
            "max" : [
                4,
                2.4000000953674316,
                0
            ],
            "min" : [
                -7.347880586115415e-16,
                0,
                -4
            ],
            "type" : "VEC3"
        },
        {
            "bufferView" : 9,
            "componentType" : 5126,
            "count" : 62,
            "type" : "VEC3"
        },
        {
            "bufferView" : 10,
            "componentType" : 5126,
            "count" : 62,
            "type" : "VEC2"
        },
        {
            "bufferView" : 11,
            "componentType" : 5123,
            "count" : 108,
            "type" : "SCALAR"
        }
    ],
    "bufferViews" : [
        {
            "buffer" : 0,
            "byteLength" : 456,
            "byteOffset" : 0
        },
        {
            "buffer" : 0,
            "byteLength" : 456,
            "byteOffset" : 456
        },
        {
            "buffer" : 0,
            "byteLength" : 304,
            "byteOffset" : 912
        },
        {
            "buffer" : 0,
            "byteLength" : 120,
            "byteOffset" : 1216
        },
        {
            "buffer" : 0,
            "byteLength" : 96,
            "byteOffset" : 1336
        },
        {
            "buffer" : 0,
            "byteLength" : 96,
            "byteOffset" : 1432
        },
        {
            "buffer" : 0,
            "byteLength" : 64,
            "byteOffset" : 1528
        },
        {
            "buffer" : 0,
            "byteLength" : 36,
            "byteOffset" : 1592
        },
        {
            "buffer" : 0,
            "byteLength" : 744,
            "byteOffset" : 1628
        },
        {
            "buffer" : 0,
            "byteLength" : 744,
            "byteOffset" : 2372
        },
        {
            "buffer" : 0,
            "byteLength" : 496,
            "byteOffset" : 3116
        },
        {
            "buffer" : 0,
            "byteLength" : 216,
            "byteOffset" : 3612
        },
        {
            "buffer" : 0,
            "byteLength" : 332607,
            "byteOffset" : 3828
        }
    ],
    "samplers" : [
        {
            "magFilter" : 9729,
            "minFilter" : 9987
        }
    ],
    "buffers" : [
        {
            "byteLength" : 336436,
            "uri" : "data:application/octet-stream;base64,"
        }
    ]
}
