{
    "asset" : {
        "generator" : "Khronos glTF Blender I/O v1.6.16",
        "version" : "2.0"
    },
    "scene" : 0,
    "scenes" : [
        {
            "name" : "Scene",
            "nodes" : [
                5
            ]
        }
    ],
    "nodes" : [
        {
            "mesh" : 0,
            "name" : "doorway"
        },
        {
            "mesh" : 1,
            "name" : "hinge"
        },
        {
            "mesh" : 2,
            "name" : "hinge.001"
        },
        {
            "mesh" : 3,
            "name" : "hinge.002"
        },
        {
            "mesh" : 4,
            "name" : "standard door",
            "rotation" : [
                0,
                -0.7020195722579956,
                0,
                0.712157666683197
            ],
            "translation" : [
                0.17803287506103516,
                0.016506731510162354,
                -0.9489083290100098
            ]
        },
        {
            "children" : [
                0,
                1,
                2,
                3,
                4
            ],
            "name" : "root"
        }
    ],
    "materials" : [
        {
            "doubleSided" : true,
            "name" : "Color_005",
            "pbrMetallicRoughness" : {
                "baseColorFactor" : [
                    0.17010000348091125,
                    0.17010000348091125,
                    0.17010000348091125,
                    1
                ],
                "metallicFactor" : 0.10000000149011612,
                "roughnessFactor" : 0.8999999761581421
            }
        },
        {
            "name" : "Metal_Aluminum_Anodized",
            "pbrMetallicRoughness" : {
                "baseColorTexture" : {
                    "index" : 0
                },
                "roughnessFactor" : 0.10000000149011612
            }
        },
        {
            "name" : "[Metal_Aluminum_Anodized]1",
            "pbrMetallicRoughness" : {
                "baseColorTexture" : {
                    "index" : 1
                },
                "roughnessFactor" : 0.10000000149011612
            }
        },
        {
            "name" : "[Wood_Bamboo_Medium]2",
            "pbrMetallicRoughness" : {
                "baseColorTexture" : {
                    "index" : 2
                },
                "metallicFactor" : 0.10000000149011612,
                "roughnessFactor" : 0.8999999761581421
            }
        },
        {
            "name" : "Color_D04",
            "pbrMetallicRoughness" : {
                "baseColorFactor" : [
                    1,
                    0.7893000245094299,
                    0.32499998807907104,
                    1
                ],
                "metallicFactor" : 0.10000000149011612,
                "roughnessFactor" : 0.8999999761581421
            }
        },
        {
            "alphaMode" : "BLEND",
            "doubleSided" : true,
            "name" : "Translucent_Glass_Safety",
            "pbrMetallicRoughness" : {
                "baseColorTexture" : {
                    "index" : 3
                },
                "metallicFactor" : 0.10000000149011612,
                "roughnessFactor" : 0.8999999761581421
            }
        }
    ],
    "meshes" : [
        {
            "name" : "Mesh_2",
            "primitives" : [
                {
                    "attributes" : {
                        "POSITION" : 0,
                        "NORMAL" : 1,
                        "TEXCOORD_0" : 2
                    },
                    "indices" : 3,
                    "material" : 0
                },
                {
                    "attributes" : {
                        "POSITION" : 4,
                        "NORMAL" : 5,
                        "TEXCOORD_0" : 6
                    },
                    "indices" : 7,
                    "material" : 1
                }
            ]
        },
        {
            "name" : "Mesh_0",
            "primitives" : [
                {
                    "attributes" : {
                        "POSITION" : 8,
                        "NORMAL" : 9,
                        "TEXCOORD_0" : 10
                    },
                    "indices" : 11,
                    "material" : 1
                }
            ]
        },
        {
            "name" : "Mesh_1",
            "primitives" : [
                {
                    "attributes" : {
                        "POSITION" : 12,
                        "NORMAL" : 13,
                        "TEXCOORD_0" : 14
                    },
                    "indices" : 11,
                    "material" : 1
                }
            ]
        },
        {
            "name" : "Mesh_3",
            "primitives" : [
                {
                    "attributes" : {
                        "POSITION" : 15,
                        "NORMAL" : 16,
                        "TEXCOORD_0" : 17
                    },
                    "indices" : 18,
                    "material" : 1
                }
            ]
        },
        {
            "name" : "Mesh_4",
            "primitives" : [
                {
                    "attributes" : {
                        "POSITION" : 19,
                        "NORMAL" : 20,
                        "TEXCOORD_0" : 21
                    },
                    "indices" : 22,
                    "material" : 2
                },
                {
                    "attributes" : {
                        "POSITION" : 23,
                        "NORMAL" : 24,
                        "TEXCOORD_0" : 25
                    },
                    "indices" : 26,
                    "material" : 3
                },
                {
                    "attributes" : {
                        "POSITION" : 27,
                        "NORMAL" : 28,
                        "TEXCOORD_0" : 29
                    },
                    "indices" : 30,
                    "material" : 4
                },
                {
                    "attributes" : {
                        "POSITION" : 31,
                        "NORMAL" : 32,
                        "TEXCOORD_0" : 33
                    },
                    "indices" : 34,
                    "material" : 5
                }
            ]
        }
    ],
    "textures" : [
        {
            "sampler" : 0,
            "source" : 0
        },
        {
            "sampler" : 0,
            "source" : 1
        },
        {
            "sampler" : 0,
            "source" : 2
        },
        {
            "sampler" : 0,
            "source" : 3
        }
    ],
    "images" : [
        {
            "bufferView" : 8,
            "mimeType" : "image/jpeg",
            "name" : "Image_0"
        },
        {
            "bufferView" : 24,
            "mimeType" : "image/jpeg",
            "name" : "Image_1"
        },
        {
            "bufferView" : 29,
            "mimeType" : "image/jpeg",
            "name" : "Image_2"
        },
        {
            "bufferView" : 38,
            "mimeType" : "image/png",
            "name" : "Image_3"
        }
    ],
    "accessors" : [
        {
            "bufferView" : 0,
            "componentType" : 5126,
            "count" : 176,
            "max" : [
                0.1587499976158142,
                2.1589999198913574,
                3.732723320805972e-17
            ],
            "min" : [
                1.9046949374049937e-34,
                0.02539999969303608,
                -1.0160000324249268
            ],
            "type" : "VEC3"
        },
        {
            "bufferView" : 1,
            "componentType" : 5126,
            "count" : 176,
            "type" : "VEC3"
        },
        {
            "bufferView" : 2,
            "componentType" : 5126,
            "count" : 176,
            "type" : "VEC2"
        },
        {
            "bufferView" : 3,
            "componentType" : 5123,
            "count" : 240,
            "type" : "SCALAR"
        },
        {
            "bufferView" : 4,
            "componentType" : 5126,
            "count" : 26,
            "max" : [
                0.16126996278762817,
                1.1049000024795532,
                -0.05079999938607216
            ],
            "min" : [
                0.11834907531738281,
                0.9779000282287598,
                -0.05079999938607216
            ],
            "type" : "VEC3"
        },
        {
            "bufferView" : 5,
            "componentType" : 5126,
            "count" : 26,
            "type" : "VEC3"
        },
        {
            "bufferView" : 6,
            "componentType" : 5126,
            "count" : 26,
            "type" : "VEC2"
        },
        {
            "bufferView" : 7,
            "componentType" : 5123,
            "count" : 42,
            "type" : "SCALAR"
        },
        {
            "bufferView" : 9,
            "componentType" : 5126,
            "count" : 204,
            "max" : [
                0.19843749701976776,
                1.984375,
                -0.9064624905586243
            ],
            "min" : [
                0.1254124939441681,
                1.863724946975708,
                -0.9794874787330627
            ],
            "type" : "VEC3"
        },
        {
            "bufferView" : 10,
            "componentType" : 5126,
            "count" : 204,
            "type" : "VEC3"
        },
        {
            "bufferView" : 11,
            "componentType" : 5126,
            "count" : 204,
            "type" : "VEC2"
        },
        {
            "bufferView" : 12,
            "componentType" : 5123,
            "count" : 372,
            "type" : "SCALAR"
        },
        {
            "bufferView" : 13,
            "componentType" : 5126,
            "count" : 204,
            "max" : [
                0.19843749701976776,
                1.1715749502182007,
                -0.9064624905586243
            ],
            "min" : [
                0.1254124939441681,
                1.0509250164031982,
                -0.9794874787330627
            ],
            "type" : "VEC3"
        },
        {
            "bufferView" : 14,
            "componentType" : 5126,
            "count" : 204,
            "type" : "VEC3"
        },
        {
            "bufferView" : 15,
            "componentType" : 5126,
            "count" : 204,
            "type" : "VEC2"
        },
        {
            "bufferView" : 16,
            "componentType" : 5126,
            "count" : 208,
            "max" : [
                0.19843749701976776,
                0.35877498984336853,
                -0.9064624905586243
            ],
            "min" : [
                0.1254124939441681,
                0.2381249964237213,
                -0.9794874787330627
            ],
            "type" : "VEC3"
        },
        {
            "bufferView" : 17,
            "componentType" : 5126,
            "count" : 208,
            "type" : "VEC3"
        },
        {
            "bufferView" : 18,
            "componentType" : 5126,
            "count" : 208,
            "type" : "VEC2"
        },
        {
            "bufferView" : 19,
            "componentType" : 5123,
            "count" : 372,
            "type" : "SCALAR"
        },
        {
            "bufferView" : 20,
            "componentType" : 5126,
            "count" : 813,
            "max" : [
                0.8951171636581421,
                0.9419766664505005,
                0.11864584684371948
            ],
            "min" : [
                0.018817126750946045,
                -0.003806731663644314,
                -0.049629151821136475
            ],
            "type" : "VEC3"
        },
        {
            "bufferView" : 21,
            "componentType" : 5126,
            "count" : 813,
            "type" : "VEC3"
        },
        {
            "bufferView" : 22,
            "componentType" : 5126,
            "count" : 813,
            "type" : "VEC2"
        },
        {
            "bufferView" : 23,
            "componentType" : 5123,
            "count" : 1104,
            "type" : "SCALAR"
        },
        {
            "bufferView" : 25,
            "componentType" : 5126,
            "count" : 130,
            "max" : [
                0.9078171253204346,
                2.09169340133667,
                0.05990833044052124
            ],
            "min" : [
                0.006117120385169983,
                -0.016506731510162354,
                0.009108304977416992
            ],
            "type" : "VEC3"
        },
        {
            "bufferView" : 26,
            "componentType" : 5126,
            "count" : 130,
            "type" : "VEC3"
        },
        {
            "bufferView" : 27,
            "componentType" : 5126,
            "count" : 130,
            "type" : "VEC2"
        },
        {
            "bufferView" : 28,
            "componentType" : 5123,
            "count" : 186,
            "type" : "SCALAR"
        },
        {
            "bufferView" : 30,
            "componentType" : 5126,
            "count" : 60,
            "max" : [
                0.6792171001434326,
                1.812293291091919,
                0.05990833044052124
            ],
            "min" : [
                0.3490171432495117,
                0.7962932586669922,
                0.009108304977416992
            ],
            "type" : "VEC3"
        },
        {
            "bufferView" : 31,
            "componentType" : 5126,
            "count" : 60,
            "type" : "VEC3"
        },
        {
            "bufferView" : 32,
            "componentType" : 5126,
            "count" : 60,
            "type" : "VEC2"
        },
        {
            "bufferView" : 33,
            "componentType" : 5123,
            "count" : 96,
            "type" : "SCALAR"
        },
        {
            "bufferView" : 34,
            "componentType" : 5126,
            "count" : 4,
            "max" : [
                0.6538171172142029,
                1.786893367767334,
                0.034508347511291504
            ],
            "min" : [
                0.37441712617874146,
                0.8216932415962219,
                0.034508347511291504
            ],
            "type" : "VEC3"
        },
        {
            "bufferView" : 35,
            "componentType" : 5126,
            "count" : 4,
            "type" : "VEC3"
        },
        {
            "bufferView" : 36,
            "componentType" : 5126,
            "count" : 4,
            "type" : "VEC2"
        },
        {
            "bufferView" : 37,
            "componentType" : 5123,
            "count" : 6,
            "type" : "SCALAR"
        }
    ],
    "bufferViews" : [
        {
            "buffer" : 0,
            "byteLength" : 2112,
            "byteOffset" : 0
        },
        {
            "buffer" : 0,
            "byteLength" : 2112,
            "byteOffset" : 2112
        },
        {
            "buffer" : 0,
            "byteLength" : 1408,
            "byteOffset" : 4224
        },
        {
            "buffer" : 0,
            "byteLength" : 480,
            "byteOffset" : 5632
        },
        {
            "buffer" : 0,
            "byteLength" : 312,
            "byteOffset" : 6112
        },
        {
            "buffer" : 0,
            "byteLength" : 312,
            "byteOffset" : 6424
        },
        {
            "buffer" : 0,
            "byteLength" : 208,
            "byteOffset" : 6736
        },
        {
            "buffer" : 0,
            "byteLength" : 84,
            "byteOffset" : 6944
        },
        {
            "buffer" : 0,
            "byteLength" : 2508,
            "byteOffset" : 7028
        },
        {
            "buffer" : 0,
            "byteLength" : 2448,
            "byteOffset" : 9536
        },
        {
            "buffer" : 0,
            "byteLength" : 2448,
            "byteOffset" : 11984
        },
        {
            "buffer" : 0,
            "byteLength" : 1632,
            "byteOffset" : 14432
        },
        {
            "buffer" : 0,
            "byteLength" : 744,
            "byteOffset" : 16064
        },
        {
            "buffer" : 0,
            "byteLength" : 2448,
            "byteOffset" : 16808
        },
        {
            "buffer" : 0,
            "byteLength" : 2448,
            "byteOffset" : 19256
        },
        {
            "buffer" : 0,
            "byteLength" : 1632,
            "byteOffset" : 21704
        },
        {
            "buffer" : 0,
            "byteLength" : 2496,
            "byteOffset" : 23336
        },
        {
            "buffer" : 0,
            "byteLength" : 2496,
            "byteOffset" : 25832
        },
        {
            "buffer" : 0,
            "byteLength" : 1664,
            "byteOffset" : 28328
        },
        {
            "buffer" : 0,
            "byteLength" : 744,
            "byteOffset" : 29992
        },
        {
            "buffer" : 0,
            "byteLength" : 9756,
            "byteOffset" : 30736
        },
        {
            "buffer" : 0,
            "byteLength" : 9756,
            "byteOffset" : 40492
        },
        {
            "buffer" : 0,
            "byteLength" : 6504,
            "byteOffset" : 50248
        },
        {
            "buffer" : 0,
            "byteLength" : 2208,
            "byteOffset" : 56752
        },
        {
            "buffer" : 0,
            "byteLength" : 2508,
            "byteOffset" : 58960
        },
        {
            "buffer" : 0,
            "byteLength" : 1560,
            "byteOffset" : 61468
        },
        {
            "buffer" : 0,
            "byteLength" : 1560,
            "byteOffset" : 63028
        },
        {
            "buffer" : 0,
            "byteLength" : 1040,
            "byteOffset" : 64588
        },
        {
            "buffer" : 0,
            "byteLength" : 372,
            "byteOffset" : 65628
        },
        {
            "buffer" : 0,
            "byteLength" : 33237,
            "byteOffset" : 66000
        },
        {
            "buffer" : 0,
            "byteLength" : 720,
            "byteOffset" : 99240
        },
        {
            "buffer" : 0,
            "byteLength" : 720,
            "byteOffset" : 99960
        },
        {
            "buffer" : 0,
            "byteLength" : 480,
            "byteOffset" : 100680
        },
        {
            "buffer" : 0,
            "byteLength" : 192,
            "byteOffset" : 101160
        },
        {
            "buffer" : 0,
            "byteLength" : 48,
            "byteOffset" : 101352
        },
        {
            "buffer" : 0,
            "byteLength" : 48,
            "byteOffset" : 101400
        },
        {
            "buffer" : 0,
            "byteLength" : 32,
            "byteOffset" : 101448
        },
        {
            "buffer" : 0,
            "byteLength" : 12,
            "byteOffset" : 101480
        },
        {
            "buffer" : 0,
            "byteLength" : 39087,
            "byteOffset" : 101492
        }
    ],
    "samplers" : [
        {
            "magFilter" : 9729,
            "minFilter" : 9987
        }
    ],
    "buffers" : [
        {
            "byteLength" : 140580,
            "uri" : "data:application/octet-stream;base64,"
        }
    ]
}
