{
    "asset" : {
        "generator" : "Khronos glTF Blender I/O v1.6.16",
        "version" : "2.0"
    },
    "scene" : 0,
    "scenes" : [
        {
            "name" : "Scene",
            "nodes" : [
                2
            ]
        }
    ],
    "nodes" : [
        {
            "mesh" : 0,
            "name" : "Body1",
            "rotation" : [
                -0.7071068286895752,
                0,
                0,
                0.7071068286895752
            ],
            "scale" : [
                10,
                10,
                10
            ]
        },
        {
            "mesh" : 1,
            "name" : "Body2",
            "scale" : [
                10,
                10,
                10
            ]
        },
        {
            "children" : [
                0,
                1
            ],
            "name" : "fen1 v1",
            "rotation" : [
                0.7071068286895752,
                0,
                0,
                0.7071067094802856
            ],
            "scale" : [
                0.0010000000474974513,
                0.0010000000474974513,
                0.0010000000474974513
            ]
        }
    ],
    "materials" : [
        {
            "doubleSided" : true,
            "name" : "Coating - Black Oxide",
            "pbrMetallicRoughness" : {
                "baseColorFactor" : [
                    0.1725490242242813,
                    0.1725490242242813,
                    0.1725490242242813,
                    1
                ],
                "roughnessFactor" : 0.5527864098548889
            }
        },
        {
            "doubleSided" : true,
            "name" : "Glass - Window",
            "pbrMetallicRoughness" : {
                "baseColorFactor" : [
                    0.42352941632270813,
                    0.7686274647712708,
                    0.8549019694328308,
                    1
                ],
                "roughnessFactor" : 0.5527864098548889
            }
        }
    ],
    "meshes" : [
        {
            "name" : "Body1",
            "primitives" : [
                {
                    "attributes" : {
                        "POSITION" : 0,
                        "NORMAL" : 1,
                        "TEXCOORD_0" : 2
                    },
                    "indices" : 3,
                    "material" : 0
                }
            ]
        },
        {
            "name" : "Body2",
            "primitives" : [
                {
                    "attributes" : {
                        "POSITION" : 4,
                        "NORMAL" : 5,
                        "TEXCOORD_0" : 6
                    },
                    "indices" : 7,
                    "material" : 1
                }
            ]
        }
    ],
    "accessors" : [
        {
            "bufferView" : 0,
            "componentType" : 5126,
            "count" : 56,
            "max" : [
                100,
                150,
                10.5
            ],
            "min" : [
                0,
                0,
                -10.5
            ],
            "type" : "VEC3"
        },
        {
            "bufferView" : 1,
            "componentType" : 5126,
            "count" : 56,
            "type" : "VEC3"
        },
        {
            "bufferView" : 2,
            "componentType" : 5126,
            "count" : 56,
            "type" : "VEC2"
        },
        {
            "bufferView" : 3,
            "componentType" : 5123,
            "count" : 144,
            "type" : "SCALAR"
        },
        {
            "bufferView" : 4,
            "componentType" : 5126,
            "count" : 30,
            "max" : [
                95,
                145,
                0
            ],
            "min" : [
                5,
                5,
                -1
            ],
            "type" : "VEC3"
        },
        {
            "bufferView" : 5,
            "componentType" : 5126,
            "count" : 30,
            "type" : "VEC3"
        },
        {
            "bufferView" : 6,
            "componentType" : 5126,
            "count" : 30,
            "type" : "VEC2"
        },
        {
            "bufferView" : 7,
            "componentType" : 5123,
            "count" : 72,
            "type" : "SCALAR"
        }
    ],
    "bufferViews" : [
        {
            "buffer" : 0,
            "byteLength" : 672,
            "byteOffset" : 0
        },
        {
            "buffer" : 0,
            "byteLength" : 672,
            "byteOffset" : 672
        },
        {
            "buffer" : 0,
            "byteLength" : 448,
            "byteOffset" : 1344
        },
        {
            "buffer" : 0,
            "byteLength" : 288,
            "byteOffset" : 1792
        },
        {
            "buffer" : 0,
            "byteLength" : 360,
            "byteOffset" : 2080
        },
        {
            "buffer" : 0,
            "byteLength" : 360,
            "byteOffset" : 2440
        },
        {
            "buffer" : 0,
            "byteLength" : 240,
            "byteOffset" : 2800
        },
        {
            "buffer" : 0,
            "byteLength" : 144,
            "byteOffset" : 3040
        }
    ],
    "buffers" : [
        {
            "byteLength" : 3184,
            "uri" : "data:application/octet-stream;base64,"
        }
    ]
}
