{
  "asset": {
    "version": "2.0",
    "generator": "Sketchup glTF Exporter v1.2.6 by Centaur"
  },
  "scene": 0,
  "scenes": [
    {
      "nodes": [
        0
      ]
    }
  ],
  "samplers": [
    {
    }
  ],
  "nodes": [
    {
      "name": "root",
      "children": [
        1,
        2,
        3,
        4,
        5
      ]
    },
    {
      "name": "hinge",
      "mesh": 0
    },
    {
      "name": "hinge",
      "mesh": 1
    },
    {
      "name": "doorway",
      "mesh": 2
    },
    {
      "name": "hinge",
      "mesh": 3
    },
    {
      "name": "standard door",
      "mesh": 4
    }
  ],
  "materials": [
    {
      "pbrMetallicRoughness": {
        "baseColorTexture": {
          "index": 0
        },
        "roughnessFactor": 0.1
      },
      "name": "Metal_Aluminum_Anodized"
    },
    {
      "pbrMetallicRoughness": {
        "baseColorFactor": [
          0.1701,
          0.1701,
          0.1701,
          1.0
        ],
        "metallicFactor": 0.1,
        "roughnessFactor": 0.9
      },
      "name": "Color_005",
      "doubleSided": true
    },
    {
      "pbrMetallicRoughness": {
        "baseColorTexture": {
          "index": 1
        },
        "roughnessFactor": 0.1
      },
      "name": "[Metal_Aluminum_Anodized]1"
    },
    {
      "pbrMetallicRoughness": {
        "baseColorTexture": {
          "index": 2
        },
        "metallicFactor": 0.1,
        "roughnessFactor": 0.9
      },
      "name": "[Wood_Bamboo_Medium]2"
    },
    {
      "pbrMetallicRoughness": {
        "baseColorFactor": [
          1.0,
          0.7893,
          0.325,
          1.0
        ],
        "metallicFactor": 0.1,
        "roughnessFactor": 0.9
      },
      "name": "Color_D04"
    },
    {
      "pbrMetallicRoughness": {
        "baseColorTexture": {
          "index": 3
        },
        "metallicFactor": 0.1,
        "roughnessFactor": 0.9
      },
      "name": "Translucent_Glass_Safety",
      "doubleSided": true,
      "alphaMode": "BLEND"
    }
  ],
  "images": [
    {
      "bufferView": 0,
      "mimeType": "image/jpeg"
    },
    {
      "bufferView": 1,
      "mimeType": "image/jpeg"
    },
    {
      "bufferView": 2,
      "mimeType": "image/jpeg"
    },
    {
      "bufferView": 3,
      "mimeType": "image/jpeg"
    }
  ],
  "textures": [
    {
      "source": 0,
      "sampler": 0
    },
    {
      "source": 1,
      "sampler": 0
    },
    {
      "source": 2,
      "sampler": 0
    },
    {
      "source": 3,
      "sampler": 0
    }
  ],
  "meshes": [
    {
      "primitives": [
        {
          "attributes": {
            "POSITION": 2,
            "NORMAL": 3,
            "TEXCOORD_0": 4
          },
          "indices": 5,
          "mode": 4,
          "material": 0
        }
      ]
    },
    {
      "primitives": [
        {
          "attributes": {
            "POSITION": 2,
            "NORMAL": 3,
            "TEXCOORD_0": 4
          },
          "indices": 6,
          "mode": 4,
          "material": 0
        }
      ]
    },
    {
      "primitives": [
        {
          "attributes": {
            "POSITION": 0,
            "NORMAL": 1
          },
          "indices": 7,
          "mode": 4,
          "material": 1
        },
        {
          "attributes": {
            "POSITION": 2,
            "NORMAL": 3,
            "TEXCOORD_0": 4
          },
          "indices": 8,
          "mode": 4,
          "material": 0
        }
      ]
    },
    {
      "primitives": [
        {
          "attributes": {
            "POSITION": 2,
            "NORMAL": 3,
            "TEXCOORD_0": 4
          },
          "indices": 9,
          "mode": 4,
          "material": 0
        }
      ]
    },
    {
      "primitives": [
        {
          "attributes": {
            "POSITION": 2,
            "NORMAL": 3,
            "TEXCOORD_0": 4
          },
          "indices": 10,
          "mode": 4,
          "material": 2
        },
        {
          "attributes": {
            "POSITION": 2,
            "NORMAL": 3,
            "TEXCOORD_0": 4
          },
          "indices": 11,
          "mode": 4,
          "material": 3
        },
        {
          "attributes": {
            "POSITION": 0,
            "NORMAL": 1
          },
          "indices": 12,
          "mode": 4,
          "material": 4
        },
        {
          "attributes": {
            "POSITION": 2,
            "NORMAL": 3,
            "TEXCOORD_0": 4
          },
          "indices": 13,
          "mode": 4,
          "material": 5
        }
      ]
    }
  ],
  "accessors": [
    {
      "bufferView": 4,
      "componentType": 5126,
      "count": 166,
      "type": "VEC3",
      "min": [
        1.9046949239805592e-34,
        0.025399999999999937,
        -1.0160000000000002
      ],
      "max": [
        0.8572499999999997,
        2.159,
        3.7327234438011324e-17
      ]
    },
    {
      "bufferView": 5,
      "componentType": 5126,
      "count": 166,
      "type": "VEC3",
      "min": [
        -1.0,
        -1.0,
        -1.0
      ],
      "max": [
        1.0,
        1.0,
        1.0
      ]
    },
    {
      "bufferView": 6,
      "componentType": 5126,
      "count": 1234,
      "type": "VEC3",
      "min": [
        0.11834907163536855,
        -5.754615309193413e-17,
        -0.9985375000000002
      ],
      "max": [
        1.0858499999999998,
        2.1082,
        -0.05080000000000002
      ]
    },
    {
      "bufferView": 7,
      "componentType": 5126,
      "count": 1234,
      "type": "VEC3",
      "min": [
        -1.0,
        -1.0,
        -1.0
      ],
      "max": [
        1.0,
        1.0,
        1.0
      ]
    },
    {
      "bufferView": 8,
      "componentType": 5126,
      "count": 1234,
      "type": "VEC2",
      "min": [
        -5.84909469467601,
        -10.916666666666666
      ],
      "max": [
        5.193087126907993,
        1.0000000000014015
      ]
    },
    {
      "bufferView": 10,
      "componentType": 5123,
      "count": 372,
      "type": "SCALAR"
    },
    {
      "bufferView": 10,
      "componentType": 5123,
      "count": 372,
      "type": "SCALAR",
      "byteOffset": 744
    },
    {
      "bufferView": 9,
      "componentType": 5121,
      "count": 240,
      "type": "SCALAR"
    },
    {
      "bufferView": 10,
      "componentType": 5123,
      "count": 42,
      "type": "SCALAR",
      "byteOffset": 1488
    },
    {
      "bufferView": 10,
      "componentType": 5123,
      "count": 372,
      "type": "SCALAR",
      "byteOffset": 1572
    },
    {
      "bufferView": 10,
      "componentType": 5123,
      "count": 1104,
      "type": "SCALAR",
      "byteOffset": 2316
    },
    {
      "bufferView": 10,
      "componentType": 5123,
      "count": 186,
      "type": "SCALAR",
      "byteOffset": 4524
    },
    {
      "bufferView": 9,
      "componentType": 5121,
      "count": 96,
      "type": "SCALAR",
      "byteOffset": 240
    },
    {
      "bufferView": 10,
      "componentType": 5123,
      "count": 6,
      "type": "SCALAR",
      "byteOffset": 4896
    }
  ],
  "bufferViews": [
    {
      "buffer": 0,
      "byteLength": 2508
    },
    {
      "buffer": 0,
      "byteOffset": 2508,
      "byteLength": 2508
    },
    {
      "buffer": 0,
      "byteOffset": 5016,
      "byteLength": 33237
    },
    {
      "buffer": 0,
      "byteOffset": 38253,
      "byteLength": 6047
    },
    {
      "buffer": 0,
      "byteOffset": 44304,
      "byteLength": 1992,
      "target": 34962,
      "byteStride": 12
    },
    {
      "buffer": 0,
      "byteOffset": 46296,
      "byteLength": 1992,
      "target": 34962,
      "byteStride": 12
    },
    {
      "buffer": 0,
      "byteOffset": 48288,
      "byteLength": 14808,
      "target": 34962,
      "byteStride": 12
    },
    {
      "buffer": 0,
      "byteOffset": 63096,
      "byteLength": 14808,
      "target": 34962,
      "byteStride": 12
    },
    {
      "buffer": 0,
      "byteOffset": 77904,
      "byteLength": 9872,
      "target": 34962,
      "byteStride": 8
    },
    {
      "buffer": 0,
      "byteOffset": 87776,
      "byteLength": 336,
      "target": 34963
    },
    {
      "buffer": 0,
      "byteOffset": 88112,
      "byteLength": 4908,
      "target": 34963
    }
  ],
  "buffers": [
    {
      "uri": "data:application/octet-stream;base64,",
      "byteLength": 93020
    }
  ]
}