{
	"accessors": [
		{
			"bufferView": 18,
			"byteOffset": 0,
			"componentType": 5126,
			"count": 2132,
			"max": [
				0.0012276172637939453,
				0.8791206479072571,
				0.8099613189697266
			],
			"min": [
				-2.7987723350524902,
				-0.7208793759346008,
				-0.7900387048721313
			],
			"type": "VEC3"
		},
		{
			"bufferView": 19,
			"byteOffset": 0,
			"componentType": 5126,
			"count": 2132,
			"type": "VEC3"
		},
		{
			"bufferView": 20,
			"byteOffset": 0,
			"componentType": 5126,
			"count": 2132,
			"type": "VEC2"
		},
		{
			"bufferView": 21,
			"byteOffset": 0,
			"componentType": 5123,
			"count": 8451,
			"type": "SCALAR"
		},
		{
			"bufferView": 22,
			"byteOffset": 0,
			"componentType": 5126,
			"count": 153,
			"max": [
				0.0012276172637939453,
				0.814710259437561,
				0.10996130853891373
			],
			"min": [
				-2.3987722396850586,
				0.2433939278125763,
				-0.09003869444131851
			],
			"type": "VEC3"
		},
		{
			"bufferView": 23,
			"byteOffset": 0,
			"componentType": 5126,
			"count": 153,
			"type": "VEC3"
		},
		{
			"bufferView": 24,
			"byteOffset": 0,
			"componentType": 5126,
			"count": 153,
			"type": "VEC2"
		},
		{
			"bufferView": 25,
			"byteOffset": 0,
			"componentType": 5123,
			"count": 447,
			"type": "SCALAR"
		},
		{
			"bufferView": 2,
			"byteOffset": 0,
			"componentType": 5123,
			"count": 7605,
			"max": [
				1990.0
			],
			"min": [
				0.0
			],
			"type": "SCALAR"
		},
		{
			"bufferView": 3,
			"byteOffset": 0,
			"componentType": 5126,
			"count": 1991,
			"max": [
				1.0,
				1.0000001192092896,
				1.0
			],
			"min": [
				-1.0,
				-1.0000001192092896,
				-1.0
			],
			"type": "VEC3"
		},
		{
			"bufferView": 4,
			"byteOffset": 0,
			"componentType": 5126,
			"count": 1991,
			"max": [
				0.0012276172637939453,
				0.8791206479072571,
				0.8099613189697266
			],
			"min": [
				-2.7987723350524902,
				-0.7208793759346008,
				-0.7900387048721313
			],
			"type": "VEC3"
		},
		{
			"bufferView": 5,
			"byteOffset": 0,
			"componentType": 5126,
			"count": 1991,
			"max": [
				1.600000023841858,
				3.262784004211426
			],
			"min": [
				-0.800000011920929,
				-1.5999999046325684
			],
			"type": "VEC2"
		},
		{
			"bufferView": 6,
			"byteOffset": 0,
			"componentType": 5121,
			"count": 447,
			"max": [
				152.0
			],
			"min": [
				0.0
			],
			"type": "SCALAR"
		},
		{
			"bufferView": 7,
			"byteOffset": 0,
			"componentType": 5126,
			"count": 153,
			"max": [
				1.0,
				1.0,
				1.0
			],
			"min": [
				-0.0001435542362742126,
				-1.0,
				-1.0
			],
			"type": "VEC3"
		},
		{
			"bufferView": 8,
			"byteOffset": 0,
			"componentType": 5126,
			"count": 153,
			"max": [
				0.0012276172637939453,
				0.814710259437561,
				0.10996130853891373
			],
			"min": [
				-2.3987722396850586,
				0.2433939278125763,
				-0.09003869444131851
			],
			"type": "VEC3"
		},
		{
			"bufferView": 9,
			"byteOffset": 0,
			"componentType": 5126,
			"count": 153,
			"max": [
				1.2000000476837158,
				1.2828480005264282
			],
			"min": [
				-0.40436503291130066,
				0.7171519994735718
			],
			"type": "VEC2"
		},
		{
			"bufferView": 10,
			"byteOffset": 0,
			"componentType": 5126,
			"count": 9,
			"max": [
				4.0
			],
			"min": [
				2.0
			],
			"normalized": false,
			"type": "SCALAR"
		},
		{
			"bufferView": 11,
			"byteOffset": 0,
			"componentType": 5126,
			"count": 9,
			"max": [
				0.0,
				0.9999946355819702,
				0.0,
				0.9999993443489075
			],
			"min": [
				0.0,
				-0.9999708533287048,
				0.0,
				-0.9999851584434509
			],
			"normalized": false,
			"type": "VEC4"
		},
		{
			"bufferView": 12,
			"byteOffset": 0,
			"componentType": 5126,
			"count": 99,
			"max": [
				4.0
			],
			"min": [
				0.0
			],
			"type": "SCALAR"
		},
		{
			"bufferView": 13,
			"byteOffset": 0,
			"componentType": 5126,
			"count": 99,
			"max": [
				0.7039720416069031,
				-0.06650912761688232,
				0.7039719820022583,
				0.7071067094802856
			],
			"min": [
				-0.7039720416069031,
				-0.7071068286895752,
				-0.7039719820022583,
				0.06650912016630173
			],
			"normalized": false,
			"type": "VEC4"
		},
		{
			"bufferView": 14,
			"byteOffset": 0,
			"componentType": 5126,
			"count": 2,
			"max": [
				4.0
			],
			"min": [
				0.0
			],
			"type": "SCALAR"
		},
		{
			"bufferView": 15,
			"byteOffset": 0,
			"componentType": 5126,
			"count": 2,
			"max": [
				-0.006798454560339451,
				0.24355444312095642,
				-0.020601864904165268
			],
			"min": [
				-0.006798454560339451,
				0.24355444312095642,
				-0.020601864904165268
			],
			"normalized": false,
			"type": "VEC3"
		},
		{
			"bufferView": 16,
			"byteOffset": 0,
			"componentType": 5126,
			"count": 2,
			"max": [
				4.0
			],
			"min": [
				0.0
			],
			"type": "SCALAR"
		},
		{
			"bufferView": 17,
			"byteOffset": 0,
			"componentType": 5126,
			"count": 2,
			"max": [
				0.009999999776482582,
				0.009999999776482582,
				0.009999999776482582
			],
			"min": [
				0.009999999776482582,
				0.009999999776482582,
				0.009999999776482582
			],
			"normalized": false,
			"type": "VEC3"
		}
	],
	"animations": [
		{
			"channels": [
				{
					"sampler": 0,
					"target": {
						"node": 0,
						"path": "rotation"
					}
				},
				{
					"sampler": 1,
					"target": {
						"node": 0,
						"path": "translation"
					}
				},
				{
					"sampler": 2,
					"target": {
						"node": 0,
						"path": "scale"
					}
				}
			],
			"name": "poulie",
			"samplers": [
				{
					"input": 18,
					"interpolation": "LINEAR",
					"output": 19
				},
				{
					"input": 20,
					"interpolation": "LINEAR",
					"output": 21
				},
				{
					"input": 22,
					"interpolation": "LINEAR",
					"output": 23
				}
			]
		},
		{
			"channels": [
				{
					"sampler": 0,
					"target": {
						"node": 0,
						"path": "rotation"
					}
				}
			],
			"samplers": [
				{
					"input": 16,
					"interpolation": "LINEAR",
					"output": 17
				}
			]
		}
	],
	"asset": {
		"extras": {
			"created": "Thu May 12 14:31:13 2022"
		},
		"generator": "Gestaltor 2022.1.1 Bavette Professional",
		"version": "2.0"
	},
	"bufferViews": [
		{
			"buffer": 0,
			"byteLength": 16580,
			"byteOffset": 0
		},
		{
			"buffer": 0,
			"byteLength": 312,
			"byteOffset": 16580
		},
		{
			"buffer": 0,
			"byteLength": 15210,
			"byteOffset": 16892
		},
		{
			"buffer": 0,
			"byteLength": 23892,
			"byteOffset": 32104
		},
		{
			"buffer": 0,
			"byteLength": 23892,
			"byteOffset": 55996
		},
		{
			"buffer": 0,
			"byteLength": 15928,
			"byteOffset": 79888
		},
		{
			"buffer": 0,
			"byteLength": 447,
			"byteOffset": 95816
		},
		{
			"buffer": 0,
			"byteLength": 1836,
			"byteOffset": 96264
		},
		{
			"buffer": 0,
			"byteLength": 1836,
			"byteOffset": 98100
		},
		{
			"buffer": 0,
			"byteLength": 1224,
			"byteOffset": 99936
		},
		{
			"buffer": 0,
			"byteLength": 36,
			"byteOffset": 101160,
			"byteStride": 4
		},
		{
			"buffer": 0,
			"byteLength": 144,
			"byteOffset": 101196,
			"byteStride": 16
		},
		{
			"buffer": 0,
			"byteLength": 396,
			"byteOffset": 101340
		},
		{
			"buffer": 0,
			"byteLength": 1584,
			"byteOffset": 101736
		},
		{
			"buffer": 0,
			"byteLength": 8,
			"byteOffset": 103320
		},
		{
			"buffer": 0,
			"byteLength": 24,
			"byteOffset": 103328
		},
		{
			"buffer": 0,
			"byteLength": 8,
			"byteOffset": 103352
		},
		{
			"buffer": 0,
			"byteLength": 24,
			"byteOffset": 103360
		},
		{
			"buffer": 1,
			"byteLength": 25584,
			"byteOffset": 0
		},
		{
			"buffer": 1,
			"byteLength": 25584,
			"byteOffset": 25584
		},
		{
			"buffer": 1,
			"byteLength": 17056,
			"byteOffset": 51168
		},
		{
			"buffer": 1,
			"byteLength": 16902,
			"byteOffset": 68224
		},
		{
			"buffer": 1,
			"byteLength": 1836,
			"byteOffset": 85128
		},
		{
			"buffer": 1,
			"byteLength": 1836,
			"byteOffset": 86964
		},
		{
			"buffer": 1,
			"byteLength": 1224,
			"byteOffset": 88800
		},
		{
			"buffer": 1,
			"byteLength": 894,
			"byteOffset": 90024
		}
	],
	"buffers": [
		{
			"byteLength": 103384,
			"uri": "monte-charge1_poulietest.bin"
		},
		{
			"byteLength": 90918,
			"uri": "data:application/octet-stream;base64,"
		}
	],
	"images": [
		{
			"bufferView": 0,
			"mimeType": "image/png",
			"name": "Thickness_Body1.0_prim0"
		},
		{
			"bufferView": 1,
			"mimeType": "image/png",
			"name": "Thickness_Body1.1_prim0"
		}
	],
	"materials": [
		{
			"doubleSided": true,
			"name": "Yellow",
			"pbrMetallicRoughness": {
				"baseColorFactor": [
					0.8666666746139526,
					0.8666666746139526,
					0.05098039284348488,
					1.0
				],
				"roughnessFactor": 0.5527864098548889
			}
		},
		{
			"doubleSided": true,
			"name": "Red",
			"pbrMetallicRoughness": {
				"baseColorFactor": [
					0.6980392336845398,
					0.0,
					0.0,
					1.0
				],
				"roughnessFactor": 0.5527864098548889
			}
		}
	],
	"meshes": [
		{
			"name": "Body1",
			"primitives": [
				{
					"attributes": {
						"NORMAL": 1,
						"POSITION": 0,
						"TEXCOORD_0": 2
					},
					"indices": 3,
					"material": 0,
					"mode": 4
				},
				{
					"attributes": {
						"NORMAL": 5,
						"POSITION": 4,
						"TEXCOORD_0": 6
					},
					"indices": 7,
					"material": 1,
					"mode": 4
				}
			]
		},
		{
			"name": "Body1.0",
			"primitives": [
				{
					"attributes": {
						"NORMAL": 9,
						"POSITION": 10,
						"TEXCOORD_0": 11
					},
					"indices": 8,
					"material": 0,
					"mode": 4
				}
			]
		},
		{
			"name": "Body1.1",
			"primitives": [
				{
					"attributes": {
						"NORMAL": 13,
						"POSITION": 14,
						"TEXCOORD_0": 15
					},
					"indices": 12,
					"material": 1,
					"mode": 4
				}
			]
		}
	],
	"nodes": [
		{
			"children": [
				1,
				2
			],
			"name": "poulie",
			"rotation": [
				0.0,
				-0.7071067811865476,
				0.0,
				0.7071067811865476
			],
			"scale": [
				0.009999999776482582,
				0.009999999776482582,
				0.009999999776482582
			]
		},
		{
			"mesh": 1,
			"name": "poulie.0"
		},
		{
			"mesh": 2,
			"name": "poulie.1"
		}
	],
	"scene": 0,
	"scenes": [
		{
			"name": "Scene",
			"nodes": [
				0
			]
		}
	],
	"textures": [
		{
			"name": "Thickness_Body1.0_prim0",
			"source": 0
		},
		{
			"name": "Thickness_Body1.1_prim0",
			"source": 1
		}
	]
}