{
    "asset" : {
        "generator" : "Khronos glTF Blender I/O v1.6.16",
        "version" : "2.0"
    },
    "scene" : 0,
    "scenes" : [
        {
            "name" : "Scene",
            "nodes" : [
                0
            ]
        }
    ],
    "nodes" : [
        {
            "mesh" : 0,
            "name" : "poulie",
            "rotation" : [
                0.0029530224855989218,
                -0.7071006894111633,
                0.0029530224855989218,
                0.7071006894111633
            ],
            "scale" : [
                0.009999999776482582,
                0.009999999776482582,
                0.009999999776482582
            ]
        }
    ],
    "materials" : [
        {
            "doubleSided" : true,
            "name" : "Yellow",
            "pbrMetallicRoughness" : {
                "baseColorFactor" : [
                    0.8666666746139526,
                    0.8666666746139526,
                    0.05098039284348488,
                    1
                ],
                "roughnessFactor" : 0.5527864098548889
            }
        },
        {
            "doubleSided" : true,
            "name" : "Red",
            "pbrMetallicRoughness" : {
                "baseColorFactor" : [
                    0.6980392336845398,
                    0,
                    0,
                    1
                ],
                "roughnessFactor" : 0.5527864098548889
            }
        }
    ],
    "meshes" : [
        {
            "name" : "Body1",
            "primitives" : [
                {
                    "attributes" : {
                        "POSITION" : 0,
                        "NORMAL" : 1,
                        "TEXCOORD_0" : 2
                    },
                    "indices" : 3,
                    "material" : 0
                },
                {
                    "attributes" : {
                        "POSITION" : 4,
                        "NORMAL" : 5,
                        "TEXCOORD_0" : 6
                    },
                    "indices" : 7,
                    "material" : 1
                }
            ]
        }
    ],
    "accessors" : [
        {
            "bufferView" : 0,
            "componentType" : 5126,
            "count" : 2559,
            "max" : [
                0.0012276172637939453,
                0.8791206479072571,
                0.8099613189697266
            ],
            "min" : [
                -2.7987723350524902,
                -0.7208793759346008,
                -0.7900387048721313
            ],
            "type" : "VEC3"
        },
        {
            "bufferView" : 1,
            "componentType" : 5126,
            "count" : 2559,
            "type" : "VEC3"
        },
        {
            "bufferView" : 2,
            "componentType" : 5126,
            "count" : 2559,
            "type" : "VEC2"
        },
        {
            "bufferView" : 3,
            "componentType" : 5123,
            "count" : 8451,
            "type" : "SCALAR"
        },
        {
            "bufferView" : 4,
            "componentType" : 5126,
            "count" : 159,
            "max" : [
                0.0012276172637939453,
                0.814710259437561,
                0.10996130853891373
            ],
            "min" : [
                -2.3987722396850586,
                0.2433939278125763,
                -0.09003869444131851
            ],
            "type" : "VEC3"
        },
        {
            "bufferView" : 5,
            "componentType" : 5126,
            "count" : 159,
            "type" : "VEC3"
        },
        {
            "bufferView" : 6,
            "componentType" : 5126,
            "count" : 159,
            "type" : "VEC2"
        },
        {
            "bufferView" : 7,
            "componentType" : 5123,
            "count" : 447,
            "type" : "SCALAR"
        }
    ],
    "bufferViews" : [
        {
            "buffer" : 0,
            "byteLength" : 30708,
            "byteOffset" : 0
        },
        {
            "buffer" : 0,
            "byteLength" : 30708,
            "byteOffset" : 30708
        },
        {
            "buffer" : 0,
            "byteLength" : 20472,
            "byteOffset" : 61416
        },
        {
            "buffer" : 0,
            "byteLength" : 16902,
            "byteOffset" : 81888
        },
        {
            "buffer" : 0,
            "byteLength" : 1908,
            "byteOffset" : 98792
        },
        {
            "buffer" : 0,
            "byteLength" : 1908,
            "byteOffset" : 100700
        },
        {
            "buffer" : 0,
            "byteLength" : 1272,
            "byteOffset" : 102608
        },
        {
            "buffer" : 0,
            "byteLength" : 894,
            "byteOffset" : 103880
        }
    ],
    "buffers" : [
        {
            "byteLength" : 104776,
            "uri" : "data:application/octet-stream;base64,"
        }
    ]
}
