{
    "asset" : {
        "generator" : "Khronos glTF Blender I/O v1.6.16",
        "version" : "2.0"
    },
    "scene" : 0,
    "scenes" : [
        {
            "name" : "Scene",
            "nodes" : [
                0
            ]
        }
    ],
    "nodes" : [
        {
            "mesh" : 0,
            "name" : "interrupteur",
            "rotation" : [
                0.7660444378852844,
                0,
                0,
                0.6427876353263855
            ],
            "scale" : [
                0.009999999776482582,
                0.009999999776482582,
                0.009999999776482582
            ]
        }
    ],
    "animations" : [
        {
            "channels" : [
                {
                    "sampler" : 0,
                    "target" : {
                        "node" : 0,
                        "path" : "rotation"
                    }
                }
            ],
            "name" : "switch",
            "samplers" : [
                {
                    "input" : 4,
                    "interpolation" : "LINEAR",
                    "output" : 5
                }
            ]
        }
    ],
    "materials" : [
        {
            "doubleSided" : true,
            "name" : "144,142,139",
            "pbrMetallicRoughness" : {
                "baseColorFactor" : [
                    0.5647059082984924,
                    0.5568627715110779,
                    0.545098066329956,
                    1
                ],
                "roughnessFactor" : 0.5527864098548889
            }
        }
    ],
    "meshes" : [
        {
            "name" : "Body1.020",
            "primitives" : [
                {
                    "attributes" : {
                        "POSITION" : 0,
                        "NORMAL" : 1,
                        "TEXCOORD_0" : 2
                    },
                    "indices" : 3,
                    "material" : 0
                }
            ]
        }
    ],
    "accessors" : [
        {
            "bufferView" : 0,
            "componentType" : 5126,
            "count" : 274,
            "max" : [
                0.8867027759552002,
                1.1427531242370605,
                0.44148826599121094
            ],
            "min" : [
                -0.8982971906661987,
                -1.1072468757629395,
                -0.5585117340087891
            ],
            "type" : "VEC3"
        },
        {
            "bufferView" : 1,
            "componentType" : 5126,
            "count" : 274,
            "type" : "VEC3"
        },
        {
            "bufferView" : 2,
            "componentType" : 5126,
            "count" : 274,
            "type" : "VEC2"
        },
        {
            "bufferView" : 3,
            "componentType" : 5123,
            "count" : 924,
            "type" : "SCALAR"
        },
        {
            "bufferView" : 4,
            "componentType" : 5126,
            "count" : 21,
            "max" : [
                0.8
            ],
            "min" : [
                0
            ],
            "type" : "SCALAR"
        },
        {
            "bufferView" : 5,
            "componentType" : 5126,
            "count" : 21,
            "type" : "VEC4"
        }
    ],
    "bufferViews" : [
        {
            "buffer" : 0,
            "byteLength" : 3288,
            "byteOffset" : 0
        },
        {
            "buffer" : 0,
            "byteLength" : 3288,
            "byteOffset" : 3288
        },
        {
            "buffer" : 0,
            "byteLength" : 2192,
            "byteOffset" : 6576
        },
        {
            "buffer" : 0,
            "byteLength" : 1848,
            "byteOffset" : 8768
        },
        {
            "buffer" : 0,
            "byteLength" : 84,
            "byteOffset" : 10616
        },
        {
            "buffer" : 0,
            "byteLength" : 336,
            "byteOffset" : 10700
        }
    ],
    "buffers" : [
        {
            "byteLength" : 11036,
            "uri" : "data:application/octet-stream;base64,"
        }
    ]
}
