{"accessors":[{"bufferView":0,"byteOffset":0,"componentType":5126,"count":96,"max":[0.9510979652404785,0.06273197382688522,0.689791202545166],"min":[-0.9510977268218994,-1.7811544239521027e-08,-0.689791202545166],"type":"VEC3"},{"bufferView":1,"byteOffset":0,"componentType":5126,"count":96,"type":"VEC3"},{"bufferView":2,"byteOffset":0,"componentType":5126,"count":96,"type":"VEC2"},{"bufferView":3,"byteOffset":0,"componentType":5126,"count":96,"type":"VEC2"},{"bufferView":4,"byteOffset":0,"componentType":5126,"count":96,"type":"VEC2"},{"bufferView":5,"byteOffset":0,"componentType":5126,"count":96,"type":"VEC2"},{"bufferView":6,"byteOffset":0,"componentType":5123,"count":126,"type":"SCALAR"},{"bufferView":7,"byteOffset":0,"componentType":5126,"count":6,"max":[0.27579355239868164,-1.4932627578900792e-08,0.3800535798072815],"min":[-0.27579379081726074,-2.9802322387695313e-08,-2.384185791015625e-07],"type":"VEC3"},{"bufferView":8,"byteOffset":0,"componentType":5126,"count":6,"type":"VEC3"},{"bufferView":9,"byteOffset":0,"componentType":5126,"count":6,"type":"VEC2"},{"bufferView":10,"byteOffset":0,"componentType":5126,"count":6,"type":"VEC2"},{"bufferView":11,"byteOffset":0,"componentType":5126,"count":6,"type":"VEC2"},{"bufferView":12,"byteOffset":0,"componentType":5126,"count":6,"type":"VEC2"},{"bufferView":13,"byteOffset":0,"componentType":5123,"count":6,"type":"SCALAR"},{"bufferView":14,"byteOffset":0,"componentType":5126,"count":6,"max":[0.27579355239868164,1.4901161193847656e-08,0.38166284561157227],"min":[-0.27579379081726074,-3.1466385053136037e-11,5.364418029785156e-07],"type":"VEC3"},{"bufferView":15,"byteOffset":0,"componentType":5126,"count":6,"type":"VEC3"},{"bufferView":16,"byteOffset":0,"componentType":5126,"count":6,"type":"VEC2"},{"bufferView":17,"byteOffset":0,"componentType":5126,"count":6,"type":"VEC2"},{"bufferView":18,"byteOffset":0,"componentType":5126,"count":6,"type":"VEC2"},{"bufferView":19,"byteOffset":0,"componentType":5126,"count":6,"type":"VEC2"},{"bufferView":20,"byteOffset":0,"componentType":5126,"count":4,"max":[0.09193086624145508,-1.9297003746032715e-06,0.19042879343032837],"min":[-0.09193158149719238,-1.9371509552001953e-06,-2.384185791015625e-07],"type":"VEC3"},{"bufferView":21,"byteOffset":0,"componentType":5126,"count":4,"type":"VEC3"},{"bufferView":22,"byteOffset":0,"componentType":5126,"count":4,"type":"VEC2"},{"bufferView":23,"byteOffset":0,"componentType":5126,"count":4,"type":"VEC2"},{"bufferView":24,"byteOffset":0,"componentType":5126,"count":4,"type":"VEC2"},{"bufferView":25,"byteOffset":0,"componentType":5126,"count":4,"type":"VEC2"},{"bufferView":26,"byteOffset":0,"componentType":5123,"count":6,"type":"SCALAR"},{"bufferView":27,"byteOffset":0,"componentType":5126,"count":6,"max":[0.1969960629940033,-1.0991616505862112e-09,0.2626604735851288],"min":[-0.19699501991271973,-2.9802322387695313e-08,-2.384185791015625e-07],"type":"VEC3"},{"bufferView":28,"byteOffset":0,"componentType":5126,"count":6,"type":"VEC3"},{"bufferView":29,"byteOffset":0,"componentType":5126,"count":6,"type":"VEC2"},{"bufferView":30,"byteOffset":0,"componentType":5126,"count":6,"type":"VEC2"},{"bufferView":31,"byteOffset":0,"componentType":5126,"count":6,"type":"VEC2"},{"bufferView":32,"byteOffset":0,"componentType":5126,"count":6,"type":"VEC2"},{"bufferView":33,"byteOffset":0,"componentType":5123,"count":6,"type":"SCALAR"},{"bufferView":34,"byteOffset":0,"componentType":5126,"count":6,"max":[0.13789689540863037,-1.9222497940063477e-06,0.38085877895355225],"min":[-0.13789677619934082,-1.9371509552001953e-06,7.152557373046875e-07],"type":"VEC3"},{"bufferView":35,"byteOffset":0,"componentType":5126,"count":6,"type":"VEC3"},{"bufferView":36,"byteOffset":0,"componentType":5126,"count":6,"type":"VEC2"},{"bufferView":37,"byteOffset":0,"componentType":5126,"count":6,"type":"VEC2"},{"bufferView":38,"byteOffset":0,"componentType":5126,"count":6,"type":"VEC2"},{"bufferView":39,"byteOffset":0,"componentType":5126,"count":6,"type":"VEC2"},{"bufferView":40,"byteOffset":0,"componentType":5126,"count":103,"max":[0.010600503534078598,0.005638306029140949,0.003915893379598856],"min":[-0.012256058864295483,-0.003916412126272917,-0.005638824310153723],"type":"VEC3"},{"bufferView":41,"byteOffset":0,"componentType":5126,"count":103,"type":"VEC3"},{"bufferView":42,"byteOffset":0,"componentType":5126,"count":103,"type":"VEC2"},{"bufferView":43,"byteOffset":0,"componentType":5126,"count":103,"type":"VEC2"},{"bufferView":44,"byteOffset":0,"componentType":5126,"count":103,"type":"VEC2"},{"bufferView":45,"byteOffset":0,"componentType":5126,"count":103,"type":"VEC2"},{"bufferView":46,"byteOffset":0,"componentType":5123,"count":318,"type":"SCALAR"},{"bufferView":47,"byteOffset":0,"componentType":5126,"count":103,"max":[0.010600503534078598,0.005638306029140949,0.003915893379598856],"min":[-0.012256058864295483,-0.003916412126272917,-0.005638824310153723],"type":"VEC3"},{"bufferView":48,"byteOffset":0,"componentType":5126,"count":103,"type":"VEC3"},{"bufferView":49,"byteOffset":0,"componentType":5126,"count":103,"type":"VEC2"},{"bufferView":50,"byteOffset":0,"componentType":5126,"count":103,"type":"VEC2"},{"bufferView":51,"byteOffset":0,"componentType":5126,"count":103,"type":"VEC2"},{"bufferView":52,"byteOffset":0,"componentType":5126,"count":103,"type":"VEC2"},{"bufferView":53,"byteOffset":0,"componentType":5126,"count":103,"max":[0.010600503534078598,0.005638306029140949,0.003915893379598856],"min":[-0.012256058864295483,-0.003916412126272917,-0.005638824310153723],"type":"VEC3"},{"bufferView":54,"byteOffset":0,"componentType":5126,"count":103,"type":"VEC3"},{"bufferView":55,"byteOffset":0,"componentType":5126,"count":103,"type":"VEC2"},{"bufferView":56,"byteOffset":0,"componentType":5126,"count":103,"type":"VEC2"},{"bufferView":57,"byteOffset":0,"componentType":5126,"count":103,"type":"VEC2"},{"bufferView":58,"byteOffset":0,"componentType":5126,"count":103,"type":"VEC2"},{"bufferView":59,"byteOffset":0,"componentType":5126,"count":53,"max":[0.0023649544455111027,0.004521384369581938,0.0045221769250929356],"min":[-0.007653949316591024,-0.004521387629210949,-0.004520595073699951],"type":"VEC3"},{"bufferView":60,"byteOffset":0,"componentType":5126,"count":53,"type":"VEC3"},{"bufferView":61,"byteOffset":0,"componentType":5126,"count":53,"type":"VEC2"},{"bufferView":62,"byteOffset":0,"componentType":5126,"count":53,"type":"VEC2"},{"bufferView":63,"byteOffset":0,"componentType":5126,"count":53,"type":"VEC2"},{"bufferView":64,"byteOffset":0,"componentType":5126,"count":53,"type":"VEC2"},{"bufferView":65,"byteOffset":0,"componentType":5123,"count":126,"type":"SCALAR"},{"bufferView":66,"byteOffset":0,"componentType":5126,"count":53,"max":[0.0023649544455111027,0.004521384369581938,0.0045221769250929356],"min":[-0.007653949316591024,-0.004521387629210949,-0.004520595073699951],"type":"VEC3"},{"bufferView":67,"byteOffset":0,"componentType":5126,"count":53,"type":"VEC3"},{"bufferView":68,"byteOffset":0,"componentType":5126,"count":53,"type":"VEC2"},{"bufferView":69,"byteOffset":0,"componentType":5126,"count":53,"type":"VEC2"},{"bufferView":70,"byteOffset":0,"componentType":5126,"count":53,"type":"VEC2"},{"bufferView":71,"byteOffset":0,"componentType":5126,"count":53,"type":"VEC2"},{"bufferView":72,"byteOffset":0,"componentType":5126,"count":53,"max":[0.0023649544455111027,0.004521384369581938,0.0045221769250929356],"min":[-0.007653949316591024,-0.004521387629210949,-0.004520595073699951],"type":"VEC3"},{"bufferView":73,"byteOffset":0,"componentType":5126,"count":53,"type":"VEC3"},{"bufferView":74,"byteOffset":0,"componentType":5126,"count":53,"type":"VEC2"},{"bufferView":75,"byteOffset":0,"componentType":5126,"count":53,"type":"VEC2"},{"bufferView":76,"byteOffset":0,"componentType":5126,"count":53,"type":"VEC2"},{"bufferView":77,"byteOffset":0,"componentType":5126,"count":53,"type":"VEC2"}],"asset":{"extras":{"created":"Mon Dec 12 08:53:52 2022"},"generator":"Gestaltor 2022.4.0 Pappardelle Professional","version":"2.0"},"bufferViews":[{"buffer":0,"byteLength":1152,"byteOffset":0},{"buffer":0,"byteLength":1152,"byteOffset":1152},{"buffer":0,"byteLength":768,"byteOffset":2304},{"buffer":0,"byteLength":768,"byteOffset":3072},{"buffer":0,"byteLength":768,"byteOffset":3840},{"buffer":0,"byteLength":768,"byteOffset":4608},{"buffer":0,"byteLength":252,"byteOffset":5376},{"buffer":0,"byteLength":72,"byteOffset":5628},{"buffer":0,"byteLength":72,"byteOffset":5700},{"buffer":0,"byteLength":48,"byteOffset":5772},{"buffer":0,"byteLength":48,"byteOffset":5820},{"buffer":0,"byteLength":48,"byteOffset":5868},{"buffer":0,"byteLength":48,"byteOffset":5916},{"buffer":0,"byteLength":12,"byteOffset":5964},{"buffer":0,"byteLength":72,"byteOffset":5976},{"buffer":0,"byteLength":72,"byteOffset":6048},{"buffer":0,"byteLength":48,"byteOffset":6120},{"buffer":0,"byteLength":48,"byteOffset":6168},{"buffer":0,"byteLength":48,"byteOffset":6216},{"buffer":0,"byteLength":48,"byteOffset":6264},{"buffer":0,"byteLength":48,"byteOffset":6312},{"buffer":0,"byteLength":48,"byteOffset":6360},{"buffer":0,"byteLength":32,"byteOffset":6408},{"buffer":0,"byteLength":32,"byteOffset":6440},{"buffer":0,"byteLength":32,"byteOffset":6472},{"buffer":0,"byteLength":32,"byteOffset":6504},{"buffer":0,"byteLength":12,"byteOffset":6536},{"buffer":0,"byteLength":72,"byteOffset":6548},{"buffer":0,"byteLength":72,"byteOffset":6620},{"buffer":0,"byteLength":48,"byteOffset":6692},{"buffer":0,"byteLength":48,"byteOffset":6740},{"buffer":0,"byteLength":48,"byteOffset":6788},{"buffer":0,"byteLength":48,"byteOffset":6836},{"buffer":0,"byteLength":12,"byteOffset":6884},{"buffer":0,"byteLength":72,"byteOffset":6896},{"buffer":0,"byteLength":72,"byteOffset":6968},{"buffer":0,"byteLength":48,"byteOffset":7040},{"buffer":0,"byteLength":48,"byteOffset":7088},{"buffer":0,"byteLength":48,"byteOffset":7136},{"buffer":0,"byteLength":48,"byteOffset":7184},{"buffer":0,"byteLength":1236,"byteOffset":7232},{"buffer":0,"byteLength":1236,"byteOffset":8468},{"buffer":0,"byteLength":824,"byteOffset":9704},{"buffer":0,"byteLength":824,"byteOffset":10528},{"buffer":0,"byteLength":824,"byteOffset":11352},{"buffer":0,"byteLength":824,"byteOffset":12176},{"buffer":0,"byteLength":636,"byteOffset":13000},{"buffer":0,"byteLength":1236,"byteOffset":13636},{"buffer":0,"byteLength":1236,"byteOffset":14872},{"buffer":0,"byteLength":824,"byteOffset":16108},{"buffer":0,"byteLength":824,"byteOffset":16932},{"buffer":0,"byteLength":824,"byteOffset":17756},{"buffer":0,"byteLength":824,"byteOffset":18580},{"buffer":0,"byteLength":1236,"byteOffset":19404},{"buffer":0,"byteLength":1236,"byteOffset":20640},{"buffer":0,"byteLength":824,"byteOffset":21876},{"buffer":0,"byteLength":824,"byteOffset":22700},{"buffer":0,"byteLength":824,"byteOffset":23524},{"buffer":0,"byteLength":824,"byteOffset":24348},{"buffer":0,"byteLength":636,"byteOffset":25172},{"buffer":0,"byteLength":636,"byteOffset":25808},{"buffer":0,"byteLength":424,"byteOffset":26444},{"buffer":0,"byteLength":424,"byteOffset":26868},{"buffer":0,"byteLength":424,"byteOffset":27292},{"buffer":0,"byteLength":424,"byteOffset":27716},{"buffer":0,"byteLength":252,"byteOffset":28140},{"buffer":0,"byteLength":636,"byteOffset":28392},{"buffer":0,"byteLength":636,"byteOffset":29028},{"buffer":0,"byteLength":424,"byteOffset":29664},{"buffer":0,"byteLength":424,"byteOffset":30088},{"buffer":0,"byteLength":424,"byteOffset":30512},{"buffer":0,"byteLength":424,"byteOffset":30936},{"buffer":0,"byteLength":636,"byteOffset":31360},{"buffer":0,"byteLength":636,"byteOffset":31996},{"buffer":0,"byteLength":424,"byteOffset":32632},{"buffer":0,"byteLength":424,"byteOffset":33056},{"buffer":0,"byteLength":424,"byteOffset":33480},{"buffer":0,"byteLength":424,"byteOffset":33904}],"buffers":[{"byteLength":34328,"uri":"data:application/octet-stream;base64,"}],"images":[{"mimeType":"image/jpeg","name":"M_Office_PinBoard_Photo_Notepad_1024_normal","uri":"data:image/jpeg;base64,"},{"mimeType":"image/png","name":"M_Office_PinBoard_Photo_Notepad_1024_baseColor","uri":"data:image/png;base64,"},{"mimeType":"image/png","name":"M_Office_PinBoard_Photo_Notepad_1024_metallicRoughness","uri":"data:image/png;base64,"}],"materials":[{"alphaCutoff":0.5,"alphaMode":"MASK","doubleSided":true,"name":"M_Office_PinBoard_Photo_Notepad_1024","normalTexture":{"index":0},"pbrMetallicRoughness":{"baseColorTexture":{"index":1},"metallicRoughnessTexture":{"index":2}}}],"meshes":[{"name":"Object_13","primitives":[{"attributes":{"NORMAL":1,"POSITION":0,"TEXCOORD_0":2,"TEXCOORD_1":3,"TEXCOORD_2":4,"TEXCOORD_3":5},"indices":6,"material":0,"mode":4}]},{"name":"Object_14","primitives":[{"attributes":{"NORMAL":8,"POSITION":7,"TEXCOORD_0":9,"TEXCOORD_1":10,"TEXCOORD_2":11,"TEXCOORD_3":12},"indices":13,"material":0,"mode":4}]},{"name":"Object_15","primitives":[{"attributes":{"NORMAL":15,"POSITION":14,"TEXCOORD_0":16,"TEXCOORD_1":17,"TEXCOORD_2":18,"TEXCOORD_3":19},"indices":13,"material":0,"mode":4}]},{"name":"Object_16","primitives":[{"attributes":{"NORMAL":21,"POSITION":20,"TEXCOORD_0":22,"TEXCOORD_1":23,"TEXCOORD_2":24,"TEXCOORD_3":25},"indices":26,"material":0,"mode":4}]},{"name":"Object_17","primitives":[{"attributes":{"NORMAL":28,"POSITION":27,"TEXCOORD_0":29,"TEXCOORD_1":30,"TEXCOORD_2":31,"TEXCOORD_3":32},"indices":33,"material":0,"mode":4}]},{"name":"Object_18","primitives":[{"attributes":{"NORMAL":35,"POSITION":34,"TEXCOORD_0":36,"TEXCOORD_1":37,"TEXCOORD_2":38,"TEXCOORD_3":39},"indices":13,"material":0,"mode":4}]},{"name":"Object_19","primitives":[{"attributes":{"NORMAL":41,"POSITION":40,"TEXCOORD_0":42,"TEXCOORD_1":43,"TEXCOORD_2":44,"TEXCOORD_3":45},"indices":46,"material":0,"mode":4}]},{"name":"Object_21","primitives":[{"attributes":{"NORMAL":48,"POSITION":47,"TEXCOORD_0":49,"TEXCOORD_1":50,"TEXCOORD_2":51,"TEXCOORD_3":52},"indices":46,"material":0,"mode":4}]},{"name":"Object_20","primitives":[{"attributes":{"NORMAL":54,"POSITION":53,"TEXCOORD_0":55,"TEXCOORD_1":56,"TEXCOORD_2":57,"TEXCOORD_3":58},"indices":46,"material":0,"mode":4}]},{"name":"Object_23","primitives":[{"attributes":{"NORMAL":60,"POSITION":59,"TEXCOORD_0":61,"TEXCOORD_1":62,"TEXCOORD_2":63,"TEXCOORD_3":64},"indices":65,"material":0,"mode":4}]},{"name":"Object_22","primitives":[{"attributes":{"NORMAL":67,"POSITION":66,"TEXCOORD_0":68,"TEXCOORD_1":69,"TEXCOORD_2":70,"TEXCOORD_3":71},"indices":65,"material":0,"mode":4}]},{"name":"Object_24","primitives":[{"attributes":{"NORMAL":73,"POSITION":72,"TEXCOORD_0":74,"TEXCOORD_1":75,"TEXCOORD_2":76,"TEXCOORD_3":77},"indices":65,"material":0,"mode":4}]}],"nodes":[{"mesh":0,"name":"Object_30"},{"mesh":1,"name":"Object_32"},{"children":[1],"matrix":[0.9997560208170676,0.00043882255898203097,0.02208407302857254,0.0,1.7488806410004276e-10,0.9998026390101612,-0.01986663116320261,0.0,-0.02208843241992506,0.019861784122693047,0.9995587079791243,0.0,0.43325376510620117,0.03056091070175171,-0.4424905478954315,1.0],"name":"Paper_Fax1_13"},{"mesh":2,"name":"Object_34"},{"children":[3],"matrix":[0.9993871209628387,-0.0011053480681128616,-0.034988008125309694,0.0,-5.932549611981086e-08,0.9995012862604853,-0.0315781381183188,0.0,0.03500546395814372,0.031558786615956215,0.9988887128089319,0.0,-0.44052982330322266,0.03685039281845093,0.07296182960271835,1.0],"name":"Paper_Fax2_14"},{"mesh":3,"name":"Object_36"},{"children":[5],"matrix":[0.998533138359036,0.005264587040542668,0.05388743599094312,0.0,-0.0027328173667789946,0.9988935562824033,-0.046948854656253466,0.0,-0.05407497890545379,0.046732722663961404,0.9974427047959858,0.0,-0.11682653427124023,0.03075331449508667,-0.3737320601940155,1.0],"name":"Paper_Note_15"},{"mesh":4,"name":"Object_38"},{"children":[7],"matrix":[0.998021306025013,0.0001223024547291618,-0.06287653397265923,0.0,-0.004404401065396468,0.9976776976069577,-0.06796921246761946,0.0,0.0627222028755411,0.06811165564220877,0.9957041374257971,0.0,0.44272851943969727,0.030026137828826904,0.19946768879890442,1.0],"name":"Photo_Child_16"},{"mesh":5,"name":"Object_40"},{"children":[9],"matrix":[0.9982638475257385,-0.001202397278569689,0.058888412744911835,0.0,0.003170963261070525,0.9994388130956804,-0.03334672295542323,0.0,-0.058815269333970986,0.03347556094605881,0.9977074476847826,0.0,-0.5832853317260742,0.030026018619537354,-0.49511024355888367,1.0],"name":"Photo_Family_17"},{"mesh":6,"name":"Object_42"},{"children":[11],"matrix":[0.0,2.6266071796417236,0.0,0.0,0.0,0.0,-2.6266071796417236,0.0,-2.6266071796417236,0.0,0.0,0.0,0.1919078826904297,0.03789407014846802,-0.43285295367240906,1.0],"name":"Pin_Big1_18"},{"mesh":7,"name":"Object_46"},{"children":[13],"matrix":[0.0,2.6266071796417236,0.0,0.0,0.0,0.0,-2.6266071796417236,0.0,-2.6266071796417236,0.0,0.0,0.0,0.6831755638122559,0.04297453165054321,-0.41818925738334656,1.0],"name":"Pin_Big2.001_20"},{"mesh":8,"name":"Object_44"},{"children":[15],"matrix":[0.0,2.6266071796417236,0.0,0.0,0.0,0.0,-2.6266071796417236,0.0,-2.6266071796417236,0.0,0.0,0.0,-0.5906853675842285,0.039750635623931885,-0.4748251140117645,1.0],"name":"Pin_Big2_19"},{"mesh":9,"name":"Object_50"},{"children":[17],"matrix":[0.0,2.6266071796417236,0.0,0.0,0.0,0.0,-2.6266071796417236,0.0,-2.6266071796417236,0.0,0.0,0.0,0.4829840660095215,0.03835231065750122,0.226441890001297,1.0],"name":"Pin_Flat1.001_22"},{"mesh":10,"name":"Object_48"},{"children":[19],"matrix":[0.0,2.6266071796417236,0.0,0.0,0.0,0.0,-2.6266071796417236,0.0,-2.6266071796417236,0.0,0.0,0.0,-0.436734676361084,0.04403418302536011,0.09217192977666855,1.0],"name":"Pin_Flat1_21"},{"mesh":11,"name":"Object_52"},{"children":[21],"matrix":[0.0,2.6266071796417236,0.0,0.0,0.0,0.0,-2.6266071796417236,0.0,-2.6266071796417236,0.0,0.0,0.0,-0.11582279205322266,0.03730803728103638,-0.35751721262931824,1.0],"name":"Pin_Flat2_23"},{"children":[0,2,4,6,8,10,12,14,16,18,20,22],"matrix":[0.38071930408477783,0.0,0.0,0.0,0.0,-8.453666746283735e-17,0.38071930408477794,0.0,0.0,-0.38071930408477794,-8.453666746283735e-17,0.0,0.0,0.0,0.0,1.0],"name":"PinBoard_24"},{"children":[23],"name":"Office - Assets"}],"samplers":[{"magFilter":9729,"minFilter":9987}],"scene":0,"scenes":[{"name":"Scene","nodes":[24]}],"textures":[{"sampler":0,"source":0},{"sampler":0,"source":1},{"sampler":0,"source":2}]}