{
    "asset" : {
        "generator" : "Khronos glTF Blender I/O v1.8.2",
        "version" : "2.0"
    },
    "scene" : 0,
    "scenes" : [
        {
            "name" : "Scene",
            "nodes" : [
                0
            ]
        }
    ],
    "nodes" : [
        {
            "mesh" : 0,
            "name" : "books4",
            "translation" : [
                -1.6319999694824219,
                0.641947865486145,
                0.25600001215934753
            ]
        }
    ],
    "materials" : [
        {
            "doubleSided" : true,
            "name" : "*2",
            "pbrMetallicRoughness" : {
                "baseColorTexture" : {
                    "index" : 0
                },
                "metallicFactor" : 0,
                "roughnessFactor" : 0.5
            }
        }
    ],
    "meshes" : [
        {
            "name" : "books4",
            "primitives" : [
                {
                    "attributes" : {
                        "POSITION" : 0,
                        "NORMAL" : 1,
                        "TEXCOORD_0" : 2
                    },
                    "indices" : 3,
                    "material" : 0
                }
            ]
        }
    ],
    "textures" : [
        {
            "sampler" : 0,
            "source" : 0
        }
    ],
    "images" : [
        {
            "bufferView" : 4,
            "mimeType" : "image/jpeg",
            "name" : "6_17_10_GeorgeLoisED30020"
        }
    ],
    "accessors" : [
        {
            "bufferView" : 0,
            "componentType" : 5126,
            "count" : 1227,
            "max" : [
                2.421721935272217,
                0.3907727897167206,
                0.014000000432133675
            ],
            "min" : [
                0,
                0,
                -0.25600001215934753
            ],
            "type" : "VEC3"
        },
        {
            "bufferView" : 1,
            "componentType" : 5126,
            "count" : 1227,
            "type" : "VEC3"
        },
        {
            "bufferView" : 2,
            "componentType" : 5126,
            "count" : 1227,
            "type" : "VEC2"
        },
        {
            "bufferView" : 3,
            "componentType" : 5123,
            "count" : 1788,
            "type" : "SCALAR"
        }
    ],
    "bufferViews" : [
        {
            "buffer" : 0,
            "byteLength" : 14724,
            "byteOffset" : 0
        },
        {
            "buffer" : 0,
            "byteLength" : 14724,
            "byteOffset" : 14724
        },
        {
            "buffer" : 0,
            "byteLength" : 9816,
            "byteOffset" : 29448
        },
        {
            "buffer" : 0,
            "byteLength" : 3576,
            "byteOffset" : 39264
        },
        {
            "buffer" : 0,
            "byteLength" : 274233,
            "byteOffset" : 42840
        }
    ],
    "samplers" : [
        {
            "magFilter" : 9729,
            "minFilter" : 9987
        }
    ],
    "buffers" : [
        {
            "byteLength" : 317076,
            "uri" : "data:application/octet-stream;base64,"
        }
    ]
}
