{
    "asset" : {
        "generator" : "Khronos glTF Blender I/O v1.8.2",
        "version" : "2.0"
    },
    "scene" : 0,
    "scenes" : [
        {
            "name" : "Scene",
            "nodes" : [
                0
            ]
        }
    ],
    "nodes" : [
        {
            "mesh" : 0,
            "name" : " books1",
            "translation" : [
                -0.7436927556991577,
                2.63871169090271,
                0.2750000059604645
            ]
        }
    ],
    "materials" : [
        {
            "doubleSided" : true,
            "name" : "*2",
            "pbrMetallicRoughness" : {
                "baseColorTexture" : {
                    "index" : 0
                },
                "metallicFactor" : 0,
                "roughnessFactor" : 0.5
            }
        }
    ],
    "meshes" : [
        {
            "name" : " books1",
            "primitives" : [
                {
                    "attributes" : {
                        "POSITION" : 0,
                        "NORMAL" : 1,
                        "TEXCOORD_0" : 2
                    },
                    "indices" : 3,
                    "material" : 0
                }
            ]
        }
    ],
    "textures" : [
        {
            "sampler" : 0,
            "source" : 0
        }
    ],
    "images" : [
        {
            "bufferView" : 4,
            "mimeType" : "image/jpeg",
            "name" : "6_17_10_GeorgeLoisED30020"
        }
    ],
    "accessors" : [
        {
            "bufferView" : 0,
            "componentType" : 5126,
            "count" : 1102,
            "max" : [
                1.5339604616165161,
                0.35173299908638,
                0
            ],
            "min" : [
                0,
                0,
                -0.2750000059604645
            ],
            "type" : "VEC3"
        },
        {
            "bufferView" : 1,
            "componentType" : 5126,
            "count" : 1102,
            "type" : "VEC3"
        },
        {
            "bufferView" : 2,
            "componentType" : 5126,
            "count" : 1102,
            "type" : "VEC2"
        },
        {
            "bufferView" : 3,
            "componentType" : 5123,
            "count" : 1572,
            "type" : "SCALAR"
        }
    ],
    "bufferViews" : [
        {
            "buffer" : 0,
            "byteLength" : 13224,
            "byteOffset" : 0
        },
        {
            "buffer" : 0,
            "byteLength" : 13224,
            "byteOffset" : 13224
        },
        {
            "buffer" : 0,
            "byteLength" : 8816,
            "byteOffset" : 26448
        },
        {
            "buffer" : 0,
            "byteLength" : 3144,
            "byteOffset" : 35264
        },
        {
            "buffer" : 0,
            "byteLength" : 274233,
            "byteOffset" : 38408
        }
    ],
    "samplers" : [
        {
            "magFilter" : 9729,
            "minFilter" : 9987
        }
    ],
    "buffers" : [
        {
            "byteLength" : 312644,
            "uri" : "data:application/octet-stream;base64,"
        }
    ]
}
