{"accessors":[{"bufferView":0,"byteOffset":0,"componentType":5126,"count":62,"max":[0.16892002522945404,0.11848974227905273,-3.725290298461914e-09],"min":[-0.16892018914222717,-0.11848994344472885,-0.02160208486020565],"type":"VEC3"},{"bufferView":1,"byteOffset":0,"componentType":5126,"count":62,"type":"VEC3"},{"bufferView":2,"byteOffset":0,"componentType":5126,"count":62,"type":"VEC2"},{"bufferView":3,"byteOffset":0,"componentType":5126,"count":62,"type":"VEC2"},{"bufferView":4,"byteOffset":0,"componentType":5126,"count":62,"type":"VEC2"},{"bufferView":5,"byteOffset":0,"componentType":5126,"count":62,"type":"VEC2"},{"bufferView":6,"byteOffset":0,"componentType":5123,"count":162,"type":"SCALAR"}],"asset":{"extras":{"created":"Sun Dec 11 08:27:28 2022"},"generator":"Gestaltor 2022.4.0 Pappardelle Professional","version":"2.0"},"bufferViews":[{"buffer":0,"byteLength":744,"byteOffset":0},{"buffer":0,"byteLength":744,"byteOffset":744},{"buffer":0,"byteLength":496,"byteOffset":1488},{"buffer":0,"byteLength":496,"byteOffset":1984},{"buffer":0,"byteLength":496,"byteOffset":2480},{"buffer":0,"byteLength":496,"byteOffset":2976},{"buffer":0,"byteLength":324,"byteOffset":3472}],"buffers":[{"byteLength":3796,"uri":"data:application/octet-stream;base64,"}],"images":[{"mimeType":"image/jpeg","name":"PhotoFrame_20x30_likeA4_512_normal","uri":"data:image/jpeg;base64,"},{"mimeType":"image/jpeg","name":"PhotoFrame_20x30_likeA4_512_baseColor","uri":"data:image/jpeg;base64,"},{"mimeType":"image/png","name":"PhotoFrame_20x30_likeA4_512_metallicRoughness","uri":"data:image/png;base64,"}],"materials":[{"doubleSided":true,"name":"PhotoFrame_20x30_likeA4_512","normalTexture":{"index":0},"pbrMetallicRoughness":{"baseColorTexture":{"index":1},"metallicRoughnessTexture":{"index":2}}}],"meshes":[{"name":"Object_48","primitives":[{"attributes":{"NORMAL":1,"POSITION":0,"TEXCOORD_0":2,"TEXCOORD_1":3,"TEXCOORD_2":4,"TEXCOORD_3":5},"indices":6,"material":0,"mode":4}]}],"nodes":[{"mesh":0,"name":"Object_99"},{"children":[0],"matrix":[-1.3331763480174154e-07,0.0,0.9922505758225176,0.0,0.0,0.9922504425048828,0.0,0.0,-1.1180097174752293,0.0,-1.5021448699649963e-07,0.0,0.0,0.0,0.0,1.0],"name":"PhotoFrame1_47"},{"children":[1],"name":"Office - Assets"}],"samplers":[{"magFilter":9729,"minFilter":9987}],"scene":0,"scenes":[{"name":"Scene","nodes":[2]}],"textures":[{"sampler":0,"source":0},{"sampler":0,"source":1},{"sampler":0,"source":2}]}