{
    "asset" : {
        "generator" : "Khronos glTF Blender I/O v1.8.2",
        "version" : "2.0"
    },
    "scene" : 0,
    "scenes" : [
        {
            "name" : "Scene",
            "nodes" : [
                2
            ]
        }
    ],
    "nodes" : [
        {
            "mesh" : 0,
            "name" : "Object_99"
        },
        {
            "children" : [
                0
            ],
            "name" : "PhotoFrame1_47",
            "rotation" : [
                0,
                -0.7071068286895752,
                0,
                0.7071068286895752
            ],
            "scale" : [
                0.9922504425048828,
                0.9922504425048828,
                1.1180095672607422
            ],
            "translation" : [
                -0.2414025366306305,
                1.6276087760925293,
                0.3685043454170227
            ]
        },
        {
            "children" : [
                1
            ],
            "name" : "Office - Assets"
        }
    ],
    "materials" : [
        {
            "doubleSided" : true,
            "name" : "PhotoFrame_20x30_likeA4_512",
            "normalTexture" : {
                "index" : 0
            },
            "pbrMetallicRoughness" : {
                "baseColorTexture" : {
                    "index" : 1
                },
                "metallicRoughnessTexture" : {
                    "index" : 2
                }
            }
        }
    ],
    "meshes" : [
        {
            "name" : "Object_48",
            "primitives" : [
                {
                    "attributes" : {
                        "POSITION" : 0,
                        "NORMAL" : 1,
                        "TEXCOORD_0" : 2,
                        "TEXCOORD_1" : 3,
                        "TEXCOORD_2" : 4,
                        "TEXCOORD_3" : 5
                    },
                    "indices" : 6,
                    "material" : 0
                }
            ]
        }
    ],
    "textures" : [
        {
            "sampler" : 0,
            "source" : 0
        },
        {
            "sampler" : 0,
            "source" : 1
        },
        {
            "sampler" : 0,
            "source" : 2
        }
    ],
    "images" : [
        {
            "bufferView" : 7,
            "mimeType" : "image/jpeg",
            "name" : "PhotoFrame_20x30_likeA4_512_normal"
        },
        {
            "bufferView" : 8,
            "mimeType" : "image/jpeg",
            "name" : "PhotoFrame_20x30_likeA4_512_baseColor"
        },
        {
            "bufferView" : 9,
            "mimeType" : "image/png",
            "name" : "PhotoFrame_20x30_likeA4_512_metallicRoughness"
        }
    ],
    "accessors" : [
        {
            "bufferView" : 0,
            "componentType" : 5126,
            "count" : 62,
            "max" : [
                0.16892002522945404,
                0.11848974227905273,
                -3.725290298461914e-09
            ],
            "min" : [
                -0.16892018914222717,
                -0.11848994344472885,
                -0.02160208486020565
            ],
            "type" : "VEC3"
        },
        {
            "bufferView" : 1,
            "componentType" : 5126,
            "count" : 62,
            "type" : "VEC3"
        },
        {
            "bufferView" : 2,
            "componentType" : 5126,
            "count" : 62,
            "type" : "VEC2"
        },
        {
            "bufferView" : 3,
            "componentType" : 5126,
            "count" : 62,
            "type" : "VEC2"
        },
        {
            "bufferView" : 4,
            "componentType" : 5126,
            "count" : 62,
            "type" : "VEC2"
        },
        {
            "bufferView" : 5,
            "componentType" : 5126,
            "count" : 62,
            "type" : "VEC2"
        },
        {
            "bufferView" : 6,
            "componentType" : 5123,
            "count" : 162,
            "type" : "SCALAR"
        }
    ],
    "bufferViews" : [
        {
            "buffer" : 0,
            "byteLength" : 744,
            "byteOffset" : 0
        },
        {
            "buffer" : 0,
            "byteLength" : 744,
            "byteOffset" : 744
        },
        {
            "buffer" : 0,
            "byteLength" : 496,
            "byteOffset" : 1488
        },
        {
            "buffer" : 0,
            "byteLength" : 496,
            "byteOffset" : 1984
        },
        {
            "buffer" : 0,
            "byteLength" : 496,
            "byteOffset" : 2480
        },
        {
            "buffer" : 0,
            "byteLength" : 496,
            "byteOffset" : 2976
        },
        {
            "buffer" : 0,
            "byteLength" : 324,
            "byteOffset" : 3472
        },
        {
            "buffer" : 0,
            "byteLength" : 106434,
            "byteOffset" : 3796
        },
        {
            "buffer" : 0,
            "byteLength" : 414164,
            "byteOffset" : 110232
        },
        {
            "buffer" : 0,
            "byteLength" : 490235,
            "byteOffset" : 524396
        }
    ],
    "samplers" : [
        {
            "magFilter" : 9729,
            "minFilter" : 9987
        }
    ],
    "buffers" : [
        {
            "byteLength" : 1014632,
            "uri" : "data:application/octet-stream;base64,"
        }
    ]
}
