{
    "asset" : {
        "generator" : "Khronos glTF Blender I/O v1.8.2",
        "version" : "2.0"
    },
    "scene" : 0,
    "scenes" : [
        {
            "name" : "Scene",
            "nodes" : [
                7
            ]
        }
    ],
    "nodes" : [
        {
            "mesh" : 0,
            "name" : "Plane003_st metal 2_0"
        },
        {
            "children" : [
                0
            ],
            "name" : "Plane003",
            "translation" : [
                -3.0517578125e-05,
                0,
                0
            ]
        },
        {
            "children" : [
                1
            ],
            "name" : "deco",
            "rotation" : [
                0,
                0,
                0.7071068286895752,
                0.7071067094802856
            ],
            "scale" : [
                0.010896272957324982,
                0.010896272957324982,
                0.010896272957324982
            ],
            "translation" : [
                -8.76304817199707,
                -0.4438648223876953,
                1.2379403114318848
            ]
        },
        {
            "children" : [
                2
            ],
            "name" : "Empty",
            "rotation" : [
                -0.7071068286895752,
                0,
                0,
                0.7071067094802856
            ],
            "scale" : [
                100,
                100,
                100
            ],
            "translation" : [
                523.5460205078125,
                37.86357498168945,
                -468.0550231933594
            ]
        },
        {
            "children" : [
                3
            ],
            "name" : "RootNode"
        },
        {
            "children" : [
                4
            ],
            "name" : "Object_2"
        },
        {
            "children" : [
                5
            ],
            "name" : "d12e33ed341b43afa21f0f6b07c1d5db.fbx",
            "rotation" : [
                0.7071068286895752,
                0,
                0,
                0.7071068286895752
            ]
        },
        {
            "children" : [
                6
            ],
            "name" : "Sketchfab_model",
            "rotation" : [
                -0.7071068286895752,
                0,
                0,
                0.7071068286895752
            ],
            "scale" : [
                0.003985759802162647,
                0.003985759802162647,
                0.003985759802162647
            ],
            "translation" : [
                0,
                2.573600113464636e-06,
                -0.00014259020099416375
            ]
        }
    ],
    "materials" : [
        {
            "doubleSided" : true,
            "name" : "st_metal_2",
            "pbrMetallicRoughness" : {
                "baseColorFactor" : [
                    0.029122700914740562,
                    0.029122700914740562,
                    0.029122700914740562,
                    1
                ],
                "metallicFactor" : 0,
                "roughnessFactor" : 0.8418927788734436
            }
        }
    ],
    "meshes" : [
        {
            "name" : "Plane003_st metal 2_0",
            "primitives" : [
                {
                    "attributes" : {
                        "POSITION" : 0,
                        "NORMAL" : 1,
                        "TEXCOORD_0" : 2,
                        "TEXCOORD_1" : 3
                    },
                    "indices" : 4,
                    "material" : 0
                }
            ]
        }
    ],
    "accessors" : [
        {
            "bufferView" : 0,
            "componentType" : 5126,
            "count" : 7938,
            "max" : [
                21.378746032714844,
                46.7703742980957,
                120.53883361816406
            ],
            "min" : [
                -21.378740310668945,
                -6.054218292236328,
                -1.1150894165039062
            ],
            "type" : "VEC3"
        },
        {
            "bufferView" : 1,
            "componentType" : 5126,
            "count" : 7938,
            "type" : "VEC3"
        },
        {
            "bufferView" : 2,
            "componentType" : 5126,
            "count" : 7938,
            "type" : "VEC2"
        },
        {
            "bufferView" : 3,
            "componentType" : 5126,
            "count" : 7938,
            "type" : "VEC2"
        },
        {
            "bufferView" : 4,
            "componentType" : 5123,
            "count" : 10494,
            "type" : "SCALAR"
        }
    ],
    "bufferViews" : [
        {
            "buffer" : 0,
            "byteLength" : 95256,
            "byteOffset" : 0
        },
        {
            "buffer" : 0,
            "byteLength" : 95256,
            "byteOffset" : 95256
        },
        {
            "buffer" : 0,
            "byteLength" : 63504,
            "byteOffset" : 190512
        },
        {
            "buffer" : 0,
            "byteLength" : 63504,
            "byteOffset" : 254016
        },
        {
            "buffer" : 0,
            "byteLength" : 20988,
            "byteOffset" : 317520
        }
    ],
    "buffers" : [
        {
            "byteLength" : 338508,
            "uri" : "data:application/octet-stream;base64,"
        }
    ]
}
