{"accessors":[{"bufferView":0,"byteOffset":0,"componentType":5126,"count":470,"max":[0.10416538268327713,0.07923571765422821,0.0854429230093956],"min":[-0.04130692780017853,-0.08666787296533585,-0.08472099155187607],"type":"VEC3"},{"bufferView":1,"byteOffset":0,"componentType":5126,"count":470,"type":"VEC3"},{"bufferView":2,"byteOffset":0,"componentType":5126,"count":470,"type":"VEC2"},{"bufferView":3,"byteOffset":0,"componentType":5126,"count":470,"type":"VEC2"},{"bufferView":4,"byteOffset":0,"componentType":5126,"count":470,"type":"VEC2"},{"bufferView":5,"byteOffset":0,"componentType":5126,"count":470,"type":"VEC2"},{"bufferView":6,"byteOffset":0,"componentType":5123,"count":2340,"type":"SCALAR"},{"bufferView":7,"byteOffset":0,"componentType":5126,"count":400,"max":[0.00822000578045845,0.09199266135692596,0.03825350105762482],"min":[-0.008214397355914116,0.007039383053779602,-0.03825350105762482],"type":"VEC3"},{"bufferView":8,"byteOffset":0,"componentType":5126,"count":400,"type":"VEC3"},{"bufferView":9,"byteOffset":0,"componentType":5126,"count":400,"type":"VEC2"},{"bufferView":10,"byteOffset":0,"componentType":5126,"count":400,"type":"VEC2"},{"bufferView":11,"byteOffset":0,"componentType":5126,"count":400,"type":"VEC2"},{"bufferView":12,"byteOffset":0,"componentType":5126,"count":400,"type":"VEC2"},{"bufferView":13,"byteOffset":0,"componentType":5123,"count":888,"type":"SCALAR"},{"bufferView":14,"byteOffset":0,"componentType":5126,"count":205,"max":[0.005212354473769665,0.37513023614883423,0.015857797116041183],"min":[-0.005960880778729916,-0.010224133729934692,-0.01786678098142147],"type":"VEC3"},{"bufferView":15,"byteOffset":0,"componentType":5126,"count":205,"type":"VEC3"},{"bufferView":16,"byteOffset":0,"componentType":5126,"count":205,"type":"VEC2"},{"bufferView":17,"byteOffset":0,"componentType":5126,"count":205,"type":"VEC2"},{"bufferView":18,"byteOffset":0,"componentType":5126,"count":205,"type":"VEC2"},{"bufferView":19,"byteOffset":0,"componentType":5126,"count":205,"type":"VEC2"},{"bufferView":20,"byteOffset":0,"componentType":5123,"count":444,"type":"SCALAR"},{"bufferView":21,"byteOffset":0,"componentType":5126,"count":443,"max":[0.005212354473769665,0.2870033085346222,0.025289926677942276],"min":[-0.005960880778729916,-0.010303229093551636,-0.021016303449869156],"type":"VEC3"},{"bufferView":22,"byteOffset":0,"componentType":5126,"count":443,"type":"VEC3"},{"bufferView":23,"byteOffset":0,"componentType":5126,"count":443,"type":"VEC2"},{"bufferView":24,"byteOffset":0,"componentType":5126,"count":443,"type":"VEC2"},{"bufferView":25,"byteOffset":0,"componentType":5126,"count":443,"type":"VEC2"},{"bufferView":26,"byteOffset":0,"componentType":5126,"count":443,"type":"VEC2"},{"bufferView":27,"byteOffset":0,"componentType":5123,"count":918,"type":"SCALAR"},{"bufferView":28,"byteOffset":0,"componentType":5126,"count":126,"max":[0.005212354473769665,0.1252506673336029,0.021016303449869156],"min":[-0.005960880778729916,-0.010303307324647903,-0.021016303449869156],"type":"VEC3"},{"bufferView":29,"byteOffset":0,"componentType":5126,"count":126,"type":"VEC3"},{"bufferView":30,"byteOffset":0,"componentType":5126,"count":126,"type":"VEC2"},{"bufferView":31,"byteOffset":0,"componentType":5126,"count":126,"type":"VEC2"},{"bufferView":32,"byteOffset":0,"componentType":5126,"count":126,"type":"VEC2"},{"bufferView":33,"byteOffset":0,"componentType":5126,"count":126,"type":"VEC2"},{"bufferView":34,"byteOffset":0,"componentType":5123,"count":396,"type":"SCALAR"},{"bufferView":35,"byteOffset":0,"componentType":5126,"count":120,"max":[0.07284819334745407,0.08195742219686508,0.07284819334745407],"min":[-0.07284819334745407,0.0,-0.07284819334745407],"type":"VEC3"},{"bufferView":36,"byteOffset":0,"componentType":5126,"count":120,"type":"VEC3"},{"bufferView":37,"byteOffset":0,"componentType":5126,"count":120,"type":"VEC2"},{"bufferView":38,"byteOffset":0,"componentType":5126,"count":120,"type":"VEC2"},{"bufferView":39,"byteOffset":0,"componentType":5126,"count":120,"type":"VEC2"},{"bufferView":40,"byteOffset":0,"componentType":5126,"count":120,"type":"VEC2"},{"bufferView":41,"byteOffset":0,"componentType":5123,"count":252,"type":"SCALAR"}],"asset":{"extras":{"created":"Wed Jan 11 08:46:54 2023"},"generator":"Gestaltor 2022.4.0 Pappardelle Professional","version":"2.0"},"bufferViews":[{"buffer":0,"byteLength":5640,"byteOffset":0},{"buffer":0,"byteLength":5640,"byteOffset":5640},{"buffer":0,"byteLength":3760,"byteOffset":11280},{"buffer":0,"byteLength":3760,"byteOffset":15040},{"buffer":0,"byteLength":3760,"byteOffset":18800},{"buffer":0,"byteLength":3760,"byteOffset":22560},{"buffer":0,"byteLength":4680,"byteOffset":26320},{"buffer":0,"byteLength":4800,"byteOffset":31000},{"buffer":0,"byteLength":4800,"byteOffset":35800},{"buffer":0,"byteLength":3200,"byteOffset":40600},{"buffer":0,"byteLength":3200,"byteOffset":43800},{"buffer":0,"byteLength":3200,"byteOffset":47000},{"buffer":0,"byteLength":3200,"byteOffset":50200},{"buffer":0,"byteLength":1776,"byteOffset":53400},{"buffer":0,"byteLength":2460,"byteOffset":55176},{"buffer":0,"byteLength":2460,"byteOffset":57636},{"buffer":0,"byteLength":1640,"byteOffset":60096},{"buffer":0,"byteLength":1640,"byteOffset":61736},{"buffer":0,"byteLength":1640,"byteOffset":63376},{"buffer":0,"byteLength":1640,"byteOffset":65016},{"buffer":0,"byteLength":888,"byteOffset":66656},{"buffer":0,"byteLength":5316,"byteOffset":67544},{"buffer":0,"byteLength":5316,"byteOffset":72860},{"buffer":0,"byteLength":3544,"byteOffset":78176},{"buffer":0,"byteLength":3544,"byteOffset":81720},{"buffer":0,"byteLength":3544,"byteOffset":85264},{"buffer":0,"byteLength":3544,"byteOffset":88808},{"buffer":0,"byteLength":1836,"byteOffset":92352},{"buffer":0,"byteLength":1512,"byteOffset":94188},{"buffer":0,"byteLength":1512,"byteOffset":95700},{"buffer":0,"byteLength":1008,"byteOffset":97212},{"buffer":0,"byteLength":1008,"byteOffset":98220},{"buffer":0,"byteLength":1008,"byteOffset":99228},{"buffer":0,"byteLength":1008,"byteOffset":100236},{"buffer":0,"byteLength":792,"byteOffset":101244},{"buffer":0,"byteLength":1440,"byteOffset":102036},{"buffer":0,"byteLength":1440,"byteOffset":103476},{"buffer":0,"byteLength":960,"byteOffset":104916},{"buffer":0,"byteLength":960,"byteOffset":105876},{"buffer":0,"byteLength":960,"byteOffset":106836},{"buffer":0,"byteLength":960,"byteOffset":107796},{"buffer":0,"byteLength":504,"byteOffset":108756}],"buffers":[{"byteLength":109260,"uri":"data:application/octet-stream;base64,"}],"images":[{"mimeType":"image/jpeg","name":"M_Lamps_CCTV_2048.001_normal","uri":"data:image/jpeg;base64,"},{"mimeType":"image/png","name":"M_Lamps_CCTV_2048.001_baseColor","uri":"data:image/png;base64,"},{"mimeType":"image/png","name":"M_Lamps_CCTV_2048.001_metallicRoughness","uri":"data:image/png;base64,"}],"materials":[{"doubleSided":true,"name":"M_Lamps_CCTV_2048.001","normalTexture":{"index":0},"pbrMetallicRoughness":{"baseColorTexture":{"index":1},"metallicRoughnessTexture":{"index":2}}}],"meshes":[{"name":"Object_58","primitives":[{"attributes":{"NORMAL":1,"POSITION":0,"TEXCOORD_0":2,"TEXCOORD_1":3,"TEXCOORD_2":4,"TEXCOORD_3":5},"indices":6,"material":0,"mode":4}]},{"name":"Object_57","primitives":[{"attributes":{"NORMAL":8,"POSITION":7,"TEXCOORD_0":9,"TEXCOORD_1":10,"TEXCOORD_2":11,"TEXCOORD_3":12},"indices":13,"material":0,"mode":4}]},{"name":"Object_56","primitives":[{"attributes":{"NORMAL":15,"POSITION":14,"TEXCOORD_0":16,"TEXCOORD_1":17,"TEXCOORD_2":18,"TEXCOORD_3":19},"indices":20,"material":0,"mode":4}]},{"name":"Object_55","primitives":[{"attributes":{"NORMAL":22,"POSITION":21,"TEXCOORD_0":23,"TEXCOORD_1":24,"TEXCOORD_2":25,"TEXCOORD_3":26},"indices":27,"material":0,"mode":4}]},{"name":"Object_54","primitives":[{"attributes":{"NORMAL":29,"POSITION":28,"TEXCOORD_0":30,"TEXCOORD_1":31,"TEXCOORD_2":32,"TEXCOORD_3":33},"indices":34,"material":0,"mode":4}]},{"name":"Object_53","primitives":[{"attributes":{"NORMAL":36,"POSITION":35,"TEXCOORD_0":37,"TEXCOORD_1":38,"TEXCOORD_2":39,"TEXCOORD_3":40},"indices":41,"material":0,"mode":4}]}],"nodes":[{"mesh":0,"name":"Object_119"},{"children":[0],"matrix":[1.0,0.0,0.0,0.0,0.0,1.0,0.0,0.0,0.0,0.0,1.0,0.0,-0.00015561282634735107,0.08340835571289063,0.0,1.0],"name":"Lamp_Shade.001_52"},{"mesh":1,"name":"Object_117"},{"children":[1,2],"matrix":[0.8238812343868869,-0.5667624806324767,0.0,0.0,0.5667624806324767,0.8238812343868869,0.0,0.0,0.0,0.0,1.0,0.0,0.0,0.3664827048778534,0.0,1.0],"name":"Lamp_Holder.001_53"},{"mesh":2,"name":"Object_115"},{"children":[3,4],"matrix":[0.8817493763211743,-0.4717181867765205,0.0,0.0,0.4717181867765205,0.8817493763211743,0.0,0.0,0.0,0.0,1.0,0.0,0.0,0.2786608338356018,0.0,1.0],"name":"Lamp02_54"},{"mesh":3,"name":"Object_113"},{"children":[5,6],"matrix":[0.5603048840903784,-0.8282864556416314,0.0,0.0,0.8282864556416314,0.5603048840903784,0.0,0.0,0.0,0.0,1.0,0.0,0.0,0.11777448654174805,0.0,1.0],"name":"Lamp02.002_55"},{"mesh":4,"name":"Object_111"},{"children":[7,8],"matrix":[0.6890498277790567,0.7247139625535084,0.0,0.0,-0.7247139625535084,0.6890498277790567,0.0,0.0,0.0,0.0,1.0,0.0,0.0003743767738342285,0.061167240142822266,0.0,1.0],"name":"Lamp02.001_56"},{"mesh":5,"name":"Object_109"},{"children":[9,10],"matrix":[1.0,0.0,0.0,0.0,0.0,1.0,0.0,0.0,0.0,0.0,1.0,0.0,0.0,0.0,0.0,1.0],"name":"Lamp01_57"},{"children":[11],"name":"Office - Assets"}],"samplers":[{"magFilter":9729,"minFilter":9987}],"scene":0,"scenes":[{"name":"Scene","nodes":[12]}],"textures":[{"sampler":0,"source":0},{"sampler":0,"source":1},{"sampler":0,"source":2}]}