{
	"accessors": [
		{
			"bufferView": 0,
			"byteOffset": 0,
			"componentType": 5123,
			"count": 1044,
			"max": [
				485.0
			],
			"min": [
				0.0
			],
			"type": "SCALAR"
		},
		{
			"bufferView": 1,
			"byteOffset": 0,
			"componentType": 5126,
			"count": 486,
			"max": [
				1.0,
				7.982709576026537e-06,
				1.0
			],
			"min": [
				-1.0,
				-1.0,
				-1.0
			],
			"type": "VEC3"
		},
		{
			"bufferView": 2,
			"byteOffset": 0,
			"componentType": 5126,
			"count": 486,
			"max": [
				380.20001220703125,
				488.3872985839844,
				33.79326248168945
			],
			"min": [
				-380.20001220703125,
				-0.08764266967773438,
				-865.107177734375
			],
			"type": "VEC3"
		},
		{
			"bufferView": 3,
			"byteOffset": 0,
			"componentType": 5126,
			"count": 486,
			"max": [
				0.9963863492012024,
				0.9263086915016174
			],
			"min": [
				0.003613716224208474,
				0.003613710403442383
			],
			"type": "VEC2"
		}
	],
	"asset": {
		"extras": {
			"created": "Fri Sep 30 07:22:14 2022"
		},
		"generator": "Gestaltor 2022.2.3 Tagliatelle Professional",
		"version": "2.0"
	},
	"bufferViews": [
		{
			"buffer": 0,
			"byteLength": 2088,
			"byteOffset": 0
		},
		{
			"buffer": 0,
			"byteLength": 5832,
			"byteOffset": 2088
		},
		{
			"buffer": 0,
			"byteLength": 5832,
			"byteOffset": 7920
		},
		{
			"buffer": 0,
			"byteLength": 3888,
			"byteOffset": 13752
		}
	],
	"buffers": [
		{
			"byteLength": 17640,
			"uri": "data:application/octet-stream;base64,"
		}
	],
	"images": [
		{
			"mimeType": "image/png",
			"name": "Image_21",
			"uri": "data:image/png;base64,"
		},
		{
			"mimeType": "image/png",
			"name": "Image_19",
			"uri": "data:image/png;base64,"
		},
		{
			"mimeType": "image/png",
			"name": "Image_20",
			"uri": "data:image/png;base64,"
		}
	],
	"materials": [
		{
			"doubleSided": true,
			"name": "Environment",
			"normalTexture": {
				"index": 0,
				"scale": 0.25
			},
			"pbrMetallicRoughness": {
				"baseColorTexture": {
					"index": 1
				},
				"metallicRoughnessTexture": {
					"index": 2
				}
			}
		}
	],
	"meshes": [
		{
			"name": "Column_Environment_0",
			"primitives": [
				{
					"attributes": {
						"NORMAL": 1,
						"POSITION": 2,
						"TEXCOORD_0": 3
					},
					"indices": 0,
					"material": 0,
					"mode": 4
				}
			]
		}
	],
	"nodes": [
		{
			"mesh": 0,
			"name": "Column_Environment_0"
		},
		{
			"children": [
				0
			],
			"matrix": [
				-1.0,
				0.0,
				0.0,
				-0.0,
				-0.0,
				1.0,
				8.742277657347586e-08,
				-0.0,
				-0.0,
				-8.742277657347586e-08,
				1.0,
				-0.0,
				0.0,
				0.0,
				410.3645324707031,
				1.0
			],
			"name": "Column"
		},
		{
			"children": [
				1
			],
			"name": "RootNode"
		},
		{
			"children": [
				2
			],
			"matrix": [
				1.0,
				0.0,
				0.0,
				0.0,
				0.0,
				-1.3435885648505064e-07,
				1.0000001343588565,
				0.0,
				0.0,
				-1.0000001343588565,
				-1.3435885648505064e-07,
				0.0,
				0.0,
				0.0,
				0.0,
				1.0
			],
			"name": "04da7456980943008ef762de379caef1.fbx"
		},
		{
			"children": [
				3
			],
			"matrix": [
				0.0060606058686971664,
				0.0,
				0.0,
				0.0,
				0.0,
				-8.142960741247382e-10,
				-0.006060606682993241,
				0.0,
				0.0,
				0.006060606682993241,
				-8.142960741247382e-10,
				0.0,
				0.0,
				0.0,
				0.0,
				1.0
			],
			"name": "Sketchfab_model"
		}
	],
	"samplers": [
		{
			"magFilter": 9729,
			"minFilter": 9987
		}
	],
	"scene": 0,
	"scenes": [
		{
			"name": "Scene",
			"nodes": [
				4
			]
		}
	],
	"textures": [
		{
			"sampler": 0,
			"source": 0
		},
		{
			"sampler": 0,
			"source": 1
		},
		{
			"sampler": 0,
			"source": 2
		}
	]
}