{
    "asset" : {
        "generator" : "Khronos glTF Blender I/O v1.6.16",
        "version" : "2.0"
    },
    "scene" : 0,
    "scenes" : [
        {
            "name" : "Scene",
            "nodes" : [
                0
            ]
        }
    ],
    "nodes" : [
        {
            "mesh" : 0,
            "name" : "defaultMaterial.002",
            "rotation" : [
                0.0008726644446142018,
                0,
                0,
                1
            ],
            "scale" : [
                0.010000002570450306,
                0.009999999776482582,
                0.009999999776482582
            ]
        }
    ],
    "materials" : [
        {
            "doubleSided" : true,
            "name" : "phong1.001",
            "normalTexture" : {
                "index" : 0
            },
            "pbrMetallicRoughness" : {
                "baseColorTexture" : {
                    "index" : 1
                },
                "metallicRoughnessTexture" : {
                    "index" : 2
                }
            }
        }
    ],
    "meshes" : [
        {
            "name" : "defaultMaterial.002",
            "primitives" : [
                {
                    "attributes" : {
                        "POSITION" : 0,
                        "NORMAL" : 1,
                        "TEXCOORD_0" : 2
                    },
                    "indices" : 3,
                    "material" : 0
                }
            ]
        }
    ],
    "textures" : [
        {
            "sampler" : 0,
            "source" : 0
        },
        {
            "sampler" : 0,
            "source" : 1
        },
        {
            "sampler" : 0,
            "source" : 2
        }
    ],
    "images" : [
        {
            "bufferView" : 4,
            "mimeType" : "image/png",
            "name" : "Image_2"
        },
        {
            "bufferView" : 5,
            "mimeType" : "image/jpeg",
            "name" : "Image_0"
        },
        {
            "bufferView" : 6,
            "mimeType" : "image/png",
            "name" : "Image_1"
        }
    ],
    "accessors" : [
        {
            "bufferView" : 0,
            "componentType" : 5126,
            "count" : 891,
            "max" : [
                17.651519775390625,
                69.57666015625,
                28.5362548828125
            ],
            "min" : [
                -52.32676696777344,
                -53.783504486083984,
                -21.711700439453125
            ],
            "type" : "VEC3"
        },
        {
            "bufferView" : 1,
            "componentType" : 5126,
            "count" : 891,
            "type" : "VEC3"
        },
        {
            "bufferView" : 2,
            "componentType" : 5126,
            "count" : 891,
            "type" : "VEC2"
        },
        {
            "bufferView" : 3,
            "componentType" : 5123,
            "count" : 2982,
            "type" : "SCALAR"
        }
    ],
    "bufferViews" : [
        {
            "buffer" : 0,
            "byteLength" : 10692,
            "byteOffset" : 0
        },
        {
            "buffer" : 0,
            "byteLength" : 10692,
            "byteOffset" : 10692
        },
        {
            "buffer" : 0,
            "byteLength" : 7128,
            "byteOffset" : 21384
        },
        {
            "buffer" : 0,
            "byteLength" : 5964,
            "byteOffset" : 28512
        },
        {
            "buffer" : 0,
            "byteLength" : 303192,
            "byteOffset" : 34476
        },
        {
            "buffer" : 0,
            "byteLength" : 249148,
            "byteOffset" : 337668
        },
        {
            "buffer" : 0,
            "byteLength" : 393450,
            "byteOffset" : 586816
        }
    ],
    "samplers" : [
        {
            "magFilter" : 9729,
            "minFilter" : 9987
        }
    ],
    "buffers" : [
        {
            "byteLength" : 980268,
            "uri" : "data:application/octet-stream;base64,"
        }
    ]
}
