{
	"accessors": [
		{
			"bufferView": 0,
			"byteOffset": 0,
			"componentType": 5123,
			"count": 738,
			"max": [
				311.0
			],
			"min": [
				0.0
			],
			"type": "SCALAR"
		},
		{
			"bufferView": 1,
			"byteOffset": 0,
			"componentType": 5126,
			"count": 312,
			"max": [
				0.9998583793640137,
				0.9999940991401672,
				1.0
			],
			"min": [
				-0.9998483657836914,
				-0.9999819397926331,
				-0.00020624151511583477
			],
			"type": "VEC3"
		},
		{
			"bufferView": 2,
			"byteOffset": 0,
			"componentType": 5126,
			"count": 312,
			"max": [
				331.51715087890625,
				238.20297241210938,
				3.051635980606079
			],
			"min": [
				195.02880859375,
				106.65564727783203,
				-3.051666021347046
			],
			"type": "VEC3"
		},
		{
			"bufferView": 3,
			"byteOffset": 0,
			"componentType": 5126,
			"count": 312,
			"max": [
				0.6661400198936462,
				0.6823109984397888
			],
			"min": [
				0.17820100486278534,
				0.27218198776245117
			],
			"type": "VEC2"
		}
	],
	"asset": {
		"extras": {
			"created": "Mon Oct 10 15:21:27 2022"
		},
		"generator": "Gestaltor 2022.2.3 Tagliatelle Professional",
		"version": "2.0"
	},
	"bufferViews": [
		{
			"buffer": 0,
			"byteLength": 1476,
			"byteOffset": 0
		},
		{
			"buffer": 0,
			"byteLength": 3744,
			"byteOffset": 1476
		},
		{
			"buffer": 0,
			"byteLength": 3744,
			"byteOffset": 5220
		},
		{
			"buffer": 0,
			"byteLength": 2496,
			"byteOffset": 8964
		}
	],
	"buffers": [
		{
			"byteLength": 11460,
			"uri": "data:application/octet-stream;base64,"
		}
	],
	"images": [
		{
			"mimeType": "image/png",
			"name": "Image_2",
			"uri": "data:image/png;base64,"
		},
		{
			"mimeType": "image/png",
			"name": "Image_1",
			"uri": "data:image/png;base64,"
		},
		{
			"mimeType": "image/jpeg",
			"name": "Image_0",
			"uri": "data:image/jpeg;base64,"
		}
	],
	"materials": [
		{
			"doubleSided": true,
			"name": "phong1",
			"normalTexture": {
				"index": 0
			},
			"occlusionTexture": {
				"index": 1
			},
			"pbrMetallicRoughness": {
				"baseColorTexture": {
					"index": 2
				},
				"metallicRoughnessTexture": {
					"index": 1
				}
			}
		}
	],
	"meshes": [
		{
			"name": "defaultMaterial.012",
			"primitives": [
				{
					"attributes": {
						"NORMAL": 1,
						"POSITION": 2,
						"TEXCOORD_0": 3
					},
					"indices": 0,
					"material": 0,
					"mode": 4
				}
			]
		}
	],
	"nodes": [
		{
			"matrix": [
				1.0,
				0.0,
				0.0,
				0.0,
				0.0,
				1.0,
				0.0,
				0.0,
				0.0,
				0.0,
				1.0,
				0.0,
				100.9592969417572,
				0.0,
				0.0,
				1.0
			],
			"mesh": 0,
			"name": "defaultMaterial.012"
		},
		{
			"children": [
				0
			],
			"name": "Ornament"
		},
		{
			"children": [
				1
			],
			"matrix": [
				1.0,
				0.0,
				0.0,
				0.0,
				0.0,
				-1.3435885648505064e-07,
				1.0000001343588565,
				0.0,
				0.0,
				-1.0000001343588565,
				-1.3435885648505064e-07,
				0.0,
				0.0,
				0.0,
				0.0,
				1.0
			],
			"name": "Collada visual scene group"
		},
		{
			"children": [
				2
			],
			"matrix": [
				0.009999990463256836,
				0.0,
				0.0,
				0.0,
				0.0,
				-1.3435872835046003e-09,
				-0.009999991806844119,
				0.0,
				0.0,
				0.009999991806844119,
				-1.3435872835046003e-09,
				0.0,
				-3.3887502551078796,
				0.0,
				0.0,
				1.0
			],
			"name": "Sketchfab_model"
		}
	],
	"samplers": [
		{
			"magFilter": 9729,
			"minFilter": 9987
		}
	],
	"scene": 0,
	"scenes": [
		{
			"name": "Scene",
			"nodes": [
				3
			]
		}
	],
	"textures": [
		{
			"sampler": 0,
			"source": 0
		},
		{
			"sampler": 0,
			"source": 1
		},
		{
			"sampler": 0,
			"source": 2
		}
	]
}