{
    "asset" : {
        "generator" : "Khronos glTF Blender I/O v1.6.16",
        "version" : "2.0"
    },
    "scene" : 0,
    "scenes" : [
        {
            "name" : "Scene",
            "nodes" : [
                2
            ]
        }
    ],
    "nodes" : [
        {
            "mesh" : 0,
            "name" : "Body1",
            "scale" : [
                0.3937007784843445,
                0.3937007784843445,
                0.3937007784843445
            ]
        },
        {
            "mesh" : 1,
            "name" : "Body2",
            "scale" : [
                0.3937007784843445,
                0.3937007784843445,
                0.3937007784843445
            ]
        },
        {
            "children" : [
                0,
                1
            ],
            "name" : "Pr\u00e9sentoire v1",
            "scale" : [
                0.02539999969303608,
                0.02539999969303608,
                0.02539999969303608
            ],
            "translation" : [
                0,
                0.40471985936164856,
                0.598426878452301
            ]
        }
    ],
    "materials" : [
        {
            "doubleSided" : true,
            "name" : "Paint - Metal Flake (Red)",
            "pbrMetallicRoughness" : {
                "baseColorFactor" : [
                    0.7686274647712708,
                    0.2078431397676468,
                    0.15294118225574493,
                    1
                ],
                "roughnessFactor" : 0.5527864098548889
            }
        },
        {
            "doubleSided" : true,
            "name" : "Paint - Metallic (Green)",
            "pbrMetallicRoughness" : {
                "baseColorFactor" : [
                    0.2666666805744171,
                    0.5882353186607361,
                    0.2823529541492462,
                    1
                ],
                "roughnessFactor" : 0.5527864098548889
            }
        }
    ],
    "meshes" : [
        {
            "name" : "Body1",
            "primitives" : [
                {
                    "attributes" : {
                        "POSITION" : 0,
                        "NORMAL" : 1,
                        "TEXCOORD_0" : 2
                    },
                    "indices" : 3,
                    "material" : 0
                }
            ]
        },
        {
            "name" : "Body2",
            "primitives" : [
                {
                    "attributes" : {
                        "POSITION" : 4,
                        "NORMAL" : 5,
                        "TEXCOORD_0" : 6
                    },
                    "indices" : 7,
                    "material" : 1
                }
            ]
        }
    ],
    "accessors" : [
        {
            "bufferView" : 0,
            "componentType" : 5126,
            "count" : 504,
            "max" : [
                33.930904388427734,
                40.88782501220703,
                -1.4935200214385986
            ],
            "min" : [
                -47.962852478027344,
                -37.237388610839844,
                -121.91999816894531
            ],
            "type" : "VEC3"
        },
        {
            "bufferView" : 1,
            "componentType" : 5126,
            "count" : 504,
            "type" : "VEC3"
        },
        {
            "bufferView" : 2,
            "componentType" : 5126,
            "count" : 504,
            "type" : "VEC2"
        },
        {
            "bufferView" : 3,
            "componentType" : 5123,
            "count" : 1512,
            "type" : "SCALAR"
        },
        {
            "bufferView" : 4,
            "componentType" : 5126,
            "count" : 194,
            "max" : [
                30.877010345458984,
                41.48683547973633,
                -5.3412251472473145
            ],
            "min" : [
                -42.7133903503418,
                15.510231971740723,
                -118.07229614257812
            ],
            "type" : "VEC3"
        },
        {
            "bufferView" : 5,
            "componentType" : 5126,
            "count" : 194,
            "type" : "VEC3"
        },
        {
            "bufferView" : 6,
            "componentType" : 5126,
            "count" : 194,
            "type" : "VEC2"
        },
        {
            "bufferView" : 7,
            "componentType" : 5123,
            "count" : 624,
            "type" : "SCALAR"
        }
    ],
    "bufferViews" : [
        {
            "buffer" : 0,
            "byteLength" : 6048,
            "byteOffset" : 0
        },
        {
            "buffer" : 0,
            "byteLength" : 6048,
            "byteOffset" : 6048
        },
        {
            "buffer" : 0,
            "byteLength" : 4032,
            "byteOffset" : 12096
        },
        {
            "buffer" : 0,
            "byteLength" : 3024,
            "byteOffset" : 16128
        },
        {
            "buffer" : 0,
            "byteLength" : 2328,
            "byteOffset" : 19152
        },
        {
            "buffer" : 0,
            "byteLength" : 2328,
            "byteOffset" : 21480
        },
        {
            "buffer" : 0,
            "byteLength" : 1552,
            "byteOffset" : 23808
        },
        {
            "buffer" : 0,
            "byteLength" : 1248,
            "byteOffset" : 25360
        }
    ],
    "buffers" : [
        {
            "byteLength" : 26608,
            "uri" : "data:application/octet-stream;base64,"
        }
    ]
}
