{
	"accessors": [
		{
			"bufferView": 0,
			"byteOffset": 0,
			"componentType": 5126,
			"count": 973,
			"max": [
				0.4827853739261627,
				0.6835532188415527,
				0.13433973491191864
			],
			"min": [
				-0.4827853739261627,
				-0.01136859878897667,
				-0.004503993317484856
			],
			"type": "VEC3"
		},
		{
			"bufferView": 1,
			"byteOffset": 0,
			"componentType": 5126,
			"count": 973,
			"type": "VEC3"
		},
		{
			"bufferView": 2,
			"byteOffset": 0,
			"componentType": 5126,
			"count": 973,
			"type": "VEC2"
		},
		{
			"bufferView": 3,
			"byteOffset": 0,
			"componentType": 5126,
			"count": 973,
			"type": "VEC2"
		},
		{
			"bufferView": 4,
			"byteOffset": 0,
			"componentType": 5123,
			"count": 2766,
			"type": "SCALAR"
		},
		{
			"bufferView": 5,
			"byteOffset": 0,
			"componentType": 5126,
			"count": 22,
			"max": [
				0.23661388456821442,
				0.6817380785942078,
				0.01959528774023056
			],
			"min": [
				0.19241201877593994,
				0.6781740188598633,
				-0.019931292161345482
			],
			"type": "VEC3"
		},
		{
			"bufferView": 6,
			"byteOffset": 0,
			"componentType": 5126,
			"count": 22,
			"type": "VEC3"
		},
		{
			"bufferView": 7,
			"byteOffset": 0,
			"componentType": 5126,
			"count": 22,
			"type": "VEC2"
		},
		{
			"bufferView": 8,
			"byteOffset": 0,
			"componentType": 5126,
			"count": 22,
			"type": "VEC2"
		},
		{
			"bufferView": 9,
			"byteOffset": 0,
			"componentType": 5123,
			"count": 60,
			"type": "SCALAR"
		},
		{
			"bufferView": 10,
			"byteOffset": 0,
			"componentType": 5126,
			"count": 22,
			"max": [
				0.23661388456821442,
				0.6817380785942078,
				0.01959528774023056
			],
			"min": [
				0.19241201877593994,
				0.6781740188598633,
				-0.019931292161345482
			],
			"type": "VEC3"
		},
		{
			"bufferView": 11,
			"byteOffset": 0,
			"componentType": 5126,
			"count": 22,
			"type": "VEC3"
		},
		{
			"bufferView": 12,
			"byteOffset": 0,
			"componentType": 5126,
			"count": 22,
			"type": "VEC2"
		},
		{
			"bufferView": 13,
			"byteOffset": 0,
			"componentType": 5126,
			"count": 22,
			"type": "VEC2"
		},
		{
			"bufferView": 14,
			"byteOffset": 0,
			"componentType": 5126,
			"count": 36,
			"max": [
				0.2659766376018524,
				0.5404207110404968,
				0.12331734597682953
			],
			"min": [
				-0.2659766376018524,
				0.16475197672843933,
				0.12330692261457443
			],
			"type": "VEC3"
		},
		{
			"bufferView": 15,
			"byteOffset": 0,
			"componentType": 5126,
			"count": 36,
			"type": "VEC3"
		},
		{
			"bufferView": 16,
			"byteOffset": 0,
			"componentType": 5126,
			"count": 36,
			"type": "VEC2"
		},
		{
			"bufferView": 17,
			"byteOffset": 0,
			"componentType": 5126,
			"count": 36,
			"type": "VEC2"
		},
		{
			"bufferView": 18,
			"byteOffset": 0,
			"componentType": 5123,
			"count": 36,
			"type": "SCALAR"
		},
		{
			"bufferView": 19,
			"byteOffset": 0,
			"componentType": 5126,
			"count": 22,
			"max": [
				0.23661388456821442,
				0.6817380785942078,
				0.01959528774023056
			],
			"min": [
				0.19241201877593994,
				0.6781740188598633,
				-0.019931292161345482
			],
			"type": "VEC3"
		},
		{
			"bufferView": 20,
			"byteOffset": 0,
			"componentType": 5126,
			"count": 22,
			"type": "VEC3"
		},
		{
			"bufferView": 21,
			"byteOffset": 0,
			"componentType": 5126,
			"count": 22,
			"type": "VEC2"
		},
		{
			"bufferView": 22,
			"byteOffset": 0,
			"componentType": 5126,
			"count": 22,
			"type": "VEC2"
		},
		{
			"bufferView": 23,
			"byteOffset": 0,
			"componentType": 5126,
			"count": 22,
			"max": [
				0.23661388456821442,
				0.6817380785942078,
				0.01959528774023056
			],
			"min": [
				0.19241201877593994,
				0.6781740188598633,
				-0.019931292161345482
			],
			"type": "VEC3"
		},
		{
			"bufferView": 24,
			"byteOffset": 0,
			"componentType": 5126,
			"count": 22,
			"type": "VEC3"
		},
		{
			"bufferView": 25,
			"byteOffset": 0,
			"componentType": 5126,
			"count": 22,
			"type": "VEC2"
		},
		{
			"bufferView": 26,
			"byteOffset": 0,
			"componentType": 5126,
			"count": 22,
			"type": "VEC2"
		},
		{
			"bufferView": 27,
			"byteOffset": 0,
			"componentType": 5126,
			"count": 973,
			"max": [
				0.4827853739261627,
				0.6835532188415527,
				0.13433973491191864
			],
			"min": [
				-0.4827853739261627,
				-0.01136859878897667,
				-0.004503993317484856
			],
			"type": "VEC3"
		},
		{
			"bufferView": 28,
			"byteOffset": 0,
			"componentType": 5126,
			"count": 973,
			"type": "VEC3"
		},
		{
			"bufferView": 29,
			"byteOffset": 0,
			"componentType": 5126,
			"count": 973,
			"type": "VEC2"
		},
		{
			"bufferView": 30,
			"byteOffset": 0,
			"componentType": 5126,
			"count": 973,
			"type": "VEC2"
		},
		{
			"bufferView": 31,
			"byteOffset": 0,
			"componentType": 5126,
			"count": 428,
			"max": [
				0.05313003808259964,
				0.0060435389168560505,
				0.053130049258470535
			],
			"min": [
				-0.05313003808259964,
				-8.787779370322824e-05,
				-0.05313003808259964
			],
			"type": "VEC3"
		},
		{
			"bufferView": 32,
			"byteOffset": 0,
			"componentType": 5126,
			"count": 428,
			"type": "VEC3"
		},
		{
			"bufferView": 33,
			"byteOffset": 0,
			"componentType": 5126,
			"count": 428,
			"type": "VEC2"
		},
		{
			"bufferView": 34,
			"byteOffset": 0,
			"componentType": 5126,
			"count": 428,
			"type": "VEC2"
		},
		{
			"bufferView": 35,
			"byteOffset": 0,
			"componentType": 5123,
			"count": 1830,
			"type": "SCALAR"
		},
		{
			"bufferView": 36,
			"byteOffset": 0,
			"componentType": 5126,
			"count": 36,
			"max": [
				0.2659766376018524,
				0.5404207110404968,
				0.12331734597682953
			],
			"min": [
				-0.2659766376018524,
				0.16475197672843933,
				0.12330692261457443
			],
			"type": "VEC3"
		},
		{
			"bufferView": 37,
			"byteOffset": 0,
			"componentType": 5126,
			"count": 36,
			"type": "VEC3"
		},
		{
			"bufferView": 38,
			"byteOffset": 0,
			"componentType": 5126,
			"count": 36,
			"type": "VEC2"
		},
		{
			"bufferView": 39,
			"byteOffset": 0,
			"componentType": 5126,
			"count": 36,
			"type": "VEC2"
		},
		{
			"bufferView": 40,
			"byteOffset": 0,
			"componentType": 5126,
			"count": 1,
			"max": [
				0.041666666666666664
			],
			"min": [
				0.041666666666666664
			],
			"type": "SCALAR"
		},
		{
			"bufferView": 41,
			"byteOffset": 0,
			"componentType": 5126,
			"count": 1,
			"type": "VEC3"
		},
		{
			"bufferView": 42,
			"byteOffset": 0,
			"componentType": 5126,
			"count": 1,
			"type": "VEC4"
		},
		{
			"bufferView": 43,
			"byteOffset": 0,
			"componentType": 5126,
			"count": 40,
			"max": [
				1.6666666666666667
			],
			"min": [
				0.041666666666666664
			],
			"type": "SCALAR"
		},
		{
			"bufferView": 44,
			"byteOffset": 0,
			"componentType": 5126,
			"count": 40,
			"type": "VEC3"
		},
		{
			"bufferView": 45,
			"byteOffset": 0,
			"componentType": 5126,
			"count": 40,
			"type": "VEC4"
		},
		{
			"bufferView": 46,
			"byteOffset": 0,
			"componentType": 5126,
			"count": 1,
			"type": "VEC3"
		},
		{
			"bufferView": 47,
			"byteOffset": 0,
			"componentType": 5126,
			"count": 1,
			"type": "VEC4"
		},
		{
			"bufferView": 48,
			"byteOffset": 0,
			"componentType": 5126,
			"count": 40,
			"type": "VEC3"
		},
		{
			"bufferView": 49,
			"byteOffset": 0,
			"componentType": 5126,
			"count": 40,
			"type": "VEC4"
		}
	],
	"animations": [
		{
			"channels": [
				{
					"sampler": 0,
					"target": {
						"node": 7,
						"path": "translation"
					}
				},
				{
					"sampler": 1,
					"target": {
						"node": 7,
						"path": "rotation"
					}
				}
			],
			"name": "ferme",
			"samplers": [
				{
					"input": 40,
					"interpolation": "STEP",
					"output": 41
				},
				{
					"input": 40,
					"interpolation": "STEP",
					"output": 42
				}
			]
		},
		{
			"channels": [
				{
					"sampler": 0,
					"target": {
						"node": 7,
						"path": "translation"
					}
				},
				{
					"sampler": 1,
					"target": {
						"node": 7,
						"path": "rotation"
					}
				}
			],
			"name": "fermer",
			"samplers": [
				{
					"input": 43,
					"interpolation": "LINEAR",
					"output": 44
				},
				{
					"input": 43,
					"interpolation": "LINEAR",
					"output": 45
				}
			]
		},
		{
			"channels": [
				{
					"sampler": 0,
					"target": {
						"node": 7,
						"path": "translation"
					}
				},
				{
					"sampler": 1,
					"target": {
						"node": 7,
						"path": "rotation"
					}
				}
			],
			"name": "ouvert",
			"samplers": [
				{
					"input": 40,
					"interpolation": "STEP",
					"output": 46
				},
				{
					"input": 40,
					"interpolation": "STEP",
					"output": 47
				}
			]
		},
		{
			"channels": [
				{
					"sampler": 0,
					"target": {
						"node": 7,
						"path": "translation"
					}
				},
				{
					"sampler": 1,
					"target": {
						"node": 7,
						"path": "rotation"
					}
				}
			],
			"name": "ouvrir",
			"samplers": [
				{
					"input": 43,
					"interpolation": "LINEAR",
					"output": 48
				},
				{
					"input": 43,
					"interpolation": "LINEAR",
					"output": 49
				}
			]
		}
	],
	"asset": {
		"extras": {
			"created": "Sun Sep 25 00:08:27 2022"
		},
		"generator": "Gestaltor 2022.2.3 Tagliatelle Professional",
		"version": "2.0"
	},
	"bufferViews": [
		{
			"buffer": 0,
			"byteLength": 11676,
			"byteOffset": 0
		},
		{
			"buffer": 0,
			"byteLength": 11676,
			"byteOffset": 11676
		},
		{
			"buffer": 0,
			"byteLength": 7784,
			"byteOffset": 23352
		},
		{
			"buffer": 0,
			"byteLength": 7784,
			"byteOffset": 31136
		},
		{
			"buffer": 0,
			"byteLength": 5532,
			"byteOffset": 38920
		},
		{
			"buffer": 0,
			"byteLength": 264,
			"byteOffset": 44452
		},
		{
			"buffer": 0,
			"byteLength": 264,
			"byteOffset": 44716
		},
		{
			"buffer": 0,
			"byteLength": 176,
			"byteOffset": 44980
		},
		{
			"buffer": 0,
			"byteLength": 176,
			"byteOffset": 45156
		},
		{
			"buffer": 0,
			"byteLength": 120,
			"byteOffset": 45332
		},
		{
			"buffer": 0,
			"byteLength": 264,
			"byteOffset": 45452
		},
		{
			"buffer": 0,
			"byteLength": 264,
			"byteOffset": 45716
		},
		{
			"buffer": 0,
			"byteLength": 176,
			"byteOffset": 45980
		},
		{
			"buffer": 0,
			"byteLength": 176,
			"byteOffset": 46156
		},
		{
			"buffer": 0,
			"byteLength": 432,
			"byteOffset": 46332
		},
		{
			"buffer": 0,
			"byteLength": 432,
			"byteOffset": 46764
		},
		{
			"buffer": 0,
			"byteLength": 288,
			"byteOffset": 47196
		},
		{
			"buffer": 0,
			"byteLength": 288,
			"byteOffset": 47484
		},
		{
			"buffer": 0,
			"byteLength": 72,
			"byteOffset": 47772
		},
		{
			"buffer": 0,
			"byteLength": 264,
			"byteOffset": 47844
		},
		{
			"buffer": 0,
			"byteLength": 264,
			"byteOffset": 48108
		},
		{
			"buffer": 0,
			"byteLength": 176,
			"byteOffset": 48372
		},
		{
			"buffer": 0,
			"byteLength": 176,
			"byteOffset": 48548
		},
		{
			"buffer": 0,
			"byteLength": 264,
			"byteOffset": 48724
		},
		{
			"buffer": 0,
			"byteLength": 264,
			"byteOffset": 48988
		},
		{
			"buffer": 0,
			"byteLength": 176,
			"byteOffset": 49252
		},
		{
			"buffer": 0,
			"byteLength": 176,
			"byteOffset": 49428
		},
		{
			"buffer": 0,
			"byteLength": 11676,
			"byteOffset": 49604
		},
		{
			"buffer": 0,
			"byteLength": 11676,
			"byteOffset": 61280
		},
		{
			"buffer": 0,
			"byteLength": 7784,
			"byteOffset": 72956
		},
		{
			"buffer": 0,
			"byteLength": 7784,
			"byteOffset": 80740
		},
		{
			"buffer": 0,
			"byteLength": 5136,
			"byteOffset": 88524
		},
		{
			"buffer": 0,
			"byteLength": 5136,
			"byteOffset": 93660
		},
		{
			"buffer": 0,
			"byteLength": 3424,
			"byteOffset": 98796
		},
		{
			"buffer": 0,
			"byteLength": 3424,
			"byteOffset": 102220
		},
		{
			"buffer": 0,
			"byteLength": 3660,
			"byteOffset": 105644
		},
		{
			"buffer": 0,
			"byteLength": 432,
			"byteOffset": 109304
		},
		{
			"buffer": 0,
			"byteLength": 432,
			"byteOffset": 109736
		},
		{
			"buffer": 0,
			"byteLength": 288,
			"byteOffset": 110168
		},
		{
			"buffer": 0,
			"byteLength": 288,
			"byteOffset": 110456
		},
		{
			"buffer": 0,
			"byteLength": 4,
			"byteOffset": 110744
		},
		{
			"buffer": 0,
			"byteLength": 12,
			"byteOffset": 110748
		},
		{
			"buffer": 0,
			"byteLength": 16,
			"byteOffset": 110760
		},
		{
			"buffer": 0,
			"byteLength": 160,
			"byteOffset": 110776
		},
		{
			"buffer": 0,
			"byteLength": 480,
			"byteOffset": 110936
		},
		{
			"buffer": 0,
			"byteLength": 640,
			"byteOffset": 111416
		},
		{
			"buffer": 0,
			"byteLength": 12,
			"byteOffset": 112056
		},
		{
			"buffer": 0,
			"byteLength": 16,
			"byteOffset": 112068
		},
		{
			"buffer": 0,
			"byteLength": 480,
			"byteOffset": 112084
		},
		{
			"buffer": 0,
			"byteLength": 640,
			"byteOffset": 112564
		}
	],
	"buffers": [
		{
			"byteLength": 113204,
			"uri": "data:application/octet-stream;base64,"
		}
	],
	"images": [
		{
			"mimeType": "image/png",
			"name": "Case_main_med_normal.png",
			"uri": "data:image/png;base64,"
		},
		{
			"mimeType": "image/jpeg",
			"name": "Case_main_med_baseColor.jpeg",
			"uri": "data:image/jpeg;base64,"
		},
		{
			"mimeType": "image/png",
			"name": "Case_main_med_metallicRoughness.png",
			"uri": "data:image/png;base64,"
		},
		{
			"mimeType": "image/png",
			"name": "Case_glass_med_baseColor.png",
			"uri": "data:image/png;base64,"
		}
	],
	"materials": [
		{
			"doubleSided": true,
			"name": "Case_main_med.001",
			"normalTexture": {
				"index": 0
			},
			"pbrMetallicRoughness": {
				"baseColorTexture": {
					"index": 1
				},
				"metallicRoughnessTexture": {
					"index": 2
				}
			}
		},
		{
			"alphaMode": "BLEND",
			"doubleSided": true,
			"name": "Case_glass_med.001",
			"normalTexture": {
				"index": 3
			},
			"pbrMetallicRoughness": {
				"baseColorTexture": {
					"index": 4
				},
				"metallicRoughnessTexture": {
					"index": 5
				}
			}
		}
	],
	"meshes": [
		{
			"name": "Case.003_Case_main_med_0.001",
			"primitives": [
				{
					"attributes": {
						"NORMAL": 1,
						"POSITION": 0,
						"TEXCOORD_0": 2,
						"TEXCOORD_1": 3
					},
					"indices": 4,
					"material": 0,
					"mode": 4
				}
			]
		},
		{
			"name": "Case.005_Case_main_med_0.001",
			"primitives": [
				{
					"attributes": {
						"NORMAL": 6,
						"POSITION": 5,
						"TEXCOORD_0": 7,
						"TEXCOORD_1": 8
					},
					"indices": 9,
					"material": 0,
					"mode": 4
				}
			]
		},
		{
			"name": "Case.004_Case_main_med_0.001",
			"primitives": [
				{
					"attributes": {
						"NORMAL": 11,
						"POSITION": 10,
						"TEXCOORD_0": 12,
						"TEXCOORD_1": 13
					},
					"indices": 9,
					"material": 0,
					"mode": 4
				}
			]
		},
		{
			"name": "Window.001_Case_glass_med_0.001",
			"primitives": [
				{
					"attributes": {
						"NORMAL": 15,
						"POSITION": 14,
						"TEXCOORD_0": 16,
						"TEXCOORD_1": 17
					},
					"indices": 18,
					"material": 1,
					"mode": 4
				}
			]
		},
		{
			"name": "Case.002_Case_main_med_0.001",
			"primitives": [
				{
					"attributes": {
						"NORMAL": 20,
						"POSITION": 19,
						"TEXCOORD_0": 21,
						"TEXCOORD_1": 22
					},
					"indices": 9,
					"material": 0,
					"mode": 4
				}
			]
		},
		{
			"name": "Case.001_Case_main_med_0.001",
			"primitives": [
				{
					"attributes": {
						"NORMAL": 24,
						"POSITION": 23,
						"TEXCOORD_0": 25,
						"TEXCOORD_1": 26
					},
					"indices": 9,
					"material": 0,
					"mode": 4
				}
			]
		},
		{
			"name": "Case_Case_main_med_0.001",
			"primitives": [
				{
					"attributes": {
						"NORMAL": 28,
						"POSITION": 27,
						"TEXCOORD_0": 29,
						"TEXCOORD_1": 30
					},
					"indices": 4,
					"material": 0,
					"mode": 4
				}
			]
		},
		{
			"name": "Cube_Case_main_med_0.001",
			"primitives": [
				{
					"attributes": {
						"NORMAL": 32,
						"POSITION": 31,
						"TEXCOORD_0": 33,
						"TEXCOORD_1": 34
					},
					"indices": 35,
					"material": 0,
					"mode": 4
				}
			]
		},
		{
			"name": "Window_Case_glass_med_0.001",
			"primitives": [
				{
					"attributes": {
						"NORMAL": 37,
						"POSITION": 36,
						"TEXCOORD_0": 38,
						"TEXCOORD_1": 39
					},
					"indices": 18,
					"material": 1,
					"mode": 4
				}
			]
		}
	],
	"nodes": [
		{
			"mesh": 0,
			"name": "Case.003_Case_main_med_0.001"
		},
		{
			"mesh": 1,
			"name": "Case.005_Case_main_med_0.001"
		},
		{
			"children": [
				1
			],
			"matrix": [
				1.0,
				0.0,
				0.0,
				0.0,
				0.0,
				1.0,
				0.0,
				0.0,
				0.0,
				0.0,
				1.0,
				0.0,
				-0.4102036952972412,
				0.0,
				0.0,
				1.0
			],
			"name": "Case.018"
		},
		{
			"mesh": 2,
			"name": "Case.004_Case_main_med_0.001"
		},
		{
			"children": [
				3
			],
			"name": "Case.019"
		},
		{
			"mesh": 3,
			"name": "Window.001_Case_glass_med_0.001"
		},
		{
			"children": [
				5
			],
			"name": "Window.006"
		},
		{
			"children": [
				0,
				2,
				4,
				6
			],
			"name": "Case.020",
			"rotation": [
				0.0,
				0.9999992847442627,
				-0.0012609660625457764,
				1.947070842334142e-07
			]
		},
		{
			"mesh": 4,
			"name": "Case.002_Case_main_med_0.001"
		},
		{
			"children": [
				8
			],
			"matrix": [
				1.0,
				0.0,
				0.0,
				0.0,
				0.0,
				1.0,
				0.0,
				0.0,
				0.0,
				0.0,
				1.0,
				0.0,
				-0.4102036952972412,
				0.0,
				0.0,
				1.0
			],
			"name": "Case.021"
		},
		{
			"mesh": 5,
			"name": "Case.001_Case_main_med_0.001"
		},
		{
			"children": [
				10
			],
			"name": "Case.022"
		},
		{
			"mesh": 6,
			"name": "Case_Case_main_med_0.001"
		},
		{
			"mesh": 7,
			"name": "Cube_Case_main_med_0.001"
		},
		{
			"children": [
				13
			],
			"matrix": [
				3.714032956736446e-07,
				0.0,
				-0.9999999657714298,
				0.0,
				0.0,
				1.0,
				0.0,
				0.0,
				0.9999999657714298,
				0.0,
				3.714032956736446e-07,
				0.0,
				0.05268430709838867,
				0.6018322110176086,
				0.06516531109809875,
				1.0
			],
			"name": "Cube.030"
		},
		{
			"mesh": 8,
			"name": "Window_Case_glass_med_0.001"
		},
		{
			"children": [
				15
			],
			"name": "Window.007"
		},
		{
			"children": [
				7,
				9,
				11,
				12,
				14,
				16
			],
			"matrix": [
				-0.4999999657714653,
				9.735357051611077e-08,
				9.735358692869719e-08,
				0.0,
				-9.735357051611077e-08,
				1.0140796291580045e-07,
				-0.49999998288572556,
				0.0,
				-9.735358692869719e-08,
				-0.49999998288572556,
				-6.717942824252532e-08,
				0.0,
				0.0,
				0.0,
				0.0,
				1.0
			],
			"name": "Case.023"
		}
	],
	"samplers": [
		{
			"magFilter": 9729,
			"minFilter": 9987
		}
	],
	"scene": 0,
	"scenes": [
		{
			"name": "Scene",
			"nodes": [
				17
			]
		}
	],
	"textures": [
		{
			"sampler": 0,
			"source": 0
		},
		{
			"sampler": 0,
			"source": 1
		},
		{
			"sampler": 0,
			"source": 2
		},
		{
			"sampler": 0,
			"source": 0
		},
		{
			"sampler": 0,
			"source": 3
		},
		{
			"sampler": 0,
			"source": 2
		}
	]
}