{
    "asset" : {
        "generator" : "Khronos glTF Blender I/O v1.6.16",
        "version" : "2.0"
    },
    "scene" : 0,
    "scenes" : [
        {
            "name" : "Scene",
            "nodes" : [
                0
            ]
        }
    ],
    "nodes" : [
        {
            "mesh" : 0,
            "name" : "Body1.001",
            "rotation" : [
                0.7071068286895752,
                0,
                0,
                0.7071068286895752
            ],
            "scale" : [
                0.009999999776482582,
                0.009999999776482582,
                0.009999999776482582
            ]
        }
    ],
    "animations" : [
        {
            "channels" : [
                {
                    "sampler" : 0,
                    "target" : {
                        "node" : 0,
                        "path" : "rotation"
                    }
                }
            ],
            "name" : "descend",
            "samplers" : [
                {
                    "input" : 4,
                    "interpolation" : "LINEAR",
                    "output" : 5
                }
            ]
        },
        {
            "channels" : [
                {
                    "sampler" : 0,
                    "target" : {
                        "node" : 0,
                        "path" : "rotation"
                    }
                }
            ],
            "name" : "monte",
            "samplers" : [
                {
                    "input" : 4,
                    "interpolation" : "LINEAR",
                    "output" : 6
                }
            ]
        }
    ],
    "materials" : [
        {
            "doubleSided" : true,
            "name" : "144,142,139.001",
            "pbrMetallicRoughness" : {
                "baseColorFactor" : [
                    0.5647059679031372,
                    0.02812054380774498,
                    0.012185378931462765,
                    1
                ],
                "roughnessFactor" : 0.5527864098548889
            }
        }
    ],
    "meshes" : [
        {
            "name" : "Body1.001",
            "primitives" : [
                {
                    "attributes" : {
                        "POSITION" : 0,
                        "NORMAL" : 1,
                        "TEXCOORD_0" : 2
                    },
                    "indices" : 3,
                    "material" : 0
                }
            ]
        }
    ],
    "accessors" : [
        {
            "bufferView" : 0,
            "componentType" : 5126,
            "count" : 429,
            "max" : [
                0.8892428278923035,
                1.1261836290359497,
                0.26552677154541016
            ],
            "min" : [
                -0.8957571387290955,
                -1.1238163709640503,
                -0.7344732284545898
            ],
            "type" : "VEC3"
        },
        {
            "bufferView" : 1,
            "componentType" : 5126,
            "count" : 429,
            "type" : "VEC3"
        },
        {
            "bufferView" : 2,
            "componentType" : 5126,
            "count" : 429,
            "type" : "VEC2"
        },
        {
            "bufferView" : 3,
            "componentType" : 5123,
            "count" : 924,
            "type" : "SCALAR"
        },
        {
            "bufferView" : 4,
            "componentType" : 5126,
            "count" : 90,
            "max" : [
                3.75
            ],
            "min" : [
                0.041666666666666664
            ],
            "type" : "SCALAR"
        },
        {
            "bufferView" : 5,
            "componentType" : 5126,
            "count" : 90,
            "type" : "VEC4"
        },
        {
            "bufferView" : 6,
            "componentType" : 5126,
            "count" : 90,
            "type" : "VEC4"
        }
    ],
    "bufferViews" : [
        {
            "buffer" : 0,
            "byteLength" : 5148,
            "byteOffset" : 0
        },
        {
            "buffer" : 0,
            "byteLength" : 5148,
            "byteOffset" : 5148
        },
        {
            "buffer" : 0,
            "byteLength" : 3432,
            "byteOffset" : 10296
        },
        {
            "buffer" : 0,
            "byteLength" : 1848,
            "byteOffset" : 13728
        },
        {
            "buffer" : 0,
            "byteLength" : 360,
            "byteOffset" : 15576
        },
        {
            "buffer" : 0,
            "byteLength" : 1440,
            "byteOffset" : 15936
        },
        {
            "buffer" : 0,
            "byteLength" : 1440,
            "byteOffset" : 17376
        }
    ],
    "buffers" : [
        {
            "byteLength" : 18816,
            "uri" : "data:application/octet-stream;base64,"
        }
    ]
}
