{
    "asset" : {
        "generator" : "Khronos glTF Blender I/O v1.6.16",
        "version" : "2.0"
    },
    "scene" : 0,
    "scenes" : [
        {
            "name" : "Scene",
            "nodes" : [
                0
            ]
        }
    ],
    "nodes" : [
        {
            "mesh" : 0,
            "name" : "poulie",
            "rotation" : [
                -0.7071068286895752,
                0,
                -0.7071068286895752,
                5.338508302088485e-08
            ],
            "scale" : [
                0.009999999776482582,
                0.009999999776482582,
                0.009999999776482582
            ],
            "translation" : [
                0,
                -0.0006358519895002246,
                -0.0001156094076577574
            ]
        }
    ],
    "materials" : [
        {
            "doubleSided" : true,
            "name" : "Yellow",
            "pbrMetallicRoughness" : {
                "baseColorFactor" : [
                    0.8666666746139526,
                    0.8666666746139526,
                    0.05098039284348488,
                    1
                ],
                "roughnessFactor" : 0.5527864098548889
            }
        },
        {
            "doubleSided" : true,
            "name" : "Red",
            "pbrMetallicRoughness" : {
                "baseColorFactor" : [
                    0.6980392336845398,
                    0,
                    0,
                    1
                ],
                "roughnessFactor" : 0.5527864098548889
            }
        }
    ],
    "meshes" : [
        {
            "name" : "Body1",
            "primitives" : [
                {
                    "attributes" : {
                        "POSITION" : 0,
                        "NORMAL" : 1,
                        "TEXCOORD_0" : 2
                    },
                    "indices" : 3,
                    "material" : 0
                },
                {
                    "attributes" : {
                        "POSITION" : 4,
                        "NORMAL" : 5,
                        "TEXCOORD_0" : 6
                    },
                    "indices" : 7,
                    "material" : 1
                }
            ]
        }
    ],
    "accessors" : [
        {
            "bufferView" : 0,
            "componentType" : 5126,
            "count" : 2675,
            "max" : [
                1.867680549621582,
                0.7290557026863098,
                0.7954971790313721
            ],
            "min" : [
                -0.9323194026947021,
                -0.8709443211555481,
                -0.8045028448104858
            ],
            "type" : "VEC3"
        },
        {
            "bufferView" : 1,
            "componentType" : 5126,
            "count" : 2675,
            "type" : "VEC3"
        },
        {
            "bufferView" : 2,
            "componentType" : 5126,
            "count" : 2675,
            "type" : "VEC2"
        },
        {
            "bufferView" : 3,
            "componentType" : 5123,
            "count" : 8451,
            "type" : "SCALAR"
        },
        {
            "bufferView" : 4,
            "componentType" : 5126,
            "count" : 163,
            "max" : [
                1.867680549621582,
                0.6646453142166138,
                0.09549714624881744
            ],
            "min" : [
                -0.5323193073272705,
                0.09332896769046783,
                -0.1045028567314148
            ],
            "type" : "VEC3"
        },
        {
            "bufferView" : 5,
            "componentType" : 5126,
            "count" : 163,
            "type" : "VEC3"
        },
        {
            "bufferView" : 6,
            "componentType" : 5126,
            "count" : 163,
            "type" : "VEC2"
        },
        {
            "bufferView" : 7,
            "componentType" : 5123,
            "count" : 447,
            "type" : "SCALAR"
        }
    ],
    "bufferViews" : [
        {
            "buffer" : 0,
            "byteLength" : 32100,
            "byteOffset" : 0
        },
        {
            "buffer" : 0,
            "byteLength" : 32100,
            "byteOffset" : 32100
        },
        {
            "buffer" : 0,
            "byteLength" : 21400,
            "byteOffset" : 64200
        },
        {
            "buffer" : 0,
            "byteLength" : 16902,
            "byteOffset" : 85600
        },
        {
            "buffer" : 0,
            "byteLength" : 1956,
            "byteOffset" : 102504
        },
        {
            "buffer" : 0,
            "byteLength" : 1956,
            "byteOffset" : 104460
        },
        {
            "buffer" : 0,
            "byteLength" : 1304,
            "byteOffset" : 106416
        },
        {
            "buffer" : 0,
            "byteLength" : 894,
            "byteOffset" : 107720
        }
    ],
    "buffers" : [
        {
            "byteLength" : 108616,
            "uri" : "data:application/octet-stream;base64,"
        }
    ]
}
