{
	"accessors": [
		{
			"bufferView": 0,
			"byteOffset": 0,
			"componentType": 5126,
			"count": 1237,
			"max": [
				0.2540000081062317,
				10.0,
				5.0
			],
			"min": [
				-4.0,
				-10.0,
				-5.0
			],
			"type": "VEC3"
		},
		{
			"bufferView": 1,
			"byteOffset": 0,
			"componentType": 5126,
			"count": 1237,
			"type": "VEC3"
		},
		{
			"bufferView": 2,
			"byteOffset": 0,
			"componentType": 5126,
			"count": 1237,
			"type": "VEC2"
		},
		{
			"bufferView": 3,
			"byteOffset": 0,
			"componentType": 5123,
			"count": 5400,
			"type": "SCALAR"
		},
		{
			"bufferView": 4,
			"byteOffset": 0,
			"componentType": 5126,
			"count": 636,
			"max": [
				2.740000009536743,
				2.5,
				2.5
			],
			"min": [
				2.5399999618530273,
				-2.5,
				-2.5
			],
			"type": "VEC3"
		},
		{
			"bufferView": 5,
			"byteOffset": 0,
			"componentType": 5126,
			"count": 636,
			"type": "VEC3"
		},
		{
			"bufferView": 6,
			"byteOffset": 0,
			"componentType": 5126,
			"count": 636,
			"type": "VEC2"
		},
		{
			"bufferView": 7,
			"byteOffset": 0,
			"componentType": 5123,
			"count": 2256,
			"type": "SCALAR"
		},
		{
			"bufferView": 8,
			"byteOffset": 0,
			"componentType": 5126,
			"count": 322,
			"max": [
				2.5399999618530273,
				2.5,
				2.5
			],
			"min": [
				0.0,
				-2.5,
				-2.5
			],
			"type": "VEC3"
		},
		{
			"bufferView": 9,
			"byteOffset": 0,
			"componentType": 5126,
			"count": 322,
			"type": "VEC3"
		},
		{
			"bufferView": 10,
			"byteOffset": 0,
			"componentType": 5126,
			"count": 322,
			"type": "VEC2"
		},
		{
			"bufferView": 11,
			"byteOffset": 0,
			"componentType": 5123,
			"count": 1140,
			"type": "SCALAR"
		}
	],
	"asset": {
		"extras": {
			"created": "Tue Jan 10 00:49:28 2023"
		},
		"generator": "Gestaltor 2022.4.0 Pappardelle Professional",
		"version": "2.0"
	},
	"bufferViews": [
		{
			"buffer": 0,
			"byteLength": 14844,
			"byteOffset": 0
		},
		{
			"buffer": 0,
			"byteLength": 14844,
			"byteOffset": 14844
		},
		{
			"buffer": 0,
			"byteLength": 9896,
			"byteOffset": 29688
		},
		{
			"buffer": 0,
			"byteLength": 10800,
			"byteOffset": 39584
		},
		{
			"buffer": 0,
			"byteLength": 7632,
			"byteOffset": 50384
		},
		{
			"buffer": 0,
			"byteLength": 7632,
			"byteOffset": 58016
		},
		{
			"buffer": 0,
			"byteLength": 5088,
			"byteOffset": 65648
		},
		{
			"buffer": 0,
			"byteLength": 4512,
			"byteOffset": 70736
		},
		{
			"buffer": 0,
			"byteLength": 3864,
			"byteOffset": 75248
		},
		{
			"buffer": 0,
			"byteLength": 3864,
			"byteOffset": 79112
		},
		{
			"buffer": 0,
			"byteLength": 2576,
			"byteOffset": 82976
		},
		{
			"buffer": 0,
			"byteLength": 2280,
			"byteOffset": 85552
		}
	],
	"buffers": [
		{
			"byteLength": 87832,
			"uri": "data:application/octet-stream;base64,"
		}
	],
	"extensionsUsed": [
		"KHR_materials_emissive_strength"
	],
	"materials": [
		{
			"doubleSided": true,
			"name": "Paint - Metallic (Dark Grey)",
			"pbrMetallicRoughness": {
				"baseColorFactor": [
					0.3490196168422699,
					0.3490196168422699,
					0.3490196168422699,
					1.0
				],
				"roughnessFactor": 0.5527864098548889
			}
		},
		{
			"doubleSided": true,
			"name": "Paint - Metallic (Silver)",
			"pbrMetallicRoughness": {
				"baseColorFactor": [
					0.9843137264251709,
					0.9803921580314636,
					0.9607843160629272,
					1.0
				],
				"roughnessFactor": 0.5527864098548889
			}
		},
		{
			"doubleSided": true,
			"emissiveFactor": [
				1.0,
				0.013702602125704288,
				0.0003051804378628731
			],
			"extensions": {
				"KHR_materials_emissive_strength": {
					"emissiveStrength": 10.0
				}
			},
			"name": "Paint - Metallic (Red)",
			"pbrMetallicRoughness": {
				"baseColorFactor": [
					0.7686274647712708,
					0.2078431397676468,
					0.15294118225574493,
					1.0
				],
				"roughnessFactor": 0.5527864098548889
			}
		}
	],
	"meshes": [
		{
			"name": "Body1.001",
			"primitives": [
				{
					"attributes": {
						"NORMAL": 1,
						"POSITION": 0,
						"TEXCOORD_0": 2
					},
					"indices": 3,
					"material": 0,
					"mode": 4
				}
			]
		},
		{
			"name": "bande",
			"primitives": [
				{
					"attributes": {
						"NORMAL": 5,
						"POSITION": 4,
						"TEXCOORD_0": 6
					},
					"indices": 7,
					"material": 1,
					"mode": 4
				}
			]
		},
		{
			"name": "Body1",
			"primitives": [
				{
					"attributes": {
						"NORMAL": 9,
						"POSITION": 8,
						"TEXCOORD_0": 10
					},
					"indices": 11,
					"material": 2,
					"mode": 4
				}
			]
		}
	],
	"nodes": [
		{
			"mesh": 0,
			"name": "Body1.001",
			"scale": [
				0.009999999776482582,
				0.009999999776482582,
				0.009999999776482582
			]
		},
		{
			"children": [
				0
			],
			"name": "boite"
		},
		{
			"children": [
				1
			],
			"name": "boite:1"
		},
		{
			"mesh": 1,
			"name": "bande",
			"scale": [
				0.009999999776482582,
				0.009999999776482582,
				0.009999999776482582
			]
		},
		{
			"mesh": 2,
			"name": "Body1",
			"scale": [
				0.009999999776482582,
				0.009999999776482582,
				0.009999999776482582
			]
		},
		{
			"children": [
				3,
				4
			],
			"name": "bouton"
		},
		{
			"children": [
				5
			],
			"name": "bouton:1"
		},
		{
			"children": [
				2,
				6
			],
			"name": "bouton v1",
			"translation": [
				0.0,
				0.0,
				0.0
			]
		}
	],
	"scene": 0,
	"scenes": [
		{
			"name": "Scene",
			"nodes": [
				7
			]
		}
	]
}