{
	"accessors": [
		{
			"bufferView": 0,
			"byteOffset": 0,
			"componentType": 5126,
			"count": 395,
			"max": [
				17.0,
				2.780449390411377,
				1.7798386812210083
			],
			"min": [
				2.0,
				-2.9000000953674316,
				-1.7798386812210083
			],
			"type": "VEC3"
		},
		{
			"bufferView": 1,
			"byteOffset": 0,
			"componentType": 5126,
			"count": 395,
			"type": "VEC3"
		},
		{
			"bufferView": 2,
			"byteOffset": 0,
			"componentType": 5126,
			"count": 395,
			"type": "VEC2"
		},
		{
			"bufferView": 3,
			"byteOffset": 0,
			"componentType": 5123,
			"count": 1284,
			"type": "SCALAR"
		}
	],
	"asset": {
		"extras": {
			"created": "Mon Jan  9 21:08:10 2023"
		},
		"generator": "Gestaltor 2022.4.0 Pappardelle Professional",
		"version": "2.0"
	},
	"bufferViews": [
		{
			"buffer": 0,
			"byteLength": 4740,
			"byteOffset": 0
		},
		{
			"buffer": 0,
			"byteLength": 4740,
			"byteOffset": 4740
		},
		{
			"buffer": 0,
			"byteLength": 3160,
			"byteOffset": 9480
		},
		{
			"buffer": 0,
			"byteLength": 2568,
			"byteOffset": 12640
		}
	],
	"buffers": [
		{
			"byteLength": 15208,
			"uri": "data:application/octet-stream;base64,"
		}
	],
	"materials": [
		{
			"doubleSided": true,
			"emissiveFactor": [
				0.955977737903595,
				0.012985427863895893,
				0.0003051804378628731
			],
			"name": "Paint - Metallic (Red).001",
			"pbrMetallicRoughness": {
				"baseColorFactor": [
					0.7686274647712708,
					0.2078431397676468,
					0.15294118225574493,
					1.0
				],
				"roughnessFactor": 0.0
			}
		}
	],
	"meshes": [
		{
			"name": "cle",
			"primitives": [
				{
					"attributes": {
						"NORMAL": 1,
						"POSITION": 0,
						"TEXCOORD_0": 2
					},
					"indices": 3,
					"material": 0,
					"mode": 4
				}
			]
		}
	],
	"nodes": [
		{
			"mesh": 0,
			"name": "cle",
			"scale": [
				0.009999999776482582,
				0.009999999776482582,
				0.009999999776482582
			]
		},
		{
			"children": [
				0
			],
			"name": "clef"
		},
		{
			"children": [
				1
			],
			"name": "clef:1",
			"translation": [
				0.0,
				0.0,
				0.0
			]
		},
		{
			"children": [
				2
			],
			"name": "lock key v2"
		}
	],
	"scene": 0,
	"scenes": [
		{
			"name": "Scene",
			"nodes": [
				3
			]
		}
	]
}