{
	"accessors": [
		{
			"bufferView": 0,
			"byteOffset": 0,
			"componentType": 5126,
			"count": 339,
			"max": [
				17.0,
				1.8334546089172363,
				0.8332887887954712
			],
			"min": [
				2.0,
				-1.5,
				-0.8332887887954712
			],
			"type": "VEC3"
		},
		{
			"bufferView": 1,
			"byteOffset": 0,
			"componentType": 5126,
			"count": 339,
			"type": "VEC3"
		},
		{
			"bufferView": 2,
			"byteOffset": 0,
			"componentType": 5126,
			"count": 339,
			"type": "VEC2"
		},
		{
			"bufferView": 3,
			"byteOffset": 0,
			"componentType": 5123,
			"count": 1074,
			"type": "SCALAR"
		}
	],
	"asset": {
		"extras": {
			"created": "Mon Jan  9 16:02:45 2023"
		},
		"generator": "Gestaltor 2022.4.0 Pappardelle Professional",
		"version": "2.0"
	},
	"bufferViews": [
		{
			"buffer": 0,
			"byteLength": 4068,
			"byteOffset": 0
		},
		{
			"buffer": 0,
			"byteLength": 4068,
			"byteOffset": 4068
		},
		{
			"buffer": 0,
			"byteLength": 2712,
			"byteOffset": 8136
		},
		{
			"buffer": 0,
			"byteLength": 2148,
			"byteOffset": 10848
		}
	],
	"buffers": [
		{
			"byteLength": 12996,
			"uri": "data:application/octet-stream;base64,"
		}
	],
	"materials": [
		{
			"doubleSided": true,
			"name": "Paint - Metallic (Red)",
			"pbrMetallicRoughness": {
				"baseColorFactor": [
					0.7686274647712708,
					0.2078431397676468,
					0.15294118225574493,
					1.0
				],
				"roughnessFactor": 0.0
			}
		}
	],
	"meshes": [
		{
			"name": "clef",
			"primitives": [
				{
					"attributes": {
						"NORMAL": 1,
						"POSITION": 0,
						"TEXCOORD_0": 2
					},
					"indices": 3,
					"material": 0,
					"mode": 4
				}
			]
		}
	],
	"nodes": [
		{
			"mesh": 0,
			"name": "cle.001",
			"scale": [
				0.009999999776482582,
				0.009999999776482582,
				0.009999999776482582
			]
		},
		{
			"children": [
				0
			],
			"name": "cle"
		},
		{
			"children": [
				1
			],
			"name": "cle.002",
			"translation": [
				0.30217623710632324,
				0.0,
				0.0
			]
		},
		{
			"children": [
				2
			],
			"name": "lock key v1"
		}
	],
	"scene": 0,
	"scenes": [
		{
			"name": "Scene",
			"nodes": [
				3
			]
		}
	]
}