{
	"accessors": [
		{
			"bufferView": 0,
			"byteOffset": 0,
			"componentType": 5126,
			"count": 237,
			"max": [
				9.0,
				10.0,
				15.0
			],
			"min": [
				-1.0,
				-10.0,
				-15.0
			],
			"type": "VEC3"
		},
		{
			"bufferView": 1,
			"byteOffset": 0,
			"componentType": 5126,
			"count": 237,
			"type": "VEC3"
		},
		{
			"bufferView": 2,
			"byteOffset": 0,
			"componentType": 5126,
			"count": 237,
			"type": "VEC2"
		},
		{
			"bufferView": 3,
			"byteOffset": 0,
			"componentType": 5123,
			"count": 750,
			"type": "SCALAR"
		},
		{
			"bufferView": 4,
			"byteOffset": 0,
			"componentType": 5126,
			"count": 200,
			"max": [
				2.0,
				1.8334546089172363,
				0.8334540724754333
			],
			"min": [
				0.0,
				-1.5,
				-0.8332887887954712
			],
			"type": "VEC3"
		},
		{
			"bufferView": 5,
			"byteOffset": 0,
			"componentType": 5126,
			"count": 200,
			"type": "VEC3"
		},
		{
			"bufferView": 6,
			"byteOffset": 0,
			"componentType": 5126,
			"count": 200,
			"type": "VEC2"
		},
		{
			"bufferView": 7,
			"byteOffset": 0,
			"componentType": 5123,
			"count": 720,
			"type": "SCALAR"
		}
	],
	"asset": {
		"extras": {
			"created": "Mon Jan  9 15:57:13 2023"
		},
		"generator": "Gestaltor 2022.4.0 Pappardelle Professional",
		"version": "2.0"
	},
	"bufferViews": [
		{
			"buffer": 0,
			"byteLength": 2844,
			"byteOffset": 0
		},
		{
			"buffer": 0,
			"byteLength": 2844,
			"byteOffset": 2844
		},
		{
			"buffer": 0,
			"byteLength": 1896,
			"byteOffset": 5688
		},
		{
			"buffer": 0,
			"byteLength": 1500,
			"byteOffset": 7584
		},
		{
			"buffer": 0,
			"byteLength": 2400,
			"byteOffset": 9084
		},
		{
			"buffer": 0,
			"byteLength": 2400,
			"byteOffset": 11484
		},
		{
			"buffer": 0,
			"byteLength": 1600,
			"byteOffset": 13884
		},
		{
			"buffer": 0,
			"byteLength": 1440,
			"byteOffset": 15484
		}
	],
	"buffers": [
		{
			"byteLength": 16924,
			"uri": "data:application/octet-stream;base64,"
		}
	],
	"extensionsRequired": [
		"KHR_materials_iridescence"
	],
	"extensionsUsed": [
		"KHR_materials_emissive_strength",
		"KHR_materials_iridescence"
	],
	"materials": [
		{
			"alphaCutoff": 0.0,
			"doubleSided": true,
			"emissiveFactor": [
				0.0,
				0.0,
				0.0
			],
			"name": "Paint - Metallic (Dark Grey)",
			"pbrMetallicRoughness": {
				"baseColorFactor": [
					0.09083695709705353,
					0.0,
					0.0,
					1.0
				],
				"roughnessFactor": 0.0
			}
		},
		{
			"doubleSided": true,
			"name": "Paint - Metallic (Red)",
			"pbrMetallicRoughness": {
				"baseColorFactor": [
					0.7686274647712708,
					0.2078431397676468,
					0.15294118225574493,
					1.0
				],
				"roughnessFactor": 0.5527864098548889
			}
		},
		{
			"alphaCutoff": 0.5,
			"doubleSided": true,
			"emissiveFactor": [
				1.0,
				0.0,
				0.0
			],
			"extensions": {
				"KHR_materials_emissive_strength": {
					"emissiveStrength": 100.0
				},
				"KHR_materials_iridescence": {
					"iridescenceFactor": 1.0
				}
			},
			"name": "Copy of Paint - Metallic (Red)"
		}
	],
	"meshes": [
		{
			"name": "coggre",
			"primitives": [
				{
					"attributes": {
						"NORMAL": 1,
						"POSITION": 0,
						"TEXCOORD_0": 2
					},
					"indices": 3,
					"material": 0,
					"mode": 4
				}
			]
		},
		{
			"name": "lighth",
			"primitives": [
				{
					"attributes": {
						"NORMAL": 5,
						"POSITION": 4,
						"TEXCOORD_0": 6
					},
					"indices": 7,
					"material": 2,
					"mode": 4
				}
			]
		}
	],
	"nodes": [
		{
			"mesh": 0,
			"name": "coffre",
			"scale": [
				0.009999999776482582,
				0.009999999776482582,
				0.009999999776482582
			]
		},
		{
			"matrix": [
				0.009999999776482582,
				0.0,
				0.0,
				0.0,
				0.0,
				0.009999999776482582,
				0.0,
				0.0,
				0.0,
				0.0,
				0.009999999776482582,
				0.0,
				0.0,
				0.0,
				0.0,
				1.0
			],
			"mesh": 1,
			"name": "loght"
		},
		{
			"children": [
				0,
				1
			],
			"name": "serrure"
		},
		{
			"children": [
				2
			],
			"name": "serrurecc"
		},
		{
			"children": [
				3
			],
			"name": "lock key v1",
			"rotation": [
				0.0,
				0.0,
				0.0,
				1.0
			]
		}
	],
	"scene": 0,
	"scenes": [
		{
			"name": "Scene",
			"nodes": [
				4
			]
		}
	]
}