{
	"accessors": [
		{
			"bufferView": 0,
			"byteOffset": 0,
			"componentType": 5126,
			"count": 238,
			"max": [
				9.0,
				10.0,
				15.0
			],
			"min": [
				-1.0,
				-10.0,
				-15.0
			],
			"type": "VEC3"
		},
		{
			"bufferView": 1,
			"byteOffset": 0,
			"componentType": 5126,
			"count": 238,
			"type": "VEC3"
		},
		{
			"bufferView": 2,
			"byteOffset": 0,
			"componentType": 5126,
			"count": 238,
			"type": "VEC2"
		},
		{
			"bufferView": 3,
			"byteOffset": 0,
			"componentType": 5123,
			"count": 756,
			"type": "SCALAR"
		},
		{
			"bufferView": 4,
			"byteOffset": 0,
			"componentType": 5126,
			"count": 296,
			"max": [
				2.0,
				2.780449390411377,
				1.7798386812210083
			],
			"min": [
				0.0,
				-2.9000000953674316,
				-1.7798386812210083
			],
			"type": "VEC3"
		},
		{
			"bufferView": 5,
			"byteOffset": 0,
			"componentType": 5126,
			"count": 296,
			"type": "VEC3"
		},
		{
			"bufferView": 6,
			"byteOffset": 0,
			"componentType": 5126,
			"count": 296,
			"type": "VEC2"
		},
		{
			"bufferView": 7,
			"byteOffset": 0,
			"componentType": 5123,
			"count": 1008,
			"type": "SCALAR"
		}
	],
	"asset": {
		"extras": {
			"created": "Mon Jan  9 21:04:31 2023"
		},
		"generator": "Gestaltor 2022.4.0 Pappardelle Professional",
		"version": "2.0"
	},
	"bufferViews": [
		{
			"buffer": 0,
			"byteLength": 2856,
			"byteOffset": 0
		},
		{
			"buffer": 0,
			"byteLength": 2856,
			"byteOffset": 2856
		},
		{
			"buffer": 0,
			"byteLength": 1904,
			"byteOffset": 5712
		},
		{
			"buffer": 0,
			"byteLength": 1512,
			"byteOffset": 7616
		},
		{
			"buffer": 0,
			"byteLength": 3552,
			"byteOffset": 9128
		},
		{
			"buffer": 0,
			"byteLength": 3552,
			"byteOffset": 12680
		},
		{
			"buffer": 0,
			"byteLength": 2368,
			"byteOffset": 16232
		},
		{
			"buffer": 0,
			"byteLength": 2016,
			"byteOffset": 18600
		}
	],
	"buffers": [
		{
			"byteLength": 20616,
			"uri": "data:application/octet-stream;base64,"
		}
	],
	"materials": [
		{
			"doubleSided": true,
			"name": "Paint - Metallic (Dark Grey).001",
			"pbrMetallicRoughness": {
				"baseColorFactor": [
					0.3490196168422699,
					0.3490196168422699,
					0.3490196168422699,
					1.0
				],
				"roughnessFactor": 0.5527864098548889
			}
		},
		{
			"doubleSided": true,
			"emissiveFactor": [
				0.955977737903595,
				0.002426184481009841,
				0.0
			],
			"name": "LIght"
		}
	],
	"meshes": [
		{
			"name": "boite",
			"primitives": [
				{
					"attributes": {
						"NORMAL": 1,
						"POSITION": 0,
						"TEXCOORD_0": 2
					},
					"indices": 3,
					"material": 0,
					"mode": 4
				}
			]
		},
		{
			"name": "light",
			"primitives": [
				{
					"attributes": {
						"NORMAL": 5,
						"POSITION": 4,
						"TEXCOORD_0": 6
					},
					"indices": 7,
					"material": 1,
					"mode": 4
				}
			]
		}
	],
	"nodes": [
		{
			"mesh": 0,
			"name": "boite",
			"scale": [
				0.009999999776482582,
				0.009999999776482582,
				0.009999999776482582
			]
		},
		{
			"mesh": 1,
			"name": "light",
			"scale": [
				0.009999999776482582,
				0.009999999776482582,
				0.009999999776482582
			]
		},
		{
			"children": [
				0,
				1
			],
			"name": "serrure"
		},
		{
			"children": [
				2
			],
			"name": "serrure:1"
		},
		{
			"children": [
				3
			],
			"name": "lock key v2"
		}
	],
	"scene": 0,
	"scenes": [
		{
			"name": "Scene",
			"nodes": [
				4
			]
		}
	]
}