{
    "asset" : {
        "generator" : "Khronos glTF Blender I/O v1.8.2",
        "version" : "2.0"
    },
    "scene" : 0,
    "scenes" : [
        {
            "name" : "Scene",
            "nodes" : [
                6
            ]
        }
    ],
    "nodes" : [
        {
            "mesh" : 0,
            "name" : "armoir__0"
        },
        {
            "children" : [
                0
            ],
            "name" : "armoir",
            "scale" : [
                2.095721960067749,
                0.5485926270484924,
                0.6075942516326904
            ],
            "translation" : [
                -7.749391555786133,
                -0.5849771499633789,
                0.6070635318756104
            ]
        },
        {
            "children" : [
                1
            ],
            "name" : "Empty",
            "rotation" : [
                -0.7071068286895752,
                0,
                0,
                0.7071067094802856
            ],
            "scale" : [
                100,
                100,
                100
            ],
            "translation" : [
                523.5460205078125,
                37.86357498168945,
                -468.0550231933594
            ]
        },
        {
            "children" : [
                2
            ],
            "name" : "RootNode"
        },
        {
            "children" : [
                3
            ],
            "name" : "Object_2"
        },
        {
            "children" : [
                4
            ],
            "name" : "d12e33ed341b43afa21f0f6b07c1d5db.fbx",
            "rotation" : [
                0.7071068286895752,
                0,
                0,
                0.7071068286895752
            ]
        },
        {
            "children" : [
                5
            ],
            "name" : "Sketchfab_model",
            "rotation" : [
                -0.7071068286895752,
                0,
                0,
                0.7071068286895752
            ],
            "scale" : [
                0.003985759802162647,
                0.003985759802162647,
                0.003985759802162647
            ],
            "translation" : [
                0,
                2.573600113464636e-06,
                -0.00014259020099416375
            ]
        }
    ],
    "materials" : [
        {
            "doubleSided" : true,
            "name" : "table_tv__0",
            "pbrMetallicRoughness" : {
                "metallicFactor" : 0,
                "roughnessFactor" : 0.6000000238418579
            }
        }
    ],
    "meshes" : [
        {
            "name" : "armoir__0",
            "primitives" : [
                {
                    "attributes" : {
                        "POSITION" : 0,
                        "NORMAL" : 1
                    },
                    "indices" : 2,
                    "material" : 0
                }
            ]
        }
    ],
    "accessors" : [
        {
            "bufferView" : 0,
            "componentType" : 5126,
            "count" : 199,
            "max" : [
                1,
                1,
                1
            ],
            "min" : [
                -1,
                -1,
                -1
            ],
            "type" : "VEC3"
        },
        {
            "bufferView" : 1,
            "componentType" : 5126,
            "count" : 199,
            "type" : "VEC3"
        },
        {
            "bufferView" : 2,
            "componentType" : 5123,
            "count" : 252,
            "type" : "SCALAR"
        }
    ],
    "bufferViews" : [
        {
            "buffer" : 0,
            "byteLength" : 2388,
            "byteOffset" : 0
        },
        {
            "buffer" : 0,
            "byteLength" : 2388,
            "byteOffset" : 2388
        },
        {
            "buffer" : 0,
            "byteLength" : 504,
            "byteOffset" : 4776
        }
    ],
    "buffers" : [
        {
            "byteLength" : 5280,
            "uri" : "data:application/octet-stream;base64,"
        }
    ]
}
