{
	"accessors": [
		{
			"bufferView": 0,
			"byteOffset": 0,
			"componentType": 5126,
			"count": 68,
			"max": [
				0.75,
				22.0,
				35.0
			],
			"min": [
				0.0,
				0.0,
				0.0
			],
			"type": "VEC3"
		},
		{
			"bufferView": 1,
			"byteOffset": 0,
			"componentType": 5126,
			"count": 68,
			"type": "VEC3"
		},
		{
			"bufferView": 2,
			"byteOffset": 0,
			"componentType": 5123,
			"count": 108,
			"type": "SCALAR"
		},
		{
			"bufferView": 3,
			"byteOffset": 0,
			"componentType": 5126,
			"count": 68,
			"max": [
				0.75,
				22.0,
				35.0
			],
			"min": [
				0.0,
				0.0,
				0.0
			],
			"type": "VEC3"
		},
		{
			"bufferView": 4,
			"byteOffset": 0,
			"componentType": 5126,
			"count": 68,
			"type": "VEC3"
		},
		{
			"bufferView": 5,
			"byteOffset": 0,
			"componentType": 5126,
			"count": 24,
			"max": [
				28.5,
				21.0,
				0.75
			],
			"min": [
				0.0,
				0.0,
				0.0
			],
			"type": "VEC3"
		},
		{
			"bufferView": 6,
			"byteOffset": 0,
			"componentType": 5126,
			"count": 24,
			"type": "VEC3"
		},
		{
			"bufferView": 7,
			"byteOffset": 0,
			"componentType": 5123,
			"count": 36,
			"type": "SCALAR"
		},
		{
			"bufferView": 8,
			"byteOffset": 0,
			"componentType": 5126,
			"count": 24,
			"max": [
				28.5,
				21.0,
				0.75
			],
			"min": [
				0.0,
				0.0,
				0.0
			],
			"type": "VEC3"
		},
		{
			"bufferView": 9,
			"byteOffset": 0,
			"componentType": 5126,
			"count": 24,
			"type": "VEC3"
		},
		{
			"bufferView": 10,
			"byteOffset": 0,
			"componentType": 5126,
			"count": 24,
			"max": [
				29.0,
				0.25,
				31.0
			],
			"min": [
				0.0,
				0.0,
				0.0
			],
			"type": "VEC3"
		},
		{
			"bufferView": 11,
			"byteOffset": 0,
			"componentType": 5126,
			"count": 24,
			"type": "VEC3"
		},
		{
			"bufferView": 12,
			"byteOffset": 0,
			"componentType": 5126,
			"count": 24,
			"max": [
				28.5,
				0.75,
				3.0
			],
			"min": [
				0.0,
				0.0,
				0.0
			],
			"type": "VEC3"
		},
		{
			"bufferView": 13,
			"byteOffset": 0,
			"componentType": 5126,
			"count": 24,
			"type": "VEC3"
		},
		{
			"bufferView": 14,
			"byteOffset": 0,
			"componentType": 5126,
			"count": 24,
			"max": [
				28.5,
				0.75,
				3.0
			],
			"min": [
				0.0,
				0.0,
				0.0
			],
			"type": "VEC3"
		},
		{
			"bufferView": 15,
			"byteOffset": 0,
			"componentType": 5126,
			"count": 24,
			"type": "VEC3"
		},
		{
			"bufferView": 16,
			"byteOffset": 0,
			"componentType": 5126,
			"count": 24,
			"max": [
				30.0,
				0.75,
				4.0
			],
			"min": [
				0.0,
				0.0,
				0.0
			],
			"type": "VEC3"
		},
		{
			"bufferView": 17,
			"byteOffset": 0,
			"componentType": 5126,
			"count": 24,
			"type": "VEC3"
		},
		{
			"bufferView": 18,
			"byteOffset": 0,
			"componentType": 5126,
			"count": 28,
			"max": [
				23.8125,
				0.75,
				32.625
			],
			"min": [
				9.0,
				0.0,
				1.875
			],
			"type": "VEC3"
		},
		{
			"bufferView": 19,
			"byteOffset": 0,
			"componentType": 5126,
			"count": 28,
			"type": "VEC3"
		},
		{
			"bufferView": 20,
			"byteOffset": 0,
			"componentType": 5123,
			"count": 36,
			"type": "SCALAR"
		},
		{
			"bufferView": 21,
			"byteOffset": 0,
			"componentType": 5126,
			"count": 24,
			"max": [
				1.0,
				0.25,
				29.5
			],
			"min": [
				0.0,
				0.0,
				0.0
			],
			"type": "VEC3"
		},
		{
			"bufferView": 22,
			"byteOffset": 0,
			"componentType": 5126,
			"count": 24,
			"type": "VEC3"
		},
		{
			"bufferView": 23,
			"byteOffset": 0,
			"componentType": 5126,
			"count": 60,
			"max": [
				2.186500072479248,
				0.4162498712539673,
				0.20000000298023224
			],
			"min": [
				-2.186500072479248,
				-0.4937501549720764,
				-0.20000000298023224
			],
			"type": "VEC3"
		},
		{
			"bufferView": 24,
			"byteOffset": 0,
			"componentType": 5126,
			"count": 60,
			"type": "VEC3"
		},
		{
			"bufferView": 25,
			"byteOffset": 0,
			"componentType": 5123,
			"count": 84,
			"type": "SCALAR"
		},
		{
			"bufferView": 26,
			"byteOffset": 0,
			"componentType": 5126,
			"count": 200,
			"max": [
				0.18481071293354034,
				0.1968470960855484,
				1.2499998807907104
			],
			"min": [
				-0.19018928706645966,
				-0.1781529039144516,
				-1.2500001192092896
			],
			"type": "VEC3"
		},
		{
			"bufferView": 27,
			"byteOffset": 0,
			"componentType": 5126,
			"count": 200,
			"type": "VEC3"
		},
		{
			"bufferView": 28,
			"byteOffset": 0,
			"componentType": 5123,
			"count": 282,
			"type": "SCALAR"
		},
		{
			"bufferView": 29,
			"byteOffset": 0,
			"componentType": 5126,
			"count": 65,
			"max": [
				0.03520379588007927,
				0.6086871027946472,
				1.25
			],
			"min": [
				-0.04479620233178139,
				-0.3288128972053528,
				-1.25
			],
			"type": "VEC3"
		},
		{
			"bufferView": 30,
			"byteOffset": 0,
			"componentType": 5126,
			"count": 65,
			"type": "VEC3"
		},
		{
			"bufferView": 31,
			"byteOffset": 0,
			"componentType": 5123,
			"count": 72,
			"type": "SCALAR"
		},
		{
			"bufferView": 32,
			"byteOffset": 0,
			"componentType": 5126,
			"count": 24,
			"max": [
				28.5,
				20.0,
				0.75
			],
			"min": [
				0.0,
				0.0,
				0.0
			],
			"type": "VEC3"
		},
		{
			"bufferView": 33,
			"byteOffset": 0,
			"componentType": 5126,
			"count": 24,
			"type": "VEC3"
		},
		{
			"bufferView": 34,
			"byteOffset": 0,
			"componentType": 5126,
			"count": 24,
			"max": [
				0.30603790283203125,
				1.1361401081085205,
				28.934309005737305
			],
			"min": [
				-14.506462097167969,
				0.3861401081085205,
				-1.8156909942626953
			],
			"type": "VEC3"
		},
		{
			"bufferView": 35,
			"byteOffset": 0,
			"componentType": 5126,
			"count": 24,
			"type": "VEC3"
		},
		{
			"bufferView": 36,
			"byteOffset": 0,
			"componentType": 5126,
			"count": 24,
			"max": [
				0.30603790283203125,
				1.1361401081085205,
				28.934309005737305
			],
			"min": [
				-14.506462097167969,
				0.3861401081085205,
				-1.8156909942626953
			],
			"type": "VEC3"
		},
		{
			"bufferView": 37,
			"byteOffset": 0,
			"componentType": 5126,
			"count": 24,
			"type": "VEC3"
		},
		{
			"bufferView": 38,
			"byteOffset": 0,
			"componentType": 5126,
			"count": 1,
			"max": [
				0.8333333333333334
			],
			"min": [
				0.8333333333333334
			],
			"type": "SCALAR"
		},
		{
			"bufferView": 39,
			"byteOffset": 0,
			"componentType": 5126,
			"count": 1,
			"type": "VEC4"
		},
		{
			"bufferView": 40,
			"byteOffset": 0,
			"componentType": 5126,
			"count": 20,
			"max": [
				0.8333333333333334
			],
			"min": [
				0.041666666666666664
			],
			"type": "SCALAR"
		},
		{
			"bufferView": 41,
			"byteOffset": 0,
			"componentType": 5126,
			"count": 20,
			"type": "VEC4"
		},
		{
			"bufferView": 42,
			"byteOffset": 0,
			"componentType": 5126,
			"count": 20,
			"type": "VEC4"
		},
		{
			"bufferView": 43,
			"byteOffset": 0,
			"componentType": 5126,
			"count": 20,
			"type": "VEC4"
		},
		{
			"bufferView": 44,
			"byteOffset": 0,
			"componentType": 5126,
			"count": 20,
			"type": "VEC4"
		}
	],
	"animations": [
		{
			"channels": [
				{
					"sampler": 0,
					"target": {
						"node": 50,
						"path": "rotation"
					}
				}
			],
			"name": "leftdoorclose",
			"samplers": [
				{
					"input": 38,
					"interpolation": "STEP",
					"output": 39
				}
			]
		},
		{
			"channels": [
				{
					"sampler": 0,
					"target": {
						"node": 50,
						"path": "rotation"
					}
				}
			],
			"name": "writedoorclose",
			"samplers": [
				{
					"input": 40,
					"interpolation": "LINEAR",
					"output": 41
				}
			]
		},
		{
			"channels": [
				{
					"sampler": 0,
					"target": {
						"node": 50,
						"path": "rotation"
					}
				}
			],
			"name": "writedooropen",
			"samplers": [
				{
					"input": 40,
					"interpolation": "LINEAR",
					"output": 42
				}
			]
		},
		{
			"channels": [
				{
					"sampler": 0,
					"target": {
						"node": 33,
						"path": "rotation"
					}
				}
			],
			"name": "leftdoorclose",
			"samplers": [
				{
					"input": 40,
					"interpolation": "LINEAR",
					"output": 43
				}
			]
		},
		{
			"channels": [
				{
					"sampler": 0,
					"target": {
						"node": 33,
						"path": "rotation"
					}
				}
			],
			"name": "leftdooropen",
			"samplers": [
				{
					"input": 40,
					"interpolation": "LINEAR",
					"output": 44
				}
			]
		}
	],
	"asset": {
		"extras": {
			"created": "Mon Aug  1 07:35:39 2022"
		},
		"generator": "Gestaltor 2022.2.3 Tagliatelle Professional",
		"version": "2.0"
	},
	"bufferViews": [
		{
			"buffer": 0,
			"byteLength": 816,
			"byteOffset": 0
		},
		{
			"buffer": 0,
			"byteLength": 816,
			"byteOffset": 816
		},
		{
			"buffer": 0,
			"byteLength": 216,
			"byteOffset": 1632
		},
		{
			"buffer": 0,
			"byteLength": 816,
			"byteOffset": 1848
		},
		{
			"buffer": 0,
			"byteLength": 816,
			"byteOffset": 2664
		},
		{
			"buffer": 0,
			"byteLength": 288,
			"byteOffset": 3480
		},
		{
			"buffer": 0,
			"byteLength": 288,
			"byteOffset": 3768
		},
		{
			"buffer": 0,
			"byteLength": 72,
			"byteOffset": 4056
		},
		{
			"buffer": 0,
			"byteLength": 288,
			"byteOffset": 4128
		},
		{
			"buffer": 0,
			"byteLength": 288,
			"byteOffset": 4416
		},
		{
			"buffer": 0,
			"byteLength": 288,
			"byteOffset": 4704
		},
		{
			"buffer": 0,
			"byteLength": 288,
			"byteOffset": 4992
		},
		{
			"buffer": 0,
			"byteLength": 288,
			"byteOffset": 5280
		},
		{
			"buffer": 0,
			"byteLength": 288,
			"byteOffset": 5568
		},
		{
			"buffer": 0,
			"byteLength": 288,
			"byteOffset": 5856
		},
		{
			"buffer": 0,
			"byteLength": 288,
			"byteOffset": 6144
		},
		{
			"buffer": 0,
			"byteLength": 288,
			"byteOffset": 6432
		},
		{
			"buffer": 0,
			"byteLength": 288,
			"byteOffset": 6720
		},
		{
			"buffer": 0,
			"byteLength": 336,
			"byteOffset": 7008
		},
		{
			"buffer": 0,
			"byteLength": 336,
			"byteOffset": 7344
		},
		{
			"buffer": 0,
			"byteLength": 72,
			"byteOffset": 7680
		},
		{
			"buffer": 0,
			"byteLength": 288,
			"byteOffset": 7752
		},
		{
			"buffer": 0,
			"byteLength": 288,
			"byteOffset": 8040
		},
		{
			"buffer": 0,
			"byteLength": 720,
			"byteOffset": 8328
		},
		{
			"buffer": 0,
			"byteLength": 720,
			"byteOffset": 9048
		},
		{
			"buffer": 0,
			"byteLength": 168,
			"byteOffset": 9768
		},
		{
			"buffer": 0,
			"byteLength": 2400,
			"byteOffset": 9936
		},
		{
			"buffer": 0,
			"byteLength": 2400,
			"byteOffset": 12336
		},
		{
			"buffer": 0,
			"byteLength": 564,
			"byteOffset": 14736
		},
		{
			"buffer": 0,
			"byteLength": 780,
			"byteOffset": 15300
		},
		{
			"buffer": 0,
			"byteLength": 780,
			"byteOffset": 16080
		},
		{
			"buffer": 0,
			"byteLength": 144,
			"byteOffset": 16860
		},
		{
			"buffer": 0,
			"byteLength": 288,
			"byteOffset": 17004
		},
		{
			"buffer": 0,
			"byteLength": 288,
			"byteOffset": 17292
		},
		{
			"buffer": 0,
			"byteLength": 288,
			"byteOffset": 17580
		},
		{
			"buffer": 0,
			"byteLength": 288,
			"byteOffset": 17868
		},
		{
			"buffer": 0,
			"byteLength": 288,
			"byteOffset": 18156
		},
		{
			"buffer": 0,
			"byteLength": 288,
			"byteOffset": 18444
		},
		{
			"buffer": 0,
			"byteLength": 4,
			"byteOffset": 18732
		},
		{
			"buffer": 0,
			"byteLength": 16,
			"byteOffset": 18736
		},
		{
			"buffer": 0,
			"byteLength": 80,
			"byteOffset": 18752
		},
		{
			"buffer": 0,
			"byteLength": 320,
			"byteOffset": 18832
		},
		{
			"buffer": 0,
			"byteLength": 320,
			"byteOffset": 19152
		},
		{
			"buffer": 0,
			"byteLength": 320,
			"byteOffset": 19472
		},
		{
			"buffer": 0,
			"byteLength": 320,
			"byteOffset": 19792
		}
	],
	"buffers": [
		{
			"byteLength": 20112,
			"uri": "data:application/octet-stream;base64,"
		}
	],
	"materials": [
		{
			"doubleSided": true,
			"name": "default_face_material",
			"pbrMetallicRoughness": {
				"baseColorFactor": [
					0.8039215803146362,
					0.6901960968971252,
					0.5372549295425415,
					1.0
				]
			}
		},
		{
			"doubleSided": true,
			"name": "*1",
			"pbrMetallicRoughness": {
				"baseColorFactor": [
					0.545098066329956,
					0.2705882489681244,
					0.07450980693101883,
					1.0
				]
			}
		},
		{
			"doubleSided": true,
			"name": "Bar Pull - 0131_Silver",
			"pbrMetallicRoughness": {
				"baseColorFactor": [
					0.7529411911964417,
					0.7529411911964417,
					0.7529411911964417,
					1.0
				]
			}
		},
		{
			"doubleSided": true,
			"name": "0130_Gainsboro - Hinges",
			"pbrMetallicRoughness": {
				"baseColorFactor": [
					0.8627451062202454,
					0.8627451062202454,
					0.8627451062202454,
					1.0
				]
			}
		},
		{
			"doubleSided": true,
			"name": "Drawer Body Sides",
			"pbrMetallicRoughness": {
				"baseColorFactor": [
					0.9921568632125854,
					0.9607843160629272,
					0.9019607901573181,
					1.0
				]
			}
		},
		{
			"doubleSided": true,
			"name": "default_face_material.002",
			"pbrMetallicRoughness": {
				"baseColorFactor": [
					0.8039215803146362,
					0.6901960968971252,
					0.5372549295425415,
					1.0
				]
			}
		}
	],
	"meshes": [
		{
			"name": "Mesh_8",
			"primitives": [
				{
					"attributes": {
						"NORMAL": 1,
						"POSITION": 0
					},
					"indices": 2,
					"material": 0,
					"mode": 4
				}
			]
		},
		{
			"name": "Mesh_7",
			"primitives": [
				{
					"attributes": {
						"NORMAL": 4,
						"POSITION": 3
					},
					"indices": 2,
					"material": 0,
					"mode": 4
				}
			]
		},
		{
			"name": "Mesh_9",
			"primitives": [
				{
					"attributes": {
						"NORMAL": 6,
						"POSITION": 5
					},
					"indices": 7,
					"material": 0,
					"mode": 4
				}
			]
		},
		{
			"name": "Mesh_10",
			"primitives": [
				{
					"attributes": {
						"NORMAL": 9,
						"POSITION": 8
					},
					"indices": 7,
					"material": 0,
					"mode": 4
				}
			]
		},
		{
			"name": "Mesh_5",
			"primitives": [
				{
					"attributes": {
						"NORMAL": 11,
						"POSITION": 10
					},
					"indices": 7,
					"material": 1,
					"mode": 4
				}
			]
		},
		{
			"name": "Mesh_4",
			"primitives": [
				{
					"attributes": {
						"NORMAL": 13,
						"POSITION": 12
					},
					"indices": 7,
					"material": 0,
					"mode": 4
				}
			]
		},
		{
			"name": "Mesh_6",
			"primitives": [
				{
					"attributes": {
						"NORMAL": 15,
						"POSITION": 14
					},
					"indices": 7,
					"material": 0,
					"mode": 4
				}
			]
		},
		{
			"name": "Mesh_11",
			"primitives": [
				{
					"attributes": {
						"NORMAL": 17,
						"POSITION": 16
					},
					"indices": 7,
					"material": 0,
					"mode": 4
				}
			]
		},
		{
			"name": "Mesh_13",
			"primitives": [
				{
					"attributes": {
						"NORMAL": 19,
						"POSITION": 18
					},
					"indices": 20,
					"material": 0,
					"mode": 4
				}
			]
		},
		{
			"name": "Mesh_14",
			"primitives": [
				{
					"attributes": {
						"NORMAL": 22,
						"POSITION": 21
					},
					"indices": 7,
					"material": 0,
					"mode": 4
				}
			]
		},
		{
			"name": "Mesh_2",
			"primitives": [
				{
					"attributes": {
						"NORMAL": 24,
						"POSITION": 23
					},
					"indices": 25,
					"material": 2,
					"mode": 4
				}
			]
		},
		{
			"name": "Mesh_0",
			"primitives": [
				{
					"attributes": {
						"NORMAL": 27,
						"POSITION": 26
					},
					"indices": 28,
					"material": 3,
					"mode": 4
				}
			]
		},
		{
			"name": "Mesh_1",
			"primitives": [
				{
					"attributes": {
						"NORMAL": 30,
						"POSITION": 29
					},
					"indices": 31,
					"material": 3,
					"mode": 4
				}
			]
		},
		{
			"name": "Mesh_12",
			"primitives": [
				{
					"attributes": {
						"NORMAL": 33,
						"POSITION": 32
					},
					"indices": 7,
					"material": 4,
					"mode": 4
				}
			]
		},
		{
			"name": "Mesh_3",
			"primitives": [
				{
					"attributes": {
						"NORMAL": 35,
						"POSITION": 34
					},
					"indices": 7,
					"material": 0,
					"mode": 4
				}
			]
		},
		{
			"name": "Mesh_3.002",
			"primitives": [
				{
					"attributes": {
						"NORMAL": 37,
						"POSITION": 36
					},
					"indices": 7,
					"material": 5,
					"mode": 4
				}
			]
		}
	],
	"nodes": [
		{
			"mesh": 0,
			"name": "Mesh_8"
		},
		{
			"children": [
				0
			],
			"name": "72253"
		},
		{
			"mesh": 1,
			"name": "Mesh_7"
		},
		{
			"children": [
				2
			],
			"name": "72254",
			"rotation": [
				1.0,
				0.0,
				0.0,
				0.0
			],
			"scale": [
				-1.0,
				-1.0,
				-1.0
			],
			"translation": [
				30.0,
				0.0,
				0.0
			]
		},
		{
			"mesh": 2,
			"name": "Mesh_9"
		},
		{
			"children": [
				4
			],
			"name": "72255",
			"translation": [
				0.75,
				0.0,
				4.0
			]
		},
		{
			"mesh": 3,
			"name": "Mesh_10"
		},
		{
			"children": [
				6
			],
			"name": "72256",
			"translation": [
				0.75,
				0.0,
				34.25
			]
		},
		{
			"mesh": 4,
			"name": "Mesh_5"
		},
		{
			"children": [
				8
			],
			"name": "72257",
			"translation": [
				0.5,
				21.0,
				4.0
			]
		},
		{
			"mesh": 5,
			"name": "Mesh_4"
		},
		{
			"children": [
				10
			],
			"name": "72258",
			"translation": [
				0.75,
				21.25,
				32.0
			]
		},
		{
			"mesh": 6,
			"name": "Mesh_6"
		},
		{
			"children": [
				12
			],
			"name": "72259",
			"translation": [
				0.75,
				21.25,
				4.0
			]
		},
		{
			"mesh": 7,
			"name": "Mesh_11"
		},
		{
			"children": [
				14
			],
			"name": "72260",
			"translation": [
				0.0,
				2.25,
				0.0
			]
		},
		{
			"children": [
				1,
				3,
				5,
				7,
				9,
				11,
				13,
				15
			],
			"name": "72593",
			"translation": [
				0.0,
				1.659999966621399,
				0.0
			]
		},
		{
			"mesh": 8,
			"name": "Mesh_13"
		},
		{
			"children": [
				17
			],
			"name": "72591",
			"translation": [
				-24.0,
				0.9100000262260437,
				-1.875
			]
		},
		{
			"mesh": 9,
			"name": "Mesh_14"
		},
		{
			"children": [
				19
			],
			"name": "72592",
			"rotation": [
				1.0,
				0.0,
				0.0,
				0.0
			],
			"scale": [
				-1.0,
				-1.0,
				-1.0
			],
			"translation": [
				-14.44206428527832,
				1.659999966621399,
				0.625
			]
		},
		{
			"mesh": 10,
			"name": "Mesh_2.001"
		},
		{
			"children": [
				21
			],
			"name": "Bar Pull.001",
			"rotation": [
				0.0,
				-0.7071068286895752,
				0.0,
				0.7071068286895752
			],
			"translation": [
				-12.567062377929688,
				0.9100000262260437,
				24.75
			]
		},
		{
			"mesh": 11,
			"name": "Mesh_0.002"
		},
		{
			"children": [
				23
			],
			"name": "2627.002",
			"translation": [
				-0.375,
				-0.375,
				-2.5
			]
		},
		{
			"mesh": 12,
			"name": "Mesh_1.002"
		},
		{
			"children": [
				25
			],
			"name": "2628.002",
			"translation": [
				-0.07999999821186066,
				-0.1875,
				-2.5
			]
		},
		{
			"children": [
				24,
				26
			],
			"name": "Hinge.002",
			"translation": [
				-0.049564361572265625,
				0.9100000262260437,
				4.0
			]
		},
		{
			"mesh": 11,
			"name": "Mesh_0.003"
		},
		{
			"children": [
				28
			],
			"name": "2627.003",
			"translation": [
				-0.375,
				-0.375,
				-2.5
			]
		},
		{
			"mesh": 12,
			"name": "Mesh_1.003"
		},
		{
			"children": [
				30
			],
			"name": "2628.003",
			"translation": [
				-0.07999999821186066,
				-0.1875,
				-2.5
			]
		},
		{
			"children": [
				29,
				31
			],
			"name": "Hinge.003",
			"translation": [
				-0.049564361572265625,
				0.9100000262260437,
				29.25
			]
		},
		{
			"children": [
				18,
				20,
				22,
				27,
				32
			],
			"name": "72594",
			"rotation": [
				0.36271199584007263,
				-0.9319012761116028,
				0.0,
				-3.005029114433455e-08
			],
			"scale": [
				-1.0,
				-1.0,
				-1.0
			],
			"translation": [
				0.0,
				0.0,
				4.125
			]
		},
		{
			"mesh": 13,
			"name": "Mesh_12"
		},
		{
			"children": [
				34
			],
			"name": "72595",
			"translation": [
				0.75,
				2.6600000858306885,
				19.125
			]
		},
		{
			"mesh": 14,
			"name": "Mesh_3",
			"translation": [
				23.50646209716797,
				-0.3861401081085205,
				3.6906909942626953
			]
		},
		{
			"children": [
				36
			],
			"name": "71972",
			"translation": [
				-24.0,
				0.9100000262260437,
				-1.875
			]
		},
		{
			"mesh": 10,
			"name": "Mesh_2",
			"translation": [
				0.0,
				-0.4162498712539673,
				0.0
			]
		},
		{
			"children": [
				38
			],
			"name": "Bar Pull",
			"rotation": [
				0.0,
				-0.7071068286895752,
				0.0,
				0.7071068286895752
			],
			"translation": [
				-12.64226245880127,
				0.9100000262260437,
				24.75
			]
		},
		{
			"mesh": 11,
			"name": "Mesh_0",
			"translation": [
				0.19018928706645966,
				0.1781529039144516,
				1.2500001192092896
			]
		},
		{
			"children": [
				40
			],
			"name": "2627",
			"translation": [
				-0.375,
				-0.375,
				-2.5
			]
		},
		{
			"mesh": 12,
			"name": "Mesh_1",
			"translation": [
				0.04479620233178139,
				0.3288128972053528,
				1.25
			]
		},
		{
			"children": [
				42
			],
			"name": "2628",
			"translation": [
				-0.07999999821186066,
				-0.1875,
				-2.5
			]
		},
		{
			"children": [
				41,
				43
			],
			"name": "Hinge",
			"translation": [
				-0.12476411461830139,
				0.9100000262260437,
				4.0
			]
		},
		{
			"mesh": 11,
			"name": "Mesh_0.001",
			"translation": [
				0.004830807913094759,
				0.03175000846385956,
				-0.004525088705122471
			]
		},
		{
			"children": [
				45
			],
			"name": "2627.001",
			"translation": [
				-0.375,
				-0.375,
				-2.5
			]
		},
		{
			"mesh": 12,
			"name": "Mesh_1.001",
			"translation": [
				0.0011378235649317503,
				0.03175000473856926,
				-0.008351853117346764
			]
		},
		{
			"children": [
				47
			],
			"name": "2628.001",
			"translation": [
				-0.07999999821186066,
				-0.1875,
				-2.5
			]
		},
		{
			"children": [
				46,
				48
			],
			"name": "Hinge.001",
			"translation": [
				-0.12476411461830139,
				0.9100000262260437,
				29.25
			]
		},
		{
			"children": [
				37,
				39,
				44,
				49
			],
			"name": "72596",
			"rotation": [
				1.0,
				0.0,
				0.0,
				0.0
			],
			"translation": [
				30.0,
				0.0,
				4.125
			]
		},
		{
			"children": [
				16,
				33,
				35,
				50
			],
			"name": "72600",
			"translation": [
				0.0,
				-3.9100000858306885,
				0.0
			]
		},
		{
			"children": [
				51
			],
			"name": "Root Node",
			"rotation": [
				-0.7071068286895752,
				0.0,
				0.0,
				0.7071068286895752
			],
			"scale": [
				0.02539999969303608,
				0.02539999969303608,
				0.02539999969303608
			]
		},
		{
			"mesh": 15,
			"name": "Mesh_3.002",
			"rotation": [
				0.0,
				0.0,
				0.0015001302817836404,
				1.0
			],
			"translation": [
				23.50646209716797,
				-0.3861401081085205,
				3.6906909942626953
			]
		},
		{
			"children": [
				53
			],
			"name": "71972.002",
			"translation": [
				0.0,
				0.9100000262260437,
				-1.875
			]
		},
		{
			"children": [
				54
			],
			"name": "72596.002",
			"translation": [
				6.0625,
				0.0,
				4.125
			]
		},
		{
			"children": [
				55
			],
			"name": "72600.002",
			"translation": [
				0.0,
				-3.9100000858306885,
				0.0
			]
		},
		{
			"children": [
				56
			],
			"name": "Root Node.002",
			"rotation": [
				-0.7071068286895752,
				0.0,
				0.0,
				0.7071068286895752
			],
			"scale": [
				0.02539999969303608,
				0.02539999969303608,
				0.02539999969303608
			]
		}
	],
	"scene": 0,
	"scenes": [
		{
			"name": "Scene",
			"nodes": [
				52,
				57
			]
		}
	]
}