{"accessors":[{"bufferView":0,"byteOffset":0,"componentType":5126,"count":954,"max":[0.2809319496154785,0.9847569465637207,0.27187591791152954],"min":[-0.3557920455932617,0.0,-0.27187591791152954],"type":"VEC3"},{"bufferView":1,"byteOffset":0,"componentType":5126,"count":954,"type":"VEC3"},{"bufferView":2,"byteOffset":0,"componentType":5126,"count":954,"type":"VEC2"},{"bufferView":3,"byteOffset":0,"componentType":5126,"count":954,"type":"VEC2"},{"bufferView":4,"byteOffset":0,"componentType":5126,"count":954,"type":"VEC2"},{"bufferView":5,"byteOffset":0,"componentType":5126,"count":954,"type":"VEC2"},{"bufferView":6,"byteOffset":0,"componentType":5123,"count":4032,"type":"SCALAR"}],"asset":{"extras":{"created":"Sun Dec 11 09:57:46 2022"},"generator":"Gestaltor 2022.4.0 Pappardelle Professional","version":"2.0"},"bufferViews":[{"buffer":0,"byteLength":11448,"byteOffset":0},{"buffer":0,"byteLength":11448,"byteOffset":11448},{"buffer":0,"byteLength":7632,"byteOffset":22896},{"buffer":0,"byteLength":7632,"byteOffset":30528},{"buffer":0,"byteLength":7632,"byteOffset":38160},{"buffer":0,"byteLength":7632,"byteOffset":45792},{"buffer":0,"byteLength":8064,"byteOffset":53424}],"buffers":[{"byteLength":61488,"uri":"data:application/octet-stream;base64,"}],"images":[{"mimeType":"image/jpeg","name":"M_OfficeStool_Bin_2048_normal","uri":"data:image/jpeg;base64,"},{"mimeType":"image/png","name":"M_OfficeStool_Bin_2048_baseColor","uri":"data:image/png;base64,"},{"mimeType":"image/png","name":"M_OfficeStool_Bin_2048_metallicRoughness","uri":"data:image/png;base64,"}],"materials":[{"alphaCutoff":0.5,"alphaMode":"MASK","doubleSided":true,"name":"M_OfficeStool_Bin_2048","normalTexture":{"index":0},"pbrMetallicRoughness":{"baseColorTexture":{"index":1},"metallicRoughnessTexture":{"index":2}}}],"meshes":[{"name":"Object_52","primitives":[{"attributes":{"NORMAL":1,"POSITION":0,"TEXCOORD_0":2,"TEXCOORD_1":3,"TEXCOORD_2":4,"TEXCOORD_3":5},"indices":6,"material":0,"mode":4}]}],"nodes":[{"mesh":0,"name":"Object_107"},{"children":[0],"matrix":[1.2354224920272827,0.0,0.0,0.0,0.0,1.0,0.0,0.0,0.0,0.0,1.2354224920272827,0.0,0.0,0.0,0.0,1.0],"name":"Chair_51"},{"children":[1],"name":"Office - Assets"}],"samplers":[{"magFilter":9729,"minFilter":9987}],"scene":0,"scenes":[{"name":"Scene","nodes":[2]}],"textures":[{"sampler":0,"source":0},{"sampler":0,"source":1},{"sampler":0,"source":2}]}