{
    "asset" : {
        "generator" : "Khronos glTF Blender I/O v1.8.2",
        "version" : "2.0"
    },
    "scene" : 0,
    "scenes" : [
        {
            "name" : "Scene",
            "nodes" : [
                6
            ]
        }
    ],
    "nodes" : [
        {
            "mesh" : 0,
            "name" : "sofa__0"
        },
        {
            "children" : [
                0
            ],
            "name" : "sofa",
            "scale" : [
                0.8731632828712463,
                0.877079427242279,
                0.10965019464492798
            ],
            "translation" : [
                -3.4999775886535645,
                -2.9269609451293945,
                0.12288618087768555
            ]
        },
        {
            "children" : [
                1
            ],
            "name" : "Empty",
            "rotation" : [
                -0.7071068286895752,
                0,
                0,
                0.7071067094802856
            ],
            "scale" : [
                100,
                100,
                100
            ],
            "translation" : [
                523.5460205078125,
                37.86357498168945,
                -468.0550231933594
            ]
        },
        {
            "children" : [
                2
            ],
            "name" : "RootNode"
        },
        {
            "children" : [
                3
            ],
            "name" : "Object_2"
        },
        {
            "children" : [
                4
            ],
            "name" : "d12e33ed341b43afa21f0f6b07c1d5db.fbx",
            "rotation" : [
                0.7071068286895752,
                0,
                0,
                0.7071068286895752
            ]
        },
        {
            "children" : [
                5
            ],
            "name" : "Sketchfab_model",
            "rotation" : [
                -0.7071068286895752,
                0,
                0,
                0.7071068286895752
            ],
            "scale" : [
                0.003985759802162647,
                0.003985759802162647,
                0.003985759802162647
            ],
            "translation" : [
                0,
                2.573600113464636e-06,
                -0.00014259020099416375
            ]
        }
    ],
    "materials" : [
        {
            "doubleSided" : true,
            "name" : "table_tv__0",
            "pbrMetallicRoughness" : {
                "metallicFactor" : 0,
                "roughnessFactor" : 0.6000000238418579
            }
        }
    ],
    "meshes" : [
        {
            "name" : "sofa__0",
            "primitives" : [
                {
                    "attributes" : {
                        "POSITION" : 0,
                        "NORMAL" : 1
                    },
                    "indices" : 2,
                    "material" : 0
                }
            ]
        }
    ],
    "accessors" : [
        {
            "bufferView" : 0,
            "componentType" : 5126,
            "count" : 2750,
            "max" : [
                3.40743088722229,
                1.129090428352356,
                16.034042358398438
            ],
            "min" : [
                -0.9298211336135864,
                -6.658609867095947,
                -1.3433570861816406
            ],
            "type" : "VEC3"
        },
        {
            "bufferView" : 1,
            "componentType" : 5126,
            "count" : 2750,
            "type" : "VEC3"
        },
        {
            "bufferView" : 2,
            "componentType" : 5123,
            "count" : 3300,
            "type" : "SCALAR"
        }
    ],
    "bufferViews" : [
        {
            "buffer" : 0,
            "byteLength" : 33000,
            "byteOffset" : 0
        },
        {
            "buffer" : 0,
            "byteLength" : 33000,
            "byteOffset" : 33000
        },
        {
            "buffer" : 0,
            "byteLength" : 6600,
            "byteOffset" : 66000
        }
    ],
    "buffers" : [
        {
            "byteLength" : 72600,
            "uri" : "data:application/octet-stream;base64,"
        }
    ]
}
