{"accessors":[{"bufferView":0,"byteOffset":0,"componentType":5126,"count":2395,"max":[0.4305874705314636,0.7372892498970032,1.0081162452697754],"min":[-0.4305875897407532,0.0,-1.008115291595459],"type":"VEC3"},{"bufferView":1,"byteOffset":0,"componentType":5126,"count":2395,"type":"VEC3"},{"bufferView":2,"byteOffset":0,"componentType":5126,"count":2395,"type":"VEC2"},{"bufferView":3,"byteOffset":0,"componentType":5126,"count":2395,"type":"VEC2"},{"bufferView":4,"byteOffset":0,"componentType":5126,"count":2395,"type":"VEC2"},{"bufferView":5,"byteOffset":0,"componentType":5126,"count":2395,"type":"VEC2"},{"bufferView":6,"byteOffset":0,"componentType":5123,"count":4620,"type":"SCALAR"}],"asset":{"extras":{"created":"Sun Dec 11 09:47:37 2022"},"generator":"Gestaltor 2022.4.0 Pappardelle Professional","version":"2.0"},"bufferViews":[{"buffer":0,"byteLength":28740,"byteOffset":0},{"buffer":0,"byteLength":28740,"byteOffset":28740},{"buffer":0,"byteLength":19160,"byteOffset":57480},{"buffer":0,"byteLength":19160,"byteOffset":76640},{"buffer":0,"byteLength":19160,"byteOffset":95800},{"buffer":0,"byteLength":19160,"byteOffset":114960},{"buffer":0,"byteLength":9240,"byteOffset":134120}],"buffers":[{"byteLength":143360,"uri":"data:application/octet-stream;base64,"}],"images":[{"mimeType":"image/jpeg","name":"M_Table_2048_normal","uri":"data:image/jpeg;base64,"},{"mimeType":"image/jpeg","name":"M_Table_2048_baseColor","uri":"data:image/jpeg;base64,"},{"mimeType":"image/png","name":"M_Table_2048_metallicRoughness","uri":"data:image/png;base64,"}],"materials":[{"doubleSided":true,"name":"M_Table_2048","normalTexture":{"index":0},"pbrMetallicRoughness":{"baseColorTexture":{"index":1},"metallicRoughnessTexture":{"index":2}}}],"meshes":[{"name":"Object_32","primitives":[{"attributes":{"NORMAL":1,"POSITION":0,"TEXCOORD_0":2,"TEXCOORD_1":3,"TEXCOORD_2":4,"TEXCOORD_3":5},"indices":6,"material":0,"mode":4}]}],"nodes":[{"mesh":0,"name":"Object_68"},{"children":[0],"matrix":[1.0,0.0,0.0,0.0,0.0,1.0,0.0,0.0,0.0,0.0,1.0,0.0,0.0,0.0,0.0,1.0],"name":"Table_Rough_32"},{"children":[1],"name":"Office - Assets"}],"samplers":[{"magFilter":9729,"minFilter":9987}],"scene":0,"scenes":[{"name":"Scene","nodes":[2]}],"textures":[{"sampler":0,"source":0},{"sampler":0,"source":1},{"sampler":0,"source":2}]}