{
    "asset" : {
        "generator" : "Khronos glTF Blender I/O v1.8.2",
        "version" : "2.0"
    },
    "scene" : 0,
    "scenes" : [
        {
            "name" : "Scene",
            "nodes" : [
                6
            ]
        }
    ],
    "nodes" : [
        {
            "mesh" : 0,
            "name" : "table_Material.017_0"
        },
        {
            "children" : [
                0
            ],
            "name" : "table",
            "scale" : [
                0.7264729142189026,
                1.1624025106430054,
                0.6993198990821838
            ],
            "translation" : [
                -4.257585525512695,
                -6.2826828956604,
                0.6731792092323303
            ]
        },
        {
            "children" : [
                1
            ],
            "name" : "Empty",
            "rotation" : [
                -0.7071068286895752,
                0,
                0,
                0.7071067094802856
            ],
            "scale" : [
                100,
                100,
                100
            ],
            "translation" : [
                523.5460205078125,
                37.86357498168945,
                -468.0550231933594
            ]
        },
        {
            "children" : [
                2
            ],
            "name" : "RootNode"
        },
        {
            "children" : [
                3
            ],
            "name" : "Object_2"
        },
        {
            "children" : [
                4
            ],
            "name" : "d12e33ed341b43afa21f0f6b07c1d5db.fbx",
            "rotation" : [
                0.7071068286895752,
                0,
                0,
                0.7071068286895752
            ]
        },
        {
            "children" : [
                5
            ],
            "name" : "Sketchfab_model",
            "rotation" : [
                -0.7071068286895752,
                0,
                0,
                0.7071068286895752
            ],
            "scale" : [
                0.003985759802162647,
                0.003985759802162647,
                0.003985759802162647
            ],
            "translation" : [
                0,
                2.573600113464636e-06,
                -0.00014259020099416375
            ]
        }
    ],
    "materials" : [
        {
            "alphaMode" : "BLEND",
            "doubleSided" : true,
            "name" : "Material.017",
            "pbrMetallicRoughness" : {
                "baseColorFactor" : [
                    0.029099399223923683,
                    0.029099399223923683,
                    0.029099399223923683,
                    0.9032964706420898
                ],
                "metallicFactor" : 0,
                "roughnessFactor" : 0.823941707611084
            }
        }
    ],
    "meshes" : [
        {
            "name" : "table_Material.017_0",
            "primitives" : [
                {
                    "attributes" : {
                        "POSITION" : 0,
                        "NORMAL" : 1
                    },
                    "indices" : 2,
                    "material" : 0
                }
            ]
        }
    ],
    "accessors" : [
        {
            "bufferView" : 0,
            "componentType" : 5126,
            "count" : 196,
            "max" : [
                1,
                1.0000001192092896,
                0.676722526550293
            ],
            "min" : [
                -1,
                -1,
                -0.9906181693077087
            ],
            "type" : "VEC3"
        },
        {
            "bufferView" : 1,
            "componentType" : 5126,
            "count" : 196,
            "type" : "VEC3"
        },
        {
            "bufferView" : 2,
            "componentType" : 5123,
            "count" : 204,
            "type" : "SCALAR"
        }
    ],
    "bufferViews" : [
        {
            "buffer" : 0,
            "byteLength" : 2352,
            "byteOffset" : 0
        },
        {
            "buffer" : 0,
            "byteLength" : 2352,
            "byteOffset" : 2352
        },
        {
            "buffer" : 0,
            "byteLength" : 408,
            "byteOffset" : 4704
        }
    ],
    "buffers" : [
        {
            "byteLength" : 5112,
            "uri" : "data:application/octet-stream;base64,"
        }
    ]
}
