{
    "asset" : {
        "generator" : "Khronos glTF Blender I/O v1.6.16",
        "version" : "2.0"
    },
    "scene" : 0,
    "scenes" : [
        {
            "name" : "Scene",
            "nodes" : [
                5
            ]
        }
    ],
    "nodes" : [
        {
            "mesh" : 0,
            "name" : "chemical1_NakedSingularity_chemical1_glass_0"
        },
        {
            "mesh" : 1,
            "name" : "chemical1_NakedSingularity_chemical1_plas_0"
        },
        {
            "children" : [
                0,
                1
            ],
            "name" : "chemical1_NakedSingularity",
            "translation" : [
                -10.397326469421387,
                0,
                -5.874760627746582
            ]
        },
        {
            "children" : [
                2
            ],
            "name" : "RootNode"
        },
        {
            "children" : [
                3
            ],
            "name" : "Chemical_bottles_NakedSingularity.fbx",
            "rotation" : [
                0.7071068286895752,
                0,
                0,
                0.7071068286895752
            ],
            "scale" : [
                0.009999999776482582,
                0.009999999776482582,
                0.009999999776482582
            ]
        },
        {
            "children" : [
                4
            ],
            "name" : "Sketchfab_model",
            "rotation" : [
                -0.7071068286895752,
                0,
                0,
                0.7071068286895752
            ]
        }
    ],
    "materials" : [
        {
            "doubleSided" : true,
            "name" : "chemical1_glass",
            "normalTexture" : {
                "index" : 0
            },
            "occlusionTexture" : {
                "index" : 1
            },
            "pbrMetallicRoughness" : {
                "baseColorTexture" : {
                    "index" : 2
                },
                "metallicRoughnessTexture" : {
                    "index" : 1
                }
            }
        },
        {
            "doubleSided" : true,
            "name" : "chemical1_plas",
            "normalTexture" : {
                "index" : 3
            },
            "occlusionTexture" : {
                "index" : 4
            },
            "pbrMetallicRoughness" : {
                "baseColorTexture" : {
                    "index" : 5
                },
                "metallicFactor" : 0,
                "metallicRoughnessTexture" : {
                    "index" : 4
                }
            }
        }
    ],
    "meshes" : [
        {
            "name" : "chemical1_NakedSingularity_chemical1_glass_0",
            "primitives" : [
                {
                    "attributes" : {
                        "POSITION" : 0,
                        "NORMAL" : 1,
                        "TEXCOORD_0" : 2,
                        "TEXCOORD_1" : 3
                    },
                    "indices" : 4,
                    "material" : 0
                }
            ]
        },
        {
            "name" : "chemical1_NakedSingularity_chemical1_plas_0",
            "primitives" : [
                {
                    "attributes" : {
                        "POSITION" : 5,
                        "NORMAL" : 6,
                        "TEXCOORD_0" : 7,
                        "TEXCOORD_1" : 8
                    },
                    "indices" : 9,
                    "material" : 1
                }
            ]
        }
    ],
    "textures" : [
        {
            "sampler" : 0,
            "source" : 0
        },
        {
            "sampler" : 0,
            "source" : 1
        },
        {
            "sampler" : 0,
            "source" : 2
        },
        {
            "sampler" : 0,
            "source" : 3
        },
        {
            "sampler" : 0,
            "source" : 4
        },
        {
            "sampler" : 0,
            "source" : 5
        }
    ],
    "images" : [
        {
            "bufferView" : 5,
            "mimeType" : "image/png",
            "name" : "chemical1_glass_normal"
        },
        {
            "bufferView" : 6,
            "mimeType" : "image/png",
            "name" : "chemical1_glass_metallicRoughness"
        },
        {
            "bufferView" : 7,
            "mimeType" : "image/jpeg",
            "name" : "chemical1_glass_baseColor"
        },
        {
            "bufferView" : 13,
            "mimeType" : "image/jpeg",
            "name" : "chemical1_plas_normal"
        },
        {
            "bufferView" : 14,
            "mimeType" : "image/png",
            "name" : "chemical1_plas_metallicRoughness"
        },
        {
            "bufferView" : 15,
            "mimeType" : "image/jpeg",
            "name" : "chemical1_plas_baseColor"
        }
    ],
    "accessors" : [
        {
            "bufferView" : 0,
            "componentType" : 5126,
            "count" : 180,
            "max" : [
                2.2506492137908936,
                7.339767932891846,
                2.2506492137908936
            ],
            "min" : [
                -2.2506492137908936,
                0,
                -2.2506492137908936
            ],
            "type" : "VEC3"
        },
        {
            "bufferView" : 1,
            "componentType" : 5126,
            "count" : 180,
            "type" : "VEC3"
        },
        {
            "bufferView" : 2,
            "componentType" : 5126,
            "count" : 180,
            "type" : "VEC2"
        },
        {
            "bufferView" : 3,
            "componentType" : 5126,
            "count" : 180,
            "type" : "VEC2"
        },
        {
            "bufferView" : 4,
            "componentType" : 5123,
            "count" : 762,
            "type" : "SCALAR"
        },
        {
            "bufferView" : 8,
            "componentType" : 5126,
            "count" : 121,
            "max" : [
                1.5914493799209595,
                8,
                2.2506492137908936
            ],
            "min" : [
                -2.079329252243042,
                2.052551746368408,
                -1.54334557056427
            ],
            "type" : "VEC3"
        },
        {
            "bufferView" : 9,
            "componentType" : 5126,
            "count" : 121,
            "type" : "VEC3"
        },
        {
            "bufferView" : 10,
            "componentType" : 5126,
            "count" : 121,
            "type" : "VEC2"
        },
        {
            "bufferView" : 11,
            "componentType" : 5126,
            "count" : 121,
            "type" : "VEC2"
        },
        {
            "bufferView" : 12,
            "componentType" : 5123,
            "count" : 222,
            "type" : "SCALAR"
        }
    ],
    "bufferViews" : [
        {
            "buffer" : 0,
            "byteLength" : 2160,
            "byteOffset" : 0
        },
        {
            "buffer" : 0,
            "byteLength" : 2160,
            "byteOffset" : 2160
        },
        {
            "buffer" : 0,
            "byteLength" : 1440,
            "byteOffset" : 4320
        },
        {
            "buffer" : 0,
            "byteLength" : 1440,
            "byteOffset" : 5760
        },
        {
            "buffer" : 0,
            "byteLength" : 1524,
            "byteOffset" : 7200
        },
        {
            "buffer" : 0,
            "byteLength" : 112444,
            "byteOffset" : 8724
        },
        {
            "buffer" : 0,
            "byteLength" : 20393,
            "byteOffset" : 121168
        },
        {
            "buffer" : 0,
            "byteLength" : 8227,
            "byteOffset" : 141564
        },
        {
            "buffer" : 0,
            "byteLength" : 1452,
            "byteOffset" : 149792
        },
        {
            "buffer" : 0,
            "byteLength" : 1452,
            "byteOffset" : 151244
        },
        {
            "buffer" : 0,
            "byteLength" : 968,
            "byteOffset" : 152696
        },
        {
            "buffer" : 0,
            "byteLength" : 968,
            "byteOffset" : 153664
        },
        {
            "buffer" : 0,
            "byteLength" : 444,
            "byteOffset" : 154632
        },
        {
            "buffer" : 0,
            "byteLength" : 39255,
            "byteOffset" : 155076
        },
        {
            "buffer" : 0,
            "byteLength" : 63596,
            "byteOffset" : 194332
        },
        {
            "buffer" : 0,
            "byteLength" : 33410,
            "byteOffset" : 257928
        }
    ],
    "samplers" : [
        {
            "magFilter" : 9729,
            "minFilter" : 9987
        }
    ],
    "buffers" : [
        {
            "byteLength" : 291340,
            "uri" : "data:application/octet-stream;base64,"
        }
    ]
}
