{
	"accessors": [
		{
			"bufferView": 0,
			"byteOffset": 0,
			"componentType": 5123,
			"count": 756,
			"max": [
				263.0
			],
			"min": [
				0.0
			],
			"type": "SCALAR"
		},
		{
			"bufferView": 1,
			"byteOffset": 0,
			"componentType": 5126,
			"count": 264,
			"max": [
				1.0,
				1.0,
				1.0
			],
			"min": [
				-1.0,
				-0.9965953230857849,
				-1.0
			],
			"type": "VEC3"
		},
		{
			"bufferView": 2,
			"byteOffset": 0,
			"componentType": 5126,
			"count": 264,
			"max": [
				3.9546244144439697,
				10.0,
				3.9546256065368652
			],
			"min": [
				-3.9546263217926025,
				-0.014623408205807209,
				-3.954627275466919
			],
			"type": "VEC3"
		},
		{
			"bufferView": 3,
			"byteOffset": 0,
			"componentType": 5126,
			"count": 264,
			"max": [
				0.9878833293914795,
				0.9945034980773926
			],
			"min": [
				0.010400697588920593,
				0.011429131031036377
			],
			"type": "VEC2"
		},
		{
			"bufferView": 4,
			"byteOffset": 0,
			"componentType": 5126,
			"count": 264,
			"max": [
				0.9120427966117859,
				0.9844962358474731
			],
			"min": [
				0.014154193922877312,
				0.015503883361816406
			],
			"type": "VEC2"
		}
	],
	"asset": {
		"extras": {
			"created": "Sat Jun 11 07:21:09 2022"
		},
		"generator": "Gestaltor 2022.1.1 Bavette Professional",
		"version": "2.0"
	},
	"bufferViews": [
		{
			"buffer": 0,
			"byteLength": 1512,
			"byteOffset": 0
		},
		{
			"buffer": 0,
			"byteLength": 3168,
			"byteOffset": 1512
		},
		{
			"buffer": 0,
			"byteLength": 3168,
			"byteOffset": 4680
		},
		{
			"buffer": 0,
			"byteLength": 2112,
			"byteOffset": 7848
		},
		{
			"buffer": 0,
			"byteLength": 2112,
			"byteOffset": 9960
		}
	],
	"buffers": [
		{
			"byteLength": 12072,
			"uri": "CaCO_3.bin"
		}
	],
	"images": [
		{
			"mimeType": "image/jpeg",
			"name": "chemical5_plas_normal",
			"uri": "data:image/jpeg;base64,"
		},
		{
			"mimeType": "image/png",
			"name": "chemical5_plas_metallicRoughness",
			"uri": "data:image/png;base64,"
		},
		{
			"mimeType": "image/jpeg",
			"name": "chemical5_plas_baseColor",
			"uri": "data:image/jpeg;base64,"
		}
	],
	"materials": [
		{
			"doubleSided": true,
			"name": "chemical5_plas",
			"normalTexture": {
				"index": 0
			},
			"occlusionTexture": {
				"index": 1
			},
			"pbrMetallicRoughness": {
				"baseColorTexture": {
					"index": 2
				},
				"metallicFactor": 0.0,
				"metallicRoughnessTexture": {
					"index": 1
				}
			}
		}
	],
	"meshes": [
		{
			"name": "chemical5_NakedSingularity_chemical5_plas_0",
			"primitives": [
				{
					"attributes": {
						"NORMAL": 1,
						"POSITION": 2,
						"TEXCOORD_0": 3,
						"TEXCOORD_1": 4
					},
					"indices": 0,
					"material": 0,
					"mode": 4
				}
			]
		}
	],
	"nodes": [
		{
			"matrix": [
				1.0,
				0.0,
				0.0,
				0.0,
				0.0,
				1.0,
				0.0,
				0.0,
				0.0,
				0.0,
				1.0,
				0.0,
				0.0,
				0.0,
				0.0,
				1.0
			],
			"mesh": 0,
			"name": "chemical5_NakedSingularity_chemical5_plas_0"
		},
		{
			"children": [
				0
			],
			"matrix": [
				0.5851846238863259,
				0.0,
				-0.8109000900030899,
				0.0,
				0.0,
				1.0,
				0.0,
				0.0,
				0.8109000900030899,
				0.0,
				0.5851846238863259,
				0.0,
				0.0,
				0.0,
				-5.376372814178467,
				1.0
			],
			"name": "chemical5_NakedSingularity"
		},
		{
			"children": [
				1
			],
			"name": "RootNode"
		},
		{
			"children": [
				2
			],
			"matrix": [
				0.009999999776482582,
				0.0,
				0.0,
				0.0,
				0.0,
				-1.3435885348189617e-09,
				0.010000001120071118,
				0.0,
				0.0,
				-0.010000001120071118,
				-1.3435885348189617e-09,
				0.0,
				0.0,
				0.0,
				0.0,
				1.0
			],
			"name": "Chemical_bottles_NakedSingularity.fbx"
		},
		{
			"children": [
				3
			],
			"matrix": [
				1.0,
				0.0,
				0.0,
				0.0,
				0.0,
				-1.3435885648505064e-07,
				-1.0000001343588565,
				0.0,
				0.0,
				1.0000001343588565,
				-1.3435885648505064e-07,
				0.0,
				0.0,
				0.0,
				0.0,
				1.0
			],
			"name": "Sketchfab_model"
		}
	],
	"samplers": [
		{
			"magFilter": 9729,
			"minFilter": 9987
		}
	],
	"scene": 0,
	"scenes": [
		{
			"name": "Scene",
			"nodes": [
				4
			]
		}
	],
	"textures": [
		{
			"sampler": 0,
			"source": 0
		},
		{
			"sampler": 0,
			"source": 1
		},
		{
			"sampler": 0,
			"source": 2
		}
	]
}