{"accessors":[{"bufferView":0,"byteOffset":0,"componentType":5123,"count":2136,"max":[457.0],"min":[0.0],"type":"SCALAR"},{"bufferView":1,"byteOffset":0,"componentType":5126,"count":458,"max":[1.0,1.0,0.9905012845993042],"min":[-1.0,-1.0,-0.999794065952301],"type":"VEC3"},{"bufferView":2,"byteOffset":0,"componentType":5126,"count":458,"max":[5.767399787902832,5.258540153503418,12.62299633026123],"min":[-5.269400119781494,-5.258540153503418,-0.0004706992185674608],"type":"VEC3"},{"bufferView":3,"byteOffset":0,"componentType":5126,"count":458,"max":[0.9943400025367737,0.9916999936103821],"min":[0.006670000031590462,0.004550000187009573],"type":"VEC2"}],"asset":{"copyright":"récitfad","extras":{"author":"maxdragonn (https://sketchfab.com/maxdragon)","created":"Sun Jun 19 11:23:57 2022","license":"CC-BY-4.0 (http://creativecommons.org/licenses/by/4.0/)","source":"https://sketchfab.com/3d-models/chemistry-glassware-b8594f7dc7e8442dbaaae7a11da4a962","title":"Chemistry Glassware"},"generator":"Gestaltor 2022.2.3 Tagliatelle Professional","version":"2.0"},"bufferViews":[{"buffer":0,"byteLength":4272,"byteOffset":0},{"buffer":0,"byteLength":5496,"byteOffset":4272},{"buffer":0,"byteLength":5496,"byteOffset":9768},{"buffer":0,"byteLength":3664,"byteOffset":15264}],"buffers":[{"byteLength":18928,"uri":"data:application/octet-stream;base64,"}],"extensionsUsed":["KHR_materials_clearcoat"],"images":[{"mimeType":"image/png","name":"lab_beaker_a_baseColorB","uri":"data:image/png;base64,"},{"mimeType":"image/png","name":"lab_beaker_a_baseColorC","uri":"data:image/png;base64,"}],"materials":[{"alphaMode":"BLEND","extensions":{"KHR_materials_clearcoat":{"clearcoatFactor":1.0,"clearcoatRoughnessFactor":0.04}},"name":"lab_beaker_a","pbrMetallicRoughness":{"baseColorTexture":{"index":0},"metallicFactor":0.4455626896254005,"roughnessFactor":0.0}}],"meshes":[{"name":"lab_beaker_a_0","primitives":[{"attributes":{"NORMAL":1,"POSITION":2,"TEXCOORD_0":3},"indices":0,"material":0,"mode":4}]}],"nodes":[{"children":[1],"name":"RECITFAD","rotation":[-0.7071067811865475,0.0,0.0,0.7071067811865476],"scale":[1.0,1.0,1.0],"translation":[0.0,0.0,0.0]},{"mesh":0,"name":"BECHER500ML"},{"mesh":0,"name":"BECHER500ML","rotation":[-0.7071067811865475,0.0,0.0,0.7071067811865475]}],"samplers":[{"magFilter":9729,"minFilter":9987,"wrapS":10497,"wrapT":10497}],"scene":0,"scenes":[{"name":"BECHER","nodes":[2]}],"textures":[{"sampler":0,"source":1}]}