{
    "asset" : {
        "generator" : "Khronos glTF Blender I/O v1.6.16",
        "version" : "2.0"
    },
    "scene" : 0,
    "scenes" : [
        {
            "name" : "Scene",
            "nodes" : [
                1
            ]
        }
    ],
    "nodes" : [
        {
            "mesh" : 0,
            "name" : "base",
            "rotation" : [
                0,
                -0.7071068286895752,
                0,
                0.7071067094802856
            ],
            "scale" : [
                0.3499999940395355,
                0.3499999940395355,
                0.3499999940395355
            ]
        },
        {
            "children" : [
                0
            ],
            "name" : "high poly measurement cylinder"
        }
    ],
    "materials" : [
        {
            "doubleSided" : true,
            "name" : "pvc",
            "pbrMetallicRoughness" : {
                "baseColorFactor" : [
                    0.9559736847877502,
                    0.36130672693252563,
                    0.0231533944606781,
                    1
                ],
                "metallicFactor" : 0,
                "roughnessFactor" : 0.13809524476528168
            }
        },
        {
            "alphaMode" : "BLEND",
            "doubleSided" : true,
            "name" : "Material.001",
            "normalTexture" : {
                "index" : 0
            },
            "pbrMetallicRoughness" : {
                "baseColorTexture" : {
                    "index" : 1
                },
                "metallicFactor" : 0,
                "roughnessFactor" : 0.5
            }
        }
    ],
    "meshes" : [
        {
            "name" : "Circle.001",
            "primitives" : [
                {
                    "attributes" : {
                        "POSITION" : 0,
                        "NORMAL" : 1,
                        "TEXCOORD_0" : 2
                    },
                    "indices" : 3,
                    "material" : 0
                },
                {
                    "attributes" : {
                        "POSITION" : 4,
                        "NORMAL" : 5,
                        "TEXCOORD_0" : 6
                    },
                    "indices" : 7,
                    "material" : 1
                }
            ]
        }
    ],
    "textures" : [
        {
            "sampler" : 0,
            "source" : 0
        },
        {
            "sampler" : 0,
            "source" : 0
        }
    ],
    "images" : [
        {
            "bufferView" : 8,
            "mimeType" : "image/png",
            "name" : "cylindre_echelle6"
        }
    ],
    "accessors" : [
        {
            "bufferView" : 0,
            "componentType" : 5126,
            "count" : 2402,
            "max" : [
                0.12788639962673187,
                0.028768107295036316,
                0.12653213739395142
            ],
            "min" : [
                -0.1255694180727005,
                0.0038865655660629272,
                -0.1269157975912094
            ],
            "type" : "VEC3"
        },
        {
            "bufferView" : 1,
            "componentType" : 5126,
            "count" : 2402,
            "type" : "VEC3"
        },
        {
            "bufferView" : 2,
            "componentType" : 5126,
            "count" : 2402,
            "type" : "VEC2"
        },
        {
            "bufferView" : 3,
            "componentType" : 5123,
            "count" : 14208,
            "type" : "SCALAR"
        },
        {
            "bufferView" : 4,
            "componentType" : 5126,
            "count" : 1992,
            "max" : [
                0.054186247289180756,
                0.6491818428039551,
                0.05236895754933357
            ],
            "min" : [
                -0.07642785459756851,
                0.02775155007839203,
                -0.05275491252541542
            ],
            "type" : "VEC3"
        },
        {
            "bufferView" : 5,
            "componentType" : 5126,
            "count" : 1992,
            "type" : "VEC3"
        },
        {
            "bufferView" : 6,
            "componentType" : 5126,
            "count" : 1992,
            "type" : "VEC2"
        },
        {
            "bufferView" : 7,
            "componentType" : 5123,
            "count" : 11328,
            "type" : "SCALAR"
        }
    ],
    "bufferViews" : [
        {
            "buffer" : 0,
            "byteLength" : 28824,
            "byteOffset" : 0
        },
        {
            "buffer" : 0,
            "byteLength" : 28824,
            "byteOffset" : 28824
        },
        {
            "buffer" : 0,
            "byteLength" : 19216,
            "byteOffset" : 57648
        },
        {
            "buffer" : 0,
            "byteLength" : 28416,
            "byteOffset" : 76864
        },
        {
            "buffer" : 0,
            "byteLength" : 23904,
            "byteOffset" : 105280
        },
        {
            "buffer" : 0,
            "byteLength" : 23904,
            "byteOffset" : 129184
        },
        {
            "buffer" : 0,
            "byteLength" : 15936,
            "byteOffset" : 153088
        },
        {
            "buffer" : 0,
            "byteLength" : 22656,
            "byteOffset" : 169024
        },
        {
            "buffer" : 0,
            "byteLength" : 652685,
            "byteOffset" : 191680
        }
    ],
    "samplers" : [
        {
            "magFilter" : 9729,
            "minFilter" : 9987
        }
    ],
    "buffers" : [
        {
            "byteLength" : 844368,
            "uri" : "data:application/octet-stream;base64,"
        }
    ]
}
