{"accessors":[{"bufferView":0,"byteOffset":0,"componentType":5126,"count":28468,"max":[6.294300079345703,1.5059000253677368,-0.03310000151395798],"min":[-3.7339999675750732,0.003700000001117587,-0.6592000126838684],"type":"VEC3"},{"bufferView":1,"byteOffset":0,"componentType":5126,"count":28468,"type":"VEC3"},{"bufferView":2,"byteOffset":0,"componentType":5126,"count":28468,"type":"VEC2"},{"bufferView":3,"byteOffset":0,"componentType":5123,"count":145440,"type":"SCALAR"}],"asset":{"extras":{"created":"Sun Jun 19 07:49:45 2022"},"generator":"Gestaltor 2022.1.1 Bavette Professional","version":"2.0"},"bufferViews":[{"buffer":0,"byteLength":341616,"byteOffset":0},{"buffer":0,"byteLength":341616,"byteOffset":341616},{"buffer":0,"byteLength":227744,"byteOffset":683232},{"buffer":0,"byteLength":290880,"byteOffset":910976}],"buffers":[{"byteLength":1201856,"uri":"data:application/octet-stream;base64,"}],"materials":[{"doubleSided":true,"name":"Material","pbrMetallicRoughness":{}}],"meshes":[{"name":"16886_tweezers","primitives":[{"attributes":{"NORMAL":1,"POSITION":0,"TEXCOORD_0":2},"indices":3,"material":0,"mode":4}]}],"nodes":[{"mesh":0,"name":"16886_tweezers","rotation":[0.0,0.0,-0.7372773289680481,0.6755902171134949],"scale":[0.08399999886751175,0.08399999886751175,0.08399999886751175],"translation":[-0.039312753826379776,0.5919845700263977,-0.029999995604157448]},{"children":[0],"name":"_base"}],"scene":0,"scenes":[{"name":"Scene","nodes":[1]}]}