{
    "asset" : {
        "generator" : "Khronos glTF Blender I/O v1.6.16",
        "version" : "2.0"
    },
    "scene" : 0,
    "scenes" : [
        {
            "name" : "Scene",
            "nodes" : [
                0,
                1
            ]
        }
    ],
    "nodes" : [
        {
            "name" : "_base"
        },
        {
            "mesh" : 0,
            "name" : "Dropper_1",
            "rotation" : [
                0,
                -0.992096483707428,
                0,
                -0.12547725439071655
            ],
            "scale" : [
                0.3510262966156006,
                0.5908718109130859,
                0.3510262966156006
            ]
        }
    ],
    "materials" : [
        {
            "alphaMode" : "BLEND",
            "doubleSided" : true,
            "name" : "Glass",
            "pbrMetallicRoughness" : {}
        },
        {
            "alphaCutoff" : 0.5,
            "alphaMode" : "MASK",
            "doubleSided" : true,
            "name" : "cc_dropper",
            "pbrMetallicRoughness" : {
                "baseColorTexture" : {
                    "index" : 0
                },
                "metallicFactor" : 0,
                "roughnessFactor" : 0.5
            }
        },
        {
            "doubleSided" : true,
            "name" : "pvc",
            "pbrMetallicRoughness" : {
                "baseColorFactor" : [
                    0.9559736847877502,
                    0.36130672693252563,
                    0.0231533944606781,
                    1
                ],
                "metallicFactor" : 0,
                "roughnessFactor" : 0.13809524476528168
            }
        }
    ],
    "meshes" : [
        {
            "name" : "Circle.000",
            "primitives" : [
                {
                    "attributes" : {
                        "POSITION" : 0,
                        "NORMAL" : 1,
                        "TEXCOORD_0" : 2
                    },
                    "indices" : 3,
                    "material" : 0
                },
                {
                    "attributes" : {
                        "POSITION" : 4,
                        "NORMAL" : 5,
                        "TEXCOORD_0" : 6
                    },
                    "indices" : 7,
                    "material" : 1
                },
                {
                    "attributes" : {
                        "POSITION" : 8,
                        "NORMAL" : 9,
                        "TEXCOORD_0" : 10
                    },
                    "indices" : 11,
                    "material" : 2
                }
            ]
        }
    ],
    "textures" : [
        {
            "sampler" : 0,
            "source" : 0
        }
    ],
    "images" : [
        {
            "bufferView" : 8,
            "mimeType" : "image/png",
            "name" : "dropper_logo"
        }
    ],
    "accessors" : [
        {
            "bufferView" : 0,
            "componentType" : 5126,
            "count" : 192,
            "max" : [
                0.024512888863682747,
                0.5251649022102356,
                0.024274397641420364
            ],
            "min" : [
                -0.024035809561610222,
                0.010316623374819756,
                -0.024274300783872604
            ],
            "type" : "VEC3"
        },
        {
            "bufferView" : 1,
            "componentType" : 5126,
            "count" : 192,
            "type" : "VEC3"
        },
        {
            "bufferView" : 2,
            "componentType" : 5126,
            "count" : 192,
            "type" : "VEC2"
        },
        {
            "bufferView" : 3,
            "componentType" : 5123,
            "count" : 1056,
            "type" : "SCALAR"
        },
        {
            "bufferView" : 4,
            "componentType" : 5126,
            "count" : 34,
            "max" : [
                0.025460051372647285,
                0.4923884868621826,
                0.02522154524922371
            ],
            "min" : [
                -0.024982938542962074,
                0.10471425950527191,
                -0.02522144839167595
            ],
            "type" : "VEC3"
        },
        {
            "bufferView" : 5,
            "componentType" : 5126,
            "count" : 34,
            "type" : "VEC3"
        },
        {
            "bufferView" : 6,
            "componentType" : 5126,
            "count" : 34,
            "type" : "VEC2"
        },
        {
            "bufferView" : 7,
            "componentType" : 5123,
            "count" : 96,
            "type" : "SCALAR"
        },
        {
            "bufferView" : 9,
            "componentType" : 5126,
            "count" : 265,
            "max" : [
                0.0898931547999382,
                0.691872239112854,
                0.09009289741516113
            ],
            "min" : [
                -0.0902925655245781,
                0.49998682737350464,
                -0.09009283035993576
            ],
            "type" : "VEC3"
        },
        {
            "bufferView" : 10,
            "componentType" : 5126,
            "count" : 265,
            "type" : "VEC3"
        },
        {
            "bufferView" : 11,
            "componentType" : 5126,
            "count" : 265,
            "type" : "VEC2"
        },
        {
            "bufferView" : 12,
            "componentType" : 5123,
            "count" : 1536,
            "type" : "SCALAR"
        }
    ],
    "bufferViews" : [
        {
            "buffer" : 0,
            "byteLength" : 2304,
            "byteOffset" : 0
        },
        {
            "buffer" : 0,
            "byteLength" : 2304,
            "byteOffset" : 2304
        },
        {
            "buffer" : 0,
            "byteLength" : 1536,
            "byteOffset" : 4608
        },
        {
            "buffer" : 0,
            "byteLength" : 2112,
            "byteOffset" : 6144
        },
        {
            "buffer" : 0,
            "byteLength" : 408,
            "byteOffset" : 8256
        },
        {
            "buffer" : 0,
            "byteLength" : 408,
            "byteOffset" : 8664
        },
        {
            "buffer" : 0,
            "byteLength" : 272,
            "byteOffset" : 9072
        },
        {
            "buffer" : 0,
            "byteLength" : 192,
            "byteOffset" : 9344
        },
        {
            "buffer" : 0,
            "byteLength" : 22396,
            "byteOffset" : 9536
        },
        {
            "buffer" : 0,
            "byteLength" : 3180,
            "byteOffset" : 31932
        },
        {
            "buffer" : 0,
            "byteLength" : 3180,
            "byteOffset" : 35112
        },
        {
            "buffer" : 0,
            "byteLength" : 2120,
            "byteOffset" : 38292
        },
        {
            "buffer" : 0,
            "byteLength" : 3072,
            "byteOffset" : 40412
        }
    ],
    "samplers" : [
        {
            "magFilter" : 9729,
            "minFilter" : 9987
        }
    ],
    "buffers" : [
        {
            "byteLength" : 43484,
            "uri" : "data:application/octet-stream;base64,"
        }
    ]
}
