# This file uses centimeters as units for non-parametric coordinates.

mtllib wooden_panel.mtl
g default
v -8.401860 0.245233 0.554829
v 0.286607 0.245233 0.554829
v -8.401860 71.695315 0.554829
v 0.286607 71.695315 0.554829
v -8.401860 71.695315 -56.015585
v 0.286607 71.695315 -56.015585
v -8.401860 0.245233 -56.015585
v 0.286607 0.245233 -56.015585
vt 0.851309 0.102726
vt 0.853639 0.102764
vt 0.853529 0.198403
vt 0.851199 0.198333
vt 0.853521 0.216134
vt 0.853506 0.314250
vt 0.900033 0.198352
vt 0.900016 0.216065
vt 0.901671 0.198362
vt 0.853658 0.095779
vt 0.900133 0.103329
vt 0.901771 0.103339
vt 0.900143 0.096098
vt 0.899990 0.314401
vn 0.000000 0.000000 1.000000
vn 0.000000 0.000000 1.000000
vn 0.000000 0.000000 1.000000
vn 0.000000 0.000000 1.000000
vn 0.000000 1.000000 0.000000
vn 0.000000 1.000000 0.000000
vn 0.000000 1.000000 0.000000
vn 0.000000 1.000000 0.000000
vn 0.000000 0.000000 -1.000000
vn 0.000000 0.000000 -1.000000
vn 0.000000 0.000000 -1.000000
vn 0.000000 0.000000 -1.000000
vn 0.000000 -1.000000 0.000000
vn 0.000000 -1.000000 0.000000
vn 0.000000 -1.000000 0.000000
vn 0.000000 -1.000000 0.000000
vn 1.000000 0.000000 0.000000
vn 1.000000 0.000000 0.000000
vn 1.000000 0.000000 0.000000
vn 1.000000 0.000000 0.000000
vn -1.000000 0.000000 0.000000
vn -1.000000 0.000000 0.000000
vn -1.000000 0.000000 0.000000
vn -1.000000 0.000000 0.000000
s off
g wooden_panel
usemtl wooden_panel_lambert16SG
f 1/1/1 2/2/2 4/3/3 3/4/4
f 3/5/5 4/3/6 6/7/7 5/8/8
f 5/9/9 6/7/10 8/11/11 7/12/12
f 7/13/13 8/11/14 2/2/15 1/10/16
f 2/2/17 8/11/18 6/7/19 4/3/20
f 7/14/21 1/6/22 3/5/23 5/8/24
