# 
# Generated by Sweet Home 3D - lun. sept. 06 10:28:31 EDT 2021
# http://www.sweethome3d.com/
# 
mtllib fenetre1.mtl
g Cube_1_1
usemtl flwhite
v 57.246475 57.023525 16.93301
v 54.584023 57.023525 16.93301
v 55.915245 57.023525 14.094529
v 57.246475 57.023525 11.255841
v 54.584023 57.023525 11.255841
v 57.246475 127.81222 14.094529
v 57.246475 198.6009 11.255841
v 57.246475 198.6009 16.93301
v 55.915245 127.81222 16.93301
v 54.584023 198.6009 16.93301
v 54.584023 127.81222 14.094529
v 54.584023 198.6009 11.255841
v 55.915245 198.6009 14.094529
v 55.915245 127.81222 11.255841
vn 0.0 -1.0 0.0
vn 1.0 0.0 0.0
vn 0.0 0.0 1.0
vn -1.0 0.0 0.0
vn 0.0 1.0 0.0
vn 0.0 0.0 -1.0
f 1//1 2//1 3//1
f 4//1 1//1 3//1
f 5//1 4//1 3//1
f 2//1 5//1 3//1
f 1//2 4//2 6//2
f 4//2 7//2 6//2
f 7//2 8//2 6//2
f 8//2 1//2 6//2
f 2//3 1//3 9//3
f 1//3 8//3 9//3
f 8//3 10//3 9//3
f 10//3 2//3 9//3
f 5//4 2//4 11//4
f 2//4 10//4 11//4
f 10//4 12//4 11//4
f 12//4 5//4 11//4
f 10//5 8//5 13//5
f 8//5 7//5 13//5
f 7//5 12//5 13//5
f 12//5 10//5 13//5
f 4//6 5//6 14//6
f 5//6 12//6 14//6
f 12//6 7//6 14//6
f 7//6 4//6 14//6
g Cube_2_2
usemtl flwhite
v 186.55295 196.23338 17.398458
v 4.9736433 196.23338 17.398458
v 95.7633 196.23338 14.30498
v 186.55295 196.23338 11.211294
v 4.9736433 196.23338 11.211294
v 186.55295 197.81181 14.30498
v 186.55295 199.38998 11.211294
v 186.55295 199.38998 17.398458
v 95.7633 197.81181 17.398458
v 4.9736433 199.38998 17.398458
v 4.9736433 197.81181 14.30498
v 4.9736433 199.38998 11.211294
v 95.7633 199.38998 14.30498
v 95.7633 197.81181 11.211294
f 15//1 16//1 17//1
f 18//1 15//1 17//1
f 19//1 18//1 17//1
f 16//1 19//1 17//1
f 15//2 18//2 20//2
f 18//2 21//2 20//2
f 21//2 22//2 20//2
f 22//2 15//2 20//2
f 16//3 15//3 23//3
f 15//3 22//3 23//3
f 22//3 24//3 23//3
f 24//3 16//3 23//3
f 19//4 16//4 25//4
f 16//4 24//4 25//4
f 24//4 26//4 25//4
f 26//4 19//4 25//4
f 24//5 22//5 27//5
f 22//5 21//5 27//5
f 21//5 26//5 27//5
f 26//5 24//5 27//5
f 18//6 19//6 28//6
f 19//6 26//6 28//6
f 26//6 21//6 28//6
f 21//6 18//6 28//6
g Cube_3_3
usemtl flwhite
v 136.33234 56.786774 17.216942
v 133.66989 56.786774 17.216942
v 135.00111 56.786774 13.526875
v 136.33234 56.786774 9.8366
v 133.66989 56.786774 9.8366
v 136.33234 127.57546 13.526875
v 136.33234 198.36415 9.8366
v 136.33234 198.36415 17.216942
v 135.00111 127.57546 17.216942
v 133.66989 198.36415 17.216942
v 133.66989 127.57546 13.526875
v 133.66989 198.36415 9.8366
v 135.00111 198.36415 13.526875
v 135.00111 127.57546 9.8366
f 29//1 30//1 31//1
f 32//1 29//1 31//1
f 33//1 32//1 31//1
f 30//1 33//1 31//1
f 29//2 32//2 34//2
f 32//2 35//2 34//2
f 35//2 36//2 34//2
f 36//2 29//2 34//2
f 30//3 29//3 37//3
f 29//3 36//3 37//3
f 36//3 38//3 37//3
f 38//3 30//3 37//3
f 33//4 30//4 39//4
f 30//4 38//4 39//4
f 38//4 40//4 39//4
f 40//4 33//4 39//4
f 38//5 36//5 41//5
f 36//5 35//5 41//5
f 35//5 40//5 41//5
f 40//5 38//5 41//5
f 32//6 33//6 42//6
f 33//6 40//6 42//6
f 40//6 35//6 42//6
f 35//6 32//6 42//6
g Cube_4_4
usemtl flwhite
v 186.8176 56.429043 16.387005
v 4.705801 56.429043 16.387005
v 95.7617 56.429043 15.033959
v 186.8176 56.429043 13.680914
v 4.705801 56.429043 13.680914
v 186.8176 58.48097 15.033959
v 186.8176 60.532894 13.680914
v 186.8176 60.532894 16.387005
v 95.7617 58.48097 16.387005
v 4.705801 60.532894 16.387005
v 4.705801 58.48097 15.033959
v 4.705801 60.532894 13.680914
v 95.7617 60.532894 15.033959
v 95.7617 58.48097 13.680914
f 43//1 44//1 45//1
f 46//1 43//1 45//1
f 47//1 46//1 45//1
f 44//1 47//1 45//1
f 43//2 46//2 48//2
f 46//2 49//2 48//2
f 49//2 50//2 48//2
f 50//2 43//2 48//2
f 44//3 43//3 51//3
f 43//3 50//3 51//3
f 50//3 52//3 51//3
f 52//3 44//3 51//3
f 47//4 44//4 53//4
f 44//4 52//4 53//4
f 52//4 54//4 53//4
f 54//4 47//4 53//4
f 52//5 50//5 55//5
f 50//5 49//5 55//5
f 49//5 54//5 55//5
f 54//5 52//5 55//5
f 46//6 47//6 56//6
f 47//6 54//6 56//6
f 54//6 49//6 56//6
f 49//6 46//6 56//6
g Cube_6_5
usemtl flwhite
v 8.186688 55.689903 17.586636
v 4.762423 55.689903 17.586636
v 6.4745555 55.689903 13.693403
v 8.186688 55.689903 9.799964
v 4.762423 55.689903 9.799964
v 8.186688 127.351494 13.693403
v 8.186688 199.01285 9.799964
v 8.186688 199.01285 17.586636
v 6.4745555 127.351494 17.586636
v 4.762423 199.01285 17.586636
v 4.762423 127.351494 13.693403
v 4.762423 199.01285 9.799964
v 6.4745555 199.01285 13.693403
v 6.4745555 127.351494 9.799964
f 57//1 58//1 59//1
f 60//1 57//1 59//1
f 61//1 60//1 59//1
f 58//1 61//1 59//1
f 57//2 60//2 62//2
f 60//2 63//2 62//2
f 63//2 64//2 62//2
f 64//2 57//2 62//2
f 58//3 57//3 65//3
f 57//3 64//3 65//3
f 64//3 66//3 65//3
f 66//3 58//3 65//3
f 61//4 58//4 67//4
f 58//4 66//4 67//4
f 66//4 68//4 67//4
f 68//4 61//4 67//4
f 66//5 64//5 69//5
f 64//5 63//5 69//5
f 63//5 68//5 69//5
f 68//5 66//5 69//5
f 60//6 61//6 70//6
f 61//6 68//6 70//6
f 68//6 63//6 70//6
f 63//6 60//6 70//6
g Cube_6_1_6
usemtl flwhite
v 187.54001 56.545288 17.862864
v 184.16757 56.545288 17.862864
v 185.85379 56.545288 14.003772
v 187.54001 56.545288 10.14447
v 184.16757 56.545288 10.14447
v 187.54001 127.92846 14.003772
v 187.54001 199.31187 10.14447
v 187.54001 199.31187 17.862864
v 185.85379 127.92846 17.862864
v 184.16757 199.31187 17.862864
v 184.16757 127.92846 14.003772
v 184.16757 199.31187 10.14447
v 185.85379 199.31187 14.003772
v 185.85379 127.92846 10.14447
f 71//1 72//1 73//1
f 74//1 71//1 73//1
f 75//1 74//1 73//1
f 72//1 75//1 73//1
f 71//2 74//2 76//2
f 74//2 77//2 76//2
f 77//2 78//2 76//2
f 78//2 71//2 76//2
f 72//3 71//3 79//3
f 71//3 78//3 79//3
f 78//3 80//3 79//3
f 80//3 72//3 79//3
f 75//4 72//4 81//4
f 72//4 80//4 81//4
f 80//4 82//4 81//4
f 82//4 75//4 81//4
f 80//5 78//5 83//5
f 78//5 77//5 83//5
f 77//5 82//5 83//5
f 82//5 80//5 83//5
f 74//6 75//6 84//6
f 75//6 82//6 84//6
f 82//6 77//6 84//6
f 77//6 74//6 84//6
g Cube_8_7
usemtl flwhite
v 55.803246 128.1922 16.124722
v 4.8793917 128.1922 16.124722
v 30.341318 128.1922 15.024592
v 55.803246 128.1922 13.924462
v 4.8793917 128.1922 13.924462
v 55.803246 129.44344 15.024592
v 55.803246 130.69466 13.924462
v 55.803246 130.69466 16.124722
v 30.341318 129.44344 16.124722
v 4.8793917 130.69466 16.124722
v 4.8793917 129.44344 15.024592
v 4.8793917 130.69466 13.924462
v 30.341318 130.69466 15.024592
v 30.341318 129.44344 13.924462
f 85//1 86//1 87//1
f 88//1 85//1 87//1
f 89//1 88//1 87//1
f 86//1 89//1 87//1
f 85//2 88//2 90//2
f 88//2 91//2 90//2
f 91//2 92//2 90//2
f 92//2 85//2 90//2
f 86//3 85//3 93//3
f 85//3 92//3 93//3
f 92//3 94//3 93//3
f 94//3 86//3 93//3
f 89//4 86//4 95//4
f 86//4 94//4 95//4
f 94//4 96//4 95//4
f 96//4 89//4 95//4
f 94//5 92//5 97//5
f 92//5 91//5 97//5
f 91//5 96//5 97//5
f 96//5 94//5 97//5
f 88//6 89//6 98//6
f 89//6 96//6 98//6
f 96//6 91//6 98//6
f 91//6 88//6 98//6
g Cube_8_1_8
usemtl flwhite
v 56.023167 127.077095 17.600582
v 5.099313 127.077095 17.600582
v 30.56124 127.077095 13.500647
v 56.023167 127.077095 9.400712
v 5.099313 127.077095 9.400712
v 56.023167 128.86458 13.500647
v 56.023167 130.65204 9.400712
v 56.023167 130.65204 17.600582
v 30.56124 128.86458 17.600582
v 5.099313 130.65204 17.600582
v 5.099313 128.86458 13.500647
v 5.099313 130.65204 9.400712
v 30.56124 130.65204 13.500647
v 30.56124 128.86458 9.400712
f 99//1 100//1 101//1
f 102//1 99//1 101//1
f 103//1 102//1 101//1
f 100//1 103//1 101//1
f 99//2 102//2 104//2
f 102//2 105//2 104//2
f 105//2 106//2 104//2
f 106//2 99//2 104//2
f 100//3 99//3 107//3
f 99//3 106//3 107//3
f 106//3 108//3 107//3
f 108//3 100//3 107//3
f 103//4 100//4 109//4
f 100//4 108//4 109//4
f 108//4 110//4 109//4
f 110//4 103//4 109//4
f 108//5 106//5 111//5
f 106//5 105//5 111//5
f 105//5 110//5 111//5
f 110//5 108//5 111//5
f 102//6 103//6 112//6
f 103//6 110//6 112//6
f 110//6 105//6 112//6
f 105//6 102//6 112//6
g Cube_8_2_9
usemtl flwhite
v 185.35324 126.96346 17.279806
v 134.66512 126.96346 17.279806
v 160.00919 126.96346 13.5418625
v 185.35324 126.96346 9.803919
v 134.66512 126.96346 9.803919
v 185.35324 128.75093 13.5418625
v 185.35324 130.5384 9.803919
v 185.35324 130.5384 17.279806
v 160.00919 128.75093 17.279806
v 134.66512 130.5384 17.279806
v 134.66512 128.75093 13.5418625
v 134.66512 130.5384 9.803919
v 160.00919 130.5384 13.5418625
v 160.00919 128.75093 9.803919
f 113//1 114//1 115//1
f 116//1 113//1 115//1
f 117//1 116//1 115//1
f 114//1 117//1 115//1
f 113//2 116//2 118//2
f 116//2 119//2 118//2
f 119//2 120//2 118//2
f 120//2 113//2 118//2
f 114//3 113//3 121//3
f 113//3 120//3 121//3
f 120//3 122//3 121//3
f 122//3 114//3 121//3
f 117//4 114//4 123//4
f 114//4 122//4 123//4
f 122//4 124//4 123//4
f 124//4 117//4 123//4
f 122//5 120//5 125//5
f 120//5 119//5 125//5
f 119//5 124//5 125//5
f 124//5 122//5 125//5
f 116//6 117//6 126//6
f 117//6 124//6 126//6
f 124//6 119//6 126//6
f 119//6 116//6 126//6
g sweethome3d_window_pane_10
usemtl flltgrey
v 134.28687 59.19454 13.882622
v 55.22088 59.19454 13.882622
v 94.753876 59.19454 13.1782055
v 134.28687 59.19454 12.473789
v 55.22088 59.19454 12.473789
v 134.28687 128.19101 13.1782055
v 134.28687 197.1875 12.473789
v 134.28687 197.1875 13.882622
v 94.753876 128.19101 13.882622
v 55.22088 197.1875 13.882622
v 55.22088 128.19101 13.1782055
v 55.22088 197.1875 12.473789
v 94.753876 197.1875 13.1782055
v 94.753876 128.19101 12.473789
f 127//1 128//1 129//1
f 130//1 127//1 129//1
f 131//1 130//1 129//1
f 128//1 131//1 129//1
f 127//2 130//2 132//2
f 130//2 133//2 132//2
f 133//2 134//2 132//2
f 134//2 127//2 132//2
f 128//3 127//3 135//3
f 127//3 134//3 135//3
f 134//3 136//3 135//3
f 136//3 128//3 135//3
f 131//4 128//4 137//4
f 128//4 136//4 137//4
f 136//4 138//4 137//4
f 138//4 131//4 137//4
f 136//5 134//5 139//5
f 134//5 133//5 139//5
f 133//5 138//5 139//5
f 138//5 136//5 139//5
f 130//6 131//6 140//6
f 131//6 138//6 140//6
f 138//6 133//6 140//6
f 133//6 130//6 140//6
g sweethome3d_window_pane_1_11
usemtl flltgrey
v 55.684677 197.25 12.520209
v 4.6600037 197.25 12.520209
v 30.17234 163.10333 12.520209
v 55.684677 128.95691 12.520209
v 4.6600037 128.95691 12.520209
v 55.684677 163.10333 12.391358
v 55.684677 128.95691 12.262299
v 55.684677 197.25 12.262299
v 30.17234 197.25 12.391358
v 4.6600037 197.25 12.262299
v 4.6600037 163.10333 12.391358
v 4.6600037 128.95691 12.262299
v 30.17234 163.10333 12.262299
v 30.17234 128.95691 12.391358
f 141//3 142//3 143//3
f 144//3 141//3 143//3
f 145//3 144//3 143//3
f 142//3 145//3 143//3
f 141//2 144//2 146//2
f 144//2 147//2 146//2
f 147//2 148//2 146//2
f 148//2 141//2 146//2
f 142//5 141//5 149//5
f 141//5 148//5 149//5
f 148//5 150//5 149//5
f 150//5 142//5 149//5
f 145//4 142//4 151//4
f 142//4 150//4 151//4
f 150//4 152//4 151//4
f 152//4 145//4 151//4
f 150//6 148//6 153//6
f 148//6 147//6 153//6
f 147//6 152//6 153//6
f 152//6 150//6 153//6
f 144//1 145//1 154//1
f 145//1 152//1 154//1
f 152//1 147//1 154//1
f 147//1 144//1 154//1
g sweethome3d_window_pane_3_12
usemtl flltgrey
v 186.32985 198.12172 13.772297
v 135.305 198.12172 13.772297
v 160.81732 163.97505 13.772297
v 186.32985 129.82838 13.772297
v 135.305 129.82838 13.772297
v 186.32985 163.97505 13.127415
v 186.32985 129.82838 12.4825325
v 186.32985 198.12172 12.4825325
v 160.81732 198.12172 13.127415
v 135.305 198.12172 12.4825325
v 135.305 163.97505 13.127415
v 135.305 129.82838 12.4825325
v 160.81732 163.97505 12.4825325
v 160.81732 129.82838 13.127415
f 155//3 156//3 157//3
f 158//3 155//3 157//3
f 159//3 158//3 157//3
f 156//3 159//3 157//3
f 155//2 158//2 160//2
f 158//2 161//2 160//2
f 161//2 162//2 160//2
f 162//2 155//2 160//2
f 156//5 155//5 163//5
f 155//5 162//5 163//5
f 162//5 164//5 163//5
f 164//5 156//5 163//5
f 159//4 156//4 165//4
f 156//4 164//4 165//4
f 164//4 166//4 165//4
f 166//4 159//4 165//4
f 164//6 162//6 167//6
f 162//6 161//6 167//6
f 161//6 166//6 167//6
f 166//6 164//6 167//6
f 158//1 159//1 168//1
f 159//1 166//1 168//1
f 166//1 161//1 168//1
f 161//1 158//1 168//1
g sweethome3d_window_pane_2_13
usemtl flltgrey
v 56.086708 129.35844 13.583286
v 5.0620384 129.35844 13.583286
v 30.574371 94.3178 13.583286
v 56.086708 59.2774 13.583286
v 5.0620384 59.2774 13.583286
v 56.086708 94.3178 12.938404
v 56.086708 59.2774 12.293523
v 56.086708 129.35844 12.293523
v 30.574371 129.35844 12.938404
v 5.0620384 129.35844 12.293523
v 5.0620384 94.3178 12.938404
v 5.0620384 59.2774 12.293523
v 30.574371 94.3178 12.293523
v 30.574371 59.2774 12.938404
f 169//3 170//3 171//3
f 172//3 169//3 171//3
f 173//3 172//3 171//3
f 170//3 173//3 171//3
f 169//2 172//2 174//2
f 172//2 175//2 174//2
f 175//2 176//2 174//2
f 176//2 169//2 174//2
f 170//5 169//5 177//5
f 169//5 176//5 177//5
f 176//5 178//5 177//5
f 178//5 170//5 177//5
f 173//4 170//4 179//4
f 170//4 178//4 179//4
f 178//4 180//4 179//4
f 180//4 173//4 179//4
f 178//6 176//6 181//6
f 176//6 175//6 181//6
f 175//6 180//6 181//6
f 180//6 178//6 181//6
f 172//1 173//1 182//1
f 173//1 180//1 182//1
f 180//1 175//1 182//1
f 175//1 172//1 182//1
g sweethome3d_window_pane_4_14
usemtl flltgrey
v 186.24411 129.8722 13.723587
v 135.21944 129.8722 13.723587
v 160.73177 94.83179 13.723587
v 186.24411 59.791386 13.723587
v 135.21944 59.791386 13.723587
v 186.24411 94.83179 13.078705
v 186.24411 59.791386 12.433823
v 186.24411 129.8722 12.433823
v 160.73177 129.8722 13.078705
v 135.21944 129.8722 12.433823
v 135.21944 94.83179 13.078705
v 135.21944 59.791386 12.433823
v 160.73177 94.83179 12.433823
v 160.73177 59.791386 13.078705
f 183//3 184//3 185//3
f 186//3 183//3 185//3
f 187//3 186//3 185//3
f 184//3 187//3 185//3
f 183//2 186//2 188//2
f 186//2 189//2 188//2
f 189//2 190//2 188//2
f 190//2 183//2 188//2
f 184//5 183//5 191//5
f 183//5 190//5 191//5
f 190//5 192//5 191//5
f 192//5 184//5 191//5
f 187//4 184//4 193//4
f 184//4 192//4 193//4
f 192//4 194//4 193//4
f 194//4 187//4 193//4
f 192//6 190//6 195//6
f 190//6 189//6 195//6
f 189//6 194//6 195//6
f 194//6 192//6 195//6
f 186//1 187//1 196//1
f 187//1 194//1 196//1
f 194//1 189//1 196//1
f 189//1 186//1 196//1
g Cube_5_15
usemtl flwhite
v 187.51924 53.369267 19.59268
v 4.87637 53.369267 19.59268
v 96.19781 53.369267 13.560181
v 187.51924 53.369267 7.527681
v 4.87637 53.369267 7.527681
v 187.51924 55.234158 13.560181
v 187.51924 57.09905 7.527681
v 187.51924 57.09905 19.59268
v 96.19781 55.234158 19.59268
v 4.87637 57.09905 19.59268
v 4.87637 55.234158 13.560181
v 4.87637 57.09905 7.527681
v 96.19781 57.09905 13.560181
v 96.19781 55.234158 7.527681
f 197//1 198//1 199//1
f 200//1 197//1 199//1
f 201//1 200//1 199//1
f 198//1 201//1 199//1
f 197//2 200//2 202//2
f 200//2 203//2 202//2
f 203//2 204//2 202//2
f 204//2 197//2 202//2
f 198//3 197//3 205//3
f 197//3 204//3 205//3
f 204//3 206//3 205//3
f 206//3 198//3 205//3
f 201//4 198//4 207//4
f 198//4 206//4 207//4
f 206//4 208//4 207//4
f 208//4 201//4 207//4
f 206//5 204//5 209//5
f 204//5 203//5 209//5
f 203//5 208//5 209//5
f 208//5 206//5 209//5
f 200//6 201//6 210//6
f 201//6 208//6 210//6
f 208//6 203//6 210//6
f 203//6 200//6 210//6
g Cube_6_2_16
usemtl flwhite
v 187.4708 46.989998 17.42656
v 4.821881 46.989998 17.42656
v 96.14633 46.989998 13.585368
v 187.4708 46.989998 9.744386
v 4.821881 46.989998 9.744386
v 187.4708 50.80454 13.585368
v 187.4708 54.619312 9.744386
v 187.4708 54.619312 17.42656
v 96.14633 50.80454 17.42656
v 4.821881 54.619312 17.42656
v 4.821881 50.80454 13.585368
v 4.821881 54.619312 9.744386
v 96.14633 54.619312 13.585368
v 96.14633 50.80454 9.744386
f 211//1 212//1 213//1
f 214//1 211//1 213//1
f 215//1 214//1 213//1
f 212//1 215//1 213//1
f 211//2 214//2 216//2
f 214//2 217//2 216//2
f 217//2 218//2 216//2
f 218//2 211//2 216//2
f 212//3 211//3 219//3
f 211//3 218//3 219//3
f 218//3 220//3 219//3
f 220//3 212//3 219//3
f 215//4 212//4 221//4
f 212//4 220//4 221//4
f 220//4 222//4 221//4
f 222//4 215//4 221//4
f 220//5 218//5 223//5
f 218//5 217//5 223//5
f 217//5 222//5 223//5
f 222//5 220//5 223//5
f 214//6 215//6 224//6
f 215//6 222//6 224//6
f 222//6 217//6 224//6
f 217//6 214//6 224//6
