# WaveFront *.obj file (generated by Autodesk ATF)

mtllib d6c47d76-e901-4a76-8190-5be1c6f65f76.mtl

g Body1

v -499.196556 75.000000 0.000000
v -499.196556 75.000000 2000.000000
v -499.196556 -75.000000 2000.000000
v -499.196556 -75.000000 0.000000
v 500.803444 75.000000 2000.000000
v 500.803444 75.000000 0.000000
v 500.803444 -75.000000 0.000000
v 500.803444 -75.000000 2000.000000
v -750.000000 -75.000000 0.000000
v -750.000000 75.000000 0.000000
v 750.000000 75.000000 0.000000
v 750.000000 -75.000000 0.000000
v -750.000000 75.000000 3000.000000
v 750.000000 75.000000 3000.000000
v 750.000000 -75.000000 3000.000000
v -750.000000 -75.000000 3000.000000
vt -0.000000 15.000000 0.000000
vt -200.000000 15.000000 0.000000
vt -0.000000 0.000000 0.000000
vt -200.000000 0.000000 0.000000
vt 0.000000 15.000000 0.000000
vt -200.000000 15.000000 0.000000
vt 0.000000 0.000000 0.000000
vt -200.000000 0.000000 0.000000
vt -0.000000 15.000000 0.000000
vt -100.000000 15.000000 0.000000
vt -0.000000 0.000000 0.000000
vt -100.000000 0.000000 0.000000
vt 49.919656 -7.500000 0.000000
vt 75.000000 -7.500000 0.000000
vt 49.919656 7.500000 0.000000
vt 75.000000 7.500000 0.000000
vt -50.080344 7.500000 0.000000
vt -75.000000 7.500000 0.000000
vt -50.080344 -7.500000 0.000000
vt -75.000000 -7.500000 0.000000
vt 24.919656 0.000000 0.000000
vt 24.919656 200.000000 0.000000
vt 0.000000 0.000000 0.000000
vt 0.000000 300.000000 0.000000
vt 124.919656 200.000000 0.000000
vt 150.000000 300.000000 0.000000
vt 150.000000 0.000000 0.000000
vt 124.919656 0.000000 0.000000
vt 125.080344 0.000000 0.000000
vt 150.000000 0.000000 0.000000
vt 125.080344 200.000000 0.000000
vt 150.000000 300.000000 0.000000
vt 25.080344 200.000000 0.000000
vt 0.000000 300.000000 0.000000
vt 0.000000 0.000000 0.000000
vt 25.080344 0.000000 0.000000
vt 0.000000 0.000000 0.000000
vt 15.000000 0.000000 0.000000
vt 0.000000 300.000000 0.000000
vt 15.000000 300.000000 0.000000
vt 0.000000 0.000000 0.000000
vt 15.000000 0.000000 0.000000
vt 0.000000 300.000000 0.000000
vt 15.000000 300.000000 0.000000
vt 75.000000 7.500000 0.000000
vt -75.000000 7.500000 0.000000
vt 75.000000 -7.500000 0.000000
vt -75.000000 -7.500000 0.000000
vn 0.100000 0.000000 0.000000
vn 0.100000 0.000000 0.000000
vn 0.100000 0.000000 0.000000
vn 0.100000 0.000000 0.000000
vn -0.100000 0.000000 0.000000
vn -0.100000 0.000000 0.000000
vn -0.100000 0.000000 0.000000
vn -0.100000 0.000000 0.000000
vn -0.000000 0.000000 -0.100000
vn -0.000000 0.000000 -0.100000
vn -0.000000 0.000000 -0.100000
vn -0.000000 0.000000 -0.100000
vn 0.000000 0.000000 -0.100000
vn 0.000000 0.000000 -0.100000
vn 0.000000 0.000000 -0.100000
vn 0.000000 0.000000 -0.100000
vn 0.000000 0.000000 -0.100000
vn 0.000000 0.000000 -0.100000
vn 0.000000 0.000000 -0.100000
vn 0.000000 0.000000 -0.100000
vn 0.000000 0.100000 0.000000
vn 0.000000 0.100000 0.000000
vn 0.000000 0.100000 0.000000
vn 0.000000 0.100000 0.000000
vn 0.000000 0.100000 0.000000
vn 0.000000 0.100000 0.000000
vn 0.000000 0.100000 0.000000
vn 0.000000 0.100000 0.000000
vn 0.000000 -0.100000 0.000000
vn 0.000000 -0.100000 0.000000
vn 0.000000 -0.100000 0.000000
vn 0.000000 -0.100000 0.000000
vn 0.000000 -0.100000 0.000000
vn 0.000000 -0.100000 0.000000
vn 0.000000 -0.100000 0.000000
vn 0.000000 -0.100000 0.000000
vn -0.100000 0.000000 0.000000
vn -0.100000 0.000000 0.000000
vn -0.100000 0.000000 0.000000
vn -0.100000 0.000000 0.000000
vn 0.100000 0.000000 0.000000
vn 0.100000 0.000000 0.000000
vn 0.100000 0.000000 0.000000
vn 0.100000 0.000000 0.000000
vn 0.000000 0.000000 0.100000
vn 0.000000 0.000000 0.100000
vn 0.000000 0.000000 0.100000
vn 0.000000 0.000000 0.100000
usemtl 3D_Pine_-_Stained_dark_semigloss
f 1/1/1 2/2/2 4/3/3
f 4/3/3 2/2/2 3/4/4
f 5/5/5 6/6/6 8/7/7
f 8/7/7 6/6/6 7/8/8
f 2/9/9 5/10/10 3/11/11
f 3/11/11 5/10/10 8/12/12
f 4/13/13 9/14/14 1/15/15
f 1/15/15 9/14/14 10/16/16
f 6/17/17 11/18/18 7/19/19
f 7/19/19 11/18/18 12/20/20
f 6/21/21 5/22/22 11/23/23
f 11/23/23 5/22/22 14/24/24
f 14/24/24 5/22/22 2/25/25
f 14/24/24 2/25/25 13/26/26
f 13/26/26 2/25/25 10/27/27
f 10/27/27 2/25/25 1/28/28
f 7/29/29 12/30/30 8/31/31
f 8/31/31 12/30/30 15/32/32
f 8/31/31 15/32/32 3/33/33
f 3/33/33 15/32/32 16/34/34
f 3/33/33 16/34/34 9/35/35
f 9/35/35 4/36/36 3/33/33
f 10/37/37 9/38/38 13/39/39
f 13/39/39 9/38/38 16/40/40
f 12/41/41 11/42/42 15/43/43
f 15/43/43 11/42/42 14/44/44
f 14/45/45 13/46/46 15/47/47
f 15/47/47 13/46/46 16/48/48
# 16 vertices
# 48 texture params
# 48 normals
# 28 facets

# 1 groups
