# Alias OBJ Model File
# Exported from SketchUp, (c) 2000-2012 Trimble Navigation Limited
# File units = meters

mtllib mur.mtl

g Mesh1 Model

usemtl FrontColor
v 0.2 0 -0
vt -7.87402 0
vn 0 -1 -0
v 0 0 -0
vt 0 0
v 0 0 -2
vt 0 78.7402
v 0.2 0 -2
vt -7.87402 78.7402
f 1/1/1 2/2/1 3/3/1 4/4/1 

vn 0 0 1
vt 7.87402 0
v 0.2 3 -0
vt 7.87402 118.11
v 0 3 -0
vt 0 118.11
f 2/2/2 1/5/2 5/6/2 6/7/2 

vn 1 0 -0
vt 78.7402 0
v 0.2 3 -2
vt 78.7402 118.11
f 1/2/3 4/8/3 7/9/3 5/7/3 

vn 0 0 -1
v 0 3 -2
vt -7.87402 118.11
f 4/1/4 3/2/4 8/7/4 7/10/4 

vt -78.7402 0
vn -1 0 -0
vt -78.7402 118.11
f 3/11/5 2/2/5 6/7/5 8/12/5 

vn 0 1 -0
vt 7.87402 78.7402
f 6/2/6 5/5/6 7/13/6 8/3/6 

