# Alias OBJ Model File
# Exported from SketchUp, (c) 2000-2012 Trimble Navigation Limited
# File units = meters

mtllib mur2.mtl

g Mesh1 Model

usemtl FrontColor
v 0.762 0 0.0762
vt -30 -3
vn 0 -1 -0
v -0.762 0 0.0762
vt 30 -3
v -0.762 0 -0.0762
vt 30 3
v 0.762 0 -0.0762
vt -30 3
f 1/1/1 2/2/1 3/3/1 4/4/1 

usemtl Color_H01
vt -30 0
vn 0 0 1
vt 30 0
v 0.762 3.048 0.0762
vt 30 120
v -0.762 3.048 0.0762
vt -30 120
f 2/5/2 1/6/2 5/7/2 6/8/2 

vt -3 0
vn 1 0 5.92119e-16
vt 3 0
v 0.762 3.048 -0.0762
vt 3 120
vt -3 120
f 1/9/3 4/10/3 7/11/3 5/12/3 

vn 0 0 -1
v -0.762 3.048 -0.0762
f 4/5/4 3/6/4 8/7/4 7/8/4 

vn -1 0 -0
f 3/9/5 2/10/5 6/11/5 8/12/5 

usemtl FrontColor
vn 0 1 -0
f 6/1/6 5/2/6 7/3/6 8/4/6 

