{
	"accessors": [
		{
			"bufferView": 0,
			"byteOffset": 0,
			"componentType": 5123,
			"count": 2382,
			"max": [
				479.0
			],
			"min": [
				0.0
			],
			"type": "SCALAR"
		},
		{
			"bufferView": 1,
			"byteOffset": 0,
			"componentType": 5126,
			"count": 480,
			"max": [
				0.9999884366989136,
				0.9999868273735046,
				0.9995573163032532
			],
			"min": [
				-0.9999868869781494,
				-0.9999884366989136,
				-0.999636709690094
			],
			"type": "VEC3"
		},
		{
			"bufferView": 2,
			"byteOffset": 0,
			"componentType": 5126,
			"count": 480,
			"max": [
				0.03408006578683853,
				0.03608289733529091,
				0.031227774918079376
			],
			"min": [
				-0.03408006578683853,
				-0.03915498033165932,
				-0.050361260771751404
			],
			"type": "VEC3"
		},
		{
			"bufferView": 3,
			"byteOffset": 0,
			"componentType": 5126,
			"count": 480,
			"max": [
				0.9866575002670288,
				0.7840847969055176
			],
			"min": [
				0.0021851100027561188,
				0.0241604745388031
			],
			"type": "VEC2"
		}
	],
	"asset": {
		"extras": {
			"author": "cesar.seidel (https://sketchfab.com/cesar.seidel)",
			"created": "Wed Jul  6 08:08:22 2022",
			"license": "CC-BY-4.0 (http://creativecommons.org/licenses/by/4.0/)",
			"source": "https://sketchfab.com/3d-models/beakers-b63ae471653f41e4b327cdcc796fc20c",
			"title": "Beakers"
		},
		"generator": "Gestaltor 2022.2.3 Tagliatelle Professional",
		"version": "2.0"
	},
	"bufferViews": [
		{
			"buffer": 0,
			"byteLength": 4764,
			"byteOffset": 0
		},
		{
			"buffer": 0,
			"byteLength": 5760,
			"byteOffset": 4764
		},
		{
			"buffer": 0,
			"byteLength": 5760,
			"byteOffset": 10524
		},
		{
			"buffer": 0,
			"byteLength": 3840,
			"byteOffset": 16284
		}
	],
	"buffers": [
		{
			"byteLength": 20124,
			"uri": "data:application/octet-stream;base64,"
		}
	],
	"extensionsUsed": [
		"KHR_materials_clearcoat"
	],
	"images": [
		{
			"mimeType": "image/png",
			"uri": "data:image/png;base64,"
		}
	],
	"materials": [
		{
			"alphaMode": "BLEND",
			"doubleSided": true,
			"extensions": {
				"KHR_materials_clearcoat": {
					"clearcoatFactor": 1.0,
					"clearcoatRoughnessFactor": 0.4
				}
			},
			"name": "Glass_MAT",
			"pbrMetallicRoughness": {
				"baseColorTexture": {
					"index": 0
				},
				"metallicFactor": 0.4455627
			}
		}
	],
	"meshes": [
		{
			"name": "Bequer_100mL_Glass_MAT_0",
			"primitives": [
				{
					"attributes": {
						"NORMAL": 1,
						"POSITION": 2,
						"TEXCOORD_0": 3
					},
					"indices": 0,
					"material": 0,
					"mode": 4
				}
			]
		}
	],
	"nodes": [
		{
			"children": [
				1
			],
			"matrix": [
				1.0,
				0.0,
				0.0,
				0.0,
				0.0,
				2.220446049250313e-16,
				-1.0,
				0.0,
				0.0,
				1.0,
				2.220446049250313e-16,
				0.0,
				0.0,
				0.0,
				0.0,
				1.0
			],
			"name": "Sketchfab_model"
		},
		{
			"children": [
				2
			],
			"matrix": [
				1.0,
				0.0,
				0.0,
				0.0,
				0.0,
				1.0,
				-2.646977960169688e-23,
				0.0,
				0.0,
				2.646977960169688e-23,
				1.0,
				0.0,
				0.0,
				0.0,
				0.050353907048702,
				1.0
			],
			"name": "Bequer_100mL"
		},
		{
			"mesh": 0,
			"name": "Bequer_100mL_Glass_MAT_0"
		}
	],
	"samplers": [
		{
			"magFilter": 9729,
			"minFilter": 9987,
			"wrapS": 10497,
			"wrapT": 10497
		}
	],
	"scene": 0,
	"scenes": [
		{
			"name": "Sketchfab_Scene",
			"nodes": [
				0
			]
		}
	],
	"textures": [
		{
			"sampler": 0,
			"source": 0
		}
	]
}