{
    "asset" : {
        "generator" : "Khronos glTF Blender I/O v1.6.16",
        "version" : "2.0"
    },
    "scene" : 0,
    "scenes" : [
        {
            "name" : "Scene",
            "nodes" : [
                4
            ]
        }
    ],
    "nodes" : [
        {
            "mesh" : 0,
            "name" : "chemical3_NakedSingularity_chemical3_plas_0"
        },
        {
            "children" : [
                0
            ],
            "name" : "chemical3_NakedSingularity",
            "translation" : [
                -9.204808235168457,
                0,
                4.408270359039307
            ]
        },
        {
            "children" : [
                1
            ],
            "name" : "RootNode"
        },
        {
            "children" : [
                2
            ],
            "name" : "Chemical_bottles_NakedSingularity.fbx",
            "rotation" : [
                0.7071068286895752,
                0,
                0,
                0.7071068286895752
            ],
            "scale" : [
                0.009999999776482582,
                0.009999999776482582,
                0.009999999776482582
            ]
        },
        {
            "children" : [
                3
            ],
            "name" : "Sketchfab_model",
            "rotation" : [
                -0.7071068286895752,
                0,
                0,
                0.7071068286895752
            ]
        }
    ],
    "materials" : [
        {
            "doubleSided" : true,
            "name" : "chemical3_plas",
            "normalTexture" : {
                "index" : 0
            },
            "occlusionTexture" : {
                "index" : 1
            },
            "pbrMetallicRoughness" : {
                "baseColorTexture" : {
                    "index" : 2
                },
                "metallicFactor" : 0,
                "metallicRoughnessTexture" : {
                    "index" : 1
                }
            }
        }
    ],
    "meshes" : [
        {
            "name" : "chemical3_NakedSingularity_chemical3_plas_0",
            "primitives" : [
                {
                    "attributes" : {
                        "POSITION" : 0,
                        "NORMAL" : 1,
                        "TEXCOORD_0" : 2,
                        "TEXCOORD_1" : 3
                    },
                    "indices" : 4,
                    "material" : 0
                }
            ]
        }
    ],
    "textures" : [
        {
            "sampler" : 0,
            "source" : 0
        },
        {
            "sampler" : 0,
            "source" : 1
        },
        {
            "sampler" : 0,
            "source" : 2
        }
    ],
    "images" : [
        {
            "bufferView" : 5,
            "mimeType" : "image/jpeg",
            "name" : "chemical3_plas_normal"
        },
        {
            "bufferView" : 6,
            "mimeType" : "image/png",
            "name" : "chemical3_plas_metallicRoughness"
        },
        {
            "bufferView" : 7,
            "mimeType" : "image/jpeg",
            "name" : "chemical3_plas_baseColor"
        }
    ],
    "accessors" : [
        {
            "bufferView" : 0,
            "componentType" : 5126,
            "count" : 367,
            "max" : [
                2.2218337059020996,
                8.087409973144531,
                2.2218337059020996
            ],
            "min" : [
                -2.2218337059020996,
                0,
                -2.2218337059020996
            ],
            "type" : "VEC3"
        },
        {
            "bufferView" : 1,
            "componentType" : 5126,
            "count" : 367,
            "type" : "VEC3"
        },
        {
            "bufferView" : 2,
            "componentType" : 5126,
            "count" : 367,
            "type" : "VEC2"
        },
        {
            "bufferView" : 3,
            "componentType" : 5126,
            "count" : 367,
            "type" : "VEC2"
        },
        {
            "bufferView" : 4,
            "componentType" : 5123,
            "count" : 1056,
            "type" : "SCALAR"
        }
    ],
    "bufferViews" : [
        {
            "buffer" : 0,
            "byteLength" : 4404,
            "byteOffset" : 0
        },
        {
            "buffer" : 0,
            "byteLength" : 4404,
            "byteOffset" : 4404
        },
        {
            "buffer" : 0,
            "byteLength" : 2936,
            "byteOffset" : 8808
        },
        {
            "buffer" : 0,
            "byteLength" : 2936,
            "byteOffset" : 11744
        },
        {
            "buffer" : 0,
            "byteLength" : 2112,
            "byteOffset" : 14680
        },
        {
            "buffer" : 0,
            "byteLength" : 55354,
            "byteOffset" : 16792
        },
        {
            "buffer" : 0,
            "byteLength" : 180034,
            "byteOffset" : 72148
        },
        {
            "buffer" : 0,
            "byteLength" : 57103,
            "byteOffset" : 252184
        }
    ],
    "samplers" : [
        {
            "magFilter" : 9729,
            "minFilter" : 9987
        }
    ],
    "buffers" : [
        {
            "byteLength" : 309288,
            "uri" : "data:application/octet-stream;base64,"
        }
    ]
}
