{
	"accessors": [
		{
			"bufferView": 0,
			"byteOffset": 0,
			"componentType": 5126,
			"count": 180,
			"max": [
				2.2506492137908936,
				7.339767932891846,
				2.2506492137908936
			],
			"min": [
				-2.2506492137908936,
				0.0,
				-2.2506492137908936
			],
			"type": "VEC3"
		},
		{
			"bufferView": 1,
			"byteOffset": 0,
			"componentType": 5126,
			"count": 180,
			"type": "VEC3"
		},
		{
			"bufferView": 2,
			"byteOffset": 0,
			"componentType": 5126,
			"count": 180,
			"type": "VEC2"
		},
		{
			"bufferView": 3,
			"byteOffset": 0,
			"componentType": 5126,
			"count": 180,
			"type": "VEC2"
		},
		{
			"bufferView": 4,
			"byteOffset": 0,
			"componentType": 5123,
			"count": 762,
			"type": "SCALAR"
		},
		{
			"bufferView": 5,
			"byteOffset": 0,
			"componentType": 5126,
			"count": 121,
			"max": [
				1.5914493799209595,
				8.0,
				2.2506492137908936
			],
			"min": [
				-2.079329252243042,
				2.052551746368408,
				-1.54334557056427
			],
			"type": "VEC3"
		},
		{
			"bufferView": 6,
			"byteOffset": 0,
			"componentType": 5126,
			"count": 121,
			"type": "VEC3"
		},
		{
			"bufferView": 7,
			"byteOffset": 0,
			"componentType": 5126,
			"count": 121,
			"type": "VEC2"
		},
		{
			"bufferView": 8,
			"byteOffset": 0,
			"componentType": 5126,
			"count": 121,
			"type": "VEC2"
		},
		{
			"bufferView": 9,
			"byteOffset": 0,
			"componentType": 5123,
			"count": 222,
			"type": "SCALAR"
		}
	],
	"asset": {
		"extras": {
			"created": "Wed Jan  4 08:15:30 2023"
		},
		"generator": "Gestaltor 2022.4.0 Pappardelle Professional",
		"version": "2.0"
	},
	"bufferViews": [
		{
			"buffer": 0,
			"byteLength": 2160,
			"byteOffset": 0
		},
		{
			"buffer": 0,
			"byteLength": 2160,
			"byteOffset": 2160
		},
		{
			"buffer": 0,
			"byteLength": 1440,
			"byteOffset": 4320
		},
		{
			"buffer": 0,
			"byteLength": 1440,
			"byteOffset": 5760
		},
		{
			"buffer": 0,
			"byteLength": 1524,
			"byteOffset": 7200
		},
		{
			"buffer": 0,
			"byteLength": 1452,
			"byteOffset": 8724
		},
		{
			"buffer": 0,
			"byteLength": 1452,
			"byteOffset": 10176
		},
		{
			"buffer": 0,
			"byteLength": 968,
			"byteOffset": 11628
		},
		{
			"buffer": 0,
			"byteLength": 968,
			"byteOffset": 12596
		},
		{
			"buffer": 0,
			"byteLength": 444,
			"byteOffset": 13564
		}
	],
	"buffers": [
		{
			"byteLength": 14008,
			"uri": "data:application/octet-stream;base64,"
		}
	],
	"images": [
		{
			"mimeType": "image/png",
			"name": "chemical1_glass_normal",
			"uri": "chemical1_glass_normal..png"
		},
		{
			"mimeType": "image/png",
			"name": "chemical1_glass_metallicRoughness",
			"uri": "chemical1_glass_metallicRoughness..png"
		},
		{
			"mimeType": "image/jpeg",
			"name": "chemical1_glass_baseColor",
			"uri": "chemical1_glass_baseColor..jpg"
		},
		{
			"mimeType": "image/jpeg",
			"name": "chemical1_plas_normal",
			"uri": "chemical1_plas_normal..jpg"
		},
		{
			"mimeType": "image/png",
			"name": "chemical1_plas_metallicRoughness",
			"uri": "chemical1_plas_metallicRoughness..png"
		},
		{
			"mimeType": "image/jpeg",
			"name": "chemical1_plas_baseColor",
			"uri": "chemical1_plas_baseColor..jpg"
		},
		{
			"mimeType": "image/jpeg",
			"name": "graines_patience",
			"uri": "graines_patience.jpg"
		}
	],
	"materials": [
		{
			"doubleSided": true,
			"name": "chemical1_glass",
			"normalTexture": {
				"index": 0
			},
			"occlusionTexture": {
				"index": 1
			},
			"pbrMetallicRoughness": {
				"baseColorTexture": {
					"index": 2
				},
				"metallicRoughnessTexture": {
					"index": 1
				}
			}
		},
		{
			"doubleSided": true,
			"name": "chemical1_plas",
			"normalTexture": {
				"index": 3
			},
			"occlusionTexture": {
				"index": 4
			},
			"pbrMetallicRoughness": {
				"baseColorTexture": {
					"index": 5
				},
				"metallicFactor": 0.0,
				"metallicRoughnessTexture": {
					"index": 4
				}
			}
		}
	],
	"meshes": [
		{
			"name": "chemical1_NakedSingularity_chemical1_glass_0",
			"primitives": [
				{
					"attributes": {
						"NORMAL": 1,
						"POSITION": 0,
						"TEXCOORD_0": 2,
						"TEXCOORD_1": 3
					},
					"indices": 4,
					"material": 0,
					"mode": 4
				}
			]
		},
		{
			"name": "chemical1_NakedSingularity_chemical1_plas_0",
			"primitives": [
				{
					"attributes": {
						"NORMAL": 6,
						"POSITION": 5,
						"TEXCOORD_0": 7,
						"TEXCOORD_1": 8
					},
					"indices": 9,
					"material": 1,
					"mode": 4
				}
			]
		}
	],
	"nodes": [
		{
			"mesh": 0,
			"name": "chemical1_NakedSingularity_chemical1_glass_0"
		},
		{
			"mesh": 1,
			"name": "chemical1_NakedSingularity_chemical1_plas_0"
		},
		{
			"children": [
				0,
				1
			],
			"name": "chemical1_NakedSingularity",
			"translation": [
				-10.397326469421387,
				0.0,
				-5.874760627746582
			]
		},
		{
			"children": [
				2
			],
			"name": "RootNode"
		},
		{
			"children": [
				3
			],
			"name": "Chemical_bottles_NakedSingularity.fbx",
			"rotation": [
				0.7071068286895752,
				0.0,
				0.0,
				0.7071068286895752
			],
			"scale": [
				0.009999999776482582,
				0.009999999776482582,
				0.009999999776482582
			]
		},
		{
			"children": [
				4
			],
			"name": "Sketchfab_model",
			"rotation": [
				-0.7071068286895752,
				0.0,
				0.0,
				0.7071068286895752
			]
		}
	],
	"samplers": [
		{
			"magFilter": 9729,
			"minFilter": 9987
		}
	],
	"scene": 0,
	"scenes": [
		{
			"name": "Scene",
			"nodes": [
				5
			]
		}
	],
	"textures": [
		{
			"sampler": 0,
			"source": 0
		},
		{
			"sampler": 0,
			"source": 1
		},
		{
			"sampler": 0,
			"source": 2
		},
		{
			"sampler": 0,
			"source": 3
		},
		{
			"sampler": 0,
			"source": 4
		},
		{
			"sampler": 0,
			"source": 5
		},
		{
			"name": "",
			"source": 6
		}
	]
}