{
	"accessors": [
		{
			"bufferView": 0,
			"byteOffset": 0,
			"componentType": 5126,
			"count": 296,
			"max": [
				3.9546244144439697,
				10.0,
				3.9546256065368652
			],
			"min": [
				-3.9546263217926025,
				0.0,
				-3.954627275466919
			],
			"type": "VEC3"
		},
		{
			"bufferView": 1,
			"byteOffset": 0,
			"componentType": 5126,
			"count": 296,
			"type": "VEC3"
		},
		{
			"bufferView": 2,
			"byteOffset": 0,
			"componentType": 5126,
			"count": 296,
			"type": "VEC2"
		},
		{
			"bufferView": 3,
			"byteOffset": 0,
			"componentType": 5126,
			"count": 296,
			"type": "VEC2"
		},
		{
			"bufferView": 4,
			"byteOffset": 0,
			"componentType": 5123,
			"count": 840,
			"type": "SCALAR"
		}
	],
	"asset": {
		"extras": {
			"created": "Sun Jun 26 06:53:57 2022"
		},
		"generator": "Gestaltor 2022.2.3 Tagliatelle Professional",
		"version": "2.0"
	},
	"bufferViews": [
		{
			"buffer": 0,
			"byteLength": 3552,
			"byteOffset": 0
		},
		{
			"buffer": 0,
			"byteLength": 3552,
			"byteOffset": 3552
		},
		{
			"buffer": 0,
			"byteLength": 2368,
			"byteOffset": 7104
		},
		{
			"buffer": 0,
			"byteLength": 2368,
			"byteOffset": 9472
		},
		{
			"buffer": 0,
			"byteLength": 1680,
			"byteOffset": 11840
		}
	],
	"buffers": [
		{
			"byteLength": 13520,
			"uri": "data:application/octet-stream;base64,"
		}
	],
	"images": [
		{
			"mimeType": "image/jpeg",
			"name": "chemical5_plas_normal",
			"uri": "chemical5_plas_normal..jpg"
		},
		{
			"mimeType": "image/png",
			"name": "chemical5_plas_metallicRoughness",
			"uri": "chemical5_plas_metallicRoughness..png"
		},
		{
			"mimeType": "image/jpeg",
			"name": "chemical5_plas_baseColor",
			"uri": "chemical5_plas_baseColor..jpg"
		}
	],
	"materials": [
		{
			"doubleSided": true,
			"name": "chemical5_plas",
			"normalTexture": {
				"index": 0
			},
			"occlusionTexture": {
				"index": 1
			},
			"pbrMetallicRoughness": {
				"baseColorTexture": {
					"index": 2
				},
				"metallicFactor": 0.0,
				"metallicRoughnessTexture": {
					"index": 1
				}
			}
		}
	],
	"meshes": [
		{
			"name": "chemical5_NakedSingularity_chemical5_plas_0",
			"primitives": [
				{
					"attributes": {
						"NORMAL": 1,
						"POSITION": 0,
						"TEXCOORD_0": 2,
						"TEXCOORD_1": 3
					},
					"indices": 4,
					"material": 0,
					"mode": 4
				}
			]
		}
	],
	"nodes": [
		{
			"mesh": 0,
			"name": "chemical5_NakedSingularity_chemical5_plas_0"
		},
		{
			"children": [
				0
			],
			"name": "chemical5_NakedSingularity",
			"rotation": [
				0.0,
				-0.21129249036312103,
				0.0,
				0.9774228930473328
			],
			"translation": [
				0.0,
				0.0,
				-5.376372814178467
			]
		},
		{
			"children": [
				1
			],
			"name": "RootNode"
		},
		{
			"children": [
				2
			],
			"name": "Chemical_bottles_NakedSingularity.fbx",
			"rotation": [
				0.7071068286895752,
				0.0,
				0.0,
				0.7071068286895752
			],
			"scale": [
				0.009999999776482582,
				0.009999999776482582,
				0.009999999776482582
			]
		},
		{
			"children": [
				3
			],
			"name": "Sketchfab_model",
			"rotation": [
				-0.7071068286895752,
				0.0,
				0.0,
				0.7071068286895752
			]
		}
	],
	"samplers": [
		{
			"magFilter": 9729,
			"minFilter": 9987
		}
	],
	"scene": 0,
	"scenes": [
		{
			"name": "Scene",
			"nodes": [
				4
			]
		}
	],
	"textures": [
		{
			"sampler": 0,
			"source": 0
		},
		{
			"sampler": 0,
			"source": 1
		},
		{
			"sampler": 0,
			"source": 2
		}
	]
}