{
	"accessors": [
		{
			"bufferView": 0,
			"byteOffset": 0,
			"componentType": 5126,
			"count": 230,
			"max": [
				0.011404905468225479,
				0.07415410876274109,
				0.11142555624246597
			],
			"min": [
				-8.475035429000854e-08,
				-0.07415345311164856,
				-0.1114254742860794
			],
			"type": "VEC3"
		},
		{
			"bufferView": 1,
			"byteOffset": 0,
			"componentType": 5126,
			"count": 230,
			"type": "VEC3"
		},
		{
			"bufferView": 2,
			"byteOffset": 0,
			"componentType": 5126,
			"count": 230,
			"type": "VEC2"
		},
		{
			"bufferView": 3,
			"byteOffset": 0,
			"componentType": 5126,
			"count": 230,
			"type": "VEC2"
		},
		{
			"bufferView": 4,
			"byteOffset": 0,
			"componentType": 5126,
			"count": 230,
			"type": "VEC2"
		},
		{
			"bufferView": 5,
			"byteOffset": 0,
			"componentType": 5126,
			"count": 230,
			"type": "VEC2"
		},
		{
			"bufferView": 6,
			"byteOffset": 0,
			"componentType": 5123,
			"count": 564,
			"type": "SCALAR"
		}
	],
	"asset": {
		"extras": {
			"created": "Mon Dec 12 01:45:27 2022"
		},
		"generator": "Gestaltor 2022.4.0 Pappardelle Professional",
		"version": "2.0"
	},
	"bufferViews": [
		{
			"buffer": 0,
			"byteLength": 2760,
			"byteOffset": 0
		},
		{
			"buffer": 0,
			"byteLength": 2760,
			"byteOffset": 2760
		},
		{
			"buffer": 0,
			"byteLength": 1840,
			"byteOffset": 5520
		},
		{
			"buffer": 0,
			"byteLength": 1840,
			"byteOffset": 7360
		},
		{
			"buffer": 0,
			"byteLength": 1840,
			"byteOffset": 9200
		},
		{
			"buffer": 0,
			"byteLength": 1840,
			"byteOffset": 11040
		},
		{
			"buffer": 0,
			"byteLength": 1128,
			"byteOffset": 12880
		}
	],
	"buffers": [
		{
			"byteLength": 14008,
			"uri": "data:application/octet-stream;base64,"
		}
	],
	"images": [
		{
			"mimeType": "image/jpeg",
			"name": "M_Clipboard_Notepad_1024_normal",
			"uri": "data:image/jpeg;base64,"
		},
		{
			"mimeType": "image/jpeg",
			"name": "M_Clipboard_Notepad_1024_baseColor",
			"uri": "data:image/jpeg;base64,"
		},
		{
			"mimeType": "image/png",
			"name": "M_Clipboard_Notepad_1024_metallicRoughness",
			"uri": "data:image/png;base64,"
		}
	],
	"materials": [
		{
			"doubleSided": true,
			"name": "M_Clipboard_Notepad_1024",
			"normalTexture": {
				"index": 0
			},
			"pbrMetallicRoughness": {
				"baseColorTexture": {
					"index": 1
				},
				"metallicRoughnessTexture": {
					"index": 2
				}
			}
		}
	],
	"meshes": [
		{
			"name": "Object_51",
			"primitives": [
				{
					"attributes": {
						"NORMAL": 1,
						"POSITION": 0,
						"TEXCOORD_0": 2,
						"TEXCOORD_1": 3,
						"TEXCOORD_2": 4,
						"TEXCOORD_3": 5
					},
					"indices": 6,
					"material": 0,
					"mode": 4
				}
			]
		}
	],
	"nodes": [
		{
			"mesh": 0,
			"name": "Object_105"
		},
		{
			"children": [
				0
			],
			"matrix": [
				1.0,
				0.0,
				0.0,
				0.0,
				0.0,
				1.0,
				0.0,
				0.0,
				0.0,
				0.0,
				1.0,
				0.0,
				0.0,
				0.0,
				0.0,
				1.0
			],
			"name": "Notebook_50"
		},
		{
			"children": [
				1
			],
			"name": "Office - Assets"
		}
	],
	"samplers": [
		{
			"magFilter": 9729,
			"minFilter": 9987
		}
	],
	"scene": 0,
	"scenes": [
		{
			"name": "Scene",
			"nodes": [
				2
			]
		}
	],
	"textures": [
		{
			"sampler": 0,
			"source": 0
		},
		{
			"sampler": 0,
			"source": 1
		},
		{
			"sampler": 0,
			"source": 2
		}
	]
}