{
	"accessors": [
		{
			"bufferView": 0,
			"byteOffset": 0,
			"componentType": 5123,
			"count": 2664,
			"max": [
				709.0
			],
			"min": [
				0.0
			],
			"type": "SCALAR"
		},
		{
			"bufferView": 1,
			"byteOffset": 0,
			"componentType": 5126,
			"count": 710,
			"max": [
				1.0,
				1.0,
				1.0
			],
			"min": [
				-1.0,
				-1.0,
				-1.0
			],
			"type": "VEC3"
		},
		{
			"bufferView": 2,
			"byteOffset": 0,
			"componentType": 5126,
			"count": 710,
			"max": [
				1.6803545951843262,
				3.6367721557617188,
				1.457437515258789
			],
			"min": [
				-1.2282874584197998,
				3.3948869705200195,
				-0.950464129447937
			],
			"type": "VEC3"
		},
		{
			"bufferView": 3,
			"byteOffset": 0,
			"componentType": 5126,
			"count": 710,
			"max": [
				0.4123941659927368,
				0.9799782633781433
			],
			"min": [
				0.022895194590091705,
				0.07428008317947388
			],
			"type": "VEC2"
		},
		{
			"bufferView": 4,
			"byteOffset": 0,
			"componentType": 5123,
			"count": 2346,
			"max": [
				535.0
			],
			"min": [
				0.0
			],
			"type": "SCALAR"
		},
		{
			"bufferView": 5,
			"byteOffset": 0,
			"componentType": 5126,
			"count": 536,
			"max": [
				0.9998165369033813,
				0.9948532581329346,
				0.9999945163726807
			],
			"min": [
				-0.9993813037872314,
				-0.9971618056297302,
				-0.9995678663253784
			],
			"type": "VEC3"
		},
		{
			"bufferView": 6,
			"byteOffset": 0,
			"componentType": 5126,
			"count": 536,
			"max": [
				1.536811113357544,
				6.398138046264648,
				0.8772222995758057
			],
			"min": [
				-1.11636221408844,
				3.314033269882202,
				-1.2853753566741943
			],
			"type": "VEC3"
		},
		{
			"bufferView": 7,
			"byteOffset": 0,
			"componentType": 5126,
			"count": 536,
			"max": [
				0.891359806060791,
				0.3098733425140381
			],
			"min": [
				0.7267435789108276,
				0.09013748168945313
			],
			"type": "VEC2"
		},
		{
			"bufferView": 8,
			"byteOffset": 0,
			"componentType": 5123,
			"count": 3972,
			"max": [
				973.0
			],
			"min": [
				0.0
			],
			"type": "SCALAR"
		},
		{
			"bufferView": 9,
			"byteOffset": 0,
			"componentType": 5126,
			"count": 974,
			"max": [
				0.9997067451477051,
				1.0000001192092896,
				0.999997615814209
			],
			"min": [
				-0.9997602701187134,
				-1.0,
				-1.0
			],
			"type": "VEC3"
		},
		{
			"bufferView": 10,
			"byteOffset": 0,
			"componentType": 5126,
			"count": 974,
			"max": [
				1.81935715675354,
				3.4741287231445313,
				1.4296727180480957
			],
			"min": [
				-1.3792214393615723,
				0.4633139371871948,
				1.2154831886291504
			],
			"type": "VEC3"
		},
		{
			"bufferView": 11,
			"byteOffset": 0,
			"componentType": 5126,
			"count": 974,
			"max": [
				0.4314528703689575,
				0.6980425119400024
			],
			"min": [
				0.008448421955108643,
				0.38840144872665405
			],
			"type": "VEC2"
		},
		{
			"bufferView": 12,
			"byteOffset": 0,
			"componentType": 5123,
			"count": 3840,
			"max": [
				914.0
			],
			"min": [
				0.0
			],
			"type": "SCALAR"
		},
		{
			"bufferView": 13,
			"byteOffset": 0,
			"componentType": 5126,
			"count": 915,
			"max": [
				1.0,
				1.0000001192092896,
				0.9998891949653625
			],
			"min": [
				-1.0,
				-0.9999945759773254,
				-0.9998502135276794
			],
			"type": "VEC3"
		},
		{
			"bufferView": 14,
			"byteOffset": 0,
			"componentType": 5126,
			"count": 915,
			"max": [
				2.403195858001709,
				5.673068523406982,
				3.859311819076538
			],
			"min": [
				2.1890063285827637,
				0.45361092686653137,
				0.18502819538116455
			],
			"type": "VEC3"
		},
		{
			"bufferView": 15,
			"byteOffset": 0,
			"componentType": 5126,
			"count": 915,
			"max": [
				0.9477826356887817,
				0.9745429754257202
			],
			"min": [
				0.7943519353866577,
				0.5556009411811829
			],
			"type": "VEC2"
		},
		{
			"bufferView": 16,
			"byteOffset": 0,
			"componentType": 5123,
			"count": 3840,
			"max": [
				914.0
			],
			"min": [
				0.0
			],
			"type": "SCALAR"
		},
		{
			"bufferView": 17,
			"byteOffset": 0,
			"componentType": 5126,
			"count": 915,
			"max": [
				1.0,
				1.0000001192092896,
				0.9998891949653625
			],
			"min": [
				-1.0,
				-0.9999945759773254,
				-0.9998502135276794
			],
			"type": "VEC3"
		},
		{
			"bufferView": 18,
			"byteOffset": 0,
			"componentType": 5126,
			"count": 915,
			"max": [
				2.403195858001709,
				5.673068523406982,
				3.859311819076538
			],
			"min": [
				2.1890063285827637,
				0.45361092686653137,
				0.18502819538116455
			],
			"type": "VEC3"
		},
		{
			"bufferView": 19,
			"byteOffset": 0,
			"componentType": 5126,
			"count": 915,
			"max": [
				0.9477826356887817,
				0.9745429754257202
			],
			"min": [
				0.7943519353866577,
				0.5556009411811829
			],
			"type": "VEC2"
		},
		{
			"bufferView": 20,
			"byteOffset": 0,
			"componentType": 5123,
			"count": 2316,
			"max": [
				586.0
			],
			"min": [
				0.0
			],
			"type": "SCALAR"
		},
		{
			"bufferView": 21,
			"byteOffset": 0,
			"componentType": 5126,
			"count": 587,
			"max": [
				1.0,
				1.0,
				0.9992257356643677
			],
			"min": [
				-0.9999735951423645,
				-0.9276415109634399,
				-0.9966017603874207
			],
			"type": "VEC3"
		},
		{
			"bufferView": 22,
			"byteOffset": 0,
			"componentType": 5126,
			"count": 587,
			"max": [
				1.8185360431671143,
				6.709480285644531,
				-0.964873194694519
			],
			"min": [
				-1.3736381530761719,
				0.46860969066619873,
				-1.2849915027618408
			],
			"type": "VEC3"
		},
		{
			"bufferView": 23,
			"byteOffset": 0,
			"componentType": 5126,
			"count": 587,
			"max": [
				0.994438648223877,
				0.8480708003044128
			],
			"min": [
				0.6897025108337402,
				0.3881486654281616
			],
			"type": "VEC2"
		},
		{
			"bufferView": 24,
			"byteOffset": 0,
			"componentType": 5123,
			"count": 2664,
			"max": [
				701.0
			],
			"min": [
				0.0
			],
			"type": "SCALAR"
		},
		{
			"bufferView": 25,
			"byteOffset": 0,
			"componentType": 5126,
			"count": 702,
			"max": [
				1.0,
				1.0,
				1.0
			],
			"min": [
				-1.0,
				-1.0,
				-1.0
			],
			"type": "VEC3"
		},
		{
			"bufferView": 26,
			"byteOffset": 0,
			"componentType": 5126,
			"count": 702,
			"max": [
				1.6803545951843262,
				6.636791706085205,
				-0.951140820980072
			],
			"min": [
				-1.2282874584197998,
				5.219729423522949,
				-1.193026065826416
			],
			"type": "VEC3"
		},
		{
			"bufferView": 27,
			"byteOffset": 0,
			"componentType": 5126,
			"count": 702,
			"max": [
				0.6660472750663757,
				0.9698605537414551
			],
			"min": [
				0.4347894489765167,
				0.15570735931396484
			],
			"type": "VEC2"
		},
		{
			"bufferView": 28,
			"byteOffset": 0,
			"componentType": 5123,
			"count": 3132,
			"max": [
				726.0
			],
			"min": [
				0.0
			],
			"type": "SCALAR"
		},
		{
			"bufferView": 29,
			"byteOffset": 0,
			"componentType": 5126,
			"count": 727,
			"max": [
				0.9999982118606567,
				0.9947905540466309,
				0.9999631643295288
			],
			"min": [
				-0.9999976754188538,
				-0.9986181259155273,
				-0.99996417760849
			],
			"type": "VEC3"
		},
		{
			"bufferView": 30,
			"byteOffset": 0,
			"componentType": 5126,
			"count": 727,
			"max": [
				2.776625633239746,
				5.709267616271973,
				2.283750534057617
			],
			"min": [
				2.5800671577453613,
				4.920412063598633,
				1.7460670471191406
			],
			"type": "VEC3"
		},
		{
			"bufferView": 31,
			"byteOffset": 0,
			"componentType": 5126,
			"count": 727,
			"max": [
				0.6441641449928284,
				0.26739275455474854
			],
			"min": [
				0.33755233883857727,
				0.022325456142425537
			],
			"type": "VEC2"
		},
		{
			"bufferView": 32,
			"byteOffset": 0,
			"componentType": 5123,
			"count": 1800,
			"max": [
				655.0
			],
			"min": [
				0.0
			],
			"type": "SCALAR"
		},
		{
			"bufferView": 33,
			"byteOffset": 0,
			"componentType": 5126,
			"count": 656,
			"max": [
				0.9515876173973083,
				1.0,
				0.9510512948036194
			],
			"min": [
				-0.9516708850860596,
				-1.0,
				-0.9511513113975525
			],
			"type": "VEC3"
		},
		{
			"bufferView": 34,
			"byteOffset": 0,
			"componentType": 5126,
			"count": 656,
			"max": [
				2.3705673217773438,
				1.682127833366394,
				3.995358467102051
			],
			"min": [
				-1.9920225143432617,
				1.5480256080627441,
				0.38450199365615845
			],
			"type": "VEC3"
		},
		{
			"bufferView": 35,
			"byteOffset": 0,
			"componentType": 5126,
			"count": 656,
			"max": [
				0.555908739566803,
				0.6383588910102844
			],
			"min": [
				0.3416881263256073,
				0.5061402320861816
			],
			"type": "VEC2"
		},
		{
			"bufferView": 36,
			"byteOffset": 0,
			"componentType": 5121,
			"count": 294,
			"max": [
				104.0
			],
			"min": [
				0.0
			],
			"type": "SCALAR"
		},
		{
			"bufferView": 37,
			"byteOffset": 0,
			"componentType": 5126,
			"count": 105,
			"max": [
				0.9999945163726807,
				0.9999982118606567,
				1.0
			],
			"min": [
				-0.9999945759773254,
				-1.0,
				-1.0
			],
			"type": "VEC3"
		},
		{
			"bufferView": 38,
			"byteOffset": 0,
			"componentType": 5126,
			"count": 105,
			"max": [
				2.2073254585266113,
				5.7273736000061035,
				3.5188188552856445
			],
			"min": [
				-1.7926740646362305,
				5.027374267578125,
				0.5188184976577759
			],
			"type": "VEC3"
		},
		{
			"bufferView": 39,
			"byteOffset": 0,
			"componentType": 5126,
			"count": 105,
			"max": [
				0.8814464807510376,
				0.9859834909439087
			],
			"min": [
				0.7089031934738159,
				0.546375572681427
			],
			"type": "VEC2"
		},
		{
			"bufferView": 40,
			"byteOffset": 0,
			"componentType": 5123,
			"count": 3132,
			"max": [
				726.0
			],
			"min": [
				0.0
			],
			"type": "SCALAR"
		},
		{
			"bufferView": 41,
			"byteOffset": 0,
			"componentType": 5126,
			"count": 727,
			"max": [
				0.9999982118606567,
				0.9947905540466309,
				0.9999631643295288
			],
			"min": [
				-0.9999976754188538,
				-0.9986181259155273,
				-0.99996417760849
			],
			"type": "VEC3"
		},
		{
			"bufferView": 42,
			"byteOffset": 0,
			"componentType": 5126,
			"count": 727,
			"max": [
				2.776625633239746,
				5.709267616271973,
				2.283750534057617
			],
			"min": [
				2.5800671577453613,
				4.920412063598633,
				1.7460670471191406
			],
			"type": "VEC3"
		},
		{
			"bufferView": 43,
			"byteOffset": 0,
			"componentType": 5126,
			"count": 727,
			"max": [
				0.6441641449928284,
				0.26739275455474854
			],
			"min": [
				0.33755233883857727,
				0.022325456142425537
			],
			"type": "VEC2"
		},
		{
			"bufferView": 44,
			"byteOffset": 0,
			"componentType": 5121,
			"count": 564,
			"max": [
				173.0
			],
			"min": [
				0.0
			],
			"type": "SCALAR"
		},
		{
			"bufferView": 45,
			"byteOffset": 0,
			"componentType": 5126,
			"count": 174,
			"max": [
				0.9966476559638977,
				0.999996542930603,
				0.998129665851593
			],
			"min": [
				-0.9966473579406738,
				-0.9999966025352478,
				-0.99812912940979
			],
			"type": "VEC3"
		},
		{
			"bufferView": 46,
			"byteOffset": 0,
			"componentType": 5126,
			"count": 174,
			"max": [
				3.0265138149261475,
				5.836119651794434,
				3.666064739227295
			],
			"min": [
				-2.5624656677246094,
				5.652743339538574,
				0.356705904006958
			],
			"type": "VEC3"
		},
		{
			"bufferView": 47,
			"byteOffset": 0,
			"componentType": 5126,
			"count": 174,
			"max": [
				0.9767611622810364,
				0.32287633419036865
			],
			"min": [
				0.6640270352363586,
				0.055168867111206055
			],
			"type": "VEC2"
		}
	],
	"asset": {
		"extras": {
			"created": "Thu Jul  7 06:10:52 2022"
		},
		"generator": "Gestaltor 2022.2.3 Tagliatelle Professional",
		"version": "2.0"
	},
	"bufferViews": [
		{
			"buffer": 0,
			"byteLength": 5328,
			"byteOffset": 0
		},
		{
			"buffer": 0,
			"byteLength": 8520,
			"byteOffset": 5328
		},
		{
			"buffer": 0,
			"byteLength": 8520,
			"byteOffset": 13848
		},
		{
			"buffer": 0,
			"byteLength": 5680,
			"byteOffset": 22368
		},
		{
			"buffer": 0,
			"byteLength": 4692,
			"byteOffset": 28048
		},
		{
			"buffer": 0,
			"byteLength": 6432,
			"byteOffset": 32740
		},
		{
			"buffer": 0,
			"byteLength": 6432,
			"byteOffset": 39172
		},
		{
			"buffer": 0,
			"byteLength": 4288,
			"byteOffset": 45604
		},
		{
			"buffer": 0,
			"byteLength": 7944,
			"byteOffset": 49892
		},
		{
			"buffer": 0,
			"byteLength": 11688,
			"byteOffset": 57836
		},
		{
			"buffer": 0,
			"byteLength": 11688,
			"byteOffset": 69524
		},
		{
			"buffer": 0,
			"byteLength": 7792,
			"byteOffset": 81212
		},
		{
			"buffer": 0,
			"byteLength": 7680,
			"byteOffset": 89004
		},
		{
			"buffer": 0,
			"byteLength": 10980,
			"byteOffset": 96684
		},
		{
			"buffer": 0,
			"byteLength": 10980,
			"byteOffset": 107664
		},
		{
			"buffer": 0,
			"byteLength": 7320,
			"byteOffset": 118644
		},
		{
			"buffer": 0,
			"byteLength": 7680,
			"byteOffset": 125964
		},
		{
			"buffer": 0,
			"byteLength": 10980,
			"byteOffset": 133644
		},
		{
			"buffer": 0,
			"byteLength": 10980,
			"byteOffset": 144624
		},
		{
			"buffer": 0,
			"byteLength": 7320,
			"byteOffset": 155604
		},
		{
			"buffer": 0,
			"byteLength": 4632,
			"byteOffset": 162924
		},
		{
			"buffer": 0,
			"byteLength": 7044,
			"byteOffset": 167556
		},
		{
			"buffer": 0,
			"byteLength": 7044,
			"byteOffset": 174600
		},
		{
			"buffer": 0,
			"byteLength": 4696,
			"byteOffset": 181644
		},
		{
			"buffer": 0,
			"byteLength": 5328,
			"byteOffset": 186340
		},
		{
			"buffer": 0,
			"byteLength": 8424,
			"byteOffset": 191668
		},
		{
			"buffer": 0,
			"byteLength": 8424,
			"byteOffset": 200092
		},
		{
			"buffer": 0,
			"byteLength": 5616,
			"byteOffset": 208516
		},
		{
			"buffer": 0,
			"byteLength": 6264,
			"byteOffset": 214132
		},
		{
			"buffer": 0,
			"byteLength": 8724,
			"byteOffset": 220396
		},
		{
			"buffer": 0,
			"byteLength": 8724,
			"byteOffset": 229120
		},
		{
			"buffer": 0,
			"byteLength": 5816,
			"byteOffset": 237844
		},
		{
			"buffer": 0,
			"byteLength": 3600,
			"byteOffset": 243660
		},
		{
			"buffer": 0,
			"byteLength": 7872,
			"byteOffset": 247260
		},
		{
			"buffer": 0,
			"byteLength": 7872,
			"byteOffset": 255132
		},
		{
			"buffer": 0,
			"byteLength": 5248,
			"byteOffset": 263004
		},
		{
			"buffer": 0,
			"byteLength": 294,
			"byteOffset": 268252
		},
		{
			"buffer": 0,
			"byteLength": 1260,
			"byteOffset": 268548
		},
		{
			"buffer": 0,
			"byteLength": 1260,
			"byteOffset": 269808
		},
		{
			"buffer": 0,
			"byteLength": 840,
			"byteOffset": 271068
		},
		{
			"buffer": 0,
			"byteLength": 6264,
			"byteOffset": 271908
		},
		{
			"buffer": 0,
			"byteLength": 8724,
			"byteOffset": 278172
		},
		{
			"buffer": 0,
			"byteLength": 8724,
			"byteOffset": 286896
		},
		{
			"buffer": 0,
			"byteLength": 5816,
			"byteOffset": 295620
		},
		{
			"buffer": 0,
			"byteLength": 564,
			"byteOffset": 301436
		},
		{
			"buffer": 0,
			"byteLength": 2088,
			"byteOffset": 302000
		},
		{
			"buffer": 0,
			"byteLength": 2088,
			"byteOffset": 304088
		},
		{
			"buffer": 0,
			"byteLength": 1392,
			"byteOffset": 306176
		}
	],
	"buffers": [
		{
			"byteLength": 307568,
			"uri": "data:application/octet-stream;base64,"
		}
	],
	"images": [
		{
			"mimeType": "image/png",
			"name": "StingrayPBS5_baseColor",
			"uri": "data:image/png;base64,"
		},
		{
			"mimeType": "image/png",
			"name": "StingrayPBS5_metallicRoughness",
			"uri": "data:image/png;base64,"
		},
		{
			"mimeType": "image/png",
			"name": "StingrayPBS6_baseColor",
			"uri": "data:image/png;base64,"
		},
		{
			"mimeType": "image/png",
			"name": "StingrayPBS6_metallicRoughness",
			"uri": "data:image/png;base64,"
		}
	],
	"materials": [
		{
			"doubleSided": true,
			"name": "StingrayPBS5",
			"pbrMetallicRoughness": {
				"baseColorTexture": {
					"index": 0
				},
				"metallicRoughnessTexture": {
					"index": 1
				}
			}
		},
		{
			"doubleSided": true,
			"name": "StingrayPBS6",
			"pbrMetallicRoughness": {
				"baseColorTexture": {
					"index": 2
				},
				"metallicRoughnessTexture": {
					"index": 3
				}
			}
		}
	],
	"meshes": [
		{
			"name": "ASIENTO1_StingrayPBS5_0",
			"primitives": [
				{
					"attributes": {
						"NORMAL": 1,
						"POSITION": 2,
						"TEXCOORD_0": 3
					},
					"indices": 0,
					"material": 0,
					"mode": 4
				}
			]
		},
		{
			"name": "EXTRA_StingrayPBS6_0",
			"primitives": [
				{
					"attributes": {
						"NORMAL": 5,
						"POSITION": 6,
						"TEXCOORD_0": 7
					},
					"indices": 4,
					"material": 1,
					"mode": 4
				}
			]
		},
		{
			"name": "PATAS_D_StingrayPBS6_0",
			"primitives": [
				{
					"attributes": {
						"NORMAL": 9,
						"POSITION": 10,
						"TEXCOORD_0": 11
					},
					"indices": 8,
					"material": 1,
					"mode": 4
				}
			]
		},
		{
			"name": "PATAS_D1_StingrayPBS6_0",
			"primitives": [
				{
					"attributes": {
						"NORMAL": 13,
						"POSITION": 14,
						"TEXCOORD_0": 15
					},
					"indices": 12,
					"material": 1,
					"mode": 4
				}
			]
		},
		{
			"name": "PATAS_D2_StingrayPBS6_0",
			"primitives": [
				{
					"attributes": {
						"NORMAL": 17,
						"POSITION": 18,
						"TEXCOORD_0": 19
					},
					"indices": 16,
					"material": 1,
					"mode": 4
				}
			]
		},
		{
			"name": "PATAS_T_StingrayPBS6_0",
			"primitives": [
				{
					"attributes": {
						"NORMAL": 21,
						"POSITION": 22,
						"TEXCOORD_0": 23
					},
					"indices": 20,
					"material": 1,
					"mode": 4
				}
			]
		},
		{
			"name": "RESPALDO1_StingrayPBS5_0",
			"primitives": [
				{
					"attributes": {
						"NORMAL": 25,
						"POSITION": 26,
						"TEXCOORD_0": 27
					},
					"indices": 24,
					"material": 0,
					"mode": 4
				}
			]
		},
		{
			"name": "GANCHO_I_StingrayPBS6_0",
			"primitives": [
				{
					"attributes": {
						"NORMAL": 29,
						"POSITION": 30,
						"TEXCOORD_0": 31
					},
					"indices": 28,
					"material": 1,
					"mode": 4
				}
			]
		},
		{
			"name": "UNION_StingrayPBS6_0",
			"primitives": [
				{
					"attributes": {
						"NORMAL": 33,
						"POSITION": 34,
						"TEXCOORD_0": 35
					},
					"indices": 32,
					"material": 1,
					"mode": 4
				}
			]
		},
		{
			"name": "CAJON_StingrayPBS6_0",
			"primitives": [
				{
					"attributes": {
						"NORMAL": 37,
						"POSITION": 38,
						"TEXCOORD_0": 39
					},
					"indices": 36,
					"material": 1,
					"mode": 4
				}
			]
		},
		{
			"name": "GANCHO_I1_StingrayPBS6_0",
			"primitives": [
				{
					"attributes": {
						"NORMAL": 41,
						"POSITION": 42,
						"TEXCOORD_0": 43
					},
					"indices": 40,
					"material": 1,
					"mode": 4
				}
			]
		},
		{
			"name": "TAPA4_StingrayPBS5_0",
			"primitives": [
				{
					"attributes": {
						"NORMAL": 45,
						"POSITION": 46,
						"TEXCOORD_0": 47
					},
					"indices": 44,
					"material": 0,
					"mode": 4
				}
			]
		}
	],
	"nodes": [
		{
			"matrix": [
				0.2452625036239624,
				0.0,
				0.0,
				0.0,
				0.0,
				-3.295318948747305e-08,
				-0.24526253657715194,
				0.0,
				0.0,
				0.24526253657715194,
				-3.295318948747305e-08,
				0.0,
				-0.09845328330993652,
				-0.10641932487487793,
				-0.36396414041519165,
				1.0
			],
			"name": "RootNode (gltf orientation matrix)"
		},
		{
			"mesh": 0,
			"name": "ASIENTO1_StingrayPBS5_0"
		},
		{
			"children": [
				1
			],
			"name": "ASIENTO1"
		},
		{
			"mesh": 1,
			"name": "EXTRA_StingrayPBS6_0"
		},
		{
			"children": [
				3
			],
			"name": "EXTRA"
		},
		{
			"mesh": 2,
			"name": "PATAS_D_StingrayPBS6_0"
		},
		{
			"children": [
				5
			],
			"name": "PATAS_D"
		},
		{
			"mesh": 3,
			"name": "PATAS_D1_StingrayPBS6_0"
		},
		{
			"children": [
				7
			],
			"name": "PATAS_D1"
		},
		{
			"mesh": 4,
			"name": "PATAS_D2_StingrayPBS6_0"
		},
		{
			"children": [
				9
			],
			"matrix": [
				1.0,
				0.0,
				0.0,
				0.0,
				0.0,
				1.0,
				0.0,
				0.0,
				0.0,
				0.0,
				1.0,
				0.0,
				-4.1701507568359375,
				0.0,
				0.0,
				1.0
			],
			"name": "PATAS_D2"
		},
		{
			"mesh": 5,
			"name": "PATAS_T_StingrayPBS6_0"
		},
		{
			"children": [
				11
			],
			"name": "PATAS_T"
		},
		{
			"mesh": 6,
			"name": "RESPALDO1_StingrayPBS5_0"
		},
		{
			"children": [
				13
			],
			"name": "RESPALDO1"
		},
		{
			"children": [
				2,
				4,
				6,
				8,
				10,
				12,
				14
			],
			"matrix": [
				0.2452625036239624,
				0.0,
				0.0,
				0.0,
				0.0,
				0.2452625036239624,
				0.0,
				0.0,
				0.0,
				0.0,
				0.2452625036239624,
				0.0,
				-0.09845328330993652,
				-0.10641932487487793,
				-0.36396414041519165,
				1.0
			],
			"name": "SILLA"
		},
		{
			"mesh": 7,
			"name": "GANCHO_I_StingrayPBS6_0"
		},
		{
			"children": [
				16
			],
			"matrix": [
				0.2452625036239624,
				0.0,
				0.0,
				0.0,
				0.0,
				0.2452625036239624,
				0.0,
				0.0,
				0.0,
				0.0,
				0.2452625036239624,
				0.0,
				-0.09845328330993652,
				-0.10641932487487793,
				-0.36396414041519165,
				1.0
			],
			"name": "GANCHO_I"
		},
		{
			"mesh": 8,
			"name": "UNION_StingrayPBS6_0"
		},
		{
			"children": [
				18
			],
			"matrix": [
				0.2452625036239624,
				0.0,
				0.0,
				0.0,
				0.0,
				0.2452625036239624,
				0.0,
				0.0,
				0.0,
				0.0,
				0.2452625036239624,
				0.0,
				-0.09845328330993652,
				-0.10641932487487793,
				-0.36396414041519165,
				1.0
			],
			"name": "UNION"
		},
		{
			"mesh": 9,
			"name": "CAJON_StingrayPBS6_0"
		},
		{
			"children": [
				20
			],
			"matrix": [
				0.2452625036239624,
				0.0,
				0.0,
				0.0,
				0.0,
				0.2452625036239624,
				0.0,
				0.0,
				0.0,
				0.0,
				0.2452625036239624,
				0.0,
				-0.09845328330993652,
				-0.10641932487487793,
				-0.36396414041519165,
				1.0
			],
			"name": "CAJON"
		},
		{
			"mesh": 10,
			"name": "GANCHO_I1_StingrayPBS6_0"
		},
		{
			"children": [
				22
			],
			"matrix": [
				-0.2452625036239624,
				0.0,
				0.0,
				-0.0,
				-0.0,
				0.2452625036239624,
				3.003599531202439e-17,
				-0.0,
				-0.0,
				-3.003599531202439e-17,
				0.2452625036239624,
				-0.0,
				0.029907703399658203,
				-0.10641932487487793,
				-0.36396414041519165,
				1.0
			],
			"name": "GANCHO_I1"
		},
		{
			"mesh": 11,
			"name": "TAPA4_StingrayPBS5_0"
		},
		{
			"children": [
				24
			],
			"matrix": [
				0.2452625036239624,
				0.0,
				0.0,
				0.0,
				0.0,
				0.2452625036239624,
				0.0,
				0.0,
				0.0,
				0.0,
				0.2452625036239624,
				0.0,
				-0.09845328330993652,
				-0.10641932487487793,
				-0.36396414041519165,
				1.0
			],
			"name": "TAPA4"
		}
	],
	"samplers": [
		{
			"magFilter": 9729,
			"minFilter": 9987
		}
	],
	"scene": 0,
	"scenes": [
		{
			"name": "Scene",
			"nodes": [
				0,
				15,
				17,
				19,
				21,
				23,
				25
			]
		}
	],
	"textures": [
		{
			"sampler": 0,
			"source": 0
		},
		{
			"sampler": 0,
			"source": 1
		},
		{
			"sampler": 0,
			"source": 2
		},
		{
			"sampler": 0,
			"source": 3
		}
	]
}