{
    "asset" : {
        "generator" : "Khronos glTF Blender I/O v1.8.2",
        "version" : "2.0"
    },
    "scene" : 0,
    "scenes" : [
        {
            "name" : "Scene",
            "nodes" : [
                1
            ]
        }
    ],
    "nodes" : [
        {
            "mesh" : 0,
            "name" : "Plane.002_23",
            "translation" : [
                0.019481483846902847,
                0.02043028734624386,
                0
            ]
        },
        {
            "children" : [
                0
            ],
            "name" : "The BGE-Laboratory Construction Set 1.5",
            "rotation" : [
                -0.7071068286895752,
                0,
                0,
                0.7071067094802856
            ],
            "scale" : [
                345.900390625,
                345.9004211425781,
                345.9004211425781
            ],
            "translation" : [
                0,
                -0.9987801313400269,
                -9.86580562312156e-06
            ]
        }
    ],
    "materials" : [
        {
            "doubleSided" : true,
            "name" : "Material.007",
            "normalTexture" : {
                "index" : 0
            },
            "pbrMetallicRoughness" : {
                "baseColorFactor" : [
                    0.14000000059604645,
                    0.14000000059604645,
                    0.14000000059604645,
                    1
                ],
                "metallicFactor" : 0,
                "roughnessFactor" : 0.6000000238418579
            }
        }
    ],
    "meshes" : [
        {
            "name" : "Plane.002_23",
            "primitives" : [
                {
                    "attributes" : {
                        "POSITION" : 0,
                        "NORMAL" : 1,
                        "TEXCOORD_0" : 2,
                        "TEXCOORD_1" : 3,
                        "TEXCOORD_2" : 4
                    },
                    "indices" : 5,
                    "material" : 0
                }
            ]
        }
    ],
    "textures" : [
        {
            "sampler" : 0,
            "source" : 0
        }
    ],
    "images" : [
        {
            "bufferView" : 6,
            "mimeType" : "image/png",
            "name" : "Material.007_normal"
        }
    ],
    "accessors" : [
        {
            "bufferView" : 0,
            "componentType" : 5126,
            "count" : 728,
            "max" : [
                -0.026019999757409096,
                -0.020239999517798424,
                0.018330000340938568
            ],
            "min" : [
                -0.049150001257658005,
                -0.026019999757409096,
                -1.9999999494757503e-05
            ],
            "type" : "VEC3"
        },
        {
            "bufferView" : 1,
            "componentType" : 5126,
            "count" : 728,
            "type" : "VEC3"
        },
        {
            "bufferView" : 2,
            "componentType" : 5126,
            "count" : 728,
            "type" : "VEC2"
        },
        {
            "bufferView" : 3,
            "componentType" : 5126,
            "count" : 728,
            "type" : "VEC2"
        },
        {
            "bufferView" : 4,
            "componentType" : 5126,
            "count" : 728,
            "type" : "VEC2"
        },
        {
            "bufferView" : 5,
            "componentType" : 5123,
            "count" : 936,
            "type" : "SCALAR"
        }
    ],
    "bufferViews" : [
        {
            "buffer" : 0,
            "byteLength" : 8736,
            "byteOffset" : 0
        },
        {
            "buffer" : 0,
            "byteLength" : 8736,
            "byteOffset" : 8736
        },
        {
            "buffer" : 0,
            "byteLength" : 5824,
            "byteOffset" : 17472
        },
        {
            "buffer" : 0,
            "byteLength" : 5824,
            "byteOffset" : 23296
        },
        {
            "buffer" : 0,
            "byteLength" : 5824,
            "byteOffset" : 29120
        },
        {
            "buffer" : 0,
            "byteLength" : 1872,
            "byteOffset" : 34944
        },
        {
            "buffer" : 0,
            "byteLength" : 49870,
            "byteOffset" : 36816
        }
    ],
    "samplers" : [
        {
            "magFilter" : 9729,
            "minFilter" : 9987
        }
    ],
    "buffers" : [
        {
            "byteLength" : 86688,
            "uri" : "data:application/octet-stream;base64,"
        }
    ]
}
