{
    "asset" : {
        "generator" : "Khronos glTF Blender I/O v1.6.16",
        "version" : "2.0"
    },
    "scene" : 0,
    "scenes" : [
        {
            "extras" : {
                "b_export" : 1,
                "export_path" : "E:\\mur1\\newclassroom\\",
                "s_output" : "exporting...",
                "b_settings" : 1,
                "b_cubemap_background" : 1,
                "b_show_env_sky" : 1,
                "b_camera_cube" : 1,
                "b_cubemap" : 1,
                "b_joystick" : 1,
                "b_stats" : 1,
                "b_cast_shadows" : 1,
                "b_use_default_lights" : 1,
                "b_renderer" : 1,
                "b_aa" : 1,
                "b_colorManagement" : 1,
                "b_physicallyCorrectLights" : 1,
                "b_player" : 1,
                "b_raycast" : 1,
                "b_interactive" : 1,
                "b_bake_lightmap" : 1,
                "b_use_lightmapper" : 1
            },
            "name" : "Scene",
            "nodes" : [
                0
            ]
        }
    ],
    "nodes" : [
        {
            "mesh" : 0,
            "name" : "books.005",
            "rotation" : [
                0,
                1,
                0,
                -1.6292068494294654e-07
            ],
            "scale" : [
                0.4756346344947815,
                0.6083894968032837,
                0.06996779143810272
            ]
        }
    ],
    "materials" : [
        {
            "doubleSided" : true,
            "name" : "book.004",
            "pbrMetallicRoughness" : {
                "baseColorFactor" : [
                    0.8000000715255737,
                    0.3226777911186218,
                    0.19118735194206238,
                    1
                ],
                "metallicFactor" : 0,
                "roughnessFactor" : 0.5
            }
        },
        {
            "doubleSided" : true,
            "name" : "book.003",
            "pbrMetallicRoughness" : {
                "baseColorFactor" : [
                    0.3105064034461975,
                    0.013157856650650501,
                    0.013157856650650501,
                    1
                ],
                "metallicFactor" : 0,
                "roughnessFactor" : 0.5
            }
        },
        {
            "doubleSided" : true,
            "name" : "book.001",
            "pbrMetallicRoughness" : {
                "baseColorFactor" : [
                    0.4248579740524292,
                    0.48126018047332764,
                    0.8000000715255737,
                    1
                ],
                "metallicFactor" : 0,
                "roughnessFactor" : 0.5
            }
        },
        {
            "doubleSided" : true,
            "name" : "book",
            "pbrMetallicRoughness" : {
                "baseColorFactor" : [
                    0.8000000715255737,
                    0.027565034106373787,
                    0.027565034106373787,
                    1
                ],
                "metallicFactor" : 0,
                "roughnessFactor" : 0.5
            }
        }
    ],
    "meshes" : [
        {
            "name" : "Cube.023",
            "primitives" : [
                {
                    "attributes" : {
                        "POSITION" : 0,
                        "NORMAL" : 1
                    },
                    "indices" : 2,
                    "material" : 0
                },
                {
                    "attributes" : {
                        "POSITION" : 3,
                        "NORMAL" : 4
                    },
                    "indices" : 2,
                    "material" : 1
                },
                {
                    "attributes" : {
                        "POSITION" : 5,
                        "NORMAL" : 6
                    },
                    "indices" : 7,
                    "material" : 2
                },
                {
                    "attributes" : {
                        "POSITION" : 8,
                        "NORMAL" : 9
                    },
                    "indices" : 2,
                    "material" : 3
                }
            ]
        }
    ],
    "accessors" : [
        {
            "bufferView" : 0,
            "componentType" : 5126,
            "count" : 32,
            "max" : [
                1.4123663902282715,
                0.8768983483314514,
                -3.8211662769317627
            ],
            "min" : [
                -0.5876335501670837,
                -0.9595229029655457,
                -7.017446041107178
            ],
            "type" : "VEC3"
        },
        {
            "bufferView" : 1,
            "componentType" : 5126,
            "count" : 32,
            "type" : "VEC3"
        },
        {
            "bufferView" : 2,
            "componentType" : 5123,
            "count" : 84,
            "type" : "SCALAR"
        },
        {
            "bufferView" : 3,
            "componentType" : 5126,
            "count" : 32,
            "max" : [
                1.5341315269470215,
                0.8559850454330444,
                -1.5529580116271973
            ],
            "min" : [
                -0.46586841344833374,
                -0.9682393074035645,
                -3.5529580116271973
            ],
            "type" : "VEC3"
        },
        {
            "bufferView" : 4,
            "componentType" : 5126,
            "count" : 32,
            "type" : "VEC3"
        },
        {
            "bufferView" : 5,
            "componentType" : 5126,
            "count" : 64,
            "max" : [
                1.5546278953552246,
                1.0308051109313965,
                3.898009777069092
            ],
            "min" : [
                -0.6203445792198181,
                -0.9691949486732483,
                -1.2866768836975098
            ],
            "type" : "VEC3"
        },
        {
            "bufferView" : 6,
            "componentType" : 5126,
            "count" : 64,
            "type" : "VEC3"
        },
        {
            "bufferView" : 7,
            "componentType" : 5123,
            "count" : 168,
            "type" : "SCALAR"
        },
        {
            "bufferView" : 8,
            "componentType" : 5126,
            "count" : 32,
            "max" : [
                1.4651503562927246,
                1.1311430931091309,
                6.080655574798584
            ],
            "min" : [
                -0.5348495841026306,
                -0.9633756279945374,
                4.080655574798584
            ],
            "type" : "VEC3"
        },
        {
            "bufferView" : 9,
            "componentType" : 5126,
            "count" : 32,
            "type" : "VEC3"
        }
    ],
    "bufferViews" : [
        {
            "buffer" : 0,
            "byteLength" : 384,
            "byteOffset" : 0
        },
        {
            "buffer" : 0,
            "byteLength" : 384,
            "byteOffset" : 384
        },
        {
            "buffer" : 0,
            "byteLength" : 168,
            "byteOffset" : 768
        },
        {
            "buffer" : 0,
            "byteLength" : 384,
            "byteOffset" : 936
        },
        {
            "buffer" : 0,
            "byteLength" : 384,
            "byteOffset" : 1320
        },
        {
            "buffer" : 0,
            "byteLength" : 768,
            "byteOffset" : 1704
        },
        {
            "buffer" : 0,
            "byteLength" : 768,
            "byteOffset" : 2472
        },
        {
            "buffer" : 0,
            "byteLength" : 336,
            "byteOffset" : 3240
        },
        {
            "buffer" : 0,
            "byteLength" : 384,
            "byteOffset" : 3576
        },
        {
            "buffer" : 0,
            "byteLength" : 384,
            "byteOffset" : 3960
        }
    ],
    "buffers" : [
        {
            "byteLength" : 4344,
            "uri" : "data:application/octet-stream;base64,"
        }
    ]
}
