{
    "asset" : {
        "generator" : "Khronos glTF Blender I/O v1.6.16",
        "version" : "2.0"
    },
    "scene" : 0,
    "scenes" : [
        {
            "extras" : {
                "b_export" : 1,
                "export_path" : "E:\\mur1\\newclassroom\\",
                "s_output" : "exporting...",
                "b_settings" : 1,
                "b_cubemap_background" : 1,
                "b_show_env_sky" : 1,
                "b_camera_cube" : 1,
                "b_cubemap" : 1,
                "b_joystick" : 1,
                "b_stats" : 1,
                "b_cast_shadows" : 1,
                "b_use_default_lights" : 1,
                "b_renderer" : 1,
                "b_aa" : 1,
                "b_colorManagement" : 1,
                "b_physicallyCorrectLights" : 1,
                "b_player" : 1,
                "b_raycast" : 1,
                "b_interactive" : 1,
                "b_bake_lightmap" : 1,
                "b_use_lightmapper" : 1
            },
            "name" : "Scene",
            "nodes" : [
                0
            ]
        }
    ],
    "nodes" : [
        {
            "mesh" : 0,
            "name" : "books",
            "scale" : [
                0.373715877532959,
                0.47802406549453735,
                0.054975125938653946
            ]
        }
    ],
    "materials" : [
        {
            "doubleSided" : true,
            "name" : "book.004",
            "pbrMetallicRoughness" : {
                "baseColorFactor" : [
                    0.8000000715255737,
                    0.3226777911186218,
                    0.19118735194206238,
                    1
                ],
                "metallicFactor" : 0,
                "roughnessFactor" : 0.5
            }
        },
        {
            "doubleSided" : true,
            "name" : "pages",
            "pbrMetallicRoughness" : {
                "baseColorFactor" : [
                    0.800000011920929,
                    0.800000011920929,
                    0.800000011920929,
                    1
                ],
                "metallicFactor" : 0,
                "roughnessFactor" : 0.5
            }
        },
        {
            "doubleSided" : true,
            "name" : "book.003",
            "pbrMetallicRoughness" : {
                "baseColorFactor" : [
                    0.3105064034461975,
                    0.013157856650650501,
                    0.013157856650650501,
                    1
                ],
                "metallicFactor" : 0,
                "roughnessFactor" : 0.5
            }
        },
        {
            "doubleSided" : true,
            "name" : "book.002",
            "pbrMetallicRoughness" : {
                "baseColorFactor" : [
                    0.40170538425445557,
                    0.8000000715255737,
                    0.4625014662742615,
                    1
                ],
                "metallicFactor" : 0,
                "roughnessFactor" : 0.5
            }
        },
        {
            "doubleSided" : true,
            "name" : "book.001",
            "pbrMetallicRoughness" : {
                "baseColorFactor" : [
                    0.4248579740524292,
                    0.48126018047332764,
                    0.8000000715255737,
                    1
                ],
                "metallicFactor" : 0,
                "roughnessFactor" : 0.5
            }
        },
        {
            "doubleSided" : true,
            "name" : "book",
            "pbrMetallicRoughness" : {
                "baseColorFactor" : [
                    0.8000000715255737,
                    0.027565034106373787,
                    0.027565034106373787,
                    1
                ],
                "metallicFactor" : 0,
                "roughnessFactor" : 0.5
            }
        }
    ],
    "meshes" : [
        {
            "name" : "Cube.018",
            "primitives" : [
                {
                    "attributes" : {
                        "POSITION" : 0,
                        "NORMAL" : 1
                    },
                    "indices" : 2,
                    "material" : 0
                },
                {
                    "attributes" : {
                        "POSITION" : 3,
                        "NORMAL" : 4
                    },
                    "indices" : 5,
                    "material" : 1
                },
                {
                    "attributes" : {
                        "POSITION" : 6,
                        "NORMAL" : 7
                    },
                    "indices" : 2,
                    "material" : 2
                },
                {
                    "attributes" : {
                        "POSITION" : 8,
                        "NORMAL" : 9
                    },
                    "indices" : 2,
                    "material" : 3
                },
                {
                    "attributes" : {
                        "POSITION" : 10,
                        "NORMAL" : 11
                    },
                    "indices" : 2,
                    "material" : 4
                },
                {
                    "attributes" : {
                        "POSITION" : 12,
                        "NORMAL" : 13
                    },
                    "indices" : 2,
                    "material" : 5
                }
            ]
        }
    ],
    "accessors" : [
        {
            "bufferView" : 0,
            "componentType" : 5126,
            "count" : 32,
            "max" : [
                1.442101240158081,
                0.8508865833282471,
                -3.8258512020111084
            ],
            "min" : [
                -0.5578987002372742,
                -0.98553466796875,
                -7.022131443023682
            ],
            "type" : "VEC3"
        },
        {
            "bufferView" : 1,
            "componentType" : 5126,
            "count" : 32,
            "type" : "VEC3"
        },
        {
            "bufferView" : 2,
            "componentType" : 5123,
            "count" : 84,
            "type" : "SCALAR"
        },
        {
            "bufferView" : 3,
            "componentType" : 5126,
            "count" : 4,
            "max" : [
                -0.5946977734565735,
                0.7581959962844849,
                0.7600713968276978
            ],
            "min" : [
                -0.5946977734565735,
                0.28227654099464417,
                -0.5727294683456421
            ],
            "type" : "VEC3"
        },
        {
            "bufferView" : 4,
            "componentType" : 5126,
            "count" : 4,
            "type" : "VEC3"
        },
        {
            "bufferView" : 5,
            "componentType" : 5123,
            "count" : 6,
            "type" : "SCALAR"
        },
        {
            "bufferView" : 6,
            "componentType" : 5126,
            "count" : 32,
            "max" : [
                1.5638664960861206,
                0.8299732804298401,
                -1.5576428174972534
            ],
            "min" : [
                -0.43613356351852417,
                -0.9942510724067688,
                -3.557642936706543
            ],
            "type" : "VEC3"
        },
        {
            "bufferView" : 7,
            "componentType" : 5126,
            "count" : 32,
            "type" : "VEC3"
        },
        {
            "bufferView" : 8,
            "componentType" : 5126,
            "count" : 32,
            "max" : [
                1.4093903303146362,
                1.0047932863235474,
                1.4787036180496216
            ],
            "min" : [
                -0.5906097292900085,
                -0.9952067136764526,
                -1.291361689567566
            ],
            "type" : "VEC3"
        },
        {
            "bufferView" : 9,
            "componentType" : 5126,
            "count" : 32,
            "type" : "VEC3"
        },
        {
            "bufferView" : 10,
            "componentType" : 5126,
            "count" : 32,
            "max" : [
                1.5843628644943237,
                0.9020000696182251,
                3.893324851989746
            ],
            "min" : [
                -0.41563719511032104,
                -0.9885224103927612,
                1.683817982673645
            ],
            "type" : "VEC3"
        },
        {
            "bufferView" : 11,
            "componentType" : 5126,
            "count" : 32,
            "type" : "VEC3"
        },
        {
            "bufferView" : 12,
            "componentType" : 5126,
            "count" : 32,
            "max" : [
                1.4948853254318237,
                1.1051313877105713,
                6.075970649719238
            ],
            "min" : [
                -0.505114734172821,
                -0.9893873929977417,
                4.075970649719238
            ],
            "type" : "VEC3"
        },
        {
            "bufferView" : 13,
            "componentType" : 5126,
            "count" : 32,
            "type" : "VEC3"
        }
    ],
    "bufferViews" : [
        {
            "buffer" : 0,
            "byteLength" : 384,
            "byteOffset" : 0
        },
        {
            "buffer" : 0,
            "byteLength" : 384,
            "byteOffset" : 384
        },
        {
            "buffer" : 0,
            "byteLength" : 168,
            "byteOffset" : 768
        },
        {
            "buffer" : 0,
            "byteLength" : 48,
            "byteOffset" : 936
        },
        {
            "buffer" : 0,
            "byteLength" : 48,
            "byteOffset" : 984
        },
        {
            "buffer" : 0,
            "byteLength" : 12,
            "byteOffset" : 1032
        },
        {
            "buffer" : 0,
            "byteLength" : 384,
            "byteOffset" : 1044
        },
        {
            "buffer" : 0,
            "byteLength" : 384,
            "byteOffset" : 1428
        },
        {
            "buffer" : 0,
            "byteLength" : 384,
            "byteOffset" : 1812
        },
        {
            "buffer" : 0,
            "byteLength" : 384,
            "byteOffset" : 2196
        },
        {
            "buffer" : 0,
            "byteLength" : 384,
            "byteOffset" : 2580
        },
        {
            "buffer" : 0,
            "byteLength" : 384,
            "byteOffset" : 2964
        },
        {
            "buffer" : 0,
            "byteLength" : 384,
            "byteOffset" : 3348
        },
        {
            "buffer" : 0,
            "byteLength" : 384,
            "byteOffset" : 3732
        }
    ],
    "buffers" : [
        {
            "byteLength" : 4116,
            "uri" : "data:application/octet-stream;base64,"
        }
    ]
}
