{
    "asset" : {
        "generator" : "Khronos glTF Blender I/O v1.6.16",
        "version" : "2.0"
    },
    "scene" : 0,
    "scenes" : [
        {
            "extras" : {
                "b_export" : 1,
                "export_path" : "E:\\mur1\\newclassroom\\",
                "s_output" : "exporting...",
                "b_settings" : 1,
                "b_cubemap_background" : 1,
                "b_show_env_sky" : 1,
                "b_camera_cube" : 1,
                "b_cubemap" : 1,
                "b_joystick" : 1,
                "b_stats" : 1,
                "b_cast_shadows" : 1,
                "b_use_default_lights" : 1,
                "b_renderer" : 1,
                "b_aa" : 1,
                "b_colorManagement" : 1,
                "b_physicallyCorrectLights" : 1,
                "b_player" : 1,
                "b_raycast" : 1,
                "b_interactive" : 1,
                "b_bake_lightmap" : 1,
                "b_use_lightmapper" : 1
            },
            "name" : "Scene",
            "nodes" : [
                0
            ]
        }
    ],
    "nodes" : [
        {
            "mesh" : 0,
            "name" : "books.012",
            "rotation" : [
                0,
                0,
                0,
                -1
            ],
            "scale" : [
                0.4756346344947815,
                0.591525673866272,
                0.06996779143810272
            ]
        }
    ],
    "materials" : [
        {
            "doubleSided" : true,
            "name" : "book.004",
            "pbrMetallicRoughness" : {
                "baseColorFactor" : [
                    0.8000000715255737,
                    0.3226777911186218,
                    0.19118735194206238,
                    1
                ],
                "metallicFactor" : 0,
                "roughnessFactor" : 0.5
            }
        },
        {
            "doubleSided" : true,
            "name" : "pages",
            "pbrMetallicRoughness" : {
                "baseColorFactor" : [
                    0.800000011920929,
                    0.800000011920929,
                    0.800000011920929,
                    1
                ],
                "metallicFactor" : 0,
                "roughnessFactor" : 0.5
            }
        },
        {
            "doubleSided" : true,
            "name" : "book.003",
            "pbrMetallicRoughness" : {
                "baseColorFactor" : [
                    0.3105064034461975,
                    0.013157856650650501,
                    0.013157856650650501,
                    1
                ],
                "metallicFactor" : 0,
                "roughnessFactor" : 0.5
            }
        },
        {
            "doubleSided" : true,
            "name" : "book.002",
            "pbrMetallicRoughness" : {
                "baseColorFactor" : [
                    0.40170538425445557,
                    0.8000000715255737,
                    0.4625014662742615,
                    1
                ],
                "metallicFactor" : 0,
                "roughnessFactor" : 0.5
            }
        },
        {
            "doubleSided" : true,
            "name" : "book.001",
            "pbrMetallicRoughness" : {
                "baseColorFactor" : [
                    0.4248579740524292,
                    0.48126018047332764,
                    0.8000000715255737,
                    1
                ],
                "metallicFactor" : 0,
                "roughnessFactor" : 0.5
            }
        }
    ],
    "meshes" : [
        {
            "name" : "Cube.030",
            "primitives" : [
                {
                    "attributes" : {
                        "POSITION" : 0,
                        "NORMAL" : 1
                    },
                    "indices" : 2,
                    "material" : 0
                },
                {
                    "attributes" : {
                        "POSITION" : 3,
                        "NORMAL" : 4
                    },
                    "indices" : 5,
                    "material" : 1
                },
                {
                    "attributes" : {
                        "POSITION" : 6,
                        "NORMAL" : 7
                    },
                    "indices" : 8,
                    "material" : 2
                },
                {
                    "attributes" : {
                        "POSITION" : 9,
                        "NORMAL" : 10
                    },
                    "indices" : 8,
                    "material" : 3
                },
                {
                    "attributes" : {
                        "POSITION" : 11,
                        "NORMAL" : 12
                    },
                    "indices" : 8,
                    "material" : 4
                }
            ]
        }
    ],
    "accessors" : [
        {
            "bufferView" : 0,
            "componentType" : 5126,
            "count" : 64,
            "max" : [
                1.4933639764785767,
                0.8980531692504883,
                6.338717460632324
            ],
            "min" : [
                -0.5594199299812317,
                -0.9444157481193542,
                -6.7593841552734375
            ],
            "type" : "VEC3"
        },
        {
            "bufferView" : 1,
            "componentType" : 5126,
            "count" : 64,
            "type" : "VEC3"
        },
        {
            "bufferView" : 2,
            "componentType" : 5123,
            "count" : 168,
            "type" : "SCALAR"
        },
        {
            "bufferView" : 3,
            "componentType" : 5126,
            "count" : 4,
            "max" : [
                -0.5642722249031067,
                0.6739851832389832,
                -4.361844539642334
            ],
            "min" : [
                -0.5642722249031067,
                0.2636394202709198,
                -5.960644245147705
            ],
            "type" : "VEC3"
        },
        {
            "bufferView" : 4,
            "componentType" : 5126,
            "count" : 4,
            "type" : "VEC3"
        },
        {
            "bufferView" : 5,
            "componentType" : 5123,
            "count" : 6,
            "type" : "SCALAR"
        },
        {
            "bufferView" : 6,
            "componentType" : 5126,
            "count" : 32,
            "max" : [
                1.5828415155410767,
                0.9469717144966125,
                4.156071662902832
            ],
            "min" : [
                -0.41715842485427856,
                -0.9435507655143738,
                1.9465645551681519
            ],
            "type" : "VEC3"
        },
        {
            "bufferView" : 7,
            "componentType" : 5126,
            "count" : 32,
            "type" : "VEC3"
        },
        {
            "bufferView" : 8,
            "componentType" : 5123,
            "count" : 84,
            "type" : "SCALAR"
        },
        {
            "bufferView" : 9,
            "componentType" : 5126,
            "count" : 32,
            "max" : [
                1.5623451471328735,
                0.6375295519828796,
                -1.2948962450027466
            ],
            "min" : [
                -0.4376547932624817,
                -0.9492794275283813,
                -3.294896364212036
            ],
            "type" : "VEC3"
        },
        {
            "bufferView" : 10,
            "componentType" : 5126,
            "count" : 32,
            "type" : "VEC3"
        },
        {
            "bufferView" : 11,
            "componentType" : 5126,
            "count" : 32,
            "max" : [
                1.4078689813613892,
                1.1152253150939941,
                1.7414501905441284
            ],
            "min" : [
                -0.5921309590339661,
                -0.9502350687980652,
                -1.028615117073059
            ],
            "type" : "VEC3"
        },
        {
            "bufferView" : 12,
            "componentType" : 5126,
            "count" : 32,
            "type" : "VEC3"
        }
    ],
    "bufferViews" : [
        {
            "buffer" : 0,
            "byteLength" : 768,
            "byteOffset" : 0
        },
        {
            "buffer" : 0,
            "byteLength" : 768,
            "byteOffset" : 768
        },
        {
            "buffer" : 0,
            "byteLength" : 336,
            "byteOffset" : 1536
        },
        {
            "buffer" : 0,
            "byteLength" : 48,
            "byteOffset" : 1872
        },
        {
            "buffer" : 0,
            "byteLength" : 48,
            "byteOffset" : 1920
        },
        {
            "buffer" : 0,
            "byteLength" : 12,
            "byteOffset" : 1968
        },
        {
            "buffer" : 0,
            "byteLength" : 384,
            "byteOffset" : 1980
        },
        {
            "buffer" : 0,
            "byteLength" : 384,
            "byteOffset" : 2364
        },
        {
            "buffer" : 0,
            "byteLength" : 168,
            "byteOffset" : 2748
        },
        {
            "buffer" : 0,
            "byteLength" : 384,
            "byteOffset" : 2916
        },
        {
            "buffer" : 0,
            "byteLength" : 384,
            "byteOffset" : 3300
        },
        {
            "buffer" : 0,
            "byteLength" : 384,
            "byteOffset" : 3684
        },
        {
            "buffer" : 0,
            "byteLength" : 384,
            "byteOffset" : 4068
        }
    ],
    "buffers" : [
        {
            "byteLength" : 4452,
            "uri" : "data:application/octet-stream;base64,"
        }
    ]
}
