{"accessors":[{"bufferView":0,"byteOffset":0,"componentType":5126,"count":50,"max":[2.0],"min":[0.0],"type":"SCALAR"},{"bufferView":1,"byteOffset":0,"componentType":5126,"count":50,"max":[0.6000000238418579,0.0,-0.0],"min":[0.0,0.0,-0.0],"normalized":false,"type":"VEC3"},{"bufferView":2,"byteOffset":0,"componentType":5126,"count":50,"max":[2.0],"min":[0.0],"type":"SCALAR"},{"bufferView":3,"byteOffset":0,"componentType":5126,"count":50,"max":[0.0,0.0,-0.0],"min":[-0.6000000238418579,0.0,-0.0],"normalized":false,"type":"VEC3"},{"bufferView":4,"byteOffset":0,"componentType":5123,"count":672,"max":[273.0],"min":[0.0],"type":"SCALAR"},{"bufferView":5,"byteOffset":0,"componentType":5126,"count":274,"max":[1.0,1.0,1.0],"min":[-1.0,-1.0,-1.0],"type":"VEC3"},{"bufferView":6,"byteOffset":0,"componentType":5126,"count":274,"max":[70.09651947021484,219.73214721679688,15.0],"min":[-69.90348052978516,-0.26785188913345337,-15.0],"type":"VEC3"},{"bufferView":7,"byteOffset":0,"componentType":5126,"count":274,"max":[200.0,71.0],"min":[-269.5628967285156,-69.0],"type":"VEC2"},{"bufferView":8,"byteOffset":0,"componentType":5123,"count":936,"max":[287.0],"min":[0.0],"type":"SCALAR"},{"bufferView":9,"byteOffset":0,"componentType":5126,"count":288,"max":[1.0,1.0,1.0],"min":[-1.0,-1.0,-1.0],"type":"VEC3"},{"bufferView":10,"byteOffset":0,"componentType":5126,"count":288,"max":[12.205146789550781,121.9423828125,4.0],"min":[7.2051472663879395,116.94160461425781,-4.0],"type":"VEC3"},{"bufferView":11,"byteOffset":0,"componentType":5126,"count":288,"max":[4.0,8.071199417114258],"min":[-4.0,-6.071199417114258],"type":"VEC2"},{"bufferView":12,"byteOffset":0,"componentType":5123,"count":936,"max":[287.0],"min":[0.0],"type":"SCALAR"},{"bufferView":13,"byteOffset":0,"componentType":5126,"count":288,"max":[1.0,1.0,1.0],"min":[-1.0,-1.0,-1.0],"type":"VEC3"},{"bufferView":14,"byteOffset":0,"componentType":5126,"count":288,"max":[12.205146789550781,141.9423828125,4.0],"min":[7.2051472663879395,136.9416046142578,-4.0],"type":"VEC3"},{"bufferView":15,"byteOffset":0,"componentType":5126,"count":288,"max":[4.0,8.071199417114258],"min":[-4.0,-6.071199417114258],"type":"VEC2"},{"bufferView":16,"byteOffset":0,"componentType":5123,"count":936,"max":[287.0],"min":[0.0],"type":"SCALAR"},{"bufferView":17,"byteOffset":0,"componentType":5126,"count":288,"max":[1.0,1.0,1.0],"min":[-1.0,-1.0,-1.0],"type":"VEC3"},{"bufferView":18,"byteOffset":0,"componentType":5126,"count":288,"max":[12.205146789550781,161.9423828125,4.0],"min":[7.2051472663879395,156.9416046142578,-4.0],"type":"VEC3"},{"bufferView":19,"byteOffset":0,"componentType":5126,"count":288,"max":[4.0,8.071199417114258],"min":[-4.0,-6.071199417114258],"type":"VEC2"},{"bufferView":20,"byteOffset":0,"componentType":5123,"count":936,"max":[287.0],"min":[0.0],"type":"SCALAR"},{"bufferView":21,"byteOffset":0,"componentType":5126,"count":288,"max":[1.0,1.0,1.0],"min":[-1.0,-1.0,-1.0],"type":"VEC3"},{"bufferView":22,"byteOffset":0,"componentType":5126,"count":288,"max":[12.205146789550781,181.9423828125,4.0],"min":[7.2051472663879395,176.9416046142578,-4.0],"type":"VEC3"},{"bufferView":23,"byteOffset":0,"componentType":5126,"count":288,"max":[4.0,8.071199417114258],"min":[-4.0,-6.071199417114258],"type":"VEC2"},{"bufferView":24,"byteOffset":0,"componentType":5123,"count":12744,"max":[3017.0],"min":[0.0],"type":"SCALAR"},{"bufferView":25,"byteOffset":0,"componentType":5126,"count":3018,"max":[1.0000001192092896,1.0,1.0000001192092896],"min":[-1.0000001192092896,-1.0,-1.0],"type":"VEC3"},{"bufferView":26,"byteOffset":0,"componentType":5126,"count":3018,"max":[49.941612243652344,199.4423828125,5.0],"min":[-10.058389663696289,-0.5576182007789612,-5.0],"type":"VEC3"},{"bufferView":27,"byteOffset":0,"componentType":5126,"count":3018,"max":[200.0,101.0],"min":[-50.0,-99.0],"type":"VEC2"},{"bufferView":28,"byteOffset":0,"componentType":5121,"count":558,"max":[182.0],"min":[0.0],"type":"SCALAR"},{"bufferView":29,"byteOffset":0,"componentType":5126,"count":183,"max":[0.9999999403953552,1.0,1.0],"min":[-1.0,-0.9999999403953552,-1.0],"type":"VEC3"},{"bufferView":30,"byteOffset":0,"componentType":5126,"count":183,"max":[40.038734436035156,89.96541595458984,0.5],"min":[20.00684356689453,9.96086597442627,-0.0],"type":"VEC3"},{"bufferView":31,"byteOffset":0,"componentType":5126,"count":183,"max":[70.0,41.00227355957031],"min":[-10.015945434570313,-39.00227355957031],"type":"VEC2"},{"bufferView":32,"byteOffset":0,"componentType":5121,"count":558,"max":[182.0],"min":[0.0],"type":"SCALAR"},{"bufferView":33,"byteOffset":0,"componentType":5126,"count":183,"max":[0.9999999403953552,0.9999999403953552,1.0],"min":[-0.9999999403953552,-0.9999999403953552,-1.0],"type":"VEC3"},{"bufferView":34,"byteOffset":0,"componentType":5126,"count":183,"max":[39.99317169189453,189.9654083251953,0.5],"min":[19.96128273010254,109.96085357666016,-0.5],"type":"VEC3"},{"bufferView":35,"byteOffset":0,"componentType":5126,"count":183,"max":[70.0,41.00227355957031],"min":[-10.015945434570313,-39.00227355957031],"type":"VEC2"},{"bufferView":36,"byteOffset":0,"componentType":5123,"count":936,"max":[287.0],"min":[0.0],"type":"SCALAR"},{"bufferView":37,"byteOffset":0,"componentType":5126,"count":288,"max":[1.0,1.0,1.0],"min":[-1.0,-1.0,-1.0],"type":"VEC3"},{"bufferView":38,"byteOffset":0,"componentType":5126,"count":288,"max":[-7.7948527336120605,21.942380905151367,4.0],"min":[-12.794853210449219,16.941606521606445,-4.0],"type":"VEC3"},{"bufferView":39,"byteOffset":0,"componentType":5126,"count":288,"max":[4.0,8.071199417114258],"min":[-4.0,-6.071199417114258],"type":"VEC2"},{"bufferView":40,"byteOffset":0,"componentType":5123,"count":936,"max":[287.0],"min":[0.0],"type":"SCALAR"},{"bufferView":41,"byteOffset":0,"componentType":5126,"count":288,"max":[1.0,1.0,1.0],"min":[-1.0,-1.0,-1.0],"type":"VEC3"},{"bufferView":42,"byteOffset":0,"componentType":5126,"count":288,"max":[-7.7948527336120605,41.9423828125,4.0],"min":[-12.794853210449219,36.94160842895508,-4.0],"type":"VEC3"},{"bufferView":43,"byteOffset":0,"componentType":5126,"count":288,"max":[4.0,8.071199417114258],"min":[-4.0,-6.071199417114258],"type":"VEC2"},{"bufferView":44,"byteOffset":0,"componentType":5123,"count":936,"max":[287.0],"min":[0.0],"type":"SCALAR"},{"bufferView":45,"byteOffset":0,"componentType":5126,"count":288,"max":[1.0,1.0,1.0],"min":[-1.0,-1.0,-1.0],"type":"VEC3"},{"bufferView":46,"byteOffset":0,"componentType":5126,"count":288,"max":[-7.7948527336120605,61.9423828125,4.0],"min":[-12.794853210449219,56.94160842895508,-4.0],"type":"VEC3"},{"bufferView":47,"byteOffset":0,"componentType":5126,"count":288,"max":[4.0,8.071199417114258],"min":[-4.0,-6.071199417114258],"type":"VEC2"},{"bufferView":48,"byteOffset":0,"componentType":5123,"count":936,"max":[287.0],"min":[0.0],"type":"SCALAR"},{"bufferView":49,"byteOffset":0,"componentType":5126,"count":288,"max":[1.0,1.0,1.0],"min":[-1.0,-1.0,-1.0],"type":"VEC3"},{"bufferView":50,"byteOffset":0,"componentType":5126,"count":288,"max":[-7.7948527336120605,81.9423828125,4.0],"min":[-12.794853210449219,76.94160461425781,-4.0],"type":"VEC3"},{"bufferView":51,"byteOffset":0,"componentType":5126,"count":288,"max":[4.0,8.071199417114258],"min":[-4.0,-6.071199417114258],"type":"VEC2"},{"bufferView":52,"byteOffset":0,"componentType":5123,"count":12750,"max":[3018.0],"min":[0.0],"type":"SCALAR"},{"bufferView":53,"byteOffset":0,"componentType":5126,"count":3019,"max":[1.0000001192092896,1.0,1.0000001192092896],"min":[-1.0000001192092896,-1.0000001192092896,-1.0],"type":"VEC3"},{"bufferView":54,"byteOffset":0,"componentType":5126,"count":3019,"max":[10.00428581237793,199.4423828125,5.0],"min":[-50.058387756347656,-0.5576182007789612,-5.0],"type":"VEC3"},{"bufferView":55,"byteOffset":0,"componentType":5126,"count":3019,"max":[200.0,101.0],"min":[-50.0,-99.0],"type":"VEC2"},{"bufferView":56,"byteOffset":0,"componentType":5121,"count":558,"max":[182.0],"min":[0.0],"type":"SCALAR"},{"bufferView":57,"byteOffset":0,"componentType":5126,"count":183,"max":[1.0,1.0,1.0],"min":[-1.0,-1.0,-1.0],"type":"VEC3"},{"bufferView":58,"byteOffset":0,"componentType":5126,"count":183,"max":[-20.05838966369629,89.4423828125,0.5],"min":[-40.058387756347656,9.442381858825684,-0.5],"type":"VEC3"},{"bufferView":59,"byteOffset":0,"componentType":5126,"count":183,"max":[70.0,41.0],"min":[-10.0,-39.0],"type":"VEC2"},{"bufferView":60,"byteOffset":0,"componentType":5121,"count":558,"max":[182.0],"min":[0.0],"type":"SCALAR"},{"bufferView":61,"byteOffset":0,"componentType":5126,"count":183,"max":[1.0,1.0,1.0],"min":[-1.0,-1.0,-1.0],"type":"VEC3"},{"bufferView":62,"byteOffset":0,"componentType":5126,"count":183,"max":[-20.05838966369629,189.4423828125,0.5],"min":[-40.058387756347656,109.4423828125,-0.5],"type":"VEC3"},{"bufferView":63,"byteOffset":0,"componentType":5126,"count":183,"max":[71.19999694824219,41.0],"min":[-10.0,-39.0],"type":"VEC2"},{"bufferView":64,"byteOffset":0,"componentType":5126,"count":50,"max":[2.0],"min":[0.0],"type":"SCALAR"},{"bufferView":65,"byteOffset":0,"componentType":5126,"count":50,"max":[0.6000000238418579,0.0,-0.0],"min":[0.0,0.0,-0.0],"normalized":false,"type":"VEC3"},{"bufferView":66,"byteOffset":0,"componentType":5126,"count":50,"max":[2.0],"min":[0.0],"type":"SCALAR"},{"bufferView":67,"byteOffset":0,"componentType":5126,"count":50,"max":[0.0,0.0,-0.0],"min":[-0.6000000238418579,0.0,-0.0],"normalized":false,"type":"VEC3"}],"animations":[{"channels":[{"sampler":0,"target":{"node":11,"path":"translation"}},{"sampler":1,"target":{"node":20,"path":"translation"}}],"name":"ouvrir","samplers":[{"input":0,"interpolation":"LINEAR","output":1},{"input":2,"interpolation":"LINEAR","output":3}]},{"channels":[{"sampler":0,"target":{"node":11,"path":"translation"}},{"sampler":1,"target":{"node":20,"path":"translation"}}],"name":"fermer","samplers":[{"input":64,"interpolation":"LINEAR","output":65},{"input":66,"interpolation":"LINEAR","output":67}]}],"asset":{"extras":{"created":"Wed Oct 26 03:01:55 2022"},"generator":"Gestaltor 2022.4.0 Pappardelle Professional","version":"2.0"},"bufferViews":[{"buffer":0,"byteLength":200,"byteOffset":0},{"buffer":0,"byteLength":600,"byteOffset":200},{"buffer":0,"byteLength":200,"byteOffset":800},{"buffer":0,"byteLength":600,"byteOffset":1000},{"buffer":0,"byteLength":1344,"byteOffset":1600},{"buffer":0,"byteLength":3288,"byteOffset":2944},{"buffer":0,"byteLength":3288,"byteOffset":6232},{"buffer":0,"byteLength":2192,"byteOffset":9520},{"buffer":0,"byteLength":1872,"byteOffset":11712},{"buffer":0,"byteLength":3456,"byteOffset":13584},{"buffer":0,"byteLength":3456,"byteOffset":17040},{"buffer":0,"byteLength":2304,"byteOffset":20496},{"buffer":0,"byteLength":1872,"byteOffset":22800},{"buffer":0,"byteLength":3456,"byteOffset":24672},{"buffer":0,"byteLength":3456,"byteOffset":28128},{"buffer":0,"byteLength":2304,"byteOffset":31584},{"buffer":0,"byteLength":1872,"byteOffset":33888},{"buffer":0,"byteLength":3456,"byteOffset":35760},{"buffer":0,"byteLength":3456,"byteOffset":39216},{"buffer":0,"byteLength":2304,"byteOffset":42672},{"buffer":0,"byteLength":1872,"byteOffset":44976},{"buffer":0,"byteLength":3456,"byteOffset":46848},{"buffer":0,"byteLength":3456,"byteOffset":50304},{"buffer":0,"byteLength":2304,"byteOffset":53760},{"buffer":0,"byteLength":25488,"byteOffset":56064},{"buffer":0,"byteLength":36216,"byteOffset":81552},{"buffer":0,"byteLength":36216,"byteOffset":117768},{"buffer":0,"byteLength":24144,"byteOffset":153984},{"buffer":0,"byteLength":558,"byteOffset":178128},{"buffer":0,"byteLength":2196,"byteOffset":178688},{"buffer":0,"byteLength":2196,"byteOffset":180884},{"buffer":0,"byteLength":1464,"byteOffset":183080},{"buffer":0,"byteLength":558,"byteOffset":184544},{"buffer":0,"byteLength":2196,"byteOffset":185104},{"buffer":0,"byteLength":2196,"byteOffset":187300},{"buffer":0,"byteLength":1464,"byteOffset":189496},{"buffer":0,"byteLength":1872,"byteOffset":190960},{"buffer":0,"byteLength":3456,"byteOffset":192832},{"buffer":0,"byteLength":3456,"byteOffset":196288},{"buffer":0,"byteLength":2304,"byteOffset":199744},{"buffer":0,"byteLength":1872,"byteOffset":202048},{"buffer":0,"byteLength":3456,"byteOffset":203920},{"buffer":0,"byteLength":3456,"byteOffset":207376},{"buffer":0,"byteLength":2304,"byteOffset":210832},{"buffer":0,"byteLength":1872,"byteOffset":213136},{"buffer":0,"byteLength":3456,"byteOffset":215008},{"buffer":0,"byteLength":3456,"byteOffset":218464},{"buffer":0,"byteLength":2304,"byteOffset":221920},{"buffer":0,"byteLength":1872,"byteOffset":224224},{"buffer":0,"byteLength":3456,"byteOffset":226096},{"buffer":0,"byteLength":3456,"byteOffset":229552},{"buffer":0,"byteLength":2304,"byteOffset":233008},{"buffer":0,"byteLength":25500,"byteOffset":235312},{"buffer":0,"byteLength":36228,"byteOffset":260812},{"buffer":0,"byteLength":36228,"byteOffset":297040},{"buffer":0,"byteLength":24152,"byteOffset":333268},{"buffer":0,"byteLength":558,"byteOffset":357420},{"buffer":0,"byteLength":2196,"byteOffset":357980},{"buffer":0,"byteLength":2196,"byteOffset":360176},{"buffer":0,"byteLength":1464,"byteOffset":362372},{"buffer":0,"byteLength":558,"byteOffset":363836},{"buffer":0,"byteLength":2196,"byteOffset":364396},{"buffer":0,"byteLength":2196,"byteOffset":366592},{"buffer":0,"byteLength":1464,"byteOffset":368788},{"buffer":0,"byteLength":200,"byteOffset":370252},{"buffer":0,"byteLength":600,"byteOffset":370452},{"buffer":0,"byteLength":200,"byteOffset":371052},{"buffer":0,"byteLength":600,"byteOffset":371252}],"buffers":[{"byteLength":371852,"uri":"data:application/octet-stream;base64,"}],"extensionsUsed":["KHR_materials_emissive_strength"],"materials":[{"doubleSided":true,"name":"Aluminum - Anodized Glossy (Blue)","pbrMetallicRoughness":{"baseColorFactor":[0.3490196168422699,0.5843137502670288,0.8549019694328308,1.0],"roughnessFactor":0.5527864098548889}},{"doubleSided":true,"emissiveFactor":[0.0,1.0,0.0],"extensions":{"KHR_materials_emissive_strength":{"emissiveStrength":100.0}},"name":"LED (Green)"},{"doubleSided":true,"emissiveFactor":[1.0,0.0,0.0],"extensions":{"KHR_materials_emissive_strength":{"emissiveStrength":100.0}},"name":"LED (Red)"},{"doubleSided":true,"emissiveFactor":[0.0,0.0,1.0],"extensions":{"KHR_materials_emissive_strength":{"emissiveStrength":100.0}},"name":"LED (Blue)","pbrMetallicRoughness":{"baseColorFactor":[0.1882352977991104,0.23137255012989044,0.5882353186607361,1.0],"roughnessFactor":0.5527864098548889}},{"doubleSided":true,"name":"Steel - Galvanized (Small)","pbrMetallicRoughness":{"baseColorFactor":[0.0,0.0,0.0,1.0],"roughnessFactor":0.5527864098548889}},{"alphaMode":"BLEND","doubleSided":true,"name":"Glass - Window","pbrMetallicRoughness":{"baseColorFactor":[0.42352941632270813,0.7686274647712708,0.8549019694328308,0.20000000298023224],"roughnessFactor":0.5527864098548889}}],"meshes":[{"name":"Body1","primitives":[{"attributes":{"NORMAL":5,"POSITION":6,"TEXCOORD_0":7},"indices":4,"material":0,"mode":4}]},{"name":"ld1","primitives":[{"attributes":{"NORMAL":9,"POSITION":10,"TEXCOORD_0":11},"indices":8,"material":1,"mode":4}]},{"name":"ld2","primitives":[{"attributes":{"NORMAL":13,"POSITION":14,"TEXCOORD_0":15},"indices":12,"material":2,"mode":4}]},{"name":"ld3","primitives":[{"attributes":{"NORMAL":17,"POSITION":18,"TEXCOORD_0":19},"indices":16,"material":3,"mode":4}]},{"name":"ld4","primitives":[{"attributes":{"NORMAL":21,"POSITION":22,"TEXCOORD_0":23},"indices":20,"material":1,"mode":4}]},{"name":"pd","primitives":[{"attributes":{"NORMAL":25,"POSITION":26,"TEXCOORD_0":27},"indices":24,"material":4,"mode":4}]},{"name":"vdb","primitives":[{"attributes":{"NORMAL":29,"POSITION":30,"TEXCOORD_0":31},"indices":28,"material":5,"mode":4}]},{"name":"vdh","primitives":[{"attributes":{"NORMAL":33,"POSITION":34,"TEXCOORD_0":35},"indices":32,"material":5,"mode":4}]},{"name":"lg1","primitives":[{"attributes":{"NORMAL":37,"POSITION":38,"TEXCOORD_0":39},"indices":36,"material":1,"mode":4}]},{"name":"lg2","primitives":[{"attributes":{"NORMAL":41,"POSITION":42,"TEXCOORD_0":43},"indices":40,"material":2,"mode":4}]},{"name":"lg3","primitives":[{"attributes":{"NORMAL":45,"POSITION":46,"TEXCOORD_0":47},"indices":44,"material":3,"mode":4}]},{"name":"lg4","primitives":[{"attributes":{"NORMAL":49,"POSITION":50,"TEXCOORD_0":51},"indices":48,"material":1,"mode":4}]},{"name":"pg","primitives":[{"attributes":{"NORMAL":53,"POSITION":54,"TEXCOORD_0":55},"indices":52,"material":4,"mode":4}]},{"name":"vgb","primitives":[{"attributes":{"NORMAL":57,"POSITION":58,"TEXCOORD_0":59},"indices":56,"material":5,"mode":4}]},{"name":"vgh","primitives":[{"attributes":{"NORMAL":61,"POSITION":62,"TEXCOORD_0":63},"indices":60,"material":5,"mode":4}]}],"nodes":[{"matrix":[0.009999999776482582,0.0,0.0,0.0,0.0,0.009999999776482582,0.0,0.0,0.0,0.0,0.009999999776482582,0.0,0.0,0.0,0.0,1.0],"mesh":0,"name":"Body1"},{"children":[0],"name":"Cadre"},{"children":[1],"name":"Cadre:1"},{"matrix":[0.009999999776482582,0.0,0.0,0.0,0.0,0.009999999776482582,0.0,0.0,0.0,0.0,0.009999999776482582,0.0,0.0,0.0,0.0,1.0],"mesh":1,"name":"ld1"},{"matrix":[0.009999999776482582,0.0,0.0,0.0,0.0,0.009999999776482582,0.0,0.0,0.0,0.0,0.009999999776482582,0.0,0.0,0.0,0.0,1.0],"mesh":2,"name":"ld2"},{"matrix":[0.009999999776482582,0.0,0.0,0.0,0.0,0.009999999776482582,0.0,0.0,0.0,0.0,0.009999999776482582,0.0,0.0,0.0,0.0,1.0],"mesh":3,"name":"ld3"},{"matrix":[0.009999999776482582,0.0,0.0,0.0,0.0,0.009999999776482582,0.0,0.0,0.0,0.0,0.009999999776482582,0.0,0.0,0.0,0.0,1.0],"mesh":4,"name":"ld4"},{"matrix":[0.009999999776482582,0.0,0.0,0.0,0.0,0.009999999776482582,0.0,0.0,0.0,0.0,0.009999999776482582,0.0,0.0,0.0,0.0,1.0],"mesh":5,"name":"pd"},{"matrix":[0.009999999776482582,0.0,0.0,0.0,0.0,0.009999999776482582,0.0,0.0,0.0,0.0,0.009999999776482582,0.0,0.0,0.0,0.0,1.0],"mesh":6,"name":"vdb"},{"matrix":[0.009999999776482582,0.0,0.0,0.0,0.0,0.009999999776482582,0.0,0.0,0.0,0.0,0.009999999776482582,0.0,0.0,0.0,0.0,1.0],"mesh":7,"name":"vdh"},{"children":[3,4,5,6,7,8,9],"name":"Porte droite"},{"children":[10],"name":"Porte droite:1","translation":[0.0,0.0,0.0]},{"matrix":[0.009999999776482582,0.0,0.0,0.0,0.0,0.009999999776482582,0.0,0.0,0.0,0.0,0.009999999776482582,0.0,0.0,0.0,0.0,1.0],"mesh":8,"name":"lg1"},{"matrix":[0.009999999776482582,0.0,0.0,0.0,0.0,0.009999999776482582,0.0,0.0,0.0,0.0,0.009999999776482582,0.0,0.0,0.0,0.0,1.0],"mesh":9,"name":"lg2"},{"matrix":[0.009999999776482582,0.0,0.0,0.0,0.0,0.009999999776482582,0.0,0.0,0.0,0.0,0.009999999776482582,0.0,0.0,0.0,0.0,1.0],"mesh":10,"name":"lg3"},{"matrix":[0.009999999776482582,0.0,0.0,0.0,0.0,0.009999999776482582,0.0,0.0,0.0,0.0,0.009999999776482582,0.0,0.0,0.0,0.0,1.0],"mesh":11,"name":"lg4"},{"matrix":[0.009999999776482582,0.0,0.0,0.0,0.0,0.009999999776482582,0.0,0.0,0.0,0.0,0.009999999776482582,0.0,0.0,0.0,0.0,1.0],"mesh":12,"name":"pg"},{"matrix":[0.009999999776482582,0.0,0.0,0.0,0.0,0.009999999776482582,0.0,0.0,0.0,0.0,0.009999999776482582,0.0,0.0,0.0,0.0,1.0],"mesh":13,"name":"vgb"},{"matrix":[0.009999999776482582,0.0,0.0,0.0,0.0,0.009999999776482582,0.0,0.0,0.0,0.0,0.009999999776482582,0.0,0.0,0.0,0.0,1.0],"mesh":14,"name":"vgh"},{"children":[12,13,14,15,16,17,18],"matrix":[1.0,0.0,0.0,0.0,0.0,1.0,0.0,0.0,0.0,0.0,1.0,0.0,0.0,0.0,0.0,1.0],"name":"Porte gauche"},{"children":[19],"name":"Porte gauche:1","translation":[0.0,0.0,0.0]},{"children":[2,11,20],"matrix":[-1.3435885648505064e-07,0.0,0.9999999657714511,0.0,0.0,1.0,0.0,0.0,-0.9999999657714511,0.0,-1.3435885648505064e-07,0.0,0.0,0.0,0.0,1.0],"name":"portem v1"}],"scene":0,"scenes":[{"name":"Scene","nodes":[21]}]}