{
	"accessors": [
		{
			"bufferView": 0,
			"byteOffset": 0,
			"componentType": 5123,
			"count": 9504,
			"max": [
				3041.0
			],
			"min": [
				0.0
			],
			"type": "SCALAR"
		},
		{
			"bufferView": 1,
			"byteOffset": 0,
			"componentType": 5126,
			"count": 3042,
			"max": [
				1.0,
				1.0,
				1.0
			],
			"min": [
				-1.0,
				-1.0,
				-1.0
			],
			"type": "VEC3"
		},
		{
			"bufferView": 2,
			"byteOffset": 0,
			"componentType": 5126,
			"count": 3042,
			"max": [
				5.490965366363525,
				21.39432716369629,
				2.510587692260742
			],
			"min": [
				-5.489934921264648,
				-0.010785798542201519,
				-2.510587692260742
			],
			"type": "VEC3"
		},
		{
			"bufferView": 3,
			"byteOffset": 0,
			"componentType": 5126,
			"count": 3042,
			"max": [
				0.9957431554794312,
				0.9970353245735168
			],
			"min": [
				0.002567991614341736,
				0.002964794635772705
			],
			"type": "VEC2"
		}
	],
	"asset": {
		"extras": {
			"created": "Mon Oct 17 09:15:14 2022"
		},
		"generator": "Gestaltor 2022.4.0 Pappardelle Professional",
		"version": "2.0"
	},
	"bufferViews": [
		{
			"buffer": 0,
			"byteLength": 19008,
			"byteOffset": 0
		},
		{
			"buffer": 0,
			"byteLength": 36504,
			"byteOffset": 19008
		},
		{
			"buffer": 0,
			"byteLength": 36504,
			"byteOffset": 55512
		},
		{
			"buffer": 0,
			"byteLength": 24336,
			"byteOffset": 92016
		}
	],
	"buffers": [
		{
			"byteLength": 116352,
			"uri": "data:application/octet-stream;base64,"
		}
	],
	"images": [
		{
			"mimeType": "image/jpeg",
			"name": "steel_frame_shelves_01_nor_gl",
			"uri": "data:image/jpeg;base64,"
		},
		{
			"mimeType": "image/jpeg",
			"name": "steel_frame_shelves_01_diff",
			"uri": "data:image/jpeg;base64,"
		},
		{
			"mimeType": "image/jpeg",
			"name": "steel_frame_shelves_01_metal-steel_frame_shelves_01_rough",
			"uri": "data:image/jpeg;base64,"
		}
	],
	"materials": [
		{
			"doubleSided": true,
			"name": "steel_frame_shelves_01",
			"normalTexture": {
				"index": 0
			},
			"pbrMetallicRoughness": {
				"baseColorTexture": {
					"index": 1
				},
				"metallicRoughnessTexture": {
					"index": 2
				}
			}
		}
	],
	"meshes": [
		{
			"name": "Cylinder.008",
			"primitives": [
				{
					"attributes": {
						"NORMAL": 1,
						"POSITION": 2,
						"TEXCOORD_0": 3
					},
					"indices": 0,
					"material": 0,
					"mode": 4
				}
			]
		}
	],
	"nodes": [
		{
			"matrix": [
				0.1,
				0.0,
				0.0,
				0.0,
				0.0,
				0.1,
				0.0,
				0.0,
				0.0,
				0.0,
				0.1,
				0.0,
				0.0,
				0.0,
				0.0,
				1.0
			],
			"mesh": 0,
			"name": "steel_frame_shelves_01"
		}
	],
	"samplers": [
		{
			"magFilter": 9729,
			"minFilter": 9987
		}
	],
	"scene": 0,
	"scenes": [
		{
			"name": "Scene",
			"nodes": [
				0
			]
		}
	],
	"textures": [
		{
			"sampler": 0,
			"source": 0
		},
		{
			"sampler": 0,
			"source": 1
		},
		{
			"sampler": 0,
			"source": 2
		}
	]
}