{
	"accessors": [
		{
			"bufferView": 0,
			"byteOffset": 0,
			"componentType": 5126,
			"count": 1865,
			"max": [
				2.5399999618530273,
				0.0,
				1.2699999809265137
			],
			"min": [
				-2.5399999618530273,
				-5.374639987945557,
				-1.2699999809265137
			],
			"type": "VEC3"
		},
		{
			"bufferView": 1,
			"byteOffset": 0,
			"componentType": 5126,
			"count": 1865,
			"type": "VEC3"
		},
		{
			"bufferView": 2,
			"byteOffset": 0,
			"componentType": 5126,
			"count": 1865,
			"type": "VEC2"
		},
		{
			"bufferView": 3,
			"byteOffset": 0,
			"componentType": 5123,
			"count": 6354,
			"type": "SCALAR"
		},
		{
			"bufferView": 4,
			"byteOffset": 0,
			"componentType": 5126,
			"count": 1441,
			"max": [
				2.0547664165496826,
				4.8965535163879395,
				0.3174999952316284
			],
			"min": [
				-2.0547664165496826,
				-2.5397069454193115,
				-0.3174999952316284
			],
			"type": "VEC3"
		},
		{
			"bufferView": 5,
			"byteOffset": 0,
			"componentType": 5126,
			"count": 1441,
			"type": "VEC3"
		},
		{
			"bufferView": 6,
			"byteOffset": 0,
			"componentType": 5126,
			"count": 1441,
			"type": "VEC2"
		},
		{
			"bufferView": 7,
			"byteOffset": 0,
			"componentType": 5123,
			"count": 6864,
			"type": "SCALAR"
		},
		{
			"bufferView": 8,
			"byteOffset": 0,
			"componentType": 5126,
			"count": 3810,
			"max": [
				1.5235835313796997,
				0.3151944577693939,
				1.5184261798858643
			],
			"min": [
				-1.5225446224212646,
				-0.3153076767921448,
				-1.5213676691055298
			],
			"type": "VEC3"
		},
		{
			"bufferView": 9,
			"byteOffset": 0,
			"componentType": 5126,
			"count": 3810,
			"type": "VEC3"
		},
		{
			"bufferView": 10,
			"byteOffset": 0,
			"componentType": 5126,
			"count": 3810,
			"type": "VEC2"
		},
		{
			"bufferView": 11,
			"byteOffset": 0,
			"componentType": 5123,
			"count": 11820,
			"type": "SCALAR"
		},
		{
			"bufferView": 12,
			"byteOffset": 0,
			"componentType": 5126,
			"count": 3810,
			"max": [
				1.5235835313796997,
				0.3151944875717163,
				1.5184261798858643
			],
			"min": [
				-1.5225446224212646,
				-0.3153076171875,
				-1.5213675498962402
			],
			"type": "VEC3"
		},
		{
			"bufferView": 13,
			"byteOffset": 0,
			"componentType": 5126,
			"count": 3810,
			"type": "VEC3"
		},
		{
			"bufferView": 14,
			"byteOffset": 0,
			"componentType": 5126,
			"count": 3810,
			"type": "VEC2"
		},
		{
			"bufferView": 15,
			"byteOffset": 0,
			"componentType": 5126,
			"count": 3810,
			"max": [
				1.5235836505889893,
				0.31519460678100586,
				1.5184259414672852
			],
			"min": [
				-1.5225443840026855,
				-0.3153076171875,
				-1.5213679075241089
			],
			"type": "VEC3"
		},
		{
			"bufferView": 16,
			"byteOffset": 0,
			"componentType": 5126,
			"count": 3810,
			"type": "VEC3"
		},
		{
			"bufferView": 17,
			"byteOffset": 0,
			"componentType": 5126,
			"count": 3810,
			"type": "VEC2"
		},
		{
			"bufferView": 18,
			"byteOffset": 0,
			"componentType": 5126,
			"count": 3810,
			"max": [
				1.5235834121704102,
				0.31519460678100586,
				1.5184262990951538
			],
			"min": [
				-1.5225446224212646,
				-0.3153076171875,
				-1.5213675498962402
			],
			"type": "VEC3"
		},
		{
			"bufferView": 19,
			"byteOffset": 0,
			"componentType": 5126,
			"count": 3810,
			"type": "VEC3"
		},
		{
			"bufferView": 20,
			"byteOffset": 0,
			"componentType": 5126,
			"count": 3810,
			"type": "VEC2"
		},
		{
			"bufferView": 21,
			"byteOffset": 0,
			"componentType": 5126,
			"count": 3810,
			"max": [
				1.5235836505889893,
				0.31519460678100586,
				1.518426537513733
			],
			"min": [
				-1.5225443840026855,
				-0.3153076171875,
				-1.5213673114776611
			],
			"type": "VEC3"
		},
		{
			"bufferView": 22,
			"byteOffset": 0,
			"componentType": 5126,
			"count": 3810,
			"type": "VEC3"
		},
		{
			"bufferView": 23,
			"byteOffset": 0,
			"componentType": 5126,
			"count": 3810,
			"type": "VEC2"
		},
		{
			"bufferView": 24,
			"byteOffset": 0,
			"componentType": 5126,
			"count": 90,
			"max": [
				3.6
			],
			"min": [
				0.04
			],
			"type": "SCALAR"
		},
		{
			"bufferView": 25,
			"byteOffset": 0,
			"componentType": 5126,
			"count": 90,
			"type": "VEC4"
		},
		{
			"bufferView": 26,
			"byteOffset": 0,
			"componentType": 5126,
			"count": 90,
			"type": "VEC4"
		},
		{
			"bufferView": 27,
			"byteOffset": 0,
			"componentType": 5126,
			"count": 90,
			"type": "VEC4"
		},
		{
			"bufferView": 28,
			"byteOffset": 0,
			"componentType": 5126,
			"count": 90,
			"type": "VEC4"
		},
		{
			"bufferView": 29,
			"byteOffset": 0,
			"componentType": 5126,
			"count": 90,
			"type": "VEC4"
		},
		{
			"bufferView": 30,
			"byteOffset": 0,
			"componentType": 5126,
			"count": 90,
			"type": "VEC4"
		},
		{
			"bufferView": 31,
			"byteOffset": 0,
			"componentType": 5126,
			"count": 90,
			"type": "VEC4"
		},
		{
			"bufferView": 32,
			"byteOffset": 0,
			"componentType": 5126,
			"count": 90,
			"type": "VEC4"
		},
		{
			"bufferView": 33,
			"byteOffset": 0,
			"componentType": 5126,
			"count": 1,
			"max": [
				0.04
			],
			"min": [
				0.04
			],
			"type": "SCALAR"
		},
		{
			"bufferView": 34,
			"byteOffset": 0,
			"componentType": 5126,
			"count": 1,
			"type": "VEC4"
		}
	],
	"animations": [
		{
			"channels": [
				{
					"sampler": 0,
					"target": {
						"node": 2,
						"path": "rotation"
					}
				}
			],
			"name": "rouse1",
			"samplers": [
				{
					"input": 24,
					"interpolation": "LINEAR",
					"output": 25
				}
			]
		},
		{
			"channels": [
				{
					"sampler": 0,
					"target": {
						"node": 3,
						"path": "rotation"
					}
				}
			],
			"name": "roue2",
			"samplers": [
				{
					"input": 24,
					"interpolation": "LINEAR",
					"output": 26
				}
			]
		},
		{
			"channels": [
				{
					"sampler": 0,
					"target": {
						"node": 4,
						"path": "rotation"
					}
				}
			],
			"name": "Body7Action",
			"samplers": [
				{
					"input": 24,
					"interpolation": "LINEAR",
					"output": 27
				}
			]
		},
		{
			"channels": [
				{
					"sampler": 0,
					"target": {
						"node": 5,
						"path": "rotation"
					}
				}
			],
			"name": "roue3",
			"samplers": [
				{
					"input": 24,
					"interpolation": "LINEAR",
					"output": 28
				}
			]
		},
		{
			"channels": [
				{
					"sampler": 0,
					"target": {
						"node": 6,
						"path": "rotation"
					}
				}
			],
			"name": "Body4Action.001",
			"samplers": [
				{
					"input": 24,
					"interpolation": "LINEAR",
					"output": 28
				}
			]
		},
		{
			"channels": [
				{
					"sampler": 0,
					"target": {
						"node": 1,
						"path": "rotation"
					}
				}
			],
			"name": "Body10Action",
			"samplers": [
				{
					"input": 33,
					"interpolation": "STEP",
					"output": 34
				}
			]
		}
	],
	"asset": {
		"extras": {
			"created": "Sat Aug  6 23:29:20 2022"
		},
		"generator": "Gestaltor 2022.2.3 Tagliatelle Professional",
		"version": "2.0"
	},
	"bufferViews": [
		{
			"buffer": 0,
			"byteLength": 22380,
			"byteOffset": 0
		},
		{
			"buffer": 0,
			"byteLength": 22380,
			"byteOffset": 22380
		},
		{
			"buffer": 0,
			"byteLength": 14920,
			"byteOffset": 44760
		},
		{
			"buffer": 0,
			"byteLength": 12708,
			"byteOffset": 59680
		},
		{
			"buffer": 0,
			"byteLength": 17292,
			"byteOffset": 72388
		},
		{
			"buffer": 0,
			"byteLength": 17292,
			"byteOffset": 89680
		},
		{
			"buffer": 0,
			"byteLength": 11528,
			"byteOffset": 106972
		},
		{
			"buffer": 0,
			"byteLength": 13728,
			"byteOffset": 118500
		},
		{
			"buffer": 0,
			"byteLength": 45720,
			"byteOffset": 132228
		},
		{
			"buffer": 0,
			"byteLength": 45720,
			"byteOffset": 177948
		},
		{
			"buffer": 0,
			"byteLength": 30480,
			"byteOffset": 223668
		},
		{
			"buffer": 0,
			"byteLength": 23640,
			"byteOffset": 254148
		},
		{
			"buffer": 0,
			"byteLength": 45720,
			"byteOffset": 277788
		},
		{
			"buffer": 0,
			"byteLength": 45720,
			"byteOffset": 323508
		},
		{
			"buffer": 0,
			"byteLength": 30480,
			"byteOffset": 369228
		},
		{
			"buffer": 0,
			"byteLength": 45720,
			"byteOffset": 399708
		},
		{
			"buffer": 0,
			"byteLength": 45720,
			"byteOffset": 445428
		},
		{
			"buffer": 0,
			"byteLength": 30480,
			"byteOffset": 491148
		},
		{
			"buffer": 0,
			"byteLength": 45720,
			"byteOffset": 521628
		},
		{
			"buffer": 0,
			"byteLength": 45720,
			"byteOffset": 567348
		},
		{
			"buffer": 0,
			"byteLength": 30480,
			"byteOffset": 613068
		},
		{
			"buffer": 0,
			"byteLength": 45720,
			"byteOffset": 643548
		},
		{
			"buffer": 0,
			"byteLength": 45720,
			"byteOffset": 689268
		},
		{
			"buffer": 0,
			"byteLength": 30480,
			"byteOffset": 734988
		},
		{
			"buffer": 0,
			"byteLength": 360,
			"byteOffset": 765468
		},
		{
			"buffer": 0,
			"byteLength": 1440,
			"byteOffset": 765828
		},
		{
			"buffer": 0,
			"byteLength": 1440,
			"byteOffset": 767268
		},
		{
			"buffer": 0,
			"byteLength": 1440,
			"byteOffset": 768708
		},
		{
			"buffer": 0,
			"byteLength": 1440,
			"byteOffset": 770148
		},
		{
			"buffer": 0,
			"byteLength": 1440,
			"byteOffset": 771588
		},
		{
			"buffer": 0,
			"byteLength": 1440,
			"byteOffset": 773028
		},
		{
			"buffer": 0,
			"byteLength": 1440,
			"byteOffset": 774468
		},
		{
			"buffer": 0,
			"byteLength": 1440,
			"byteOffset": 775908
		},
		{
			"buffer": 0,
			"byteLength": 4,
			"byteOffset": 777348
		},
		{
			"buffer": 0,
			"byteLength": 16,
			"byteOffset": 777352
		}
	],
	"buffers": [
		{
			"byteLength": 777368,
			"uri": "data:application/octet-stream;base64,"
		}
	],
	"materials": [
		{
			"doubleSided": true,
			"name": "Brass - Polished",
			"pbrMetallicRoughness": {
				"baseColorFactor": [
					0.9529411792755127,
					0.7960784435272217,
					0.48627451062202454,
					1.0
				],
				"roughnessFactor": 0.5527864098548889
			}
		},
		{
			"doubleSided": true,
			"name": "Surface - Matte",
			"pbrMetallicRoughness": {
				"baseColorFactor": [
					0.7019608020782471,
					0.7019608020782471,
					0.7019608020782471,
					1.0
				],
				"roughnessFactor": 0.5527864098548889
			}
		}
	],
	"meshes": [
		{
			"name": "Body1",
			"primitives": [
				{
					"attributes": {
						"NORMAL": 1,
						"POSITION": 0,
						"TEXCOORD_0": 2
					},
					"indices": 3,
					"material": 0,
					"mode": 4
				}
			]
		},
		{
			"name": "Body10",
			"primitives": [
				{
					"attributes": {
						"NORMAL": 5,
						"POSITION": 4,
						"TEXCOORD_0": 6
					},
					"indices": 7,
					"material": 1,
					"mode": 4
				}
			]
		},
		{
			"name": "Body4",
			"primitives": [
				{
					"attributes": {
						"NORMAL": 9,
						"POSITION": 8,
						"TEXCOORD_0": 10
					},
					"indices": 11,
					"material": 1,
					"mode": 4
				}
			]
		},
		{
			"name": "Body6",
			"primitives": [
				{
					"attributes": {
						"NORMAL": 13,
						"POSITION": 12,
						"TEXCOORD_0": 14
					},
					"indices": 11,
					"material": 1,
					"mode": 4
				}
			]
		},
		{
			"name": "Body7",
			"primitives": [
				{
					"attributes": {
						"NORMAL": 16,
						"POSITION": 15,
						"TEXCOORD_0": 17
					},
					"indices": 11,
					"material": 1,
					"mode": 4
				}
			]
		},
		{
			"name": "Body8",
			"primitives": [
				{
					"attributes": {
						"NORMAL": 19,
						"POSITION": 18,
						"TEXCOORD_0": 20
					},
					"indices": 11,
					"material": 1,
					"mode": 4
				}
			]
		},
		{
			"name": "Body9",
			"primitives": [
				{
					"attributes": {
						"NORMAL": 22,
						"POSITION": 21,
						"TEXCOORD_0": 23
					},
					"indices": 11,
					"material": 1,
					"mode": 4
				}
			]
		}
	],
	"nodes": [
		{
			"mesh": 0,
			"name": "Body1",
			"scale": [
				0.3937007784843445,
				0.3937007784843445,
				0.3937007784843445
			]
		},
		{
			"mesh": 1,
			"name": "Body10",
			"scale": [
				0.3937007784843445,
				0.3937007784843445,
				0.3937007784843445
			]
		},
		{
			"mesh": 2,
			"name": "Body4",
			"scale": [
				0.3937007784843445,
				0.3937007784843445,
				0.3937007784843445
			],
			"translation": [
				0.5163524150848389,
				-0.2646871507167816,
				0.02412198670208454
			]
		},
		{
			"mesh": 3,
			"name": "Body6",
			"rotation": [
				0.0,
				-0.0065081375651061535,
				0.0,
				0.9999788403511047
			],
			"scale": [
				0.3937007784843445,
				0.3937007784843445,
				0.3937007784843445
			],
			"translation": [
				0.5163524150848389,
				-0.6263158321380615,
				0.024121975526213646
			]
		},
		{
			"mesh": 4,
			"name": "Body7",
			"scale": [
				0.3937007784843445,
				0.3937007784843445,
				0.3937007784843445
			],
			"translation": [
				0.5163524150848389,
				-0.9879445433616638,
				0.024122104048728943
			]
		},
		{
			"mesh": 5,
			"name": "Body8",
			"scale": [
				0.3937007784843445,
				0.3937007784843445,
				0.3937007784843445
			],
			"translation": [
				0.5163524746894836,
				-1.3495731353759766,
				0.024121958762407303
			]
		},
		{
			"mesh": 6,
			"name": "Body9",
			"scale": [
				0.3937007784843445,
				0.3937007784843445,
				0.3937007784843445
			],
			"translation": [
				0.5163524150848389,
				-1.711201786994934,
				0.02412184700369835
			]
		},
		{
			"children": [
				0,
				1,
				2,
				3,
				4,
				5,
				6
			],
			"name": "Cadenas v2",
			"rotation": [
				0.7071068286895752,
				0.0,
				0.0,
				0.7071067094802856
			],
			"scale": [
				0.02539999969303608,
				0.02539999969303608,
				0.02539999969303608
			]
		}
	],
	"scene": 0,
	"scenes": [
		{
			"name": "Scene",
			"nodes": [
				7
			]
		}
	]
}