{"accessors":[{"bufferView":0,"byteOffset":0,"componentType":5126,"count":172,"max":[0.6290233135223389,0.06674902141094208,0.49704641103744507],"min":[-0.6284615993499756,0.0020920392125844955,-0.497153639793396],"type":"VEC3"},{"bufferView":1,"byteOffset":0,"componentType":5126,"count":172,"type":"VEC3"},{"bufferView":2,"byteOffset":0,"componentType":5126,"count":172,"type":"VEC2"},{"bufferView":3,"byteOffset":0,"componentType":5126,"count":172,"type":"VEC2"},{"bufferView":4,"byteOffset":0,"componentType":5126,"count":172,"type":"VEC2"},{"bufferView":5,"byteOffset":0,"componentType":5126,"count":172,"type":"VEC2"},{"bufferView":6,"byteOffset":0,"componentType":5123,"count":789,"type":"SCALAR"}],"asset":{"extras":{"created":"Sun Dec 11 08:31:28 2022"},"generator":"Gestaltor 2022.4.0 Pappardelle Professional","version":"2.0"},"bufferViews":[{"buffer":0,"byteLength":2064,"byteOffset":0},{"buffer":0,"byteLength":2064,"byteOffset":2064},{"buffer":0,"byteLength":1376,"byteOffset":4128},{"buffer":0,"byteLength":1376,"byteOffset":5504},{"buffer":0,"byteLength":1376,"byteOffset":6880},{"buffer":0,"byteLength":1376,"byteOffset":8256},{"buffer":0,"byteLength":1578,"byteOffset":9632}],"buffers":[{"byteLength":11210,"uri":"data:application/octet-stream;base64,"}],"images":[{"mimeType":"image/jpeg","name":"Poster_1024_normal","uri":"data:image/jpeg;base64,"},{"mimeType":"image/jpeg","name":"Poster_1024_baseColor","uri":"data:image/jpeg;base64,"},{"mimeType":"image/png","name":"Poster_1024_metallicRoughness","uri":"data:image/png;base64,"}],"materials":[{"doubleSided":true,"name":"Poster_1024","normalTexture":{"index":0},"pbrMetallicRoughness":{"baseColorTexture":{"index":1},"metallicRoughnessTexture":{"index":2}}}],"meshes":[{"name":"Object_46","primitives":[{"attributes":{"NORMAL":1,"POSITION":0,"TEXCOORD_0":2,"TEXCOORD_1":3,"TEXCOORD_2":4,"TEXCOORD_3":5},"indices":6,"material":0,"mode":4}]}],"nodes":[{"mesh":0,"name":"Object_95"},{"children":[0],"matrix":[0.0,0.0,-0.6188076138496399,0.0,0.30940380692481995,0.0,0.0,0.0,0.0,-0.6188076138496399,0.0,0.0,0.0,0.0,0.0,1.0],"name":"Poster_Crumpled_45"},{"children":[1],"name":"Office - Assets"}],"samplers":[{"magFilter":9729,"minFilter":9987}],"scene":0,"scenes":[{"name":"Scene","nodes":[2]}],"textures":[{"sampler":0,"source":0},{"sampler":0,"source":1},{"sampler":0,"source":2}]}