{
    "asset" : {
        "generator" : "Khronos glTF Blender I/O v1.8.2",
        "version" : "2.0"
    },
    "scene" : 0,
    "scenes" : [
        {
            "name" : "Scene",
            "nodes" : [
                2
            ]
        }
    ],
    "nodes" : [
        {
            "mesh" : 0,
            "name" : "Object_95"
        },
        {
            "children" : [
                0
            ],
            "name" : "Poster_Crumpled_45",
            "rotation" : [
                0.5,
                0.5,
                -0.5,
                0.5
            ],
            "scale" : [
                0.6188076138496399,
                0.30940380692481995,
                0.6188076138496399
            ],
            "translation" : [
                -0.24645854532718658,
                1.567517876625061,
                1.3167474269866943
            ]
        },
        {
            "children" : [
                1
            ],
            "name" : "Office - Assets"
        }
    ],
    "materials" : [
        {
            "doubleSided" : true,
            "name" : "Poster_1024",
            "normalTexture" : {
                "index" : 0
            },
            "pbrMetallicRoughness" : {
                "baseColorTexture" : {
                    "index" : 1
                },
                "metallicRoughnessTexture" : {
                    "index" : 2
                }
            }
        }
    ],
    "meshes" : [
        {
            "name" : "Object_46",
            "primitives" : [
                {
                    "attributes" : {
                        "POSITION" : 0,
                        "NORMAL" : 1,
                        "TEXCOORD_0" : 2,
                        "TEXCOORD_1" : 3,
                        "TEXCOORD_2" : 4,
                        "TEXCOORD_3" : 5
                    },
                    "indices" : 6,
                    "material" : 0
                }
            ]
        }
    ],
    "textures" : [
        {
            "sampler" : 0,
            "source" : 0
        },
        {
            "sampler" : 0,
            "source" : 1
        },
        {
            "sampler" : 0,
            "source" : 2
        }
    ],
    "images" : [
        {
            "bufferView" : 7,
            "mimeType" : "image/jpeg",
            "name" : "Poster_1024_normal"
        },
        {
            "bufferView" : 8,
            "mimeType" : "image/jpeg",
            "name" : "Poster_1024_baseColor"
        },
        {
            "bufferView" : 9,
            "mimeType" : "image/png",
            "name" : "Poster_1024_metallicRoughness"
        }
    ],
    "accessors" : [
        {
            "bufferView" : 0,
            "componentType" : 5126,
            "count" : 172,
            "max" : [
                0.6290233135223389,
                0.06674902141094208,
                0.49704641103744507
            ],
            "min" : [
                -0.6284615993499756,
                0.0020920392125844955,
                -0.497153639793396
            ],
            "type" : "VEC3"
        },
        {
            "bufferView" : 1,
            "componentType" : 5126,
            "count" : 172,
            "type" : "VEC3"
        },
        {
            "bufferView" : 2,
            "componentType" : 5126,
            "count" : 172,
            "type" : "VEC2"
        },
        {
            "bufferView" : 3,
            "componentType" : 5126,
            "count" : 172,
            "type" : "VEC2"
        },
        {
            "bufferView" : 4,
            "componentType" : 5126,
            "count" : 172,
            "type" : "VEC2"
        },
        {
            "bufferView" : 5,
            "componentType" : 5126,
            "count" : 172,
            "type" : "VEC2"
        },
        {
            "bufferView" : 6,
            "componentType" : 5123,
            "count" : 789,
            "type" : "SCALAR"
        }
    ],
    "bufferViews" : [
        {
            "buffer" : 0,
            "byteLength" : 2064,
            "byteOffset" : 0
        },
        {
            "buffer" : 0,
            "byteLength" : 2064,
            "byteOffset" : 2064
        },
        {
            "buffer" : 0,
            "byteLength" : 1376,
            "byteOffset" : 4128
        },
        {
            "buffer" : 0,
            "byteLength" : 1376,
            "byteOffset" : 5504
        },
        {
            "buffer" : 0,
            "byteLength" : 1376,
            "byteOffset" : 6880
        },
        {
            "buffer" : 0,
            "byteLength" : 1376,
            "byteOffset" : 8256
        },
        {
            "buffer" : 0,
            "byteLength" : 1578,
            "byteOffset" : 9632
        },
        {
            "buffer" : 0,
            "byteLength" : 34844,
            "byteOffset" : 11212
        },
        {
            "buffer" : 0,
            "byteLength" : 389008,
            "byteOffset" : 46056
        },
        {
            "buffer" : 0,
            "byteLength" : 721024,
            "byteOffset" : 435064
        }
    ],
    "samplers" : [
        {
            "magFilter" : 9729,
            "minFilter" : 9987
        }
    ],
    "buffers" : [
        {
            "byteLength" : 1156088,
            "uri" : "data:application/octet-stream;base64,"
        }
    ]
}
