{
	"accessors": [
		{
			"bufferView": 3,
			"byteOffset": 0,
			"componentType": 5126,
			"count": 698,
			"max": [
				380.20001220703125,
				488.3872985839844,
				33.79326248168945
			],
			"min": [
				-380.20001220703125,
				-0.08764266967773438,
				-865.107177734375
			],
			"type": "VEC3"
		},
		{
			"bufferView": 4,
			"byteOffset": 0,
			"componentType": 5126,
			"count": 698,
			"type": "VEC3"
		},
		{
			"bufferView": 5,
			"byteOffset": 0,
			"componentType": 5126,
			"count": 698,
			"type": "VEC2"
		},
		{
			"bufferView": 6,
			"byteOffset": 0,
			"componentType": 5123,
			"count": 1044,
			"type": "SCALAR"
		}
	],
	"asset": {
		"extras": {
			"created": "Wed Jan 11 08:51:12 2023"
		},
		"generator": "Gestaltor 2022.4.0 Pappardelle Professional",
		"version": "2.0"
	},
	"bufferViews": [
		{
			"buffer": 0,
			"byteLength": 69,
			"byteOffset": 0
		},
		{
			"buffer": 0,
			"byteLength": 484359,
			"byteOffset": 69
		},
		{
			"buffer": 0,
			"byteLength": 337348,
			"byteOffset": 484428
		},
		{
			"buffer": 0,
			"byteLength": 8376,
			"byteOffset": 821776
		},
		{
			"buffer": 0,
			"byteLength": 8376,
			"byteOffset": 830152
		},
		{
			"buffer": 0,
			"byteLength": 5584,
			"byteOffset": 838528
		},
		{
			"buffer": 0,
			"byteLength": 2088,
			"byteOffset": 844112
		}
	],
	"buffers": [
		{
			"byteLength": 846200,
			"uri": "data:application/octet-stream;base64,"
		}
	],
	"images": [
		{
			"bufferView": 0,
			"mimeType": "image/png",
			"name": "Image_21"
		},
		{
			"bufferView": 1,
			"mimeType": "image/png",
			"name": "Image_19"
		},
		{
			"bufferView": 2,
			"mimeType": "image/png",
			"name": "Image_20"
		}
	],
	"materials": [
		{
			"doubleSided": true,
			"name": "Environment",
			"normalTexture": {
				"index": 0,
				"scale": 0.25
			},
			"pbrMetallicRoughness": {
				"baseColorTexture": {
					"index": 1
				},
				"metallicRoughnessTexture": {
					"index": 2
				}
			}
		}
	],
	"meshes": [
		{
			"name": "Column_Environment_0",
			"primitives": [
				{
					"attributes": {
						"NORMAL": 1,
						"POSITION": 0,
						"TEXCOORD_0": 2
					},
					"indices": 3,
					"material": 0,
					"mode": 4
				}
			]
		}
	],
	"nodes": [
		{
			"mesh": 0,
			"name": "Column_Environment_0"
		},
		{
			"children": [
				0
			],
			"name": "Column",
			"rotation": [
				-1.0,
				0.0,
				0.0,
				4.371138828673793e-08
			],
			"scale": [
				-1.0,
				-1.0,
				-1.0
			],
			"translation": [
				0.0,
				0.0,
				410.3645324707031
			]
		},
		{
			"children": [
				1
			],
			"name": "RootNode"
		},
		{
			"children": [
				2
			],
			"name": "04da7456980943008ef762de379caef1.fbx",
			"rotation": [
				0.7071068286895752,
				0.0,
				0.0,
				0.7071068286895752
			]
		},
		{
			"children": [
				3
			],
			"name": "Sketchfab_model",
			"rotation": [
				-0.7071068286895752,
				0.0,
				0.0,
				0.7071068286895752
			],
			"scale": [
				0.0060606058686971664,
				0.0060606058686971664,
				0.0060606058686971664
			]
		}
	],
	"samplers": [
		{
			"magFilter": 9729,
			"minFilter": 9987
		}
	],
	"scene": 0,
	"scenes": [
		{
			"name": "Scene",
			"nodes": [
				4
			]
		}
	],
	"textures": [
		{
			"sampler": 0,
			"source": 0
		},
		{
			"sampler": 0,
			"source": 1
		},
		{
			"sampler": 0,
			"source": 2
		}
	]
}