{"accessors":[{"bufferView":0,"byteOffset":0,"componentType":5126,"count":3127,"max":[0.25415855646133423,0.1461683213710785,0.24145227670669556],"min":[-0.2544017434120178,0.0,-0.23260971903800964],"type":"VEC3"},{"bufferView":1,"byteOffset":0,"componentType":5126,"count":3127,"type":"VEC3"},{"bufferView":2,"byteOffset":0,"componentType":5126,"count":3127,"type":"VEC2"},{"bufferView":3,"byteOffset":0,"componentType":5126,"count":3127,"type":"VEC2"},{"bufferView":4,"byteOffset":0,"componentType":5126,"count":3127,"type":"VEC2"},{"bufferView":5,"byteOffset":0,"componentType":5126,"count":3127,"type":"VEC2"},{"bufferView":6,"byteOffset":0,"componentType":5123,"count":5718,"type":"SCALAR"},{"bufferView":7,"byteOffset":0,"componentType":5126,"count":2816,"max":[0.23492014408111572,0.14043007791042328,0.18351125717163086],"min":[-0.23880255222320557,0.09239453077316284,-0.24206674098968506],"type":"VEC3"},{"bufferView":8,"byteOffset":0,"componentType":5126,"count":2816,"type":"VEC3"},{"bufferView":9,"byteOffset":0,"componentType":5126,"count":2816,"type":"VEC2"},{"bufferView":10,"byteOffset":0,"componentType":5126,"count":2816,"type":"VEC2"},{"bufferView":11,"byteOffset":0,"componentType":5126,"count":2816,"type":"VEC2"},{"bufferView":12,"byteOffset":0,"componentType":5126,"count":2816,"type":"VEC2"},{"bufferView":13,"byteOffset":0,"componentType":5123,"count":4308,"type":"SCALAR"}],"asset":{"extras":{"created":"Mon Dec 12 00:48:21 2022"},"generator":"Gestaltor 2022.4.0 Pappardelle Professional","version":"2.0"},"bufferViews":[{"buffer":0,"byteLength":37524,"byteOffset":0},{"buffer":0,"byteLength":37524,"byteOffset":37524},{"buffer":0,"byteLength":25016,"byteOffset":75048},{"buffer":0,"byteLength":25016,"byteOffset":100064},{"buffer":0,"byteLength":25016,"byteOffset":125080},{"buffer":0,"byteLength":25016,"byteOffset":150096},{"buffer":0,"byteLength":11436,"byteOffset":175112},{"buffer":0,"byteLength":33792,"byteOffset":186548},{"buffer":0,"byteLength":33792,"byteOffset":220340},{"buffer":0,"byteLength":22528,"byteOffset":254132},{"buffer":0,"byteLength":22528,"byteOffset":276660},{"buffer":0,"byteLength":22528,"byteOffset":299188},{"buffer":0,"byteLength":22528,"byteOffset":321716},{"buffer":0,"byteLength":8616,"byteOffset":344244}],"buffers":[{"byteLength":352860,"uri":"data:application/octet-stream;base64,"}],"images":[{"mimeType":"image/jpeg","name":"M_TapeRecorder_1024_normal","uri":"data:image/jpeg;base64,"},{"mimeType":"image/jpeg","name":"M_TapeRecorder_1024_baseColor","uri":"data:image/jpeg;base64,"},{"mimeType":"image/png","name":"M_TapeRecorder_1024_metallicRoughness","uri":"data:image/png;base64,"},{"mimeType":"image/jpeg","name":"M_TapeRecorder_Tape_Rotors_Glass_1024_normal","uri":"data:image/jpeg;base64,"},{"mimeType":"image/png","name":"M_TapeRecorder_Tape_Rotors_Glass_1024_baseColor","uri":"data:image/png;base64,"},{"mimeType":"image/png","name":"M_TapeRecorder_Tape_Rotors_Glass_1024_metallicRoughness","uri":"data:image/png;base64,"}],"materials":[{"doubleSided":true,"name":"M_TapeRecorder_1024","normalTexture":{"index":0},"pbrMetallicRoughness":{"baseColorTexture":{"index":1},"metallicRoughnessTexture":{"index":2}}},{"alphaMode":"BLEND","doubleSided":true,"name":"M_TapeRecorder_Tape_Rotors_Glass_1024","normalTexture":{"index":3},"pbrMetallicRoughness":{"baseColorTexture":{"index":4},"metallicRoughnessTexture":{"index":5}}}],"meshes":[{"name":"Object_33","primitives":[{"attributes":{"NORMAL":1,"POSITION":0,"TEXCOORD_0":2,"TEXCOORD_1":3,"TEXCOORD_2":4,"TEXCOORD_3":5},"indices":6,"material":0,"mode":4}]},{"name":"Object_34","primitives":[{"attributes":{"NORMAL":8,"POSITION":7,"TEXCOORD_0":9,"TEXCOORD_1":10,"TEXCOORD_2":11,"TEXCOORD_3":12},"indices":13,"material":1,"mode":4}]}],"nodes":[{"mesh":0,"name":"Object_70"},{"mesh":1,"name":"Object_71"},{"children":[0,1],"matrix":[1.0,0.0,0.0,0.0,0.0,1.0,0.0,0.0,0.0,0.0,1.0,0.0,0.0,0.0,0.0,1.0],"name":"TapeRecorder_33"},{"children":[2],"name":"Office - Assets"}],"samplers":[{"magFilter":9729,"minFilter":9987}],"scene":0,"scenes":[{"name":"Scene","nodes":[3]}],"textures":[{"sampler":0,"source":0},{"sampler":0,"source":1},{"sampler":0,"source":2},{"sampler":0,"source":3},{"sampler":0,"source":4},{"sampler":0,"source":5}]}