{"accessors":[{"bufferView":0,"byteOffset":0,"componentType":5126,"count":737,"max":[0.11639929562807083,0.19730675220489502,0.07625644654035568],"min":[-0.07625644654035568,0.0,-0.07625644654035568],"type":"VEC3"},{"bufferView":1,"byteOffset":0,"componentType":5126,"count":737,"type":"VEC3"},{"bufferView":2,"byteOffset":0,"componentType":5126,"count":737,"type":"VEC2"},{"bufferView":3,"byteOffset":0,"componentType":5126,"count":737,"type":"VEC2"},{"bufferView":4,"byteOffset":0,"componentType":5126,"count":737,"type":"VEC2"},{"bufferView":5,"byteOffset":0,"componentType":5126,"count":737,"type":"VEC2"},{"bufferView":6,"byteOffset":0,"componentType":5123,"count":2652,"type":"SCALAR"}],"asset":{"extras":{"created":"Mon Dec 12 10:34:07 2022"},"generator":"Gestaltor 2022.4.0 Pappardelle Professional","version":"2.0"},"bufferViews":[{"buffer":0,"byteLength":8844,"byteOffset":0},{"buffer":0,"byteLength":8844,"byteOffset":8844},{"buffer":0,"byteLength":5896,"byteOffset":17688},{"buffer":0,"byteLength":5896,"byteOffset":23584},{"buffer":0,"byteLength":5896,"byteOffset":29480},{"buffer":0,"byteLength":5896,"byteOffset":35376},{"buffer":0,"byteLength":5304,"byteOffset":41272}],"buffers":[{"byteLength":46576,"uri":"data:application/octet-stream;base64,"}],"images":[{"mimeType":"image/jpeg","name":"M_TapeRecorder_Tape_Rotors_Glass_1024_normal","uri":"data:image/jpeg;base64,"},{"mimeType":"image/png","name":"M_TapeRecorder_Tape_Rotors_Glass_1024_baseColor","uri":"data:image/png;base64,"},{"mimeType":"image/png","name":"M_TapeRecorder_Tape_Rotors_Glass_1024_metallicRoughness","uri":"data:image/png;base64,"}],"materials":[{"alphaMode":"BLEND","doubleSided":true,"name":"M_TapeRecorder_Tape_Rotors_Glass_1024","normalTexture":{"index":0},"pbrMetallicRoughness":{"baseColorTexture":{"index":1},"metallicRoughnessTexture":{"index":2}}}],"meshes":[{"name":"Object_35","primitives":[{"attributes":{"NORMAL":1,"POSITION":0,"TEXCOORD_0":2,"TEXCOORD_1":3,"TEXCOORD_2":4,"TEXCOORD_3":5},"indices":6,"material":0,"mode":4}]}],"nodes":[{"mesh":0,"name":"Object_73"},{"children":[0],"matrix":[1.0,0.0,0.0,0.0,0.0,1.0,0.0,0.0,0.0,0.0,1.0,0.0,0.0,0.0,0.0,1.0],"name":"Microphone_34"},{"children":[1],"name":"Office - Assets"}],"samplers":[{"magFilter":9729,"minFilter":9987}],"scene":0,"scenes":[{"name":"Scene","nodes":[2]}],"textures":[{"sampler":0,"source":0},{"sampler":0,"source":1},{"sampler":0,"source":2}]}