{
    "asset" : {
        "generator" : "Khronos glTF Blender I/O v1.8.2",
        "version" : "2.0"
    },
    "scene" : 0,
    "scenes" : [
        {
            "name" : "Scene",
            "nodes" : [
                13
            ]
        }
    ],
    "nodes" : [
        {
            "mesh" : 0,
            "name" : "defaultMaterial.002"
        },
        {
            "children" : [
                0
            ],
            "name" : "Base_Low"
        },
        {
            "mesh" : 1,
            "name" : "defaultMaterial.004"
        },
        {
            "children" : [
                2
            ],
            "name" : "Computer_Low"
        },
        {
            "mesh" : 2,
            "name" : "defaultMaterial.005"
        },
        {
            "children" : [
                4
            ],
            "name" : "Key_Board_Low"
        },
        {
            "mesh" : 3,
            "name" : "defaultMaterial.001"
        },
        {
            "children" : [
                6
            ],
            "name" : "Mouse_Low"
        },
        {
            "mesh" : 4,
            "name" : "defaultMaterial"
        },
        {
            "children" : [
                8
            ],
            "name" : "Mouse_Wheel_Low"
        },
        {
            "mesh" : 5,
            "name" : "defaultMaterial.003"
        },
        {
            "children" : [
                10
            ],
            "name" : "Vert_Low"
        },
        {
            "children" : [
                1,
                3,
                5,
                7,
                9,
                11
            ],
            "name" : "Collada visual scene group",
            "rotation" : [
                0.7071068286895752,
                0,
                0,
                0.7071068286895752
            ]
        },
        {
            "children" : [
                12
            ],
            "name" : "Sketchfab_model",
            "rotation" : [
                -0.6336920857429504,
                0.31374257802963257,
                0.31374257802963257,
                0.6336920857429504
            ],
            "scale" : [
                0.501150906085968,
                0.501150906085968,
                0.501150906085968
            ],
            "translation" : [
                0.18357102572917938,
                1.0514576435089111,
                0.5771512389183044
            ]
        }
    ],
    "materials" : [
        {
            "doubleSided" : true,
            "emissiveFactor" : [
                1,
                1,
                1
            ],
            "emissiveTexture" : {
                "index" : 0
            },
            "name" : "01___Default",
            "normalTexture" : {
                "index" : 1
            },
            "occlusionTexture" : {
                "index" : 2
            },
            "pbrMetallicRoughness" : {
                "baseColorTexture" : {
                    "index" : 3
                },
                "metallicRoughnessTexture" : {
                    "index" : 2
                }
            }
        }
    ],
    "meshes" : [
        {
            "name" : "defaultMaterial.002",
            "primitives" : [
                {
                    "attributes" : {
                        "POSITION" : 0,
                        "NORMAL" : 1,
                        "TEXCOORD_0" : 2
                    },
                    "indices" : 3,
                    "material" : 0
                }
            ]
        },
        {
            "name" : "defaultMaterial.004",
            "primitives" : [
                {
                    "attributes" : {
                        "POSITION" : 4,
                        "NORMAL" : 5,
                        "TEXCOORD_0" : 6
                    },
                    "indices" : 7,
                    "material" : 0
                }
            ]
        },
        {
            "name" : "defaultMaterial.005",
            "primitives" : [
                {
                    "attributes" : {
                        "POSITION" : 8,
                        "NORMAL" : 9,
                        "TEXCOORD_0" : 10
                    },
                    "indices" : 11,
                    "material" : 0
                }
            ]
        },
        {
            "name" : "defaultMaterial.001",
            "primitives" : [
                {
                    "attributes" : {
                        "POSITION" : 12,
                        "NORMAL" : 13,
                        "TEXCOORD_0" : 14
                    },
                    "indices" : 15,
                    "material" : 0
                }
            ]
        },
        {
            "name" : "defaultMaterial",
            "primitives" : [
                {
                    "attributes" : {
                        "POSITION" : 16,
                        "NORMAL" : 17,
                        "TEXCOORD_0" : 18
                    },
                    "indices" : 19,
                    "material" : 0
                }
            ]
        },
        {
            "name" : "defaultMaterial.003",
            "primitives" : [
                {
                    "attributes" : {
                        "POSITION" : 20,
                        "NORMAL" : 21,
                        "TEXCOORD_0" : 22
                    },
                    "indices" : 23,
                    "material" : 0
                }
            ]
        }
    ],
    "textures" : [
        {
            "sampler" : 0,
            "source" : 0
        },
        {
            "sampler" : 0,
            "source" : 1
        },
        {
            "sampler" : 0,
            "source" : 2
        },
        {
            "sampler" : 0,
            "source" : 3
        }
    ],
    "images" : [
        {
            "bufferView" : 4,
            "mimeType" : "image/jpeg",
            "name" : "01___Default_emissive"
        },
        {
            "bufferView" : 5,
            "mimeType" : "image/png",
            "name" : "01___Default_normal"
        },
        {
            "bufferView" : 6,
            "mimeType" : "image/png",
            "name" : "01___Default_metallicRoughness"
        },
        {
            "bufferView" : 7,
            "mimeType" : "image/jpeg",
            "name" : "01___Default_baseColor"
        }
    ],
    "accessors" : [
        {
            "bufferView" : 0,
            "componentType" : 5126,
            "count" : 80,
            "max" : [
                0.1665789932012558,
                -0.5931910276412964,
                -0.01559399999678135
            ],
            "min" : [
                -0.46845701336860657,
                -0.6527259945869446,
                -0.6506289839744568
            ],
            "type" : "VEC3"
        },
        {
            "bufferView" : 1,
            "componentType" : 5126,
            "count" : 80,
            "type" : "VEC3"
        },
        {
            "bufferView" : 2,
            "componentType" : 5126,
            "count" : 80,
            "type" : "VEC2"
        },
        {
            "bufferView" : 3,
            "componentType" : 5123,
            "count" : 90,
            "type" : "SCALAR"
        },
        {
            "bufferView" : 8,
            "componentType" : 5126,
            "count" : 188,
            "max" : [
                0.5989099740982056,
                0.6527259945869446,
                -0.23411400616168976
            ],
            "min" : [
                -0.9093000292778015,
                -0.2998270094394684,
                -0.432561993598938
            ],
            "type" : "VEC3"
        },
        {
            "bufferView" : 9,
            "componentType" : 5126,
            "count" : 188,
            "type" : "VEC3"
        },
        {
            "bufferView" : 10,
            "componentType" : 5126,
            "count" : 188,
            "type" : "VEC2"
        },
        {
            "bufferView" : 11,
            "componentType" : 5123,
            "count" : 300,
            "type" : "SCALAR"
        },
        {
            "bufferView" : 12,
            "componentType" : 5126,
            "count" : 779,
            "max" : [
                0.42882999777793884,
                -0.5208690166473389,
                0.6506289839744568
            ],
            "min" : [
                -1,
                -0.6316800117492676,
                0.1743530035018921
            ],
            "type" : "VEC3"
        },
        {
            "bufferView" : 13,
            "componentType" : 5126,
            "count" : 779,
            "type" : "VEC3"
        },
        {
            "bufferView" : 14,
            "componentType" : 5126,
            "count" : 779,
            "type" : "VEC2"
        },
        {
            "bufferView" : 15,
            "componentType" : 5123,
            "count" : 936,
            "type" : "SCALAR"
        },
        {
            "bufferView" : 16,
            "componentType" : 5126,
            "count" : 167,
            "max" : [
                1,
                -0.5336570143699646,
                0.38244399428367615
            ],
            "min" : [
                0.7905480265617371,
                -0.6214720010757446,
                0.06492669880390167
            ],
            "type" : "VEC3"
        },
        {
            "bufferView" : 17,
            "componentType" : 5126,
            "count" : 167,
            "type" : "VEC3"
        },
        {
            "bufferView" : 18,
            "componentType" : 5126,
            "count" : 167,
            "type" : "VEC2"
        },
        {
            "bufferView" : 19,
            "componentType" : 5123,
            "count" : 510,
            "type" : "SCALAR"
        },
        {
            "bufferView" : 20,
            "componentType" : 5126,
            "count" : 114,
            "max" : [
                0.9027360081672668,
                -0.512565016746521,
                0.1550620049238205
            ],
            "min" : [
                0.8878120183944702,
                -0.5363460183143616,
                0.10752800107002258
            ],
            "type" : "VEC3"
        },
        {
            "bufferView" : 21,
            "componentType" : 5126,
            "count" : 114,
            "type" : "VEC3"
        },
        {
            "bufferView" : 22,
            "componentType" : 5126,
            "count" : 114,
            "type" : "VEC2"
        },
        {
            "bufferView" : 23,
            "componentType" : 5123,
            "count" : 216,
            "type" : "SCALAR"
        },
        {
            "bufferView" : 24,
            "componentType" : 5126,
            "count" : 150,
            "max" : [
                -0.09283439815044403,
                0.35936200618743896,
                -0.432561993598938
            ],
            "min" : [
                -0.21755599975585938,
                -0.6154429912567139,
                -0.5511789917945862
            ],
            "type" : "VEC3"
        },
        {
            "bufferView" : 25,
            "componentType" : 5126,
            "count" : 150,
            "type" : "VEC3"
        },
        {
            "bufferView" : 26,
            "componentType" : 5126,
            "count" : 150,
            "type" : "VEC2"
        },
        {
            "bufferView" : 27,
            "componentType" : 5123,
            "count" : 330,
            "type" : "SCALAR"
        }
    ],
    "bufferViews" : [
        {
            "buffer" : 0,
            "byteLength" : 960,
            "byteOffset" : 0
        },
        {
            "buffer" : 0,
            "byteLength" : 960,
            "byteOffset" : 960
        },
        {
            "buffer" : 0,
            "byteLength" : 640,
            "byteOffset" : 1920
        },
        {
            "buffer" : 0,
            "byteLength" : 180,
            "byteOffset" : 2560
        },
        {
            "buffer" : 0,
            "byteLength" : 72119,
            "byteOffset" : 2740
        },
        {
            "buffer" : 0,
            "byteLength" : 1016148,
            "byteOffset" : 74860
        },
        {
            "buffer" : 0,
            "byteLength" : 603928,
            "byteOffset" : 1091008
        },
        {
            "buffer" : 0,
            "byteLength" : 231821,
            "byteOffset" : 1694936
        },
        {
            "buffer" : 0,
            "byteLength" : 2256,
            "byteOffset" : 1926760
        },
        {
            "buffer" : 0,
            "byteLength" : 2256,
            "byteOffset" : 1929016
        },
        {
            "buffer" : 0,
            "byteLength" : 1504,
            "byteOffset" : 1931272
        },
        {
            "buffer" : 0,
            "byteLength" : 600,
            "byteOffset" : 1932776
        },
        {
            "buffer" : 0,
            "byteLength" : 9348,
            "byteOffset" : 1933376
        },
        {
            "buffer" : 0,
            "byteLength" : 9348,
            "byteOffset" : 1942724
        },
        {
            "buffer" : 0,
            "byteLength" : 6232,
            "byteOffset" : 1952072
        },
        {
            "buffer" : 0,
            "byteLength" : 1872,
            "byteOffset" : 1958304
        },
        {
            "buffer" : 0,
            "byteLength" : 2004,
            "byteOffset" : 1960176
        },
        {
            "buffer" : 0,
            "byteLength" : 2004,
            "byteOffset" : 1962180
        },
        {
            "buffer" : 0,
            "byteLength" : 1336,
            "byteOffset" : 1964184
        },
        {
            "buffer" : 0,
            "byteLength" : 1020,
            "byteOffset" : 1965520
        },
        {
            "buffer" : 0,
            "byteLength" : 1368,
            "byteOffset" : 1966540
        },
        {
            "buffer" : 0,
            "byteLength" : 1368,
            "byteOffset" : 1967908
        },
        {
            "buffer" : 0,
            "byteLength" : 912,
            "byteOffset" : 1969276
        },
        {
            "buffer" : 0,
            "byteLength" : 432,
            "byteOffset" : 1970188
        },
        {
            "buffer" : 0,
            "byteLength" : 1800,
            "byteOffset" : 1970620
        },
        {
            "buffer" : 0,
            "byteLength" : 1800,
            "byteOffset" : 1972420
        },
        {
            "buffer" : 0,
            "byteLength" : 1200,
            "byteOffset" : 1974220
        },
        {
            "buffer" : 0,
            "byteLength" : 660,
            "byteOffset" : 1975420
        }
    ],
    "samplers" : [
        {
            "magFilter" : 9729,
            "minFilter" : 9987
        }
    ],
    "buffers" : [
        {
            "byteLength" : 1976080,
            "uri" : "data:application/octet-stream;base64,"
        }
    ]
}
