{
    "asset" : {
        "generator" : "Khronos glTF Blender I/O v1.8.2",
        "version" : "2.0"
    },
    "scene" : 0,
    "scenes" : [
        {
            "name" : "Scene",
            "nodes" : [
                7
            ]
        }
    ],
    "nodes" : [
        {
            "mesh" : 0,
            "name" : "GrowFX01_01 - Default_0"
        },
        {
            "children" : [
                0
            ],
            "name" : "GrowFX01",
            "translation" : [
                92.1923828125,
                130.12353515625,
                380.034423828125
            ]
        },
        {
            "children" : [
                1
            ],
            "name" : "vase.005",
            "rotation" : [
                0,
                0,
                0.5299639105796814,
                0.8480201959609985
            ],
            "scale" : [
                0.0009571267873980105,
                0.0009571267873980105,
                0.0009571269620209932
            ],
            "translation" : [
                -9.323566436767578,
                -7.686488151550293,
                3.416908025741577
            ]
        },
        {
            "children" : [
                2
            ],
            "name" : "Empty",
            "rotation" : [
                -0.7071068286895752,
                0,
                0,
                0.7071067094802856
            ],
            "scale" : [
                100,
                100,
                100
            ],
            "translation" : [
                523.5460205078125,
                37.86357498168945,
                -468.0550231933594
            ]
        },
        {
            "children" : [
                3
            ],
            "name" : "RootNode"
        },
        {
            "children" : [
                4
            ],
            "name" : "Object_2"
        },
        {
            "children" : [
                5
            ],
            "name" : "d12e33ed341b43afa21f0f6b07c1d5db.fbx",
            "rotation" : [
                0.7071068286895752,
                0,
                0,
                0.7071068286895752
            ]
        },
        {
            "children" : [
                6
            ],
            "name" : "Sketchfab_model",
            "rotation" : [
                -0.7071068286895752,
                0,
                0,
                0.7071068286895752
            ],
            "scale" : [
                0.003985759802162647,
                0.003985759802162647,
                0.003985759802162647
            ],
            "translation" : [
                0,
                2.573600113464636e-06,
                -0.00014259020099416375
            ]
        }
    ],
    "materials" : [
        {
            "doubleSided" : true,
            "name" : "01_-_Default",
            "pbrMetallicRoughness" : {
                "baseColorTexture" : {
                    "index" : 0
                },
                "metallicFactor" : 0,
                "roughnessFactor" : 0.823941707611084
            }
        }
    ],
    "meshes" : [
        {
            "name" : "GrowFX01_01 - Default_0",
            "primitives" : [
                {
                    "attributes" : {
                        "POSITION" : 0,
                        "NORMAL" : 1,
                        "TEXCOORD_0" : 2
                    },
                    "indices" : 3,
                    "material" : 0
                }
            ]
        }
    ],
    "textures" : [
        {
            "sampler" : 0,
            "source" : 0
        }
    ],
    "images" : [
        {
            "bufferView" : 4,
            "mimeType" : "image/png",
            "name" : "01_-_Default_baseColor"
        }
    ],
    "accessors" : [
        {
            "bufferView" : 0,
            "componentType" : 5126,
            "count" : 9196,
            "max" : [
                351.8133239746094,
                245.9252166748047,
                281.22491455078125
            ],
            "min" : [
                -536.1951904296875,
                -506.1728820800781,
                -1041.2957763671875
            ],
            "type" : "VEC3"
        },
        {
            "bufferView" : 1,
            "componentType" : 5126,
            "count" : 9196,
            "type" : "VEC3"
        },
        {
            "bufferView" : 2,
            "componentType" : 5126,
            "count" : 9196,
            "type" : "VEC2"
        },
        {
            "bufferView" : 3,
            "componentType" : 5123,
            "count" : 25389,
            "type" : "SCALAR"
        }
    ],
    "bufferViews" : [
        {
            "buffer" : 0,
            "byteLength" : 110352,
            "byteOffset" : 0
        },
        {
            "buffer" : 0,
            "byteLength" : 110352,
            "byteOffset" : 110352
        },
        {
            "buffer" : 0,
            "byteLength" : 73568,
            "byteOffset" : 220704
        },
        {
            "buffer" : 0,
            "byteLength" : 50778,
            "byteOffset" : 294272
        },
        {
            "buffer" : 0,
            "byteLength" : 773341,
            "byteOffset" : 345052
        }
    ],
    "samplers" : [
        {
            "magFilter" : 9729,
            "minFilter" : 9987
        }
    ],
    "buffers" : [
        {
            "byteLength" : 1118396,
            "uri" : "data:application/octet-stream;base64,"
        }
    ]
}
