{"accessors":[{"bufferView":0,"byteOffset":0,"componentType":5126,"count":525,"max":[0.06233857944607735,0.06600203365087509,0.0571211539208889],"min":[-0.06233857944607735,-0.0716216117143631,-0.09210646152496338],"type":"VEC3"},{"bufferView":1,"byteOffset":0,"componentType":5126,"count":525,"max":[0.9999884366989136,0.9999868273735046,1.0],"min":[-0.9999884366989136,-0.9999883770942688,-1.0],"type":"VEC3"},{"bufferView":2,"byteOffset":0,"componentType":5126,"count":525,"max":[0.967903733253479,0.9931773543357849],"min":[0.004003290086984634,0.02881106734275818],"type":"VEC2"},{"bufferView":3,"byteOffset":0,"componentType":5125,"count":2652,"type":"SCALAR"},{"bufferView":4,"byteOffset":0,"componentType":5126,"count":525,"max":[0.0486367829144001,0.05149507522583008,0.04456622153520584],"min":[-0.048636794090270996,-0.0558793842792511,-0.07186169922351837],"type":"VEC3"},{"bufferView":5,"byteOffset":0,"componentType":5126,"count":525,"max":[0.9999884366989136,0.9999868273735046,1.0],"min":[-0.9999884366989136,-0.9999884366989136,-1.0],"type":"VEC3"},{"bufferView":6,"byteOffset":0,"componentType":5126,"count":525,"max":[0.9581927061080933,0.9931773543357849],"min":[0.008356276899576187,0.02726086974143982],"type":"VEC2"},{"bufferView":7,"byteOffset":0,"componentType":5125,"count":2652,"type":"SCALAR"},{"bufferView":8,"byteOffset":0,"componentType":5126,"count":525,"max":[0.03408006578683853,0.03608289733529091,0.031227774918079376],"min":[-0.03408006578683853,-0.03915498033165932,-0.050353921949863434],"type":"VEC3"},{"bufferView":9,"byteOffset":0,"componentType":5126,"count":525,"max":[0.9999884366989136,0.9999868273735046,1.0],"min":[-0.9999884366989136,-0.9999884366989136,-1.0],"type":"VEC3"},{"bufferView":10,"byteOffset":0,"componentType":5126,"count":525,"max":[0.9866575002670288,0.7840847969055176],"min":[0.0021851100027561188,0.0241604745388031],"type":"VEC2"},{"bufferView":11,"byteOffset":0,"componentType":5125,"count":2652,"type":"SCALAR"},{"bufferView":12,"byteOffset":0,"componentType":5126,"count":130,"max":[0.15743471682071686,0.3218163549900055,0.030995748937129974],"min":[-0.15743471682071686,-0.3218163549900055,0.00025040656328201294],"type":"VEC3"},{"bufferView":13,"byteOffset":0,"componentType":5126,"count":130,"max":[1.0,1.0,1.0],"min":[-1.0,-1.0,-1.0],"type":"VEC3"},{"bufferView":14,"byteOffset":0,"componentType":5126,"count":130,"max":[0.707124650478363,1.0,1.0,1.0],"min":[-0.7071236371994019,-0.7071254849433899,-1.0,1.0],"type":"VEC4"},{"bufferView":15,"byteOffset":0,"componentType":5126,"count":130,"max":[0.9950792789459229,0.9889351725578308],"min":[0.005954018794000149,0.019545862451195717],"type":"VEC2"},{"bufferView":16,"byteOffset":0,"componentType":5125,"count":324,"type":"SCALAR"}],"asset":{"extras":{"author":"cesar.seidel (https://sketchfab.com/cesar.seidel)","created":"Sat Apr 16 05:31:34 2022","license":"CC-BY-4.0 (http://creativecommons.org/licenses/by/4.0/)","source":"https://sketchfab.com/3d-models/beakers-b63ae471653f41e4b327cdcc796fc20c","title":"Beakers"},"generator":"Gestaltor 2022.1.1 Bavette Professional","version":"2.0"},"bufferViews":[{"buffer":0,"byteLength":6300,"byteOffset":0,"byteStride":12,"target":34962},{"buffer":0,"byteLength":6300,"byteOffset":6300,"byteStride":12,"target":34962},{"buffer":0,"byteLength":4200,"byteOffset":12600,"byteStride":8,"target":34962},{"buffer":0,"byteLength":10608,"byteOffset":16800,"target":34963},{"buffer":0,"byteLength":6300,"byteOffset":27408,"byteStride":12,"target":34962},{"buffer":0,"byteLength":6300,"byteOffset":33708,"byteStride":12,"target":34962},{"buffer":0,"byteLength":4200,"byteOffset":40008,"byteStride":8,"target":34962},{"buffer":0,"byteLength":10608,"byteOffset":44208,"target":34963},{"buffer":0,"byteLength":6300,"byteOffset":54816,"byteStride":12,"target":34962},{"buffer":0,"byteLength":6300,"byteOffset":61116,"byteStride":12,"target":34962},{"buffer":0,"byteLength":4200,"byteOffset":67416,"byteStride":8,"target":34962},{"buffer":0,"byteLength":10608,"byteOffset":71616,"target":34963},{"buffer":0,"byteLength":1560,"byteOffset":82224,"byteStride":12,"target":34962},{"buffer":0,"byteLength":1560,"byteOffset":83784,"byteStride":12,"target":34962},{"buffer":0,"byteLength":2080,"byteOffset":85344,"byteStride":16,"target":34962},{"buffer":0,"byteLength":1040,"byteOffset":87424,"byteStride":8,"target":34962},{"buffer":0,"byteLength":1296,"byteOffset":88464,"target":34963}],"buffers":[{"byteLength":89760,"uri":"scene.bin"}],"extensionsUsed":["KHR_materials_pbrSpecularGlossiness"],"images":[{"mimeType":"image/png","uri":"textures/Glass_MAT_diffuse.png"},{"mimeType":"image/png","uri":"textures/Glass_MAT_specularGlossiness.png"},{"mimeType":"image/png","uri":"textures/Glass_MAT_occlusion.png"}],"materials":[{"alphaMode":"BLEND","doubleSided":true,"extensions":{"KHR_materials_pbrSpecularGlossiness":{"diffuseFactor":[0.8556051858,0.8556051858,0.8556051858,1.0],"diffuseTexture":{"index":0},"glossinessFactor":1.0,"specularFactor":[0.8346937720786288,0.8346937720786288,0.8346937720786288],"specularGlossinessTexture":{"index":1}}},"name":"Glass_MAT","occlusionTexture":{"index":2}}],"meshes":[{"name":"Bequer_500mL_Glass_MAT_0","primitives":[{"attributes":{"NORMAL":1,"POSITION":0,"TEXCOORD_0":2},"indices":3,"material":0,"mode":4}]},{"name":"Bequer_250mL_Glass_MAT_0","primitives":[{"attributes":{"NORMAL":5,"POSITION":4,"TEXCOORD_0":6},"indices":7,"material":0,"mode":4}]},{"name":"Bequer_100mL_Glass_MAT_0","primitives":[{"attributes":{"NORMAL":9,"POSITION":8,"TEXCOORD_0":10},"indices":11,"material":0,"mode":4}]},{"name":"Cube_Granite_MAT_0","primitives":[{"attributes":{"NORMAL":13,"POSITION":12,"TANGENT":14,"TEXCOORD_0":15},"indices":16,"mode":4}]}],"nodes":[{"children":[8],"matrix":[1.0,0.0,0.0,0.0,0.0,2.220446049250313e-16,-1.0,0.0,0.0,1.0,2.220446049250313e-16,0.0,0.0,0.0,0.0,1.0],"name":"Sketchfab_model"},{"children":[2],"matrix":[0.009999999776482582,0.0,0.0,0.0,0.0,2.2204459996194763e-18,0.009999999776482582,0.0,0.0,-0.009999999776482582,2.2204459996194763e-18,0.0,0.0,0.0,0.0,1.0],"name":"3d009a63248e4567865f35bf2bf48217.fbx"},{"children":[3],"name":"RootNode"},{"matrix":[100.0,0.0,0.0,0.0,0.0,-1.6292067894774217e-05,-99.99999999999866,0.0,0.0,99.99999999999866,-1.6292067894774217e-05,0.0,0.0,3.0995748043060303,0.0,1.0],"name":"Bequers"},{"matrix":[1.0,0.0,0.0,0.0,0.0,1.0,-2.646977960169688e-23,0.0,0.0,2.646977960169688e-23,1.0,0.0,1.984136632771083e-09,0.19999103248119354,0.09210648387670517,1.0],"name":"Bequer_500mL"},{"mesh":0,"name":"Bequer_500mL_Glass_MAT_0"},{"matrix":[1.0,0.0,0.0,0.0,0.0,1.0,-2.646977960169688e-23,0.0,0.0,2.646977960169688e-23,1.0,0.0,3.847453022842728e-09,-0.0012030646903440356,0.07186170667409897,1.0],"name":"Bequer_250mL"},{"mesh":1,"name":"Bequer_250mL_Glass_MAT_0"},{"children":[9],"matrix":[1.0,0.0,0.0,0.0,0.0,1.0,-2.646977960169688e-23,0.0,0.0,2.646977960169688e-23,1.0,0.0,0.0,0.0,0.050353907048702,1.0],"name":"Bequer_100mL"},{"mesh":2,"name":"Bequer_100mL_Glass_MAT_0"},{"matrix":[100.0,0.0,0.0,0.0,0.0,-1.6292067894774217e-05,-99.99999999999866,0.0,0.0,99.99999999999866,-1.6292067894774217e-05,0.0,0.0,0.0,0.0,1.0],"name":"Cube"},{"mesh":3,"name":"Cube_Granite_MAT_0"}],"samplers":[{"magFilter":9729,"minFilter":9987,"wrapS":10497,"wrapT":10497}],"scene":0,"scenes":[{"name":"Sketchfab_Scene","nodes":[0]}],"textures":[{"sampler":0,"source":0},{"sampler":0,"source":1},{"sampler":0,"source":2}]}