{
    "asset" : {
        "generator" : "Khronos glTF Blender I/O v1.6.16",
        "version" : "2.0"
    },
    "scene" : 0,
    "scenes" : [
        {
            "name" : "Scene",
            "nodes" : [
                0
            ]
        }
    ],
    "nodes" : [
        {
            "mesh" : 0,
            "name" : "charriot",
            "rotation" : [
                0.7071068286895752,
                0,
                0,
                0.7071068286895752
            ],
            "scale" : [
                0.009999999776482582,
                0.009999999776482582,
                0.009999999776482582
            ],
            "translation" : [
                0.00038739293813705444,
                0.024270161986351013,
                -0.03405166417360306
            ]
        }
    ],
    "materials" : [
        {
            "doubleSided" : true,
            "name" : "Glass - Light Color (Blue)",
            "pbrMetallicRoughness" : {
                "baseColorFactor" : [
                    0.42352941632270813,
                    0.7686274647712708,
                    0.8549019694328308,
                    1
                ],
                "roughnessFactor" : 0.5527864098548889
            }
        },
        {
            "doubleSided" : true,
            "name" : "Opaque(188,80,47)",
            "pbrMetallicRoughness" : {
                "baseColorFactor" : [
                    0.7372549176216125,
                    0.3137255012989044,
                    0.18431372940540314,
                    1
                ],
                "roughnessFactor" : 0.5527864098548889
            }
        },
        {
            "doubleSided" : true,
            "name" : "Opaque(190,188,186)",
            "pbrMetallicRoughness" : {
                "baseColorFactor" : [
                    0.7450980544090271,
                    0.7372549176216125,
                    0.729411780834198,
                    1
                ],
                "roughnessFactor" : 0.5527864098548889
            }
        },
        {
            "doubleSided" : true,
            "name" : "Opaque(244,244,244)",
            "pbrMetallicRoughness" : {
                "baseColorFactor" : [
                    0.95686274766922,
                    0.95686274766922,
                    0.95686274766922,
                    1
                ],
                "roughnessFactor" : 0.5527864098548889
            }
        }
    ],
    "meshes" : [
        {
            "name" : "Body1.016",
            "primitives" : [
                {
                    "attributes" : {
                        "POSITION" : 0,
                        "NORMAL" : 1,
                        "TEXCOORD_0" : 2
                    },
                    "indices" : 3,
                    "material" : 0
                },
                {
                    "attributes" : {
                        "POSITION" : 4,
                        "NORMAL" : 5,
                        "TEXCOORD_0" : 6
                    },
                    "indices" : 7,
                    "material" : 1
                },
                {
                    "attributes" : {
                        "POSITION" : 8,
                        "NORMAL" : 9,
                        "TEXCOORD_0" : 10
                    },
                    "indices" : 11,
                    "material" : 2
                },
                {
                    "attributes" : {
                        "POSITION" : 12,
                        "NORMAL" : 13,
                        "TEXCOORD_0" : 14
                    },
                    "indices" : 15,
                    "material" : 3
                }
            ]
        }
    ],
    "accessors" : [
        {
            "bufferView" : 0,
            "componentType" : 5126,
            "count" : 2502,
            "max" : [
                5.225948810577393,
                5.400080680847168,
                2.3767008781433105
            ],
            "min" : [
                -6.458130359649658,
                0.20008105039596558,
                -3.9232993125915527
            ],
            "type" : "VEC3"
        },
        {
            "bufferView" : 1,
            "componentType" : 5126,
            "count" : 2502,
            "type" : "VEC3"
        },
        {
            "bufferView" : 2,
            "componentType" : 5126,
            "count" : 2502,
            "type" : "VEC2"
        },
        {
            "bufferView" : 3,
            "componentType" : 5123,
            "count" : 8898,
            "type" : "SCALAR"
        },
        {
            "bufferView" : 4,
            "componentType" : 5126,
            "count" : 2942,
            "max" : [
                4.025949001312256,
                0.20008468627929688,
                2.376702308654785
            ],
            "min" : [
                -5.37405252456665,
                -0.9999175667762756,
                -2.623297691345215
            ],
            "type" : "VEC3"
        },
        {
            "bufferView" : 5,
            "componentType" : 5126,
            "count" : 2942,
            "type" : "VEC3"
        },
        {
            "bufferView" : 6,
            "componentType" : 5126,
            "count" : 2942,
            "type" : "VEC2"
        },
        {
            "bufferView" : 7,
            "componentType" : 5123,
            "count" : 10260,
            "type" : "SCALAR"
        },
        {
            "bufferView" : 8,
            "componentType" : 5126,
            "count" : 12488,
            "max" : [
                4.0297956466674805,
                0.6000852584838867,
                2.156689167022705
            ],
            "min" : [
                -5.394495487213135,
                -0.43666449189186096,
                -2.403273582458496
            ],
            "type" : "VEC3"
        },
        {
            "bufferView" : 9,
            "componentType" : 5126,
            "count" : 12488,
            "type" : "VEC3"
        },
        {
            "bufferView" : 10,
            "componentType" : 5126,
            "count" : 12488,
            "type" : "VEC2"
        },
        {
            "bufferView" : 11,
            "componentType" : 5123,
            "count" : 45504,
            "type" : "SCALAR"
        },
        {
            "bufferView" : 12,
            "componentType" : 5126,
            "count" : 1493,
            "max" : [
                5.225949287414551,
                1.5879089832305908,
                1.642442226409912
            ],
            "min" : [
                5.025949001312256,
                0.5880901217460632,
                0.643165111541748
            ],
            "type" : "VEC3"
        },
        {
            "bufferView" : 13,
            "componentType" : 5126,
            "count" : 1493,
            "type" : "VEC3"
        },
        {
            "bufferView" : 14,
            "componentType" : 5126,
            "count" : 1493,
            "type" : "VEC2"
        },
        {
            "bufferView" : 15,
            "componentType" : 5123,
            "count" : 7284,
            "type" : "SCALAR"
        }
    ],
    "bufferViews" : [
        {
            "buffer" : 0,
            "byteLength" : 30024,
            "byteOffset" : 0
        },
        {
            "buffer" : 0,
            "byteLength" : 30024,
            "byteOffset" : 30024
        },
        {
            "buffer" : 0,
            "byteLength" : 20016,
            "byteOffset" : 60048
        },
        {
            "buffer" : 0,
            "byteLength" : 17796,
            "byteOffset" : 80064
        },
        {
            "buffer" : 0,
            "byteLength" : 35304,
            "byteOffset" : 97860
        },
        {
            "buffer" : 0,
            "byteLength" : 35304,
            "byteOffset" : 133164
        },
        {
            "buffer" : 0,
            "byteLength" : 23536,
            "byteOffset" : 168468
        },
        {
            "buffer" : 0,
            "byteLength" : 20520,
            "byteOffset" : 192004
        },
        {
            "buffer" : 0,
            "byteLength" : 149856,
            "byteOffset" : 212524
        },
        {
            "buffer" : 0,
            "byteLength" : 149856,
            "byteOffset" : 362380
        },
        {
            "buffer" : 0,
            "byteLength" : 99904,
            "byteOffset" : 512236
        },
        {
            "buffer" : 0,
            "byteLength" : 91008,
            "byteOffset" : 612140
        },
        {
            "buffer" : 0,
            "byteLength" : 17916,
            "byteOffset" : 703148
        },
        {
            "buffer" : 0,
            "byteLength" : 17916,
            "byteOffset" : 721064
        },
        {
            "buffer" : 0,
            "byteLength" : 11944,
            "byteOffset" : 738980
        },
        {
            "buffer" : 0,
            "byteLength" : 14568,
            "byteOffset" : 750924
        }
    ],
    "buffers" : [
        {
            "byteLength" : 765492,
            "uri" : "data:application/octet-stream;base64,"
        }
    ]
}
