{
	"accessors": [
		{
			"bufferView": 0,
			"byteOffset": 0,
			"componentType": 5126,
			"count": 1,
			"max": [
				0.04
			],
			"min": [
				0.04
			],
			"type": "SCALAR"
		},
		{
			"bufferView": 1,
			"byteOffset": 0,
			"componentType": 5126,
			"count": 1,
			"type": "VEC4"
		},
		{
			"bufferView": 2,
			"byteOffset": 0,
			"componentType": 5126,
			"count": 20,
			"max": [
				0.8
			],
			"min": [
				0.04
			],
			"type": "SCALAR"
		},
		{
			"bufferView": 3,
			"byteOffset": 0,
			"componentType": 5126,
			"count": 20,
			"type": "VEC4"
		},
		{
			"bufferView": 4,
			"byteOffset": 0,
			"componentType": 5126,
			"count": 1,
			"type": "VEC4"
		},
		{
			"bufferView": 5,
			"byteOffset": 0,
			"componentType": 5126,
			"count": 20,
			"type": "VEC4"
		},
		{
			"bufferView": 6,
			"byteOffset": 0,
			"componentType": 5121,
			"count": 132,
			"max": [
				55.0
			],
			"min": [
				0.0
			],
			"type": "SCALAR"
		},
		{
			"bufferView": 7,
			"byteOffset": 0,
			"componentType": 5126,
			"count": 56,
			"max": [
				1.0,
				1.0,
				1.0
			],
			"min": [
				-1.0,
				-1.0,
				-1.0
			],
			"type": "VEC3"
		},
		{
			"bufferView": 8,
			"byteOffset": 0,
			"componentType": 5126,
			"count": 56,
			"max": [
				20.0,
				100.0,
				50.0
			],
			"min": [
				0.0,
				-100.0,
				-50.0
			],
			"type": "VEC3"
		},
		{
			"bufferView": 9,
			"byteOffset": 0,
			"componentType": 5126,
			"count": 56,
			"max": [
				200.0,
				101.0
			],
			"min": [
				-100.0,
				-99.0
			],
			"type": "VEC2"
		},
		{
			"bufferView": 10,
			"byteOffset": 0,
			"componentType": 5123,
			"count": 1518,
			"max": [
				452.0
			],
			"min": [
				0.0
			],
			"type": "SCALAR"
		},
		{
			"bufferView": 11,
			"byteOffset": 0,
			"componentType": 5126,
			"count": 453,
			"max": [
				1.0,
				1.0,
				1.0
			],
			"min": [
				-1.0,
				-1.0,
				-1.0
			],
			"type": "VEC3"
		},
		{
			"bufferView": 12,
			"byteOffset": 0,
			"componentType": 5126,
			"count": 453,
			"max": [
				-0.14295092225074768,
				66.57276153564453,
				-41.2513427734375
			],
			"min": [
				-1.6770949363708496,
				54.68894958496094,
				-42.78731155395508
			],
			"type": "VEC3"
		},
		{
			"bufferView": 13,
			"byteOffset": 0,
			"componentType": 5126,
			"count": 453,
			"max": [
				8.39852523803711,
				3.169647693634033
			],
			"min": [
				-3.485288619995117,
				-1.1696476936340332
			],
			"type": "VEC2"
		},
		{
			"bufferView": 14,
			"byteOffset": 0,
			"componentType": 5123,
			"count": 6090,
			"max": [
				1737.0
			],
			"min": [
				0.0
			],
			"type": "SCALAR"
		},
		{
			"bufferView": 15,
			"byteOffset": 0,
			"componentType": 5126,
			"count": 1738,
			"max": [
				1.0000001192092896,
				1.0,
				1.0
			],
			"min": [
				-1.0,
				-1.0,
				-1.0
			],
			"type": "VEC3"
		},
		{
			"bufferView": 16,
			"byteOffset": 0,
			"componentType": 5126,
			"count": 1738,
			"max": [
				4.804976940155029,
				66.34585571289063,
				-41.24568176269531
			],
			"min": [
				-1.6834415197372437,
				54.915855407714844,
				-42.79261779785156
			],
			"type": "VEC3"
		},
		{
			"bufferView": 17,
			"byteOffset": 0,
			"componentType": 5126,
			"count": 1738,
			"max": [
				8.73470401763916,
				11.95720386505127
			],
			"min": [
				-10.95720386505127,
				-15.204647064208984
			],
			"type": "VEC2"
		},
		{
			"bufferView": 18,
			"byteOffset": 0,
			"componentType": 5123,
			"count": 1620,
			"max": [
				465.0
			],
			"min": [
				0.0
			],
			"type": "SCALAR"
		},
		{
			"bufferView": 19,
			"byteOffset": 0,
			"componentType": 5126,
			"count": 466,
			"max": [
				1.0000001192092896,
				1.0,
				1.0000001192092896
			],
			"min": [
				-1.0000001192092896,
				-1.0,
				-1.0
			],
			"type": "VEC3"
		},
		{
			"bufferView": 20,
			"byteOffset": 0,
			"componentType": 5126,
			"count": 466,
			"max": [
				-0.13611666858196259,
				64.91710662841797,
				-41.245418548583984
			],
			"min": [
				-1.683929204940796,
				64.12335205078125,
				-42.79323196411133
			],
			"type": "VEC3"
		},
		{
			"bufferView": 21,
			"byteOffset": 0,
			"componentType": 5126,
			"count": 466,
			"max": [
				2.982687473297119,
				3.1889781951904297
			],
			"min": [
				-2.982687473297119,
				-1.1889781951904297
			],
			"type": "VEC2"
		},
		{
			"bufferView": 22,
			"byteOffset": 0,
			"componentType": 5123,
			"count": 1620,
			"max": [
				465.0
			],
			"min": [
				0.0
			],
			"type": "SCALAR"
		},
		{
			"bufferView": 23,
			"byteOffset": 0,
			"componentType": 5126,
			"count": 466,
			"max": [
				1.0,
				1.0,
				1.0000001192092896
			],
			"min": [
				-1.0000001192092896,
				-1.0,
				-1.0
			],
			"type": "VEC3"
		},
		{
			"bufferView": 24,
			"byteOffset": 0,
			"componentType": 5126,
			"count": 466,
			"max": [
				-0.13611666858196259,
				57.13835525512695,
				-41.245418548583984
			],
			"min": [
				-1.683929204940796,
				56.3446044921875,
				-42.79323196411133
			],
			"type": "VEC3"
		},
		{
			"bufferView": 25,
			"byteOffset": 0,
			"componentType": 5126,
			"count": 466,
			"max": [
				2.982687473297119,
				3.1889781951904297
			],
			"min": [
				-2.982687473297119,
				-1.1889781951904297
			],
			"type": "VEC2"
		},
		{
			"bufferView": 26,
			"byteOffset": 0,
			"componentType": 5123,
			"count": 1518,
			"max": [
				452.0
			],
			"min": [
				0.0
			],
			"type": "SCALAR"
		},
		{
			"bufferView": 27,
			"byteOffset": 0,
			"componentType": 5126,
			"count": 453,
			"max": [
				1.0,
				1.0,
				1.0
			],
			"min": [
				-1.0000001192092896,
				-1.0,
				-1.0
			],
			"type": "VEC3"
		},
		{
			"bufferView": 28,
			"byteOffset": 0,
			"componentType": 5126,
			"count": 453,
			"max": [
				-0.14295092225074768,
				-63.42723846435547,
				-41.2513427734375
			],
			"min": [
				-1.6770949363708496,
				-75.31105041503906,
				-42.78731155395508
			],
			"type": "VEC3"
		},
		{
			"bufferView": 29,
			"byteOffset": 0,
			"componentType": 5126,
			"count": 453,
			"max": [
				8.39852523803711,
				3.169647693634033
			],
			"min": [
				-3.485288619995117,
				-1.1696476936340332
			],
			"type": "VEC2"
		},
		{
			"bufferView": 30,
			"byteOffset": 0,
			"componentType": 5123,
			"count": 6090,
			"max": [
				1737.0
			],
			"min": [
				0.0
			],
			"type": "SCALAR"
		},
		{
			"bufferView": 31,
			"byteOffset": 0,
			"componentType": 5126,
			"count": 1738,
			"max": [
				1.0000001192092896,
				1.0,
				1.0
			],
			"min": [
				-1.0,
				-1.0,
				-1.0
			],
			"type": "VEC3"
		},
		{
			"bufferView": 32,
			"byteOffset": 0,
			"componentType": 5126,
			"count": 1738,
			"max": [
				4.804976940155029,
				-63.654144287109375,
				-41.24568176269531
			],
			"min": [
				-1.6834415197372437,
				-75.08414459228516,
				-42.79261779785156
			],
			"type": "VEC3"
		},
		{
			"bufferView": 33,
			"byteOffset": 0,
			"componentType": 5126,
			"count": 1738,
			"max": [
				8.73470401763916,
				11.95720386505127
			],
			"min": [
				-10.95720386505127,
				-15.204647064208984
			],
			"type": "VEC2"
		},
		{
			"bufferView": 34,
			"byteOffset": 0,
			"componentType": 5123,
			"count": 1620,
			"max": [
				465.0
			],
			"min": [
				0.0
			],
			"type": "SCALAR"
		},
		{
			"bufferView": 35,
			"byteOffset": 0,
			"componentType": 5126,
			"count": 466,
			"max": [
				1.0000001192092896,
				1.0,
				1.0000001192092896
			],
			"min": [
				-1.0000001192092896,
				-1.0,
				-1.0
			],
			"type": "VEC3"
		},
		{
			"bufferView": 36,
			"byteOffset": 0,
			"componentType": 5126,
			"count": 466,
			"max": [
				-0.13611666858196259,
				-65.08289337158203,
				-41.245418548583984
			],
			"min": [
				-1.683929204940796,
				-65.87664794921875,
				-42.79323196411133
			],
			"type": "VEC3"
		},
		{
			"bufferView": 37,
			"byteOffset": 0,
			"componentType": 5126,
			"count": 466,
			"max": [
				2.982687473297119,
				3.1889781951904297
			],
			"min": [
				-2.982687473297119,
				-1.1889781951904297
			],
			"type": "VEC2"
		},
		{
			"bufferView": 38,
			"byteOffset": 0,
			"componentType": 5123,
			"count": 1620,
			"max": [
				465.0
			],
			"min": [
				0.0
			],
			"type": "SCALAR"
		},
		{
			"bufferView": 39,
			"byteOffset": 0,
			"componentType": 5126,
			"count": 466,
			"max": [
				1.0000001192092896,
				1.0,
				1.0
			],
			"min": [
				-1.0000001192092896,
				-1.0,
				-1.0
			],
			"type": "VEC3"
		},
		{
			"bufferView": 40,
			"byteOffset": 0,
			"componentType": 5126,
			"count": 466,
			"max": [
				-0.13611666858196259,
				-72.86164855957031,
				-41.245418548583984
			],
			"min": [
				-1.683929204940796,
				-73.6553955078125,
				-42.79323196411133
			],
			"type": "VEC3"
		},
		{
			"bufferView": 41,
			"byteOffset": 0,
			"componentType": 5126,
			"count": 466,
			"max": [
				2.982687473297119,
				3.1889781951904297
			],
			"min": [
				-2.982687473297119,
				-1.1889781951904297
			],
			"type": "VEC2"
		},
		{
			"bufferView": 42,
			"byteOffset": 0,
			"componentType": 5121,
			"count": 72,
			"max": [
				29.0
			],
			"min": [
				0.0
			],
			"type": "SCALAR"
		},
		{
			"bufferView": 43,
			"byteOffset": 0,
			"componentType": 5126,
			"count": 30,
			"max": [
				1.0,
				1.0,
				1.0
			],
			"min": [
				-1.0,
				-1.0,
				-1.0
			],
			"type": "VEC3"
		},
		{
			"bufferView": 44,
			"byteOffset": 0,
			"componentType": 5126,
			"count": 30,
			"max": [
				5.89754581451416,
				167.21124267578125,
				83.89010620117188
			],
			"min": [
				0.8975461721420288,
				-24.688764572143555,
				0.0901031494140625
			],
			"type": "VEC3"
		},
		{
			"bufferView": 45,
			"byteOffset": 0,
			"componentType": 5126,
			"count": 30,
			"max": [
				191.89999389648438,
				96.94999694824219
			],
			"min": [
				-95.94999694824219,
				-94.94999694824219
			],
			"type": "VEC2"
		},
		{
			"bufferView": 46,
			"byteOffset": 0,
			"componentType": 5123,
			"count": 7098,
			"max": [
				2043.0
			],
			"min": [
				0.0
			],
			"type": "SCALAR"
		},
		{
			"bufferView": 47,
			"byteOffset": 0,
			"componentType": 5126,
			"count": 2044,
			"max": [
				1.0000001192092896,
				1.0,
				1.0
			],
			"min": [
				-1.0,
				-1.0,
				-1.0
			],
			"type": "VEC3"
		},
		{
			"bufferView": 48,
			"byteOffset": 0,
			"componentType": 5126,
			"count": 2044,
			"max": [
				5.702523231506348,
				141.65708923339844,
				0.7440719604492188
			],
			"min": [
				-0.7858953475952148,
				130.22708129882813,
				-0.8028678894042969
			],
			"type": "VEC3"
		},
		{
			"bufferView": 49,
			"byteOffset": 0,
			"componentType": 5126,
			"count": 2044,
			"max": [
				11.430000305175781,
				12.430000305175781
			],
			"min": [
				-11.430000305175781,
				-0.9029421806335449
			],
			"type": "VEC2"
		},
		{
			"bufferView": 50,
			"byteOffset": 0,
			"componentType": 5123,
			"count": 7098,
			"max": [
				2045.0
			],
			"min": [
				0.0
			],
			"type": "SCALAR"
		},
		{
			"bufferView": 51,
			"byteOffset": 0,
			"componentType": 5126,
			"count": 2046,
			"max": [
				1.0000001192092896,
				1.0,
				1.0
			],
			"min": [
				-1.0000001192092896,
				-1.0,
				-1.0
			],
			"type": "VEC3"
		},
		{
			"bufferView": 52,
			"byteOffset": 0,
			"componentType": 5126,
			"count": 2046,
			"max": [
				5.702523231506348,
				11.65709114074707,
				0.7440719604492188
			],
			"min": [
				-0.7858953475952148,
				0.22709083557128906,
				-0.8028678894042969
			],
			"type": "VEC3"
		},
		{
			"bufferView": 53,
			"byteOffset": 0,
			"componentType": 5126,
			"count": 2046,
			"max": [
				11.430000305175781,
				12.430000305175781
			],
			"min": [
				-11.430000305175781,
				-0.9029421806335449
			],
			"type": "VEC2"
		}
	],
	"animations": [
		{
			"channels": [
				{
					"sampler": 0,
					"target": {
						"node": 14,
						"path": "rotation"
					}
				}
			],
			"name": "ferme",
			"samplers": [
				{
					"input": 0,
					"interpolation": "STEP",
					"output": 1
				}
			]
		},
		{
			"channels": [
				{
					"sampler": 0,
					"target": {
						"node": 14,
						"path": "rotation"
					}
				}
			],
			"name": "fermer",
			"samplers": [
				{
					"input": 2,
					"interpolation": "LINEAR",
					"output": 3
				}
			]
		},
		{
			"channels": [
				{
					"sampler": 0,
					"target": {
						"node": 14,
						"path": "rotation"
					}
				}
			],
			"name": "ouvert",
			"samplers": [
				{
					"input": 0,
					"interpolation": "STEP",
					"output": 4
				}
			]
		},
		{
			"channels": [
				{
					"sampler": 0,
					"target": {
						"node": 14,
						"path": "rotation"
					}
				}
			],
			"name": "ouvrir",
			"samplers": [
				{
					"input": 2,
					"interpolation": "LINEAR",
					"output": 5
				}
			]
		}
	],
	"asset": {
		"extras": {
			"created": "Fri Oct 14 08:04:55 2022"
		},
		"generator": "Gestaltor 2022.4.0 Pappardelle Professional",
		"version": "2.0"
	},
	"bufferViews": [
		{
			"buffer": 0,
			"byteLength": 4,
			"byteOffset": 0
		},
		{
			"buffer": 0,
			"byteLength": 16,
			"byteOffset": 4
		},
		{
			"buffer": 0,
			"byteLength": 80,
			"byteOffset": 20
		},
		{
			"buffer": 0,
			"byteLength": 320,
			"byteOffset": 100
		},
		{
			"buffer": 0,
			"byteLength": 16,
			"byteOffset": 420
		},
		{
			"buffer": 0,
			"byteLength": 320,
			"byteOffset": 436
		},
		{
			"buffer": 0,
			"byteLength": 132,
			"byteOffset": 756
		},
		{
			"buffer": 0,
			"byteLength": 672,
			"byteOffset": 888
		},
		{
			"buffer": 0,
			"byteLength": 672,
			"byteOffset": 1560
		},
		{
			"buffer": 0,
			"byteLength": 448,
			"byteOffset": 2232
		},
		{
			"buffer": 0,
			"byteLength": 3036,
			"byteOffset": 2680
		},
		{
			"buffer": 0,
			"byteLength": 5436,
			"byteOffset": 5716
		},
		{
			"buffer": 0,
			"byteLength": 5436,
			"byteOffset": 11152
		},
		{
			"buffer": 0,
			"byteLength": 3624,
			"byteOffset": 16588
		},
		{
			"buffer": 0,
			"byteLength": 12180,
			"byteOffset": 20212
		},
		{
			"buffer": 0,
			"byteLength": 20856,
			"byteOffset": 32392
		},
		{
			"buffer": 0,
			"byteLength": 20856,
			"byteOffset": 53248
		},
		{
			"buffer": 0,
			"byteLength": 13904,
			"byteOffset": 74104
		},
		{
			"buffer": 0,
			"byteLength": 3240,
			"byteOffset": 88008
		},
		{
			"buffer": 0,
			"byteLength": 5592,
			"byteOffset": 91248
		},
		{
			"buffer": 0,
			"byteLength": 5592,
			"byteOffset": 96840
		},
		{
			"buffer": 0,
			"byteLength": 3728,
			"byteOffset": 102432
		},
		{
			"buffer": 0,
			"byteLength": 3240,
			"byteOffset": 106160
		},
		{
			"buffer": 0,
			"byteLength": 5592,
			"byteOffset": 109400
		},
		{
			"buffer": 0,
			"byteLength": 5592,
			"byteOffset": 114992
		},
		{
			"buffer": 0,
			"byteLength": 3728,
			"byteOffset": 120584
		},
		{
			"buffer": 0,
			"byteLength": 3036,
			"byteOffset": 124312
		},
		{
			"buffer": 0,
			"byteLength": 5436,
			"byteOffset": 127348
		},
		{
			"buffer": 0,
			"byteLength": 5436,
			"byteOffset": 132784
		},
		{
			"buffer": 0,
			"byteLength": 3624,
			"byteOffset": 138220
		},
		{
			"buffer": 0,
			"byteLength": 12180,
			"byteOffset": 141844
		},
		{
			"buffer": 0,
			"byteLength": 20856,
			"byteOffset": 154024
		},
		{
			"buffer": 0,
			"byteLength": 20856,
			"byteOffset": 174880
		},
		{
			"buffer": 0,
			"byteLength": 13904,
			"byteOffset": 195736
		},
		{
			"buffer": 0,
			"byteLength": 3240,
			"byteOffset": 209640
		},
		{
			"buffer": 0,
			"byteLength": 5592,
			"byteOffset": 212880
		},
		{
			"buffer": 0,
			"byteLength": 5592,
			"byteOffset": 218472
		},
		{
			"buffer": 0,
			"byteLength": 3728,
			"byteOffset": 224064
		},
		{
			"buffer": 0,
			"byteLength": 3240,
			"byteOffset": 227792
		},
		{
			"buffer": 0,
			"byteLength": 5592,
			"byteOffset": 231032
		},
		{
			"buffer": 0,
			"byteLength": 5592,
			"byteOffset": 236624
		},
		{
			"buffer": 0,
			"byteLength": 3728,
			"byteOffset": 242216
		},
		{
			"buffer": 0,
			"byteLength": 72,
			"byteOffset": 245944
		},
		{
			"buffer": 0,
			"byteLength": 360,
			"byteOffset": 246016
		},
		{
			"buffer": 0,
			"byteLength": 360,
			"byteOffset": 246376
		},
		{
			"buffer": 0,
			"byteLength": 240,
			"byteOffset": 246736
		},
		{
			"buffer": 0,
			"byteLength": 14196,
			"byteOffset": 246976
		},
		{
			"buffer": 0,
			"byteLength": 24528,
			"byteOffset": 261172
		},
		{
			"buffer": 0,
			"byteLength": 24528,
			"byteOffset": 285700
		},
		{
			"buffer": 0,
			"byteLength": 16352,
			"byteOffset": 310228
		},
		{
			"buffer": 0,
			"byteLength": 14196,
			"byteOffset": 326580
		},
		{
			"buffer": 0,
			"byteLength": 24552,
			"byteOffset": 340776
		},
		{
			"buffer": 0,
			"byteLength": 24552,
			"byteOffset": 365328
		},
		{
			"buffer": 0,
			"byteLength": 16368,
			"byteOffset": 389880
		}
	],
	"buffers": [
		{
			"byteLength": 406248,
			"uri": "data:application/octet-stream;base64,"
		}
	],
	"materials": [
		{
			"doubleSided": true,
			"name": "Paint - Enamel Glossy (Blue).001",
			"pbrMetallicRoughness": {
				"baseColorFactor": [
					0.1882352977991104,
					0.23137255012989044,
					0.5882353186607361,
					1.0
				],
				"roughnessFactor": 0.5527864098548889
			}
		},
		{
			"doubleSided": true,
			"name": "Steel - Galvanized (Small).001",
			"pbrMetallicRoughness": {
				"baseColorFactor": [
					0.0,
					0.0,
					0.0,
					1.0
				],
				"roughnessFactor": 0.5527864098548889
			}
		},
		{
			"doubleSided": true,
			"name": "Paint - Enamel Glossy (Red).001",
			"pbrMetallicRoughness": {
				"baseColorFactor": [
					0.7686274647712708,
					0.2078431397676468,
					0.15294118225574493,
					1.0
				],
				"roughnessFactor": 0.5527864098548889
			}
		},
		{
			"doubleSided": true,
			"name": "Surface - Matte.001",
			"pbrMetallicRoughness": {
				"baseColorFactor": [
					0.7019608020782471,
					0.7019608020782471,
					0.7019608020782471,
					1.0
				],
				"roughnessFactor": 0.5527864098548889
			}
		}
	],
	"meshes": [
		{
			"name": "Body1.015",
			"primitives": [
				{
					"attributes": {
						"NORMAL": 7,
						"POSITION": 8,
						"TEXCOORD_0": 9
					},
					"indices": 6,
					"material": 0,
					"mode": 4
				}
			]
		},
		{
			"name": "Body2.016",
			"primitives": [
				{
					"attributes": {
						"NORMAL": 11,
						"POSITION": 12,
						"TEXCOORD_0": 13
					},
					"indices": 10,
					"material": 1,
					"mode": 4
				}
			]
		},
		{
			"name": "Body3.003",
			"primitives": [
				{
					"attributes": {
						"NORMAL": 15,
						"POSITION": 16,
						"TEXCOORD_0": 17
					},
					"indices": 14,
					"material": 1,
					"mode": 4
				}
			]
		},
		{
			"name": "Body4.001",
			"primitives": [
				{
					"attributes": {
						"NORMAL": 19,
						"POSITION": 20,
						"TEXCOORD_0": 21
					},
					"indices": 18,
					"material": 1,
					"mode": 4
				}
			]
		},
		{
			"name": "Body5.001",
			"primitives": [
				{
					"attributes": {
						"NORMAL": 23,
						"POSITION": 24,
						"TEXCOORD_0": 25
					},
					"indices": 22,
					"material": 1,
					"mode": 4
				}
			]
		},
		{
			"name": "Body6.001",
			"primitives": [
				{
					"attributes": {
						"NORMAL": 27,
						"POSITION": 28,
						"TEXCOORD_0": 29
					},
					"indices": 26,
					"material": 1,
					"mode": 4
				}
			]
		},
		{
			"name": "Body7.001",
			"primitives": [
				{
					"attributes": {
						"NORMAL": 31,
						"POSITION": 32,
						"TEXCOORD_0": 33
					},
					"indices": 30,
					"material": 1,
					"mode": 4
				}
			]
		},
		{
			"name": "Body8.001",
			"primitives": [
				{
					"attributes": {
						"NORMAL": 35,
						"POSITION": 36,
						"TEXCOORD_0": 37
					},
					"indices": 34,
					"material": 1,
					"mode": 4
				}
			]
		},
		{
			"name": "Body9.001",
			"primitives": [
				{
					"attributes": {
						"NORMAL": 39,
						"POSITION": 40,
						"TEXCOORD_0": 41
					},
					"indices": 38,
					"material": 1,
					"mode": 4
				}
			]
		},
		{
			"name": "Body1.016",
			"primitives": [
				{
					"attributes": {
						"NORMAL": 43,
						"POSITION": 44,
						"TEXCOORD_0": 45
					},
					"indices": 42,
					"material": 2,
					"mode": 4
				}
			]
		},
		{
			"name": "Body2.017",
			"primitives": [
				{
					"attributes": {
						"NORMAL": 47,
						"POSITION": 48,
						"TEXCOORD_0": 49
					},
					"indices": 46,
					"material": 3,
					"mode": 4
				}
			]
		},
		{
			"name": "Body3.004",
			"primitives": [
				{
					"attributes": {
						"NORMAL": 51,
						"POSITION": 52,
						"TEXCOORD_0": 53
					},
					"indices": 50,
					"material": 3,
					"mode": 4
				}
			]
		}
	],
	"nodes": [
		{
			"matrix": [
				10.0,
				0.0,
				0.0,
				0.0,
				0.0,
				10.0,
				0.0,
				0.0,
				0.0,
				0.0,
				10.0,
				0.0,
				0.0,
				0.0,
				0.0,
				1.0
			],
			"mesh": 0,
			"name": "Body1.015"
		},
		{
			"matrix": [
				10.0,
				0.0,
				0.0,
				0.0,
				0.0,
				10.0,
				0.0,
				0.0,
				0.0,
				0.0,
				10.0,
				0.0,
				0.0,
				0.0,
				0.0,
				1.0
			],
			"mesh": 1,
			"name": "Body2.016"
		},
		{
			"matrix": [
				10.0,
				0.0,
				0.0,
				0.0,
				0.0,
				10.0,
				0.0,
				0.0,
				0.0,
				0.0,
				10.0,
				0.0,
				0.0,
				0.0,
				0.0,
				1.0
			],
			"mesh": 2,
			"name": "Body3.003"
		},
		{
			"matrix": [
				10.0,
				0.0,
				0.0,
				0.0,
				0.0,
				10.0,
				0.0,
				0.0,
				0.0,
				0.0,
				10.0,
				0.0,
				0.0,
				0.0,
				0.0,
				1.0
			],
			"mesh": 3,
			"name": "Body4.001"
		},
		{
			"matrix": [
				10.0,
				0.0,
				0.0,
				0.0,
				0.0,
				10.0,
				0.0,
				0.0,
				0.0,
				0.0,
				10.0,
				0.0,
				0.0,
				0.0,
				0.0,
				1.0
			],
			"mesh": 4,
			"name": "Body5.001"
		},
		{
			"matrix": [
				10.0,
				0.0,
				0.0,
				0.0,
				0.0,
				10.0,
				0.0,
				0.0,
				0.0,
				0.0,
				10.0,
				0.0,
				0.0,
				0.0,
				0.0,
				1.0
			],
			"mesh": 5,
			"name": "Body6.001"
		},
		{
			"matrix": [
				10.0,
				0.0,
				0.0,
				0.0,
				0.0,
				10.0,
				0.0,
				0.0,
				0.0,
				0.0,
				10.0,
				0.0,
				0.0,
				0.0,
				0.0,
				1.0
			],
			"mesh": 6,
			"name": "Body7.001"
		},
		{
			"matrix": [
				10.0,
				0.0,
				0.0,
				0.0,
				0.0,
				10.0,
				0.0,
				0.0,
				0.0,
				0.0,
				10.0,
				0.0,
				0.0,
				0.0,
				0.0,
				1.0
			],
			"mesh": 7,
			"name": "Body8.001"
		},
		{
			"matrix": [
				10.0,
				0.0,
				0.0,
				0.0,
				0.0,
				10.0,
				0.0,
				0.0,
				0.0,
				0.0,
				10.0,
				0.0,
				0.0,
				0.0,
				0.0,
				1.0
			],
			"mesh": 8,
			"name": "Body9.001"
		},
		{
			"children": [
				0,
				1,
				2,
				3,
				4,
				5,
				6,
				7,
				8
			],
			"matrix": [
				0.0010000000474974513,
				0.0,
				0.0,
				0.0,
				0.0,
				0.0010000000474974513,
				0.0,
				0.0,
				0.0,
				0.0,
				0.0010000000474974513,
				0.0,
				0.0,
				1.0,
				-0.5,
				1.0
			],
			"name": "cadre.001"
		},
		{
			"matrix": [
				10.0,
				0.0,
				0.0,
				0.0,
				0.0,
				10.0,
				0.0,
				0.0,
				0.0,
				0.0,
				10.0,
				0.0,
				-8.97546100616455,
				-753.1123046875,
				-419.90106201171875,
				1.0
			],
			"mesh": 9,
			"name": "Body1.016"
		},
		{
			"matrix": [
				10.0,
				0.0,
				0.0,
				0.0,
				0.0,
				10.0,
				0.0,
				0.0,
				0.0,
				0.0,
				10.0,
				0.0,
				-8.97546100616455,
				-753.1123046875,
				-419.90106201171875,
				1.0
			],
			"mesh": 10,
			"name": "Body2.017"
		},
		{
			"matrix": [
				10.0,
				0.0,
				0.0,
				0.0,
				0.0,
				10.0,
				0.0,
				0.0,
				0.0,
				0.0,
				10.0,
				0.0,
				-8.97546100616455,
				-753.1123046875,
				-419.90106201171875,
				1.0
			],
			"mesh": 11,
			"name": "Body3.004"
		},
		{
			"children": [
				10,
				11,
				12
			],
			"matrix": [
				0.0010000001639127731,
				0.0,
				0.0,
				0.0,
				0.0,
				0.0010000000474974513,
				0.0,
				0.0,
				0.0,
				0.0,
				0.0010000001639127731,
				0.0,
				0.008975386619567871,
				0.7445204854011536,
				0.41755211353302,
				1.0
			],
			"name": "porte.001"
		},
		{
			"children": [
				13
			],
			"name": "doorpanel",
			"rotation": [
				0.0,
				-0.8191520571708679,
				0.0,
				0.5735764503479004
			],
			"translation": [
				-0.00897546112537384,
				0.25547951459884644,
				-0.91755211353302
			]
		}
	],
	"scene": 0,
	"scenes": [
		{
			"name": "Scene",
			"nodes": [
				9,
				14
			]
		}
	]
}