{
	"accessors": [
		{
			"bufferView": 6,
			"byteOffset": 0,
			"componentType": 5126,
			"count": 274,
			"max": [
				70.09651947021484,
				219.73214721679688,
				15.0
			],
			"min": [
				-69.90348052978516,
				-0.26785188913345337,
				-15.0
			],
			"type": "VEC3"
		},
		{
			"bufferView": 7,
			"byteOffset": 0,
			"componentType": 5126,
			"count": 274,
			"type": "VEC3"
		},
		{
			"bufferView": 8,
			"byteOffset": 0,
			"componentType": 5126,
			"count": 274,
			"type": "VEC2"
		},
		{
			"bufferView": 9,
			"byteOffset": 0,
			"componentType": 5123,
			"count": 672,
			"type": "SCALAR"
		},
		{
			"bufferView": 10,
			"byteOffset": 0,
			"componentType": 5126,
			"count": 306,
			"max": [
				12.205146789550781,
				121.9423828125,
				4.0
			],
			"min": [
				7.2051472663879395,
				116.9423828125,
				-4.0
			],
			"type": "VEC3"
		},
		{
			"bufferView": 11,
			"byteOffset": 0,
			"componentType": 5126,
			"count": 306,
			"type": "VEC3"
		},
		{
			"bufferView": 12,
			"byteOffset": 0,
			"componentType": 5126,
			"count": 306,
			"type": "VEC2"
		},
		{
			"bufferView": 13,
			"byteOffset": 0,
			"componentType": 5123,
			"count": 1044,
			"type": "SCALAR"
		},
		{
			"bufferView": 14,
			"byteOffset": 0,
			"componentType": 5126,
			"count": 306,
			"max": [
				12.205146789550781,
				141.9423828125,
				4.0
			],
			"min": [
				7.2051472663879395,
				136.9423828125,
				-4.0
			],
			"type": "VEC3"
		},
		{
			"bufferView": 15,
			"byteOffset": 0,
			"componentType": 5126,
			"count": 306,
			"type": "VEC3"
		},
		{
			"bufferView": 16,
			"byteOffset": 0,
			"componentType": 5126,
			"count": 306,
			"type": "VEC2"
		},
		{
			"bufferView": 17,
			"byteOffset": 0,
			"componentType": 5126,
			"count": 306,
			"max": [
				12.205146789550781,
				161.9423828125,
				4.0
			],
			"min": [
				7.2051472663879395,
				156.9423828125,
				-4.0
			],
			"type": "VEC3"
		},
		{
			"bufferView": 18,
			"byteOffset": 0,
			"componentType": 5126,
			"count": 306,
			"type": "VEC3"
		},
		{
			"bufferView": 19,
			"byteOffset": 0,
			"componentType": 5126,
			"count": 306,
			"type": "VEC2"
		},
		{
			"bufferView": 20,
			"byteOffset": 0,
			"componentType": 5126,
			"count": 306,
			"max": [
				12.205146789550781,
				181.9423828125,
				4.0
			],
			"min": [
				7.2051472663879395,
				176.9423828125,
				-4.0
			],
			"type": "VEC3"
		},
		{
			"bufferView": 21,
			"byteOffset": 0,
			"componentType": 5126,
			"count": 306,
			"type": "VEC3"
		},
		{
			"bufferView": 22,
			"byteOffset": 0,
			"componentType": 5126,
			"count": 306,
			"type": "VEC2"
		},
		{
			"bufferView": 23,
			"byteOffset": 0,
			"componentType": 5126,
			"count": 3254,
			"max": [
				49.941612243652344,
				199.4423828125,
				5.0
			],
			"min": [
				-10.058389663696289,
				-0.5576182007789612,
				-5.0
			],
			"type": "VEC3"
		},
		{
			"bufferView": 24,
			"byteOffset": 0,
			"componentType": 5126,
			"count": 3254,
			"type": "VEC3"
		},
		{
			"bufferView": 25,
			"byteOffset": 0,
			"componentType": 5126,
			"count": 3254,
			"type": "VEC2"
		},
		{
			"bufferView": 26,
			"byteOffset": 0,
			"componentType": 5123,
			"count": 14160,
			"type": "SCALAR"
		},
		{
			"bufferView": 27,
			"byteOffset": 0,
			"componentType": 5126,
			"count": 194,
			"max": [
				40.038734436035156,
				89.96541595458984,
				0.5
			],
			"min": [
				20.00684356689453,
				9.96086597442627,
				0.0
			],
			"type": "VEC3"
		},
		{
			"bufferView": 28,
			"byteOffset": 0,
			"componentType": 5126,
			"count": 194,
			"type": "VEC3"
		},
		{
			"bufferView": 29,
			"byteOffset": 0,
			"componentType": 5126,
			"count": 194,
			"type": "VEC2"
		},
		{
			"bufferView": 30,
			"byteOffset": 0,
			"componentType": 5123,
			"count": 624,
			"type": "SCALAR"
		},
		{
			"bufferView": 31,
			"byteOffset": 0,
			"componentType": 5126,
			"count": 194,
			"max": [
				39.99317169189453,
				189.9654083251953,
				0.5
			],
			"min": [
				19.96128273010254,
				109.96085357666016,
				-0.5
			],
			"type": "VEC3"
		},
		{
			"bufferView": 32,
			"byteOffset": 0,
			"componentType": 5126,
			"count": 194,
			"type": "VEC3"
		},
		{
			"bufferView": 33,
			"byteOffset": 0,
			"componentType": 5126,
			"count": 194,
			"type": "VEC2"
		},
		{
			"bufferView": 34,
			"byteOffset": 0,
			"componentType": 5123,
			"count": 624,
			"type": "SCALAR"
		},
		{
			"bufferView": 35,
			"byteOffset": 0,
			"componentType": 5126,
			"count": 306,
			"max": [
				-7.7948527336120605,
				21.942380905151367,
				4.0
			],
			"min": [
				-12.794853210449219,
				16.942380905151367,
				-4.0
			],
			"type": "VEC3"
		},
		{
			"bufferView": 36,
			"byteOffset": 0,
			"componentType": 5126,
			"count": 306,
			"type": "VEC3"
		},
		{
			"bufferView": 37,
			"byteOffset": 0,
			"componentType": 5126,
			"count": 306,
			"type": "VEC2"
		},
		{
			"bufferView": 38,
			"byteOffset": 0,
			"componentType": 5126,
			"count": 306,
			"max": [
				-7.7948527336120605,
				41.9423828125,
				4.0
			],
			"min": [
				-12.794853210449219,
				36.9423828125,
				-4.0
			],
			"type": "VEC3"
		},
		{
			"bufferView": 39,
			"byteOffset": 0,
			"componentType": 5126,
			"count": 306,
			"type": "VEC3"
		},
		{
			"bufferView": 40,
			"byteOffset": 0,
			"componentType": 5126,
			"count": 306,
			"type": "VEC2"
		},
		{
			"bufferView": 41,
			"byteOffset": 0,
			"componentType": 5126,
			"count": 306,
			"max": [
				-7.7948527336120605,
				61.9423828125,
				4.0
			],
			"min": [
				-12.794853210449219,
				56.9423828125,
				-4.0
			],
			"type": "VEC3"
		},
		{
			"bufferView": 42,
			"byteOffset": 0,
			"componentType": 5126,
			"count": 306,
			"type": "VEC3"
		},
		{
			"bufferView": 43,
			"byteOffset": 0,
			"componentType": 5126,
			"count": 306,
			"type": "VEC2"
		},
		{
			"bufferView": 44,
			"byteOffset": 0,
			"componentType": 5126,
			"count": 306,
			"max": [
				-7.7948527336120605,
				81.9423828125,
				4.0
			],
			"min": [
				-12.794853210449219,
				76.9423828125,
				-4.0
			],
			"type": "VEC3"
		},
		{
			"bufferView": 45,
			"byteOffset": 0,
			"componentType": 5126,
			"count": 306,
			"type": "VEC3"
		},
		{
			"bufferView": 46,
			"byteOffset": 0,
			"componentType": 5126,
			"count": 306,
			"type": "VEC2"
		},
		{
			"bufferView": 47,
			"byteOffset": 0,
			"componentType": 5126,
			"count": 3256,
			"max": [
				10.00428581237793,
				199.4423828125,
				5.0
			],
			"min": [
				-50.058387756347656,
				-0.5576182007789612,
				-5.0
			],
			"type": "VEC3"
		},
		{
			"bufferView": 48,
			"byteOffset": 0,
			"componentType": 5126,
			"count": 3256,
			"type": "VEC3"
		},
		{
			"bufferView": 49,
			"byteOffset": 0,
			"componentType": 5126,
			"count": 3256,
			"type": "VEC2"
		},
		{
			"bufferView": 50,
			"byteOffset": 0,
			"componentType": 5123,
			"count": 14172,
			"type": "SCALAR"
		},
		{
			"bufferView": 51,
			"byteOffset": 0,
			"componentType": 5126,
			"count": 194,
			"max": [
				-20.05838966369629,
				89.4423828125,
				0.5
			],
			"min": [
				-40.058387756347656,
				9.442381858825684,
				-0.5
			],
			"type": "VEC3"
		},
		{
			"bufferView": 52,
			"byteOffset": 0,
			"componentType": 5126,
			"count": 194,
			"type": "VEC3"
		},
		{
			"bufferView": 53,
			"byteOffset": 0,
			"componentType": 5126,
			"count": 194,
			"type": "VEC2"
		},
		{
			"bufferView": 54,
			"byteOffset": 0,
			"componentType": 5123,
			"count": 624,
			"type": "SCALAR"
		},
		{
			"bufferView": 55,
			"byteOffset": 0,
			"componentType": 5126,
			"count": 194,
			"max": [
				-20.05838966369629,
				189.4423828125,
				0.5
			],
			"min": [
				-40.058387756347656,
				109.4423828125,
				-0.5
			],
			"type": "VEC3"
		},
		{
			"bufferView": 56,
			"byteOffset": 0,
			"componentType": 5126,
			"count": 194,
			"type": "VEC3"
		},
		{
			"bufferView": 57,
			"byteOffset": 0,
			"componentType": 5126,
			"count": 194,
			"type": "VEC2"
		},
		{
			"bufferView": 58,
			"byteOffset": 0,
			"componentType": 5123,
			"count": 624,
			"type": "SCALAR"
		},
		{
			"bufferView": 59,
			"byteOffset": 0,
			"componentType": 5126,
			"count": 51,
			"max": [
				2.0
			],
			"min": [
				0.0
			],
			"type": "SCALAR"
		},
		{
			"bufferView": 60,
			"byteOffset": 0,
			"componentType": 5126,
			"count": 51,
			"type": "VEC3"
		},
		{
			"bufferView": 61,
			"byteOffset": 0,
			"componentType": 5126,
			"count": 51,
			"type": "VEC3"
		},
		{
			"bufferView": 62,
			"byteOffset": 0,
			"componentType": 5126,
			"count": 51,
			"type": "VEC3"
		},
		{
			"bufferView": 0,
			"byteOffset": 0,
			"componentType": 5126,
			"count": 50,
			"max": [
				2.0
			],
			"min": [
				0.0
			],
			"type": "SCALAR"
		},
		{
			"bufferView": 1,
			"byteOffset": 0,
			"componentType": 5126,
			"count": 50,
			"max": [
				0.6000000238418579,
				0.0,
				-0.0
			],
			"min": [
				0.0,
				0.0,
				-0.0
			],
			"normalized": false,
			"type": "VEC3"
		},
		{
			"bufferView": 2,
			"byteOffset": 0,
			"componentType": 5126,
			"count": 50,
			"max": [
				2.0
			],
			"min": [
				0.0
			],
			"type": "SCALAR"
		},
		{
			"bufferView": 3,
			"byteOffset": 0,
			"componentType": 5126,
			"count": 50,
			"max": [
				0.0,
				0.0,
				-0.0
			],
			"min": [
				-0.6000000238418579,
				0.0,
				-0.0
			],
			"normalized": false,
			"type": "VEC3"
		},
		{
			"bufferView": 4,
			"byteOffset": 0,
			"componentType": 5126,
			"count": 2,
			"max": [
				1.0
			],
			"min": [
				0.0
			],
			"normalized": false,
			"type": "SCALAR"
		},
		{
			"bufferView": 5,
			"byteOffset": 0,
			"componentType": 5126,
			"count": 2,
			"max": [
				0.6000000238418579,
				0.0,
				0.0
			],
			"min": [
				0.0,
				0.0,
				0.0
			],
			"normalized": false,
			"type": "VEC3"
		}
	],
	"animations": [
		{
			"channels": [
				{
					"sampler": 0,
					"target": {
						"node": 11,
						"path": "translation"
					}
				},
				{
					"sampler": 1,
					"target": {
						"node": 20,
						"path": "translation"
					}
				}
			],
			"name": "ouvrir",
			"samplers": [
				{
					"input": 57,
					"interpolation": "LINEAR",
					"output": 58
				},
				{
					"input": 59,
					"interpolation": "LINEAR",
					"output": 60
				}
			]
		},
		{
			"channels": [
				{
					"sampler": 0,
					"target": {
						"node": 11,
						"path": "translation"
					}
				},
				{
					"sampler": 1,
					"target": {
						"node": 20,
						"path": "translation"
					}
				}
			],
			"name": "fermer",
			"samplers": [
				{
					"input": 53,
					"interpolation": "LINEAR",
					"output": 54
				},
				{
					"input": 53,
					"interpolation": "LINEAR",
					"output": 55
				}
			]
		}
	],
	"asset": {
		"extras": {
			"created": "Tue Oct 25 13:12:59 2022"
		},
		"generator": "Gestaltor 2022.4.0 Pappardelle Professional",
		"version": "2.0"
	},
	"bufferViews": [
		{
			"buffer": 0,
			"byteLength": 200,
			"byteOffset": 0
		},
		{
			"buffer": 0,
			"byteLength": 600,
			"byteOffset": 200
		},
		{
			"buffer": 0,
			"byteLength": 200,
			"byteOffset": 800
		},
		{
			"buffer": 0,
			"byteLength": 600,
			"byteOffset": 1000
		},
		{
			"buffer": 0,
			"byteLength": 8,
			"byteOffset": 1600
		},
		{
			"buffer": 0,
			"byteLength": 24,
			"byteOffset": 1608
		},
		{
			"buffer": 1,
			"byteLength": 3288,
			"byteOffset": 0
		},
		{
			"buffer": 1,
			"byteLength": 3288,
			"byteOffset": 3288
		},
		{
			"buffer": 1,
			"byteLength": 2192,
			"byteOffset": 6576
		},
		{
			"buffer": 1,
			"byteLength": 1344,
			"byteOffset": 8768
		},
		{
			"buffer": 1,
			"byteLength": 3672,
			"byteOffset": 10112
		},
		{
			"buffer": 1,
			"byteLength": 3672,
			"byteOffset": 13784
		},
		{
			"buffer": 1,
			"byteLength": 2448,
			"byteOffset": 17456
		},
		{
			"buffer": 1,
			"byteLength": 2088,
			"byteOffset": 19904
		},
		{
			"buffer": 1,
			"byteLength": 3672,
			"byteOffset": 21992
		},
		{
			"buffer": 1,
			"byteLength": 3672,
			"byteOffset": 25664
		},
		{
			"buffer": 1,
			"byteLength": 2448,
			"byteOffset": 29336
		},
		{
			"buffer": 1,
			"byteLength": 3672,
			"byteOffset": 31784
		},
		{
			"buffer": 1,
			"byteLength": 3672,
			"byteOffset": 35456
		},
		{
			"buffer": 1,
			"byteLength": 2448,
			"byteOffset": 39128
		},
		{
			"buffer": 1,
			"byteLength": 3672,
			"byteOffset": 41576
		},
		{
			"buffer": 1,
			"byteLength": 3672,
			"byteOffset": 45248
		},
		{
			"buffer": 1,
			"byteLength": 2448,
			"byteOffset": 48920
		},
		{
			"buffer": 1,
			"byteLength": 39048,
			"byteOffset": 51368
		},
		{
			"buffer": 1,
			"byteLength": 39048,
			"byteOffset": 90416
		},
		{
			"buffer": 1,
			"byteLength": 26032,
			"byteOffset": 129464
		},
		{
			"buffer": 1,
			"byteLength": 28320,
			"byteOffset": 155496
		},
		{
			"buffer": 1,
			"byteLength": 2328,
			"byteOffset": 183816
		},
		{
			"buffer": 1,
			"byteLength": 2328,
			"byteOffset": 186144
		},
		{
			"buffer": 1,
			"byteLength": 1552,
			"byteOffset": 188472
		},
		{
			"buffer": 1,
			"byteLength": 1248,
			"byteOffset": 190024
		},
		{
			"buffer": 1,
			"byteLength": 2328,
			"byteOffset": 191272
		},
		{
			"buffer": 1,
			"byteLength": 2328,
			"byteOffset": 193600
		},
		{
			"buffer": 1,
			"byteLength": 1552,
			"byteOffset": 195928
		},
		{
			"buffer": 1,
			"byteLength": 1248,
			"byteOffset": 197480
		},
		{
			"buffer": 1,
			"byteLength": 3672,
			"byteOffset": 198728
		},
		{
			"buffer": 1,
			"byteLength": 3672,
			"byteOffset": 202400
		},
		{
			"buffer": 1,
			"byteLength": 2448,
			"byteOffset": 206072
		},
		{
			"buffer": 1,
			"byteLength": 3672,
			"byteOffset": 208520
		},
		{
			"buffer": 1,
			"byteLength": 3672,
			"byteOffset": 212192
		},
		{
			"buffer": 1,
			"byteLength": 2448,
			"byteOffset": 215864
		},
		{
			"buffer": 1,
			"byteLength": 3672,
			"byteOffset": 218312
		},
		{
			"buffer": 1,
			"byteLength": 3672,
			"byteOffset": 221984
		},
		{
			"buffer": 1,
			"byteLength": 2448,
			"byteOffset": 225656
		},
		{
			"buffer": 1,
			"byteLength": 3672,
			"byteOffset": 228104
		},
		{
			"buffer": 1,
			"byteLength": 3672,
			"byteOffset": 231776
		},
		{
			"buffer": 1,
			"byteLength": 2448,
			"byteOffset": 235448
		},
		{
			"buffer": 1,
			"byteLength": 39072,
			"byteOffset": 237896
		},
		{
			"buffer": 1,
			"byteLength": 39072,
			"byteOffset": 276968
		},
		{
			"buffer": 1,
			"byteLength": 26048,
			"byteOffset": 316040
		},
		{
			"buffer": 1,
			"byteLength": 28344,
			"byteOffset": 342088
		},
		{
			"buffer": 1,
			"byteLength": 2328,
			"byteOffset": 370432
		},
		{
			"buffer": 1,
			"byteLength": 2328,
			"byteOffset": 372760
		},
		{
			"buffer": 1,
			"byteLength": 1552,
			"byteOffset": 375088
		},
		{
			"buffer": 1,
			"byteLength": 1248,
			"byteOffset": 376640
		},
		{
			"buffer": 1,
			"byteLength": 2328,
			"byteOffset": 377888
		},
		{
			"buffer": 1,
			"byteLength": 2328,
			"byteOffset": 380216
		},
		{
			"buffer": 1,
			"byteLength": 1552,
			"byteOffset": 382544
		},
		{
			"buffer": 1,
			"byteLength": 1248,
			"byteOffset": 384096
		},
		{
			"buffer": 1,
			"byteLength": 204,
			"byteOffset": 385344
		},
		{
			"buffer": 1,
			"byteLength": 612,
			"byteOffset": 385548
		},
		{
			"buffer": 1,
			"byteLength": 612,
			"byteOffset": 386160
		},
		{
			"buffer": 1,
			"byteLength": 612,
			"byteOffset": 386772
		}
	],
	"buffers": [
		{
			"byteLength": 1632,
			"uri": "portem2c.bin"
		},
		{
			"byteLength": 387384,
			"uri": "data:application/octet-stream;base64,"
		}
	],
	"extensionsUsed": [
		"KHR_materials_emissive_strength"
	],
	"materials": [
		{
			"doubleSided": true,
			"name": "Aluminum - Anodized Glossy (Blue)",
			"pbrMetallicRoughness": {
				"baseColorFactor": [
					0.3490196168422699,
					0.5843137502670288,
					0.8549019694328308,
					1.0
				],
				"roughnessFactor": 0.5527864098548889
			}
		},
		{
			"doubleSided": true,
			"emissiveFactor": [
				0.0,
				1.0,
				0.0
			],
			"extensions": {
				"KHR_materials_emissive_strength": {
					"emissiveStrength": 100.0
				}
			},
			"name": "LED (Green)"
		},
		{
			"doubleSided": true,
			"emissiveFactor": [
				1.0,
				0.0,
				0.0
			],
			"extensions": {
				"KHR_materials_emissive_strength": {
					"emissiveStrength": 100.0
				}
			},
			"name": "LED (Red)"
		},
		{
			"doubleSided": true,
			"emissiveFactor": [
				0.0,
				0.0,
				1.0
			],
			"extensions": {
				"KHR_materials_emissive_strength": {
					"emissiveStrength": 100.0
				}
			},
			"name": "LED (Blue)",
			"pbrMetallicRoughness": {
				"baseColorFactor": [
					0.1882352977991104,
					0.23137255012989044,
					0.5882353186607361,
					1.0
				],
				"roughnessFactor": 0.5527864098548889
			}
		},
		{
			"doubleSided": true,
			"name": "Steel - Galvanized (Small)",
			"pbrMetallicRoughness": {
				"baseColorFactor": [
					0.0,
					0.0,
					0.0,
					1.0
				],
				"roughnessFactor": 0.5527864098548889
			}
		},
		{
			"alphaMode": "BLEND",
			"doubleSided": true,
			"name": "Glass - Window",
			"pbrMetallicRoughness": {
				"baseColorFactor": [
					0.42352941632270813,
					0.7686274647712708,
					0.8549019694328308,
					0.20000000298023224
				],
				"roughnessFactor": 0.5527864098548889
			}
		}
	],
	"meshes": [
		{
			"name": "Body1",
			"primitives": [
				{
					"attributes": {
						"NORMAL": 1,
						"POSITION": 0,
						"TEXCOORD_0": 2
					},
					"indices": 3,
					"material": 0,
					"mode": 4
				}
			]
		},
		{
			"name": "ld1",
			"primitives": [
				{
					"attributes": {
						"NORMAL": 5,
						"POSITION": 4,
						"TEXCOORD_0": 6
					},
					"indices": 7,
					"material": 1,
					"mode": 4
				}
			]
		},
		{
			"name": "ld2",
			"primitives": [
				{
					"attributes": {
						"NORMAL": 9,
						"POSITION": 8,
						"TEXCOORD_0": 10
					},
					"indices": 7,
					"material": 2,
					"mode": 4
				}
			]
		},
		{
			"name": "ld3",
			"primitives": [
				{
					"attributes": {
						"NORMAL": 12,
						"POSITION": 11,
						"TEXCOORD_0": 13
					},
					"indices": 7,
					"material": 3,
					"mode": 4
				}
			]
		},
		{
			"name": "ld4",
			"primitives": [
				{
					"attributes": {
						"NORMAL": 15,
						"POSITION": 14,
						"TEXCOORD_0": 16
					},
					"indices": 7,
					"material": 1,
					"mode": 4
				}
			]
		},
		{
			"name": "pd",
			"primitives": [
				{
					"attributes": {
						"NORMAL": 18,
						"POSITION": 17,
						"TEXCOORD_0": 19
					},
					"indices": 20,
					"material": 4,
					"mode": 4
				}
			]
		},
		{
			"name": "vdb",
			"primitives": [
				{
					"attributes": {
						"NORMAL": 22,
						"POSITION": 21,
						"TEXCOORD_0": 23
					},
					"indices": 24,
					"material": 5,
					"mode": 4
				}
			]
		},
		{
			"name": "vdh",
			"primitives": [
				{
					"attributes": {
						"NORMAL": 26,
						"POSITION": 25,
						"TEXCOORD_0": 27
					},
					"indices": 28,
					"material": 5,
					"mode": 4
				}
			]
		},
		{
			"name": "lg1",
			"primitives": [
				{
					"attributes": {
						"NORMAL": 30,
						"POSITION": 29,
						"TEXCOORD_0": 31
					},
					"indices": 7,
					"material": 1,
					"mode": 4
				}
			]
		},
		{
			"name": "lg2",
			"primitives": [
				{
					"attributes": {
						"NORMAL": 33,
						"POSITION": 32,
						"TEXCOORD_0": 34
					},
					"indices": 7,
					"material": 2,
					"mode": 4
				}
			]
		},
		{
			"name": "lg3",
			"primitives": [
				{
					"attributes": {
						"NORMAL": 36,
						"POSITION": 35,
						"TEXCOORD_0": 37
					},
					"indices": 7,
					"material": 3,
					"mode": 4
				}
			]
		},
		{
			"name": "lg4",
			"primitives": [
				{
					"attributes": {
						"NORMAL": 39,
						"POSITION": 38,
						"TEXCOORD_0": 40
					},
					"indices": 7,
					"material": 1,
					"mode": 4
				}
			]
		},
		{
			"name": "pg",
			"primitives": [
				{
					"attributes": {
						"NORMAL": 42,
						"POSITION": 41,
						"TEXCOORD_0": 43
					},
					"indices": 44,
					"material": 4,
					"mode": 4
				}
			]
		},
		{
			"name": "vgb",
			"primitives": [
				{
					"attributes": {
						"NORMAL": 46,
						"POSITION": 45,
						"TEXCOORD_0": 47
					},
					"indices": 48,
					"material": 5,
					"mode": 4
				}
			]
		},
		{
			"name": "vgh",
			"primitives": [
				{
					"attributes": {
						"NORMAL": 50,
						"POSITION": 49,
						"TEXCOORD_0": 51
					},
					"indices": 52,
					"material": 5,
					"mode": 4
				}
			]
		}
	],
	"nodes": [
		{
			"mesh": 0,
			"name": "Body1",
			"scale": [
				0.009999999776482582,
				0.009999999776482582,
				0.009999999776482582
			]
		},
		{
			"children": [
				0
			],
			"name": "Cadre"
		},
		{
			"children": [
				1
			],
			"name": "Cadre:1"
		},
		{
			"mesh": 1,
			"name": "ld1",
			"scale": [
				0.009999999776482582,
				0.009999999776482582,
				0.009999999776482582
			]
		},
		{
			"mesh": 2,
			"name": "ld2",
			"scale": [
				0.009999999776482582,
				0.009999999776482582,
				0.009999999776482582
			]
		},
		{
			"mesh": 3,
			"name": "ld3",
			"scale": [
				0.009999999776482582,
				0.009999999776482582,
				0.009999999776482582
			]
		},
		{
			"mesh": 4,
			"name": "ld4",
			"scale": [
				0.009999999776482582,
				0.009999999776482582,
				0.009999999776482582
			]
		},
		{
			"mesh": 5,
			"name": "pd",
			"scale": [
				0.009999999776482582,
				0.009999999776482582,
				0.009999999776482582
			]
		},
		{
			"mesh": 6,
			"name": "vdb",
			"scale": [
				0.009999999776482582,
				0.009999999776482582,
				0.009999999776482582
			]
		},
		{
			"mesh": 7,
			"name": "vdh",
			"scale": [
				0.009999999776482582,
				0.009999999776482582,
				0.009999999776482582
			]
		},
		{
			"children": [
				3,
				4,
				5,
				6,
				7,
				8,
				9
			],
			"name": "Porte droite"
		},
		{
			"children": [
				10
			],
			"name": "Porte droite:1",
			"translation": [
				0.0,
				0.0,
				0.0
			]
		},
		{
			"mesh": 8,
			"name": "lg1",
			"scale": [
				0.009999999776482582,
				0.009999999776482582,
				0.009999999776482582
			]
		},
		{
			"mesh": 9,
			"name": "lg2",
			"scale": [
				0.009999999776482582,
				0.009999999776482582,
				0.009999999776482582
			]
		},
		{
			"mesh": 10,
			"name": "lg3",
			"scale": [
				0.009999999776482582,
				0.009999999776482582,
				0.009999999776482582
			]
		},
		{
			"mesh": 11,
			"name": "lg4",
			"scale": [
				0.009999999776482582,
				0.009999999776482582,
				0.009999999776482582
			]
		},
		{
			"mesh": 12,
			"name": "pg",
			"scale": [
				0.009999999776482582,
				0.009999999776482582,
				0.009999999776482582
			]
		},
		{
			"mesh": 13,
			"name": "vgb",
			"scale": [
				0.009999999776482582,
				0.009999999776482582,
				0.009999999776482582
			]
		},
		{
			"mesh": 14,
			"name": "vgh",
			"scale": [
				0.009999999776482582,
				0.009999999776482582,
				0.009999999776482582
			]
		},
		{
			"children": [
				12,
				13,
				14,
				15,
				16,
				17,
				18
			],
			"name": "Porte gauche",
			"translation": [
				0.0,
				0.0,
				0.0
			]
		},
		{
			"children": [
				19
			],
			"name": "Porte gauche:1",
			"translation": [
				0.0,
				0.0,
				0.0
			]
		},
		{
			"children": [
				2,
				11,
				20
			],
			"name": "portem v1",
			"rotation": [
				0.0,
				-0.7071068286895752,
				0.0,
				0.7071067094802856
			]
		}
	],
	"scene": 0,
	"scenes": [
		{
			"name": "Scene",
			"nodes": [
				21
			]
		}
	]
}